<svg xmlns="http://www.w3.org/2000/svg" xmlns:xlink="http://www.w3.org/1999/xlink" width="33.274mm" height="29.718mm" viewBox="-9 -108 131 117"><title></title><style type="text/css">
*[layerid="1"] {stroke:#000000;fill:#000000;}
*[layerid="2"] {stroke:#000000;fill:#000000;}
*[layerid="3"] {stroke:#000000;fill:#000000;}
*[layerid="4"] {stroke:#000000;fill:#000000;}
*[layerid="5"] {stroke:#000000;fill:#000000;}
*[layerid="6"] {stroke:#000000;fill:#000000;}
*[layerid="7"] {stroke:#000000;fill:#000000;}
*[layerid="8"] {stroke:#000000;fill:#000000;}
*[layerid="9"] {stroke:#000000;fill:#000000;}
*[layerid="10"] {stroke:#000000;fill:#000000;}
*[layerid="11"] {stroke:#000000;fill:#000000;}
*[layerid="12"] {stroke:#000000;fill:#000000;}
*[layerid="13"] {stroke:#000000;fill:#000000;}
*[layerid="14"] {stroke:#000000;fill:#000000;}
*[layerid="15"] {stroke:#000000;fill:#000000;}
*[layerid="19"] {stroke:#000000;fill:#000000;}
*[layerid="21"] {stroke:#000000;fill:#000000;}
*[layerid="22"] {stroke:#000000;fill:#000000;}
*[layerid="23"] {stroke:#000000;fill:#000000;}
*[layerid="24"] {stroke:#000000;fill:#000000;}
*[layerid="25"] {stroke:#000000;fill:#000000;}
*[layerid="26"] {stroke:#000000;fill:#000000;}
*[layerid="27"] {stroke:#000000;fill:#000000;}
*[layerid="28"] {stroke:#000000;fill:#000000;}
*[layerid="29"] {stroke:#000000;fill:#000000;}
*[layerid="30"] {stroke:#000000;fill:#000000;}
*[layerid="31"] {stroke:#000000;fill:#000000;}
*[layerid="32"] {stroke:#000000;fill:#000000;}
*[layerid="33"] {stroke:#000000;fill:#000000;}
*[layerid="34"] {stroke:#000000;fill:#000000;}
*[layerid="35"] {stroke:#000000;fill:#000000;}
*[layerid="36"] {stroke:#000000;fill:#000000;}
*[layerid="37"] {stroke:#000000;fill:#000000;}
*[layerid="38"] {stroke:#000000;fill:#000000;}
*[layerid="39"] {stroke:#000000;fill:#000000;}
*[layerid="40"] {stroke:#000000;fill:#000000;}
*[layerid="41"] {stroke:#000000;fill:#000000;}
*[layerid="42"] {stroke:#000000;fill:#000000;}
*[layerid="43"] {stroke:#000000;fill:#000000;}
*[layerid="44"] {stroke:#000000;fill:#000000;}
*[layerid="45"] {stroke:#000000;fill:#000000;}
*[layerid="46"] {stroke:#000000;fill:#000000;}
*[layerid="47"] {stroke:#000000;fill:#000000;}
*[layerid="48"] {stroke:#000000;fill:#000000;}
*[layerid="49"] {stroke:#000000;fill:#000000;}
*[layerid="50"] {stroke:#000000;fill:#000000;}
*[layerid="51"] {stroke:#000000;fill:#000000;}
*[layerid="52"] {stroke:#000000;fill:#000000;}
*[layerid="99"] {stroke:#000000;fill:#000000;}
*[layerid="100"] {stroke:#000000;fill:#000000;}
*[layerid="101"] {stroke:#000000;fill:#000000;}
*[layerid="Hole"] {stroke:#000000;fill:#000000;}
*[layerid="DRCError"] {stroke:#000000;fill:#000000;}
*[fill="none"] {fill: none;}
*[stroke="none"] {stroke: none;}
path, polyline, polygon, line {stroke-linecap:round;}
g[c_partid="part_pad"][layerid="1"] ellipse:not([c_etype="pad_outer"]) {fill:#000000;}
g[c_partid="part_pad"][layerid="1"] polygon:not([c_etype="pad_outer"]) {fill:#000000;}
g[c_partid="part_pad"][layerid="1"] polyline:not([c_etype="pad_outer"]) {stroke:#000000;}
g[c_partid="part_pad"][layerid="2"] ellipse:not([c_etype="pad_outer"]) {fill:#000000;}
g[c_partid="part_pad"][layerid="2"] polygon:not([c_etype="pad_outer"]) {fill:#000000;}
g[c_partid="part_pad"][layerid="2"] polyline:not([c_etype="pad_outer"]) {stroke:#000000;}
g[c_partid="part_pad"][layerid="11"] ellipse:not([c_etype="pad_outer"]) {fill:#000000;}
g[c_partid="part_pad"][layerid="11"] polygon:not([c_etype="pad_outer"]) {fill:#000000;}
g[c_partid="part_pad"][layerid="11"] polyline:not([c_etype="pad_outer"]) {stroke:#000000;}
g[c_partid="part_pad"][layerid="11"] circle {fill:#FFFFFF;}
g[c_partid="part_pad"][layerid="11"] > polyline:nth-of-type(2) {stroke:#FFFFFF;}
g[c_partid="part_pad"][layerid="11"][c_shape="ELLIPSE"]  polyline:nth-last-of-type(1) {stroke:#FFFFFF;}
g[c_partid="part_pad"][layerid="11"][c_shape="RECT"]  polyline:nth-last-of-type(1) {stroke:#FFFFFF;}
g[c_partid="part_pad"][layerid="11"][c_shape="POLYGON"]  polyline:nth-last-of-type(1) {stroke:#FFFFFF;}
g[c_partid="part_via"] > * + circle, #gCurParts g[c_partid="part_via"] > * + circle {fill:#FFFFFF;}
g[c_partid="part_pad"] > polygon[c_etype="pad_outer"], #gCurParts g[c_partid="part_pad"] > polygon[c_etype="pad_outer"] {stroke-linejoin: round;stroke-miterlimit: 100;}
g[c_partid="part_hole"] > circle {fill: #FFFFFF;}path, polyline, polygon {stroke-linejoin:round;}
rect, circle, ellipse, polyline, line, polygon, path {shape-rendering:crispEdges;}
</style>
<rect x="-9" y="-108" width="131" height="117" fill="#FFFFFF" stroke="none"/><polyline points="85 -35 85 -40 80 -45 65 -45 55 -45" stroke-width="5"  stroke-linecap="round" fill="none" layerid="2" net="IN" id="gge211" locked="0" /><polyline points="15 -20.1 30.1 -20.1 35 -25 35 -45 30 -50 30 -60 35 -65 45 -65" stroke-width="5"  stroke-linecap="round" fill="none" layerid="2" net="N$2" id="gge226" locked="0" /><polyline points="15 -39.9 15 -55" stroke-width="5"  stroke-linecap="round" fill="none" layerid="2" net="N$1" id="gge223" locked="0" /><polyline points="75 -15 55 -15" stroke-width="5"  stroke-linecap="round" fill="none" layerid="2" net="V+" id="gge220" locked="0" /><polyline points="75 -55 90 -55 95 -50 95 -20 90 -15 85 -15" stroke-width="5"  stroke-linecap="round" fill="none" layerid="2" net="GND" id="gge217" locked="0" /><polyline points="75 -65 70 -65 65 -60 65 -45" stroke-width="5"  stroke-linecap="round" fill="none" layerid="2" net="IN" id="gge214" locked="0" /><polyline points="45 -75 25 -75 15 -85" stroke-width="5"  stroke-linecap="round" fill="none" layerid="2" net="N$6" id="gge208" locked="0" /><g c_partid="part_pcbtext" c_etype="" c_origin="95,-83" c_rotation="360" c_mirror="1" id="rep6" locked="0" layerid="2" c_shapetype="group" ><path c_fontsize="4" c_fontfamily="" c_text="Solintec SRL" d="M 92.4545 -86.4909 L 92.8182 -86.8545 L 93.3636 -87.0364 L 94.0909 -87.0364 L 94.6364 -86.8545 L 95 -86.4909 L 95 -86.1273 L 94.8182 -85.7636 L 94.6364 -85.5818 L 94.2727 -85.4 L 93.1818 -85.0364 L 92.8182 -84.8545 L 92.6364 -84.6727 L 92.4545 -84.3091 L 92.4545 -83.7636 L 92.8182 -83.4 L 93.3636 -83.2182 L 94.0909 -83.2182 L 94.6364 -83.4 L 95 -83.7636 M 90.3455 -85.7636 L 90.7091 -85.5818 L 91.0727 -85.2182 L 91.2545 -84.6727 L 91.2545 -84.3091 L 91.0727 -83.7636 L 90.7091 -83.4 L 90.3455 -83.2182 L 89.8 -83.2182 L 89.4364 -83.4 L 89.0727 -83.7636 L 88.8909 -84.3091 L 88.8909 -84.6727 L 89.0727 -85.2182 L 89.4364 -85.5818 L 89.8 -85.7636 L 90.3455 -85.7636 M 87.6909 -87.0364 L 87.6909 -83.2182 M 86.4909 -87.0364 L 86.3091 -86.8545 L 86.1273 -87.0364 L 86.3091 -87.2182 L 86.4909 -87.0364 M 86.3091 -85.7636 L 86.3091 -83.2182 M 84.9273 -85.7636 L 84.9273 -83.2182 M 84.9273 -85.0364 L 84.3818 -85.5818 L 84.0182 -85.7636 L 83.4727 -85.7636 L 83.1091 -85.5818 L 82.9273 -85.0364 L 82.9273 -83.2182 M 81.1818 -87.0364 L 81.1818 -83.9455 L 81 -83.4 L 80.6364 -83.2182 L 80.2727 -83.2182 M 81.7273 -85.7636 L 80.4545 -85.7636 M 79.0727 -84.6727 L 76.8909 -84.6727 L 76.8909 -85.0364 L 77.0727 -85.4 L 77.2545 -85.5818 L 77.6182 -85.7636 L 78.1636 -85.7636 L 78.5273 -85.5818 L 78.8909 -85.2182 L 79.0727 -84.6727 L 79.0727 -84.3091 L 78.8909 -83.7636 L 78.5273 -83.4 L 78.1636 -83.2182 L 77.6182 -83.2182 L 77.2545 -83.4 L 76.8909 -83.7636 M 73.5091 -85.2182 L 73.8727 -85.5818 L 74.2364 -85.7636 L 74.7818 -85.7636 L 75.1455 -85.5818 L 75.5091 -85.2182 L 75.6909 -84.6727 L 75.6909 -84.3091 L 75.5091 -83.7636 L 75.1455 -83.4 L 74.7818 -83.2182 L 74.2364 -83.2182 L 73.8727 -83.4 L 73.5091 -83.7636 M 66.9636 -86.4909 L 67.3273 -86.8545 L 67.8727 -87.0364 L 68.6 -87.0364 L 69.1455 -86.8545 L 69.5091 -86.4909 L 69.5091 -86.1273 L 69.3273 -85.7636 L 69.1455 -85.5818 L 68.7818 -85.4 L 67.6909 -85.0364 L 67.3273 -84.8545 L 67.1455 -84.6727 L 66.9636 -84.3091 L 66.9636 -83.7636 L 67.3273 -83.4 L 67.8727 -83.2182 L 68.6 -83.2182 L 69.1455 -83.4 L 69.5091 -83.7636 M 65.7636 -87.0364 L 65.7636 -83.2182 M 65.7636 -87.0364 L 64.1273 -87.0364 L 63.5818 -86.8545 L 63.4 -86.6727 L 63.2182 -86.3091 L 63.2182 -85.9455 L 63.4 -85.5818 L 63.5818 -85.4 L 64.1273 -85.2182 L 65.7636 -85.2182 M 64.4909 -85.2182 L 63.2182 -83.2182 M 62.0182 -87.0364 L 62.0182 -83.2182 M 62.0182 -83.2182 L 59.8364 -83.2182" fill="none"  stroke-width="0.7874"  /></g><g c_partid="part_pad" c_etype="pinpart" c_origin="45,-75" layerid="11" number="1" net="N$6" plated ="Y"  id="rep15" locked="0" c_rotation="180" c_width="11.811" c_height="7.874" title="N$6" c_shape="OVAL" pasteexpansion="0" solderexpansion="0.2"><polyline  c_etype="pad_shell" points="46.9685 -75 43.0315 -75" layerid="11" stroke-width="7.874" /><polyline c_etype="pad_hole" points="45.01 -75 44.99 -75" layerid="11" stroke-width="3.937"></polyline></g><g c_partid="part_pad" c_etype="pinpart" c_origin="45,-65" layerid="11" number="2" net="N$2" plated ="Y"  id="rep16" locked="0" c_rotation="180" c_width="11.811" c_height="7.874" title="N$2" c_shape="OVAL" pasteexpansion="0" solderexpansion="0.2"><polyline  c_etype="pad_shell" points="46.9685 -65 43.0315 -65" layerid="11" stroke-width="7.874" /><polyline c_etype="pad_hole" points="45.01 -65 44.99 -65" layerid="11" stroke-width="3.937"></polyline></g><g c_partid="part_pad" c_etype="pinpart" c_origin="75,-65" layerid="11" number="5" net="IN" plated ="Y"  id="rep17" locked="0" c_rotation="0" c_width="11.811" c_height="7.874" title="IN" c_shape="OVAL" pasteexpansion="0" solderexpansion="0.2"><polyline  c_etype="pad_shell" points="73.0315 -65 76.9685 -65" layerid="11" stroke-width="7.874" /><polyline c_etype="pad_hole" points="74.99 -65 75.01 -65" layerid="11" stroke-width="3.937"></polyline></g><g c_partid="part_pad" c_etype="pinpart" c_origin="75,-75" layerid="11" number="6" net="" plated ="Y"  id="rep18" locked="0" c_rotation="0" c_width="11.811" c_height="7.874" title="" c_shape="OVAL" pasteexpansion="0" solderexpansion="0.2"><polyline  c_etype="pad_shell" points="73.0315 -75 76.9685 -75" layerid="11" stroke-width="7.874" /><polyline c_etype="pad_hole" points="74.99 -75 75.01 -75" layerid="11" stroke-width="3.937"></polyline></g><g c_partid="part_pad" c_etype="pinpart" c_origin="45,-55" layerid="11" number="3" net="" plated ="Y"  id="rep19" locked="0" c_rotation="180" c_width="11.811" c_height="7.874" title="" c_shape="OVAL" pasteexpansion="0" solderexpansion="0.2"><polyline  c_etype="pad_shell" points="46.9685 -55 43.0315 -55" layerid="11" stroke-width="7.874" /><polyline c_etype="pad_hole" points="45.01 -55 44.99 -55" layerid="11" stroke-width="3.937"></polyline></g><g c_partid="part_pad" c_etype="pinpart" c_origin="75,-55" layerid="11" number="4" net="GND" plated ="Y"  id="rep20" locked="0" c_rotation="0" c_width="11.811" c_height="7.874" title="GND" c_shape="OVAL" pasteexpansion="0" solderexpansion="0.2"><polyline  c_etype="pad_shell" points="73.0315 -55 76.9685 -55" layerid="11" stroke-width="7.874" /><polyline c_etype="pad_hole" points="74.99 -55 75.01 -55" layerid="11" stroke-width="3.937"></polyline></g><g c_partid="part_pad" c_etype="pinpart" c_origin="15,-39.9" layerid="11" number="1" net="N$1" plated ="Y"  id="rep51" locked="0" c_rotation="0" c_width="15.6" c_height="7.874" title="N$1" c_shape="OVAL" pasteexpansion="0" solderexpansion="0.2"><polyline  c_etype="pad_shell" points="11.137 -39.9 18.863 -39.9" layerid="11" stroke-width="7.874" /><polyline c_etype="pad_hole" points="14.99 -39.9 15.01 -39.9" layerid="11" stroke-width="5.2"></polyline></g><g c_partid="part_pad" c_etype="pinpart" c_origin="15,-20.1" layerid="11" number="2" net="N$2" plated ="Y"  id="rep52" locked="0" c_rotation="0" c_width="15.6" c_height="7.874" title="N$2" c_shape="OVAL" pasteexpansion="0" solderexpansion="0.2"><polyline  c_etype="pad_shell" points="11.137 -20.1 18.863 -20.1" layerid="11" stroke-width="7.874" /><polyline c_etype="pad_hole" points="14.99 -20.1 15.01 -20.1" layerid="11" stroke-width="5.2"></polyline></g><g c_partid="part_pad" c_etype="pinpart" c_origin="75,-35" layerid="11" number="1" net="" plated ="Y"  id="rep81" locked="0" c_rotation="270" c_width="7.874" c_height="7.874" title="" c_shape="OVAL" pasteexpansion="0" solderexpansion="0.2"><polyline  c_etype="pad_shell" points="75 -35 75 -35" layerid="11" stroke-width="7.874" /><polyline c_etype="pad_hole" points="75 -35.01 75 -34.99" layerid="11" stroke-width="4"></polyline></g><g c_partid="part_pad" c_etype="pinpart" c_origin="85,-35" layerid="11" number="2" net="IN" plated ="Y"  id="rep82" locked="0" c_rotation="270" c_width="7.874" c_height="7.874" title="IN" c_shape="OVAL" pasteexpansion="0" solderexpansion="0.2"><polyline  c_etype="pad_shell" points="85 -35 85 -35" layerid="11" stroke-width="7.874" /><polyline c_etype="pad_hole" points="85 -35.01 85 -34.99" layerid="11" stroke-width="4"></polyline></g><g c_partid="part_pad" c_etype="pinpart" c_origin="75,-25" layerid="11" number="3" net="" plated ="Y"  id="rep83" locked="0" c_rotation="270" c_width="7.874" c_height="7.874" title="" c_shape="OVAL" pasteexpansion="0" solderexpansion="0.2"><polyline  c_etype="pad_shell" points="75 -25 75 -25" layerid="11" stroke-width="7.874" /><polyline c_etype="pad_hole" points="75 -25.01 75 -24.99" layerid="11" stroke-width="4"></polyline></g><g c_partid="part_pad" c_etype="pinpart" c_origin="85,-25" layerid="11" number="4" net="" plated ="Y"  id="rep84" locked="0" c_rotation="270" c_width="7.874" c_height="7.874" title="" c_shape="OVAL" pasteexpansion="0" solderexpansion="0.2"><polyline  c_etype="pad_shell" points="85 -25 85 -25" layerid="11" stroke-width="7.874" /><polyline c_etype="pad_hole" points="85 -25.01 85 -24.99" layerid="11" stroke-width="4"></polyline></g><g c_partid="part_pad" c_etype="pinpart" c_origin="75,-15" layerid="11" number="5" net="V+" plated ="Y"  id="rep85" locked="0" c_rotation="270" c_width="7.874" c_height="7.874" title="V+" c_shape="OVAL" pasteexpansion="0" solderexpansion="0.2"><polyline  c_etype="pad_shell" points="75 -15 75 -15" layerid="11" stroke-width="7.874" /><polyline c_etype="pad_hole" points="75 -15.01 75 -14.99" layerid="11" stroke-width="4"></polyline></g><g c_partid="part_pad" c_etype="pinpart" c_origin="85,-15" layerid="11" number="6" net="GND" plated ="Y"  id="rep86" locked="0" c_rotation="270" c_width="7.874" c_height="7.874" title="GND" c_shape="OVAL" pasteexpansion="0" solderexpansion="0.2"><polyline  c_etype="pad_shell" points="85 -15 85 -15" layerid="11" stroke-width="7.874" /><polyline c_etype="pad_hole" points="85 -15.01 85 -14.99" layerid="11" stroke-width="4"></polyline></g><g c_partid="part_pad" c_etype="pinpart" c_origin="15,-55" layerid="11" number="1" net="N$1" plated ="Y"  id="rep115" locked="0" c_rotation="90" c_width="7.874" c_height="7.874" title="N$1" c_shape="OVAL" pasteexpansion="0" solderexpansion="0.2"><polyline  c_etype="pad_shell" points="15 -55 15 -55" layerid="11" stroke-width="7.874" /><polyline c_etype="pad_hole" points="15 -54.99 15 -55.01" layerid="11" stroke-width="3.2"></polyline></g><g c_partid="part_pad" c_etype="pinpart" c_origin="15,-85" layerid="11" number="2" net="N$6" plated ="Y"  id="rep116" locked="0" c_rotation="90" c_width="7.874" c_height="7.874" title="N$6" c_shape="OVAL" pasteexpansion="0" solderexpansion="0.2"><polyline  c_etype="pad_shell" points="15 -85 15 -85" layerid="11" stroke-width="7.874" /><polyline c_etype="pad_hole" points="15 -84.99 15 -85.01" layerid="11" stroke-width="3.2"></polyline></g><g c_partid="part_pad" c_etype="pinpart" c_origin="55,-45" layerid="11" number="1" net="IN" plated ="Y"  id="rep140" locked="0" c_rotation="270" c_width="7.874" c_height="7.874" title="IN" c_shape="OVAL" pasteexpansion="0" solderexpansion="0.2"><polyline  c_etype="pad_shell" points="55 -45 55 -45" layerid="11" stroke-width="7.874" /><polyline c_etype="pad_hole" points="55 -45.01 55 -44.99" layerid="11" stroke-width="3.2"></polyline></g><g c_partid="part_pad" c_etype="pinpart" c_origin="55,-15" layerid="11" number="2" net="V+" plated ="Y"  id="rep141" locked="0" c_rotation="270" c_width="7.874" c_height="7.874" title="V+" c_shape="OVAL" pasteexpansion="0" solderexpansion="0.2"><polyline  c_etype="pad_shell" points="55 -15 55 -15" layerid="11" stroke-width="7.874" /><polyline c_etype="pad_hole" points="55 -15.01 55 -14.99" layerid="11" stroke-width="3.2"></polyline></g><polyline points="1 -98 112 -98 112 -1 1 -1 1 -98" stroke-width="1"  stroke-linecap="round" fill="none" layerid="10" net="" id="gge205" locked="0" /></svg>