<svg xmlns="http://www.w3.org/2000/svg" xmlns:xlink="http://www.w3.org/1999/xlink" width="35.814mm" height="33.528mm" viewBox="-13 -118 141 132"><title></title><style type="text/css">
*[layerid="1"] {stroke:#000000;fill:#000000;}
*[layerid="2"] {stroke:#000000;fill:#000000;}
*[layerid="3"] {stroke:#000000;fill:#000000;}
*[layerid="4"] {stroke:#000000;fill:#000000;}
*[layerid="5"] {stroke:#000000;fill:#000000;}
*[layerid="6"] {stroke:#000000;fill:#000000;}
*[layerid="7"] {stroke:#000000;fill:#000000;}
*[layerid="8"] {stroke:#000000;fill:#000000;}
*[layerid="9"] {stroke:#000000;fill:#000000;}
*[layerid="10"] {stroke:#000000;fill:#000000;}
*[layerid="11"] {stroke:#000000;fill:#000000;}
*[layerid="12"] {stroke:#000000;fill:#000000;}
*[layerid="13"] {stroke:#000000;fill:#000000;}
*[layerid="14"] {stroke:#000000;fill:#000000;}
*[layerid="15"] {stroke:#000000;fill:#000000;}
*[layerid="19"] {stroke:#000000;fill:#000000;}
*[layerid="21"] {stroke:#000000;fill:#000000;}
*[layerid="22"] {stroke:#000000;fill:#000000;}
*[layerid="23"] {stroke:#000000;fill:#000000;}
*[layerid="24"] {stroke:#000000;fill:#000000;}
*[layerid="25"] {stroke:#000000;fill:#000000;}
*[layerid="26"] {stroke:#000000;fill:#000000;}
*[layerid="27"] {stroke:#000000;fill:#000000;}
*[layerid="28"] {stroke:#000000;fill:#000000;}
*[layerid="29"] {stroke:#000000;fill:#000000;}
*[layerid="30"] {stroke:#000000;fill:#000000;}
*[layerid="31"] {stroke:#000000;fill:#000000;}
*[layerid="32"] {stroke:#000000;fill:#000000;}
*[layerid="33"] {stroke:#000000;fill:#000000;}
*[layerid="34"] {stroke:#000000;fill:#000000;}
*[layerid="35"] {stroke:#000000;fill:#000000;}
*[layerid="36"] {stroke:#000000;fill:#000000;}
*[layerid="37"] {stroke:#000000;fill:#000000;}
*[layerid="38"] {stroke:#000000;fill:#000000;}
*[layerid="39"] {stroke:#000000;fill:#000000;}
*[layerid="40"] {stroke:#000000;fill:#000000;}
*[layerid="41"] {stroke:#000000;fill:#000000;}
*[layerid="42"] {stroke:#000000;fill:#000000;}
*[layerid="43"] {stroke:#000000;fill:#000000;}
*[layerid="44"] {stroke:#000000;fill:#000000;}
*[layerid="45"] {stroke:#000000;fill:#000000;}
*[layerid="46"] {stroke:#000000;fill:#000000;}
*[layerid="47"] {stroke:#000000;fill:#000000;}
*[layerid="48"] {stroke:#000000;fill:#000000;}
*[layerid="49"] {stroke:#000000;fill:#000000;}
*[layerid="50"] {stroke:#000000;fill:#000000;}
*[layerid="51"] {stroke:#000000;fill:#000000;}
*[layerid="52"] {stroke:#000000;fill:#000000;}
*[layerid="99"] {stroke:#000000;fill:#000000;}
*[layerid="100"] {stroke:#000000;fill:#000000;}
*[layerid="101"] {stroke:#000000;fill:#000000;}
*[layerid="Hole"] {stroke:#000000;fill:#000000;}
*[layerid="DRCError"] {stroke:#000000;fill:#000000;}
*[fill="none"] {fill: none;}
*[stroke="none"] {stroke: none;}
path, polyline, polygon, line {stroke-linecap:round;}
g[c_partid="part_pad"][layerid="1"] ellipse:not([c_etype="pad_outer"]) {fill:#000000;}
g[c_partid="part_pad"][layerid="1"] polygon:not([c_etype="pad_outer"]) {fill:#000000;}
g[c_partid="part_pad"][layerid="1"] polyline:not([c_etype="pad_outer"]) {stroke:#000000;}
g[c_partid="part_pad"][layerid="2"] ellipse:not([c_etype="pad_outer"]) {fill:#000000;}
g[c_partid="part_pad"][layerid="2"] polygon:not([c_etype="pad_outer"]) {fill:#000000;}
g[c_partid="part_pad"][layerid="2"] polyline:not([c_etype="pad_outer"]) {stroke:#000000;}
g[c_partid="part_pad"][layerid="11"] ellipse:not([c_etype="pad_outer"]) {fill:#000000;}
g[c_partid="part_pad"][layerid="11"] polygon:not([c_etype="pad_outer"]) {fill:#000000;}
g[c_partid="part_pad"][layerid="11"] polyline:not([c_etype="pad_outer"]) {stroke:#000000;}
g[c_partid="part_pad"][layerid="11"] circle {fill:#FFFFFF;}
g[c_partid="part_pad"][layerid="11"] > polyline:nth-of-type(2) {stroke:#FFFFFF;}
g[c_partid="part_pad"][layerid="11"][c_shape="ELLIPSE"]  polyline:nth-last-of-type(1) {stroke:#FFFFFF;}
g[c_partid="part_pad"][layerid="11"][c_shape="RECT"]  polyline:nth-last-of-type(1) {stroke:#FFFFFF;}
g[c_partid="part_pad"][layerid="11"][c_shape="POLYGON"]  polyline:nth-last-of-type(1) {stroke:#FFFFFF;}
g[c_partid="part_via"] > * + circle, #gCurParts g[c_partid="part_via"] > * + circle {fill:#FFFFFF;}
g[c_partid="part_pad"] > polygon[c_etype="pad_outer"], #gCurParts g[c_partid="part_pad"] > polygon[c_etype="pad_outer"] {stroke-linejoin: round;stroke-miterlimit: 100;}
g[c_partid="part_hole"] > circle {fill: #FFFFFF;}path, polyline, polygon {stroke-linejoin:round;}
rect, circle, ellipse, polyline, line, polygon, path {shape-rendering:crispEdges;}
</style>
<rect x="-13" y="-118" width="141" height="132" fill="#FFFFFF" stroke="none"/><path d="M 2.42 -2.02 L 2.26693 -2.05045 2.13716 -2.13716 2.05045 -2.26693 2.02 -2.42 2.02 -96.58 2.05045 -96.73307 2.13716 -96.86284 2.26693 -96.94955 2.42 -96.98 110.58 -96.98 110.73307 -96.94955 110.86284 -96.86284 110.94955 -96.73307 110.98 -96.58 110.98 -2.42 110.94955 -2.26693 110.86284 -2.13716 110.73307 -2.05045 110.58 -2.02 2.42 -2.02 Z M 55 -9.07563 L 55.66332 -9.11288 56.3183 -9.22417 56.9567 -9.40809 57.57049 -9.66233 58.15195 -9.98369 58.69378 -10.36814 58.8648 -10.4857 59.00745 -10.512 70.99255 -10.512 71.1352 -10.4857 71.30622 -10.36814 71.84805 -9.98369 72.42951 -9.66233 73.0433 -9.40809 73.6817 -9.22417 74.33668 -9.11288 75 -9.07563 75.66332 -9.11288 76.3183 -9.22417 76.9567 -9.40809 77.57049 -9.66233 78.15195 -9.98369 78.69378 -10.36814 79.18916 -10.81084 79.63186 -11.30622 79.67378 -11.36529 79.7834 -11.4701 79.92417 -11.52657 80.07583 -11.52657 80.2166 -11.4701 80.32622 -11.36529 80.36814 -11.30622 80.81084 -10.81084 81.30622 -10.36814 81.84805 -9.98369 82.42951 -9.66233 83.0433 -9.40809 83.6817 -9.22417 84.33668 -9.11288 85 -9.07563 85.66332 -9.11288 86.3183 -9.22417 86.9567 -9.40809 87.57049 -9.66233 88.15195 -9.98369 88.69378 -10.36814 88.8648 -10.4857 89.00745 -10.512 89.99686 -10.512 90.13468 -10.51417 90.56871 -10.54832 90.69585 -10.56642 91.12217 -10.65471 91.24603 -10.68859 91.65793 -10.82961 91.77657 -10.87876 92.16755 -11.07029 92.27909 -11.13392 92.64298 -11.37295 92.74567 -11.45005 93.07673 -11.7328 93.17572 -11.82873 98.17127 -16.82428 98.2672 -16.92327 98.54995 -17.25433 98.62705 -17.35702 98.86608 -17.72091 98.92971 -17.83245 99.12124 -18.22343 99.17039 -18.34207 99.31141 -18.75397 99.34529 -18.87783 99.43358 -19.30415 99.45168 -19.43129 99.48583 -19.86532 99.488 -20.00314 99.488 -49.99686 99.48583 -50.13468 99.45168 -50.56871 99.43358 -50.69585 99.34529 -51.12217 99.31141 -51.24603 99.17039 -51.65793 99.12124 -51.77657 98.92971 -52.16755 98.86608 -52.27909 98.62705 -52.64298 98.54995 -52.74567 98.2672 -53.07673 98.17127 -53.17572 93.17572 -58.17127 93.07673 -58.2672 92.74567 -58.54995 92.64298 -58.62705 92.27909 -58.86608 92.16755 -58.92971 91.77657 -59.12124 91.65793 -59.17039 91.24603 -59.31141 91.12217 -59.34529 90.69585 -59.43358 90.56871 -59.45168 90.13468 -59.48583 89.99686 -59.488 80.97595 -59.488 80.84438 -59.51026 80.72745 -59.57455 80.58618 -59.68655 80.48948 -59.79791 80.43971 -59.93675 80.44363 -60.08418 80.50072 -60.22017 81.15766 -60.81084 81.60036 -61.30622 81.98481 -61.84805 82.30617 -62.42951 82.56041 -63.0433 82.74433 -63.6817 82.85562 -64.33668 82.89287 -65 82.85562 -65.66332 82.74433 -66.3183 82.56041 -66.9567 82.30617 -67.57049 81.98481 -68.15195 81.60036 -68.69378 81.15766 -69.18916 80.66228 -69.63186 80.60321 -69.67378 80.4984 -69.7834 80.44193 -69.92417 80.44193 -70.07583 80.4984 -70.2166 80.60321 -70.32622 80.66228 -70.36814 81.15766 -70.81084 81.60036 -71.30622 81.98481 -71.84805 82.30617 -72.42951 82.56041 -73.0433 82.74433 -73.6817 82.85562 -74.33668 82.89287 -75 82.85562 -75.66332 82.74433 -76.3183 82.56041 -76.9567 82.30617 -77.57049 81.98481 -78.15195 81.60036 -78.69378 81.15766 -79.18916 80.66228 -79.63186 80.12045 -80.01631 79.99361 -80.08641 79.86305 -80.20199 79.79407 -80.36214 79.79978 -80.53641 79.87909 -80.6917 80.01692 -80.79849 80.1871 -80.8365 95.37624 -80.8365 95.73865 -80.86821 96.07311 -80.95783 96.38694 -81.10416 96.67058 -81.30277 96.91543 -81.54762 97.11404 -81.83126 97.26037 -82.14509 97.34999 -82.47955 97.3817 -82.84196 97.3817 -87.59444 97.34999 -87.95685 97.26037 -88.29131 97.11404 -88.60514 96.91543 -88.88878 96.67058 -89.13363 96.38694 -89.33224 96.07311 -89.47857 95.73865 -89.56819 95.37624 -89.5999 59.46016 -89.5999 59.09775 -89.56819 58.76329 -89.47857 58.44946 -89.33224 58.16582 -89.13363 57.92097 -88.88878 57.72236 -88.60514 57.57603 -88.29131 57.48641 -87.95685 57.4547 -87.59444 57.4547 -82.84196 57.48641 -82.47955 57.57603 -82.14509 57.72236 -81.83126 57.92097 -81.54762 58.16582 -81.30277 58.44946 -81.10416 58.76329 -80.95783 59.09775 -80.86821 59.46016 -80.8365 69.8129 -80.8365 69.98308 -80.79849 70.12091 -80.6917 70.20022 -80.53641 70.20593 -80.36214 70.13695 -80.20199 70.00639 -80.08641 69.87955 -80.01631 69.33772 -79.63186 68.84234 -79.18916 68.39964 -78.69378 68.01519 -78.15195 67.69383 -77.57049 67.43959 -76.9567 67.25567 -76.3183 67.14438 -75.66332 67.10713 -75 67.14438 -74.33668 67.25567 -73.6817 67.43959 -73.0433 67.69383 -72.42951 68.01519 -71.84805 68.39964 -71.30622 68.84234 -70.81084 69.33772 -70.36814 69.39679 -70.32622 69.5016 -70.2166 69.55807 -70.07583 69.55807 -69.92417 69.5016 -69.7834 69.39679 -69.67378 69.33772 -69.63186 69.13715 -69.45262 69.0567 -69.3968 68.9651 -69.3622 68.74855 -69.30956 68.34207 -69.17039 68.22343 -69.12124 67.83245 -68.92971 67.72091 -68.86608 67.35702 -68.62705 67.25433 -68.54995 66.92327 -68.2672 66.82428 -68.17127 61.82873 -63.17572 61.7328 -63.07673 61.45005 -62.74567 61.37295 -62.64298 61.13392 -62.27909 61.07029 -62.16755 60.87876 -61.77657 60.82961 -61.65793 60.68859 -61.24603 60.65471 -61.12217 60.56642 -60.69585 60.54832 -60.56871 60.51417 -60.13468 60.512 -59.99686 60.512 -49.888 60.48155 -49.73493 60.39484 -49.60516 60.26507 -49.51845 60.112 -49.488 59.00745 -49.488 58.8648 -49.5143 58.69378 -49.63186 58.15195 -50.01631 57.57049 -50.33767 56.9567 -50.59191 56.3183 -50.77583 55.66332 -50.88712 55 -50.92437 54.33668 -50.88712 53.6817 -50.77583 53.0433 -50.59191 52.42951 -50.33767 51.84805 -50.01631 51.30622 -49.63186 50.81084 -49.18916 50.36814 -48.69378 49.98369 -48.15195 49.66233 -47.57049 49.40809 -46.9567 49.22417 -46.3183 49.11288 -45.66332 49.07563 -45 49.11288 -44.33668 49.22417 -43.6817 49.40809 -43.0433 49.66233 -42.42951 49.98369 -41.84805 50.36814 -41.30622 50.81084 -40.81084 51.30622 -40.36814 51.84805 -39.98369 52.42951 -39.66233 53.0433 -39.40809 53.6817 -39.22417 54.33668 -39.11288 55 -39.07563 55.66332 -39.11288 56.3183 -39.22417 56.9567 -39.40809 57.57049 -39.66233 58.15195 -39.98369 58.69378 -40.36814 58.8648 -40.4857 59.00745 -40.512 71.29167 -40.512 71.45505 -40.47711 71.58993 -40.37854 71.67278 -40.23347 71.68916 -40.06721 71.6362 -39.90877 71.52314 -39.78578 71.30622 -39.63186 70.81084 -39.18916 70.36814 -38.69378 69.98369 -38.15195 69.66233 -37.57049 69.40809 -36.9567 69.22417 -36.3183 69.11288 -35.66332 69.07563 -35 69.11288 -34.33668 69.22417 -33.6817 69.40809 -33.0433 69.66233 -32.42951 69.98369 -31.84805 70.36814 -31.30622 70.81084 -30.81084 71.30622 -30.36814 71.36529 -30.32622 71.4701 -30.2166 71.52657 -30.07583 71.52657 -29.92417 71.4701 -29.7834 71.36529 -29.67378 71.30622 -29.63186 70.81084 -29.18916 70.36814 -28.69378 69.98369 -28.15195 69.66233 -27.57049 69.40809 -26.9567 69.22417 -26.3183 69.11288 -25.66332 69.07563 -25 69.11288 -24.33668 69.22417 -23.6817 69.40809 -23.0433 69.66233 -22.42951 69.98369 -21.84805 70.36814 -21.30622 70.81084 -20.81084 71.30622 -20.36814 71.46778 -20.22017 71.52487 -20.08418 71.52879 -19.93675 71.47902 -19.79791 71.38232 -19.68655 71.24105 -19.57455 71.12412 -19.51026 70.99255 -19.488 59.00745 -19.488 58.8648 -19.5143 58.69378 -19.63186 58.15195 -20.01631 57.57049 -20.33767 56.9567 -20.59191 56.3183 -20.77583 55.66332 -20.88712 55 -20.92437 54.33668 -20.88712 53.6817 -20.77583 53.0433 -20.59191 52.42951 -20.33767 51.84805 -20.01631 51.30622 -19.63186 50.81084 -19.18916 50.36814 -18.69378 49.98369 -18.15195 49.66233 -17.57049 49.40809 -16.9567 49.22417 -16.3183 49.11288 -15.66332 49.07563 -15 49.11288 -14.33668 49.22417 -13.6817 49.40809 -13.0433 49.66233 -12.42951 49.98369 -11.84805 50.36814 -11.30622 50.81084 -10.81084 51.30622 -10.36814 51.84805 -9.98369 52.42951 -9.66233 53.0433 -9.40809 53.6817 -9.22417 54.33668 -9.11288 55 -9.07563 Z M 10.47368 -14.21288 L 11.14822 -14.175 18.85178 -14.175 19.52632 -14.21288 20.1813 -14.32417 20.8197 -14.50809 21.43349 -14.76233 22.01495 -15.08369 22.55678 -15.46814 22.7278 -15.5857 22.87045 -15.612 30.09686 -15.612 30.23468 -15.61417 30.66871 -15.64832 30.79585 -15.66642 31.22217 -15.75471 31.34603 -15.78859 31.75793 -15.92961 31.87657 -15.97876 32.26755 -16.17029 32.37909 -16.23392 32.74298 -16.47295 32.84567 -16.55005 33.17673 -16.8328 33.27572 -16.92873 38.17127 -21.82428 38.2672 -21.92327 38.54995 -22.25433 38.62705 -22.35702 38.86608 -22.72091 38.92971 -22.83245 39.12124 -23.22343 39.17039 -23.34207 39.31141 -23.75397 39.34529 -23.87783 39.43358 -24.30415 39.45168 -24.43129 39.48583 -24.86532 39.488 -25.00314 39.488 -44.99686 39.48583 -45.13468 39.45168 -45.56871 39.43358 -45.69585 39.34529 -46.12217 39.31141 -46.24603 39.17039 -46.65793 39.12124 -46.77657 38.92971 -47.16755 38.86608 -47.27909 38.62705 -47.64298 38.54995 -47.74567 38.2672 -48.07673 38.17127 -48.17572 34.60516 -51.74183 34.51845 -51.8716 34.488 -52.02468 34.488 -57.97532 34.51845 -58.1284 34.60516 -58.25817 36.74183 -60.39484 36.8716 -60.48155 37.02468 -60.512 39.02405 -60.512 39.15562 -60.48974 39.27255 -60.42545 39.41382 -60.31345 39.51052 -60.20209 39.56029 -60.06325 39.55637 -59.91582 39.49928 -59.77983 38.84234 -59.18916 38.39964 -58.69378 38.01519 -58.15195 37.69383 -57.57049 37.43959 -56.9567 37.25567 -56.3183 37.14438 -55.66332 37.10713 -55 37.14438 -54.33668 37.25567 -53.6817 37.43959 -53.0433 37.69383 -52.42951 38.01519 -51.84805 38.39964 -51.30622 38.84234 -50.81084 39.33772 -50.36814 39.87955 -49.98369 40.46101 -49.66233 41.0748 -49.40809 41.7132 -49.22417 42.36818 -49.11288 43.04272 -49.075 46.95728 -49.075 47.63182 -49.11288 48.2868 -49.22417 48.9252 -49.40809 49.53899 -49.66233 50.12045 -49.98369 50.66228 -50.36814 51.15766 -50.81084 51.60036 -51.30622 51.98481 -51.84805 52.30617 -52.42951 52.56041 -53.0433 52.74433 -53.6817 52.85562 -54.33668 52.89287 -55 52.85562 -55.66332 52.74433 -56.3183 52.56041 -56.9567 52.30617 -57.57049 51.98481 -58.15195 51.60036 -58.69378 51.15766 -59.18916 50.66228 -59.63186 50.60321 -59.67378 50.4984 -59.7834 50.44193 -59.92417 50.44193 -60.07583 50.4984 -60.2166 50.60321 -60.32622 50.66228 -60.36814 51.15766 -60.81084 51.60036 -61.30622 51.98481 -61.84805 52.30617 -62.42951 52.56041 -63.0433 52.74433 -63.6817 52.85562 -64.33668 52.89287 -65 52.85562 -65.66332 52.74433 -66.3183 52.56041 -66.9567 52.30617 -67.57049 51.98481 -68.15195 51.60036 -68.69378 51.15766 -69.18916 50.66228 -69.63186 50.60321 -69.67378 50.4984 -69.7834 50.44193 -69.92417 50.44193 -70.07583 50.4984 -70.2166 50.60321 -70.32622 50.66228 -70.36814 51.15766 -70.81084 51.60036 -71.30622 51.98481 -71.84805 52.30617 -72.42951 52.56041 -73.0433 52.74433 -73.6817 52.85562 -74.33668 52.89287 -75 52.85562 -75.66332 52.74433 -76.3183 52.56041 -76.9567 52.30617 -77.57049 51.98481 -78.15195 51.60036 -78.69378 51.15766 -79.18916 50.66228 -79.63186 50.12045 -80.01631 49.53899 -80.33767 48.9252 -80.59191 48.2868 -80.77583 47.63182 -80.88712 46.95728 -80.925 43.04272 -80.925 42.36818 -80.88712 41.7132 -80.77583 41.0748 -80.59191 40.46101 -80.33767 39.87955 -80.01631 39.33772 -79.63186 39.1667 -79.5143 39.02405 -79.488 27.02468 -79.488 26.8716 -79.51845 26.74183 -79.60516 21.00719 -85.3398 20.92492 -85.45927 20.88712 -85.66332 20.77583 -86.3183 20.59191 -86.9567 20.33767 -87.57049 20.01631 -88.15195 19.63186 -88.69378 19.18916 -89.18916 18.69378 -89.63186 18.15195 -90.01631 17.57049 -90.33767 16.9567 -90.59191 16.3183 -90.77583 15.66332 -90.88712 15 -90.92437 14.33668 -90.88712 13.6817 -90.77583 13.0433 -90.59191 12.42951 -90.33767 11.84805 -90.01631 11.30622 -89.63186 10.81084 -89.18916 10.36814 -88.69378 9.98369 -88.15195 9.66233 -87.57049 9.40809 -86.9567 9.22417 -86.3183 9.11288 -85.66332 9.07563 -85 9.11288 -84.33668 9.22417 -83.6817 9.40809 -83.0433 9.66233 -82.42951 9.98369 -81.84805 10.36814 -81.30622 10.81084 -80.81084 11.30622 -80.36814 11.84805 -79.98369 12.42951 -79.66233 13.0433 -79.40809 13.6817 -79.22417 14.33668 -79.11288 14.54073 -79.07508 14.6602 -78.99281 21.82428 -71.82873 21.92327 -71.7328 22.25433 -71.45005 22.35702 -71.37295 22.72091 -71.13392 22.83245 -71.07029 23.22343 -70.87876 23.34207 -70.82961 23.75397 -70.68859 23.87783 -70.65471 24.30415 -70.56642 24.43129 -70.54832 24.86532 -70.51417 25.00314 -70.512 39.02405 -70.512 39.15562 -70.48974 39.27255 -70.42545 39.41382 -70.31345 39.50835 -70.20575 39.55885 -70.07165 39.55885 -69.92835 39.50835 -69.79425 39.41382 -69.68655 39.27255 -69.57455 39.15562 -69.51026 39.02405 -69.488 35.00314 -69.488 34.86532 -69.48583 34.43129 -69.45168 34.30415 -69.43358 33.87783 -69.34529 33.75397 -69.31141 33.34207 -69.17039 33.22343 -69.12124 32.83245 -68.92971 32.72091 -68.86608 32.35702 -68.62705 32.25433 -68.54995 31.92327 -68.2672 31.82428 -68.17127 26.82873 -63.17572 26.7328 -63.07673 26.45005 -62.74567 26.37295 -62.64298 26.13392 -62.27909 26.07029 -62.16755 25.87876 -61.77657 25.82961 -61.65793 25.68859 -61.24603 25.65471 -61.12217 25.56642 -60.69585 25.54832 -60.56871 25.51417 -60.13468 25.512 -59.99686 25.512 -50.00314 25.51417 -49.86532 25.54832 -49.43129 25.56642 -49.30415 25.65471 -48.87783 25.68859 -48.75397 25.82961 -48.34207 25.87876 -48.22343 26.07029 -47.83245 26.13392 -47.72091 26.37295 -47.35702 26.45005 -47.25433 26.7328 -46.92327 26.82873 -46.82428 30.39484 -43.25817 30.48155 -43.1284 30.512 -42.97532 30.512 -27.02468 30.48155 -26.8716 30.39484 -26.74183 28.35817 -24.70516 28.2284 -24.61845 28.07532 -24.588 22.87045 -24.588 22.7278 -24.6143 22.55678 -24.73186 22.01495 -25.11631 21.43349 -25.43767 20.8197 -25.69191 20.1813 -25.87583 19.52632 -25.98712 18.85178 -26.025 11.14822 -26.025 10.47368 -25.98712 9.8187 -25.87583 9.1803 -25.69191 8.56651 -25.43767 7.98505 -25.11631 7.44322 -24.73186 6.94784 -24.28916 6.50514 -23.79378 6.12069 -23.25195 5.79933 -22.67049 5.54509 -22.0567 5.36117 -21.4183 5.24988 -20.76332 5.21263 -20.1 5.24988 -19.43668 5.36117 -18.7817 5.54509 -18.1433 5.79933 -17.52951 6.12069 -16.94805 6.50514 -16.40622 6.94784 -15.91084 7.44322 -15.46814 7.98505 -15.08369 8.56651 -14.76233 9.1803 -14.50809 9.8187 -14.32417 10.47368 -14.21288 Z M 10.47368 -34.01288 L 11.14822 -33.975 18.85178 -33.975 19.52632 -34.01288 20.1813 -34.12417 20.8197 -34.30809 21.43349 -34.56233 22.01495 -34.88369 22.55678 -35.26814 23.05216 -35.71084 23.49486 -36.20622 23.87931 -36.74805 24.20067 -37.32951 24.45491 -37.9433 24.63883 -38.5817 24.75012 -39.23668 24.78737 -39.9 24.75012 -40.56332 24.63883 -41.2183 24.45491 -41.8567 24.20067 -42.47049 23.87931 -43.05195 23.49486 -43.59378 23.05216 -44.08916 22.55678 -44.53186 22.01495 -44.91631 21.43349 -45.23767 20.8197 -45.49191 20.1813 -45.67583 19.821 -45.73705 19.68962 -45.78406 19.58239 -45.87333 19.51234 -45.99401 19.488 -46.1314 19.488 -50.99255 19.5143 -51.1352 19.63186 -51.30622 20.01631 -51.84805 20.33767 -52.42951 20.59191 -53.0433 20.77583 -53.6817 20.88712 -54.33668 20.92437 -55 20.88712 -55.66332 20.77583 -56.3183 20.59191 -56.9567 20.33767 -57.57049 20.01631 -58.15195 19.63186 -58.69378 19.18916 -59.18916 18.69378 -59.63186 18.15195 -60.01631 17.57049 -60.33767 16.9567 -60.59191 16.3183 -60.77583 15.66332 -60.88712 15 -60.92437 14.33668 -60.88712 13.6817 -60.77583 13.0433 -60.59191 12.42951 -60.33767 11.84805 -60.01631 11.30622 -59.63186 10.81084 -59.18916 10.36814 -58.69378 9.98369 -58.15195 9.66233 -57.57049 9.40809 -56.9567 9.22417 -56.3183 9.11288 -55.66332 9.07563 -55 9.11288 -54.33668 9.22417 -53.6817 9.40809 -53.0433 9.66233 -52.42951 9.98369 -51.84805 10.36814 -51.30622 10.4857 -51.1352 10.512 -50.99255 10.512 -46.1314 10.48766 -45.99401 10.41761 -45.87333 10.31038 -45.78406 10.179 -45.73705 9.8187 -45.67583 9.1803 -45.49191 8.56651 -45.23767 7.98505 -44.91631 7.44322 -44.53186 6.94784 -44.08916 6.50514 -43.59378 6.12069 -43.05195 5.79933 -42.47049 5.54509 -41.8567 5.36117 -41.2183 5.24988 -40.56332 5.21263 -39.9 5.24988 -39.23668 5.36117 -38.5817 5.54509 -37.9433 5.79933 -37.32951 6.12069 -36.74805 6.50514 -36.20622 6.94784 -35.71084 7.44322 -35.26814 7.98505 -34.88369 8.56651 -34.56233 9.1803 -34.30809 9.8187 -34.12417 10.47368 -34.01288 Z M 98.66233 -89.57049 L 98.51653 -89.2185 101.7815 -89.2185 101.7815 -92.48347 101.42951 -92.33767 100.84805 -92.01631 100.30622 -91.63186 99.81084 -91.18916 99.36814 -90.69378 98.98369 -90.15195 98.66233 -89.57049 Z M 109.48347 -89.2185 L 109.33767 -89.57049 109.01631 -90.15195 108.63186 -90.69378 108.18916 -91.18916 107.69378 -91.63186 107.15195 -92.01631 106.57049 -92.33767 106.2185 -92.48347 106.2185 -89.2185 109.48347 -89.2185 Z M 106.2185 -81.51653 L 106.57049 -81.66233 107.15195 -81.98369 107.69378 -82.36814 108.18916 -82.81084 108.63186 -83.30622 109.01631 -83.84805 109.33767 -84.42951 109.48347 -84.7815 106.2185 -84.7815 106.2185 -81.51653 Z M 101.42951 -81.66233 L 101.7815 -81.51653 101.7815 -84.7815 98.51653 -84.7815 98.66233 -84.42951 98.98369 -83.84805 99.36814 -83.30622 99.81084 -82.81084 100.30622 -82.36814 100.84805 -81.98369 101.42951 -81.66233 Z " stroke-width="0" layerid="2" attachedcopperid="gge365" c_shapetype="line" id="gge365_0" class=""></path><polyline points="75 -55 90 -55 95 -50 95 -20 90 -15 85 -15" stroke-width="5"  stroke-linecap="round" fill="none" layerid="2" net="GN" id="gge217" locked="0" /><polyline points="45 -75 25 -75 15 -85" stroke-width="5"  stroke-linecap="round" fill="none" layerid="2" net="N$6" id="gge208" locked="0" /><polyline points="85 -35 85 -40 80 -45 65 -45 55 -45" stroke-width="5"  stroke-linecap="round" fill="none" layerid="2" net="IN" id="gge211" locked="0" /><polyline points="15 -20.1 30.1 -20.1 35 -25 35 -45 30 -50 30 -60 35 -65 45 -65" stroke-width="5"  stroke-linecap="round" fill="none" layerid="2" net="N$2" id="gge226" locked="0" /><polyline points="75 -65 70 -65 65 -60 65 -45" stroke-width="5"  stroke-linecap="round" fill="none" layerid="2" net="IN" id="gge214" locked="0" /><polyline points="75 -15 55 -15" stroke-width="5"  stroke-linecap="round" fill="none" layerid="2" net="V+" id="gge220" locked="0" /><polyline points="15 -39.9 15 -55" stroke-width="5"  stroke-linecap="round" fill="none" layerid="2" net="N$1" id="gge223" locked="0" /><g c_partid="part_pcbtext" c_etype="" c_origin="95,-83" c_rotation="360" c_mirror="1" id="rep6" locked="0" layerid="2" c_shapetype="group" ><path c_fontsize="4" c_fontfamily="" c_text="Solintec SRL" d="M 92.4545 -86.4909 L 92.8182 -86.8545 L 93.3636 -87.0364 L 94.0909 -87.0364 L 94.6364 -86.8545 L 95 -86.4909 L 95 -86.1273 L 94.8182 -85.7636 L 94.6364 -85.5818 L 94.2727 -85.4 L 93.1818 -85.0364 L 92.8182 -84.8545 L 92.6364 -84.6727 L 92.4545 -84.3091 L 92.4545 -83.7636 L 92.8182 -83.4 L 93.3636 -83.2182 L 94.0909 -83.2182 L 94.6364 -83.4 L 95 -83.7636 M 90.3455 -85.7636 L 90.7091 -85.5818 L 91.0727 -85.2182 L 91.2545 -84.6727 L 91.2545 -84.3091 L 91.0727 -83.7636 L 90.7091 -83.4 L 90.3455 -83.2182 L 89.8 -83.2182 L 89.4364 -83.4 L 89.0727 -83.7636 L 88.8909 -84.3091 L 88.8909 -84.6727 L 89.0727 -85.2182 L 89.4364 -85.5818 L 89.8 -85.7636 L 90.3455 -85.7636 M 87.6909 -87.0364 L 87.6909 -83.2182 M 86.4909 -87.0364 L 86.3091 -86.8545 L 86.1273 -87.0364 L 86.3091 -87.2182 L 86.4909 -87.0364 M 86.3091 -85.7636 L 86.3091 -83.2182 M 84.9273 -85.7636 L 84.9273 -83.2182 M 84.9273 -85.0364 L 84.3818 -85.5818 L 84.0182 -85.7636 L 83.4727 -85.7636 L 83.1091 -85.5818 L 82.9273 -85.0364 L 82.9273 -83.2182 M 81.1818 -87.0364 L 81.1818 -83.9455 L 81 -83.4 L 80.6364 -83.2182 L 80.2727 -83.2182 M 81.7273 -85.7636 L 80.4545 -85.7636 M 79.0727 -84.6727 L 76.8909 -84.6727 L 76.8909 -85.0364 L 77.0727 -85.4 L 77.2545 -85.5818 L 77.6182 -85.7636 L 78.1636 -85.7636 L 78.5273 -85.5818 L 78.8909 -85.2182 L 79.0727 -84.6727 L 79.0727 -84.3091 L 78.8909 -83.7636 L 78.5273 -83.4 L 78.1636 -83.2182 L 77.6182 -83.2182 L 77.2545 -83.4 L 76.8909 -83.7636 M 73.5091 -85.2182 L 73.8727 -85.5818 L 74.2364 -85.7636 L 74.7818 -85.7636 L 75.1455 -85.5818 L 75.5091 -85.2182 L 75.6909 -84.6727 L 75.6909 -84.3091 L 75.5091 -83.7636 L 75.1455 -83.4 L 74.7818 -83.2182 L 74.2364 -83.2182 L 73.8727 -83.4 L 73.5091 -83.7636 M 66.9636 -86.4909 L 67.3273 -86.8545 L 67.8727 -87.0364 L 68.6 -87.0364 L 69.1455 -86.8545 L 69.5091 -86.4909 L 69.5091 -86.1273 L 69.3273 -85.7636 L 69.1455 -85.5818 L 68.7818 -85.4 L 67.6909 -85.0364 L 67.3273 -84.8545 L 67.1455 -84.6727 L 66.9636 -84.3091 L 66.9636 -83.7636 L 67.3273 -83.4 L 67.8727 -83.2182 L 68.6 -83.2182 L 69.1455 -83.4 L 69.5091 -83.7636 M 65.7636 -87.0364 L 65.7636 -83.2182 M 65.7636 -87.0364 L 64.1273 -87.0364 L 63.5818 -86.8545 L 63.4 -86.6727 L 63.2182 -86.3091 L 63.2182 -85.9455 L 63.4 -85.5818 L 63.5818 -85.4 L 64.1273 -85.2182 L 65.7636 -85.2182 M 64.4909 -85.2182 L 63.2182 -83.2182 M 62.0182 -87.0364 L 62.0182 -83.2182 M 62.0182 -83.2182 L 59.8364 -83.2182" fill="none"  stroke-width="0.7874"  /></g><g c_partid="part_pad" c_etype="pinpart" c_origin="104,-87" layerid="11" number="1" net="GND" plated ="Y"  id="gge386" locked="0" c_rotation="0" c_width="7.874" c_height="7.874" title="GND" c_shape="ELLIPSE" pasteexpansion="0" solderexpansion="0.2"><ellipse c_etype="pad_shell" cx="104" cy="-87" rx="3.937" ry="3.937" layerid="11" stroke-width="0"/><polyline c_etype="pad_hole" points="103.9902 -87 104.0098 -87" layerid="11" stroke-width="0.3938"></polyline></g><g c_partid="part_pad" c_etype="pinpart" c_origin="45,-75" layerid="11" number="1" net="N$6" plated ="Y"  id="rep15" locked="0" c_rotation="180" c_width="11.811" c_height="7.874" title="N$6" c_shape="OVAL" pasteexpansion="0" solderexpansion="0.2"><polyline  c_etype="pad_shell" points="46.9685 -75 43.0315 -75" layerid="11" stroke-width="7.874" /><polyline c_etype="pad_hole" points="45.01 -75 44.99 -75" layerid="11" stroke-width="3.937"></polyline></g><g c_partid="part_pad" c_etype="pinpart" c_origin="45,-65" layerid="11" number="2" net="N$2" plated ="Y"  id="rep16" locked="0" c_rotation="180" c_width="11.811" c_height="7.874" title="N$2" c_shape="OVAL" pasteexpansion="0" solderexpansion="0.2"><polyline  c_etype="pad_shell" points="46.9685 -65 43.0315 -65" layerid="11" stroke-width="7.874" /><polyline c_etype="pad_hole" points="45.01 -65 44.99 -65" layerid="11" stroke-width="3.937"></polyline></g><g c_partid="part_pad" c_etype="pinpart" c_origin="75,-65" layerid="11" number="5" net="IN" plated ="Y"  id="rep17" locked="0" c_rotation="0" c_width="11.811" c_height="7.874" title="IN" c_shape="OVAL" pasteexpansion="0" solderexpansion="0.2"><polyline  c_etype="pad_shell" points="73.0315 -65 76.9685 -65" layerid="11" stroke-width="7.874" /><polyline c_etype="pad_hole" points="74.99 -65 75.01 -65" layerid="11" stroke-width="3.937"></polyline></g><g c_partid="part_pad" c_etype="pinpart" c_origin="75,-75" layerid="11" number="6" net="" plated ="Y"  id="rep18" locked="0" c_rotation="0" c_width="11.811" c_height="7.874" title="" c_shape="OVAL" pasteexpansion="0" solderexpansion="0.2"><polyline  c_etype="pad_shell" points="73.0315 -75 76.9685 -75" layerid="11" stroke-width="7.874" /><polyline c_etype="pad_hole" points="74.99 -75 75.01 -75" layerid="11" stroke-width="3.937"></polyline></g><g c_partid="part_pad" c_etype="pinpart" c_origin="45,-55" layerid="11" number="3" net="" plated ="Y"  id="rep19" locked="0" c_rotation="180" c_width="11.811" c_height="7.874" title="" c_shape="OVAL" pasteexpansion="0" solderexpansion="0.2"><polyline  c_etype="pad_shell" points="46.9685 -55 43.0315 -55" layerid="11" stroke-width="7.874" /><polyline c_etype="pad_hole" points="45.01 -55 44.99 -55" layerid="11" stroke-width="3.937"></polyline></g><g c_partid="part_pad" c_etype="pinpart" c_origin="75,-55" layerid="11" number="4" net="GN" plated ="Y"  id="rep20" locked="0" c_rotation="0" c_width="11.811" c_height="7.874" title="GN" c_shape="OVAL" pasteexpansion="0" solderexpansion="0.2"><polyline  c_etype="pad_shell" points="73.0315 -55 76.9685 -55" layerid="11" stroke-width="7.874" /><polyline c_etype="pad_hole" points="74.99 -55 75.01 -55" layerid="11" stroke-width="3.937"></polyline></g><g c_partid="part_pad" c_etype="pinpart" c_origin="15,-39.9" layerid="11" number="1" net="N$1" plated ="Y"  id="rep51" locked="0" c_rotation="0" c_width="15.6" c_height="7.874" title="N$1" c_shape="OVAL" pasteexpansion="0" solderexpansion="0.2"><polyline  c_etype="pad_shell" points="11.137 -39.9 18.863 -39.9" layerid="11" stroke-width="7.874" /><polyline c_etype="pad_hole" points="14.99 -39.9 15.01 -39.9" layerid="11" stroke-width="5.2"></polyline></g><g c_partid="part_pad" c_etype="pinpart" c_origin="15,-20.1" layerid="11" number="2" net="N$2" plated ="Y"  id="rep52" locked="0" c_rotation="0" c_width="15.6" c_height="7.874" title="N$2" c_shape="OVAL" pasteexpansion="0" solderexpansion="0.2"><polyline  c_etype="pad_shell" points="11.137 -20.1 18.863 -20.1" layerid="11" stroke-width="7.874" /><polyline c_etype="pad_hole" points="14.99 -20.1 15.01 -20.1" layerid="11" stroke-width="5.2"></polyline></g><g c_partid="part_pad" c_etype="pinpart" c_origin="75,-35" layerid="11" number="1" net="" plated ="Y"  id="rep81" locked="0" c_rotation="270" c_width="7.874" c_height="7.874" title="" c_shape="OVAL" pasteexpansion="0" solderexpansion="0.2"><polyline  c_etype="pad_shell" points="75 -35 75 -35" layerid="11" stroke-width="7.874" /><polyline c_etype="pad_hole" points="75 -35.01 75 -34.99" layerid="11" stroke-width="4"></polyline></g><g c_partid="part_pad" c_etype="pinpart" c_origin="85,-35" layerid="11" number="2" net="IN" plated ="Y"  id="rep82" locked="0" c_rotation="270" c_width="7.874" c_height="7.874" title="IN" c_shape="OVAL" pasteexpansion="0" solderexpansion="0.2"><polyline  c_etype="pad_shell" points="85 -35 85 -35" layerid="11" stroke-width="7.874" /><polyline c_etype="pad_hole" points="85 -35.01 85 -34.99" layerid="11" stroke-width="4"></polyline></g><g c_partid="part_pad" c_etype="pinpart" c_origin="75,-25" layerid="11" number="3" net="" plated ="Y"  id="rep83" locked="0" c_rotation="270" c_width="7.874" c_height="7.874" title="" c_shape="OVAL" pasteexpansion="0" solderexpansion="0.2"><polyline  c_etype="pad_shell" points="75 -25 75 -25" layerid="11" stroke-width="7.874" /><polyline c_etype="pad_hole" points="75 -25.01 75 -24.99" layerid="11" stroke-width="4"></polyline></g><g c_partid="part_pad" c_etype="pinpart" c_origin="85,-25" layerid="11" number="4" net="" plated ="Y"  id="rep84" locked="0" c_rotation="270" c_width="7.874" c_height="7.874" title="" c_shape="OVAL" pasteexpansion="0" solderexpansion="0.2"><polyline  c_etype="pad_shell" points="85 -25 85 -25" layerid="11" stroke-width="7.874" /><polyline c_etype="pad_hole" points="85 -25.01 85 -24.99" layerid="11" stroke-width="4"></polyline></g><g c_partid="part_pad" c_etype="pinpart" c_origin="75,-15" layerid="11" number="5" net="V+" plated ="Y"  id="rep85" locked="0" c_rotation="270" c_width="7.874" c_height="7.874" title="V+" c_shape="OVAL" pasteexpansion="0" solderexpansion="0.2"><polyline  c_etype="pad_shell" points="75 -15 75 -15" layerid="11" stroke-width="7.874" /><polyline c_etype="pad_hole" points="75 -15.01 75 -14.99" layerid="11" stroke-width="4"></polyline></g><g c_partid="part_pad" c_etype="pinpart" c_origin="85,-15" layerid="11" number="6" net="GN" plated ="Y"  id="rep86" locked="0" c_rotation="270" c_width="7.874" c_height="7.874" title="GN" c_shape="OVAL" pasteexpansion="0" solderexpansion="0.2"><polyline  c_etype="pad_shell" points="85 -15 85 -15" layerid="11" stroke-width="7.874" /><polyline c_etype="pad_hole" points="85 -15.01 85 -14.99" layerid="11" stroke-width="4"></polyline></g><g c_partid="part_pad" c_etype="pinpart" c_origin="15,-55" layerid="11" number="1" net="N$1" plated ="Y"  id="rep115" locked="0" c_rotation="90" c_width="7.874" c_height="7.874" title="N$1" c_shape="OVAL" pasteexpansion="0" solderexpansion="0.2"><polyline  c_etype="pad_shell" points="15 -55 15 -55" layerid="11" stroke-width="7.874" /><polyline c_etype="pad_hole" points="15 -54.99 15 -55.01" layerid="11" stroke-width="3.2"></polyline></g><g c_partid="part_pad" c_etype="pinpart" c_origin="15,-85" layerid="11" number="2" net="N$6" plated ="Y"  id="rep116" locked="0" c_rotation="90" c_width="7.874" c_height="7.874" title="N$6" c_shape="OVAL" pasteexpansion="0" solderexpansion="0.2"><polyline  c_etype="pad_shell" points="15 -85 15 -85" layerid="11" stroke-width="7.874" /><polyline c_etype="pad_hole" points="15 -84.99 15 -85.01" layerid="11" stroke-width="3.2"></polyline></g><g c_partid="part_pad" c_etype="pinpart" c_origin="55,-45" layerid="11" number="1" net="IN" plated ="Y"  id="rep140" locked="0" c_rotation="270" c_width="7.874" c_height="7.874" title="IN" c_shape="OVAL" pasteexpansion="0" solderexpansion="0.2"><polyline  c_etype="pad_shell" points="55 -45 55 -45" layerid="11" stroke-width="7.874" /><polyline c_etype="pad_hole" points="55 -45.01 55 -44.99" layerid="11" stroke-width="3.2"></polyline></g><g c_partid="part_pad" c_etype="pinpart" c_origin="55,-15" layerid="11" number="2" net="V+" plated ="Y"  id="rep141" locked="0" c_rotation="270" c_width="7.874" c_height="7.874" title="V+" c_shape="OVAL" pasteexpansion="0" solderexpansion="0.2"><polyline  c_etype="pad_shell" points="55 -15 55 -15" layerid="11" stroke-width="7.874" /><polyline c_etype="pad_hole" points="55 -15.01 55 -14.99" layerid="11" stroke-width="3.2"></polyline></g><polyline points="1 -98 112 -98 112 -1 1 -1 1 -98" stroke-width="1"  stroke-linecap="round" fill="none" layerid="10" net="" id="gge205" locked="0" /></svg>