<?xml version="1.0" ?>
<svg height="135.44397mm" version="1.1" viewBox="-5.87298 -245.86894 71.64196 135.44397" width="71.64196mm" xmlns="http://www.w3.org/2000/svg" xmlns:xlink="http://www.w3.org/1999/xlink">
	<g transform="scale(1,-1)">
		<path d="M 59.64199,-110.42497 L 31.44799,-110.42497 L 28.448,-110.42497 L 0.254,-110.42497 L 0.254,-110.42497 L -5.74598,-110.42497 L -5.75842817682,-110.42435846 L -5.7707564709,-110.422529731 L -5.78284615401,-110.419501423 L -5.79458079591,-110.415302701 L -5.80584738558,-110.409974001 L -5.81653741959,-110.403566641 L -5.82654794709,-110.396142328 L -5.83578256121,-110.387772561 L -5.84415232758,-110.378537947 L -5.85157664076,-110.36852742 L -5.85798400057,-110.357837386 L -5.86331270063,-110.346570796 L -5.86751142264,-110.334836154 L -5.87053973061,-110.322746471 L -5.87236846029,-110.310418177 L -5.87298,-110.29797 L -5.87298,-85.65997 L -5.87298,-82.65998 L -5.87298,-58.02198 L -5.87298,-55.02198 L -5.87298,-30.38398 L -5.87298,-27.38399 L -5.87298,-2.74599 L -5.87298,0.254 L -5.87298,24.892 L -5.87236846029,24.9044481768 L -5.87053973061,24.9167764709 L -5.86751142264,24.928866154 L -5.86331270063,24.9406007959 L -5.85798400057,24.9518673856 L -5.85157664076,24.9625574196 L -5.84415232758,24.9725679471 L -5.83578256121,24.9818025612 L -5.82654794709,24.9901723276 L -5.81653741959,24.9975966408 L -5.80584738558,25.0040040006 L -5.79458079591,25.0093327006 L -5.78284615401,25.0135314226 L -5.7707564709,25.0165597306 L -5.75842817682,25.0183884603 L -5.74598,25.019 L -5.74598,25.019 L 0.254,25.019 L 0.254,25.019 L 28.448,25.019 L 31.44799,25.019 L 59.64199,25.019 L 65.64198,25.019 L 65.6544281768,25.0183884603 L 65.6667564709,25.0165597306 L 65.678846154,25.0135314226 L 65.6905807959,25.0093327006 L 65.7018473856,25.0040040006 L 65.7125374196,24.9975966408 L 65.7225479471,24.9901723276 L 65.7317825612,24.9818025612 L 65.7401523276,24.9725679471 L 65.7475766408,24.9625574196 L 65.7539840006,24.9518673856 L 65.7593127006,24.9406007959 L 65.7635114226,24.928866154 L 65.7665397306,24.9167764709 L 65.7683684603,24.9044481768 L 65.76898,24.892 L 65.76898,0.254 L 65.76898,-2.74599 L 65.76898,-27.38399 L 65.76898,-30.38398 L 65.76898,-55.02198 L 65.76898,-58.02198 L 65.76898,-82.65998 L 65.76898,-85.65997 L 65.76898,-110.29797 L 65.7683684603,-110.310418177 L 65.7665397306,-110.322746471 L 65.7635114226,-110.334836154 L 65.7593127006,-110.346570796 L 65.7539840006,-110.357837386 L 65.7475766408,-110.36852742 L 65.7401523276,-110.378537947 L 65.7317825612,-110.387772561 L 65.7225479471,-110.396142328 L 65.7125374196,-110.403566641 L 65.7018473856,-110.409974001 L 65.6905807959,-110.415302701 L 65.678846154,-110.419501423 L 65.6667564709,-110.422529731 L 65.6544281768,-110.42435846 L 65.64198,-110.42497 L 59.64199,-110.42497 z M 65.51498,-82.78698 L 59.76899,-82.78698 L 59.76899,-85.53297 L 65.51498,-85.53297 L 65.51498,-82.78698 z M 59.51499,-82.78698 L 31.57499,-82.78698 L 31.57499,-85.53297 L 59.51499,-85.53297 L 59.51499,-82.78698 z M 31.32099,-82.78698 L 28.575,-82.78698 L 28.575,-85.53297 L 31.32099,-85.53297 L 31.32099,-82.78698 z M 28.321,-82.78698 L 0.381,-82.78698 L 0.381,-85.53297 L 28.321,-85.53297 L 28.321,-82.78698 z M 0.127,-82.78698 L -5.61898,-82.78698 L -5.61898,-85.53297 L 0.127,-85.53297 L 0.127,-82.78698 z M -5.61898,-82.53298 L 0.127,-82.53298 L 0.127,-58.14898 L -5.61898,-58.14898 L -5.61898,-82.53298 z M 0.381,-82.53298 L 28.321,-82.53298 L 28.321,-58.14898 L 0.381,-58.14898 L 0.381,-82.53298 z M 28.575,-82.53298 L 31.32099,-82.53298 L 31.32099,-58.14898 L 28.575,-58.14898 L 28.575,-82.53298 z M 31.57499,-82.53298 L 59.51499,-82.53298 L 59.51499,-58.14898 L 31.57499,-58.14898 L 31.57499,-82.53298 z M 59.76899,-82.53298 L 65.51498,-82.53298 L 65.51498,-58.14898 L 59.76899,-58.14898 L 59.76899,-82.53298 z M 65.51498,-85.78697 L 59.76899,-85.78697 L 59.76899,-110.17097 L 65.51498,-110.17097 L 65.51498,-85.78697 z M 31.32099,-110.17097 L 31.32099,-85.78697 L 28.575,-85.78697 L 28.575,-110.17097 L 31.32099,-110.17097 z M 0.127,-110.17097 L 0.127,-85.78697 L -5.61898,-85.78697 L -5.61898,-110.17097 L 0.127,-110.17097 z M 0.381,-85.78697 L 0.381,-110.17097 L 28.321,-110.17097 L 28.321,-85.78697 L 0.381,-85.78697 z M 31.57499,-85.78697 L 31.57499,-110.17097 L 59.51499,-110.17097 L 59.51499,-85.78697 L 31.57499,-85.78697 z M 65.51498,-55.14898 L 59.76899,-55.14898 L 59.76899,-57.89498 L 65.51498,-57.89498 L 65.51498,-55.14898 z M 59.51499,-55.14898 L 31.57499,-55.14898 L 31.57499,-57.89498 L 59.51499,-57.89498 L 59.51499,-55.14898 z M 31.32099,-55.14898 L 28.575,-55.14898 L 28.575,-57.89498 L 31.32099,-57.89498 L 31.32099,-55.14898 z M 28.321,-55.14898 L 0.381,-55.14898 L 0.381,-57.89498 L 28.321,-57.89498 L 28.321,-55.14898 z M 0.127,-55.14898 L -5.61898,-55.14898 L -5.61898,-57.89498 L 0.127,-57.89498 L 0.127,-55.14898 z M -5.61898,-54.89498 L 0.127,-54.89498 L 0.127,-30.51098 L -5.61898,-30.51098 L -5.61898,-54.89498 z M 0.127,-30.25698 L 0.127,-27.51099 L -5.61898,-27.51099 L -5.61898,-30.25698 L 0.127,-30.25698 z M 0.127,-27.25699 L 0.127,-2.87299 L -5.61898,-2.87299 L -5.61898,-27.25699 L 0.127,-27.25699 z M 0.127,-2.61899 L 0.127,0.127 L -5.61898,0.127 L -5.61898,-2.61899 L 0.127,-2.61899 z M 0.127,0.381 L 0.127,24.765 L -5.61898,24.765 L -5.61898,0.381 L 0.127,0.381 z M 0.381,-54.89498 L 28.321,-54.89498 L 28.321,-30.51098 L 0.381,-30.51098 L 0.381,-54.89498 z M 28.321,-30.25698 L 28.321,-27.51099 L 0.381,-27.51099 L 0.381,-30.25698 L 28.321,-30.25698 z M 28.321,-27.25699 L 28.321,-2.87299 L 0.381,-2.87299 L 0.381,-27.25699 L 28.321,-27.25699 z M 28.321,-2.61899 L 28.321,0.127 L 0.381,0.127 L 0.381,-2.61899 L 28.321,-2.61899 z M 28.321,0.381 L 28.321,24.765 L 0.381,24.765 L 0.381,0.381 L 28.321,0.381 z M 28.575,-54.89498 L 31.32099,-54.89498 L 31.32099,-30.51098 L 28.575,-30.51098 L 28.575,-54.89498 z M 31.32099,-30.25698 L 31.32099,-27.51099 L 28.575,-27.51099 L 28.575,-30.25698 L 31.32099,-30.25698 z M 31.32099,-27.25699 L 31.32099,-2.87299 L 28.575,-2.87299 L 28.575,-27.25699 L 31.32099,-27.25699 z M 31.32099,-2.61899 L 31.32099,0.127 L 28.575,0.127 L 28.575,-2.61899 L 31.32099,-2.61899 z M 31.32099,0.381 L 31.32099,24.765 L 28.575,24.765 L 28.575,0.381 L 31.32099,0.381 z M 31.57499,-54.89498 L 59.51499,-54.89498 L 59.51499,-30.51098 L 31.57499,-30.51098 L 31.57499,-54.89498 z M 59.76899,-54.89498 L 65.51498,-54.89498 L 65.51498,-30.51098 L 59.76899,-30.51098 L 59.76899,-54.89498 z M 65.51498,-30.25698 L 65.51498,-27.51099 L 59.76899,-27.51099 L 59.76899,-30.25698 L 65.51498,-30.25698 z M 59.51499,-27.51099 L 31.57499,-27.51099 L 31.57499,-30.25698 L 59.51499,-30.25698 L 59.51499,-27.51099 z M 65.51498,-27.25699 L 65.51498,-2.87299 L 59.76899,-2.87299 L 59.76899,-27.25699 L 65.51498,-27.25699 z M 65.51498,-2.61899 L 65.51498,0.127 L 59.76899,0.127 L 59.76899,-2.61899 L 65.51498,-2.61899 z M 59.51499,0.127 L 31.57499,0.127 L 31.57499,-2.61899 L 59.51499,-2.61899 L 59.51499,0.127 z M 65.51498,0.381 L 65.51498,24.765 L 59.76899,24.765 L 59.76899,0.381 L 65.51498,0.381 z M 59.51499,24.765 L 31.57499,24.765 L 31.57499,0.381 L 59.51499,0.381 L 59.51499,24.765 z M 31.57499,-2.87299 L 31.57499,-27.25699 L 59.51499,-27.25699 L 59.51499,-2.87299 L 31.57499,-2.87299 z" fill="#66cc99" fill-rule="evenodd" opacity="0.6" stroke="#555555" stroke-width="0.1"/>
	</g>
	 
</svg>
