M48
METRIC,LZ,000.000
;FILE_FORMAT=3:3
;TYPE=PLATED
;Layer: PTH_Through
;EasyEDA v6.5.22, 2023-01-03 09:55:25
;7daa880b0f2f4c369114fb813a63f3e8,5dd06754fdd742daa6fe38bf62b7df6b,10
;Gerber Generator version 0.2
;Holesize 1 = 0.800 mm
T01C0.800
;Holesize 2 = 1.000 mm
T02C1.000
;Holesize 3 = 1.301 mm
T03C1.301
;Holesize 4 = 1.600 mm
T04C1.600
;Holesize 5 = 3.000 mm
T05C3.000
%
G05
G90
T01
X032131Y050800
X029591Y050800
X027051Y050800
X024511Y050800
X025781Y048260
X023241Y048260
X042291Y045720
X042291Y048260
X011811Y049530
X024511Y035560
X027051Y035560
X029591Y035560
X032131Y035560
X034671Y035560
X037211Y035560
X039751Y035560
X042291Y035560
X042291Y050800
X039751Y050800
X037211Y050800
X034671Y050800
X011811Y036830
X021971Y035560
X016891Y050800
X011811Y046990
X042291Y043180
X014351Y050800
X019431Y050800
X019431Y035560
X016891Y035560
X011811Y041910
X014351Y035560
X011811Y039370
X021971Y050800
X011811Y044450
T02
X053083Y044196G85X053089Y044196
X050584Y046736G85X050589Y046736
X053083Y049276G85X053089Y049276
T03
X065278Y019558
X070358Y019558
X067818Y019558
X050800Y019558
X055880Y019558
X053340Y019558
X036322Y019558
X041402Y019558
X038862Y019558
X021844Y019558
X026924Y019558
X024384Y019558
X007366Y019558
X012446Y019558
X009906Y019558
T04
X071374Y036489
X071374Y041489
X062905Y010160
X067905Y010160
X048395Y010160
X053395Y010160
X033885Y010160
X038885Y010160
X019376Y010160
X024376Y010160
X004866Y010160
X009866Y010160
T05
X069914Y027686
X005461Y031750
X069914Y054483
X005461Y052832
M30
