G04 Layer: BottomSilkscreenLayer*
G04 EasyEDA v6.5.22, 2023-01-03 09:55:25*
G04 7daa880b0f2f4c369114fb813a63f3e8,5dd06754fdd742daa6fe38bf62b7df6b,10*
G04 Gerber Generator version 0.2*
G04 Scale: 100 percent, Rotated: No, Reflected: No *
G04 Dimensions in millimeters *
G04 leading zeros omitted , absolute positions ,4 integer and 5 decimal *
%FSLAX45Y45*%
%MOMM*%

%ADD10C,0.1524*%

%LPD*%
D10*
X3415284Y2734310D02*
G01*
X3524250Y2734310D01*
X3415284Y2734310D02*
G01*
X3415284Y2687573D01*
X3420363Y2672079D01*
X3425697Y2666745D01*
X3436111Y2661665D01*
X3446525Y2661665D01*
X3456940Y2666745D01*
X3462020Y2672079D01*
X3467100Y2687573D01*
X3467100Y2734310D01*
X3467100Y2697987D02*
G01*
X3524250Y2661665D01*
X3415284Y2616962D02*
G01*
X3415284Y2559812D01*
X3456940Y2590800D01*
X3456940Y2575305D01*
X3462020Y2564892D01*
X3467100Y2559812D01*
X3482847Y2554478D01*
X3493261Y2554478D01*
X3508756Y2559812D01*
X3519170Y2570226D01*
X3524250Y2585720D01*
X3524250Y2601213D01*
X3519170Y2616962D01*
X3514090Y2622042D01*
X3503675Y2627376D01*
X3161284Y2736850D02*
G01*
X3270250Y2736850D01*
X3161284Y2736850D02*
G01*
X3161284Y2690113D01*
X3166363Y2674620D01*
X3171697Y2669286D01*
X3182111Y2664205D01*
X3192525Y2664205D01*
X3202940Y2669286D01*
X3208020Y2674620D01*
X3213100Y2690113D01*
X3213100Y2736850D01*
X3213100Y2700528D02*
G01*
X3270250Y2664205D01*
X3161284Y2577845D02*
G01*
X3233927Y2629915D01*
X3233927Y2551937D01*
X3161284Y2577845D02*
G01*
X3270250Y2577845D01*
X2907284Y2734310D02*
G01*
X3016250Y2734310D01*
X2907284Y2734310D02*
G01*
X2907284Y2687573D01*
X2912363Y2672079D01*
X2917697Y2666745D01*
X2928111Y2661665D01*
X2938525Y2661665D01*
X2948940Y2666745D01*
X2954020Y2672079D01*
X2959100Y2687573D01*
X2959100Y2734310D01*
X2959100Y2697987D02*
G01*
X3016250Y2661665D01*
X2907284Y2564892D02*
G01*
X2907284Y2616962D01*
X2954020Y2622042D01*
X2948940Y2616962D01*
X2943606Y2601213D01*
X2943606Y2585720D01*
X2948940Y2570226D01*
X2959100Y2559812D01*
X2974847Y2554478D01*
X2985261Y2554478D01*
X3000756Y2559812D01*
X3011170Y2570226D01*
X3016250Y2585720D01*
X3016250Y2601213D01*
X3011170Y2616962D01*
X3006090Y2622042D01*
X2995675Y2627376D01*
X2653284Y2731643D02*
G01*
X2762250Y2731643D01*
X2653284Y2731643D02*
G01*
X2653284Y2684906D01*
X2658363Y2669412D01*
X2663697Y2664079D01*
X2674111Y2658998D01*
X2684525Y2658998D01*
X2694940Y2664079D01*
X2700020Y2669412D01*
X2705100Y2684906D01*
X2705100Y2731643D01*
X2705100Y2695320D02*
G01*
X2762250Y2658998D01*
X2668777Y2562225D02*
G01*
X2658363Y2567559D01*
X2653284Y2583053D01*
X2653284Y2593467D01*
X2658363Y2608961D01*
X2674111Y2619375D01*
X2700020Y2624709D01*
X2725927Y2624709D01*
X2746756Y2619375D01*
X2757170Y2608961D01*
X2762250Y2593467D01*
X2762250Y2588132D01*
X2757170Y2572638D01*
X2746756Y2562225D01*
X2731261Y2557145D01*
X2725927Y2557145D01*
X2710434Y2562225D01*
X2700020Y2572638D01*
X2694940Y2588132D01*
X2694940Y2593467D01*
X2700020Y2608961D01*
X2710434Y2619375D01*
X2725927Y2624709D01*
X2399284Y2734310D02*
G01*
X2508250Y2734310D01*
X2399284Y2734310D02*
G01*
X2399284Y2687573D01*
X2404363Y2672079D01*
X2409697Y2666745D01*
X2420111Y2661665D01*
X2430525Y2661665D01*
X2440940Y2666745D01*
X2446020Y2672079D01*
X2451100Y2687573D01*
X2451100Y2734310D01*
X2451100Y2697987D02*
G01*
X2508250Y2661665D01*
X2399284Y2554478D02*
G01*
X2508250Y2606547D01*
X2399284Y2627376D02*
G01*
X2399284Y2554478D01*
X5848418Y3186684D02*
G01*
X5848418Y3264662D01*
X5853498Y3280155D01*
X5863912Y3290570D01*
X5879660Y3295650D01*
X5890074Y3295650D01*
X5905568Y3290570D01*
X5915982Y3280155D01*
X5921062Y3264662D01*
X5921062Y3186684D01*
X5955352Y3207512D02*
G01*
X5965766Y3202178D01*
X5981514Y3186684D01*
X5981514Y3295650D01*
X6015804Y3207512D02*
G01*
X6026218Y3202178D01*
X6041712Y3186684D01*
X6041712Y3295650D01*
X3558809Y2930530D02*
G01*
X3558809Y2802036D01*
X3375390Y2802036D01*
X3375390Y2930530D01*
X3558809Y3025769D02*
G01*
X3558809Y3154263D01*
X3375390Y3154263D01*
X3375390Y3025769D01*
X3304809Y2930530D02*
G01*
X3304809Y2802036D01*
X3121390Y2802036D01*
X3121390Y2930530D01*
X3304809Y3025769D02*
G01*
X3304809Y3154263D01*
X3121390Y3154263D01*
X3121390Y3025769D01*
X3050809Y2930530D02*
G01*
X3050809Y2802036D01*
X2867390Y2802036D01*
X2867390Y2930530D01*
X3050809Y3025769D02*
G01*
X3050809Y3154263D01*
X2867390Y3154263D01*
X2867390Y3025769D01*
X2796809Y2930530D02*
G01*
X2796809Y2802036D01*
X2613390Y2802036D01*
X2613390Y2930530D01*
X2796809Y3025769D02*
G01*
X2796809Y3154263D01*
X2613390Y3154263D01*
X2613390Y3025769D01*
X2542809Y2930530D02*
G01*
X2542809Y2802036D01*
X2359390Y2802036D01*
X2359390Y2930530D01*
X2542809Y3025769D02*
G01*
X2542809Y3154263D01*
X2359390Y3154263D01*
X2359390Y3025769D01*
X5983069Y3345179D02*
G01*
X5615686Y3345179D01*
X5983069Y4376420D02*
G01*
X5615686Y4376420D01*
X5615686Y3345179D02*
G01*
X5615686Y4376420D01*
M02*
