G04 Layer: BottomSolderMaskLayer*
G04 EasyEDA v6.5.22, 2023-01-03 09:55:25*
G04 7daa880b0f2f4c369114fb813a63f3e8,5dd06754fdd742daa6fe38bf62b7df6b,10*
G04 Gerber Generator version 0.2*
G04 Scale: 100 percent, Rotated: No, Reflected: No *
G04 Dimensions in millimeters *
G04 leading zeros omitted , absolute positions ,4 integer and 5 decimal *
%FSLAX45Y45*%
%MOMM*%

%AMMACRO1*1,1,$1,$2,$3*1,1,$1,$4,$5*1,1,$1,0-$2,0-$3*1,1,$1,0-$4,0-$5*20,1,$1,$2,$3,$4,$5,0*20,1,$1,$4,$5,0-$2,0-$3,0*20,1,$1,0-$2,0-$3,0-$4,0-$5,0*20,1,$1,0-$4,0-$5,$2,$3,0*4,1,4,$2,$3,$4,$5,0-$2,0-$3,0-$4,0-$5,$2,$3,0*%
%ADD10MACRO1,0.1016X0.6885X0.5663X-0.6885X0.5663*%
%ADD11MACRO1,0.1016X0.6885X-0.5663X-0.6885X-0.5663*%
%ADD12MACRO1,0.1016X1.647X0.49X1.647X-0.49*%
%ADD13MACRO1,0.1016X3.766X-5.2832X3.766X5.2832*%
%ADD14MACRO1,0.1016X-1.0008X1.2497X1.0008X1.2497*%
%ADD15O,2.101596X2.601595*%
%ADD16C,2.1016*%
%ADD17C,3.1016*%
%ADD18O,2.2031959999999997X2.7031949999999996*%
%ADD19C,1.7112*%
%ADD20O,2.7031949999999996X2.2031959999999997*%
%ADD21C,2.6016*%
%ADD22C,4.2032*%

%LPD*%
D10*
G01*
X3467100Y2878145D03*
D11*
G01*
X3467100Y3078154D03*
D10*
G01*
X3213100Y2878145D03*
D11*
G01*
X3213100Y3078154D03*
D10*
G01*
X2959100Y2878145D03*
D11*
G01*
X2959100Y3078154D03*
D10*
G01*
X2705100Y2878145D03*
D11*
G01*
X2705100Y3078154D03*
D10*
G01*
X2451100Y2878145D03*
D11*
G01*
X2451100Y3078154D03*
D12*
G01*
X5131305Y3606800D03*
G01*
X5131305Y4114800D03*
D13*
G01*
X6374912Y3860800D03*
D14*
G01*
X6527800Y1955797D03*
D15*
G01*
X7035800Y1955797D03*
G01*
X6781800Y1955797D03*
D14*
G01*
X5080000Y1955800D03*
D15*
G01*
X5588000Y1955800D03*
G01*
X5334000Y1955800D03*
D14*
G01*
X3632200Y1955802D03*
D15*
G01*
X4140200Y1955802D03*
G01*
X3886200Y1955802D03*
D14*
G01*
X2184400Y1955797D03*
D15*
G01*
X2692400Y1955797D03*
G01*
X2438400Y1955797D03*
D14*
G01*
X736600Y1955797D03*
D15*
G01*
X1244600Y1955797D03*
G01*
X990600Y1955797D03*
D16*
G01*
X5308600Y4419600D03*
D17*
G01*
X5058613Y4673600D03*
D16*
G01*
X5308600Y4927600D03*
D18*
G01*
X3213100Y5080000D03*
G01*
X2959100Y5080000D03*
G01*
X2705100Y5080000D03*
G01*
X2451100Y5080000D03*
D19*
G01*
X2578100Y4826000D03*
G01*
X2324100Y4826000D03*
G01*
X4229100Y4572000D03*
G01*
X4229100Y4826000D03*
D20*
G01*
X1181100Y4953000D03*
D18*
G01*
X2451100Y3556000D03*
G01*
X2705100Y3556000D03*
G01*
X2959100Y3556000D03*
G01*
X3213100Y3556000D03*
G01*
X3467100Y3556000D03*
G01*
X3721100Y3556000D03*
G01*
X3975100Y3556000D03*
G01*
X4229100Y3556000D03*
G01*
X4229100Y5080000D03*
G01*
X3975100Y5080000D03*
G01*
X3721100Y5080000D03*
G01*
X3467100Y5080000D03*
G01*
X1181100Y3683000D03*
G01*
X2197100Y3556000D03*
G01*
X1689100Y5080000D03*
D20*
G01*
X1181100Y4699000D03*
D19*
G01*
X4229100Y4318000D03*
D18*
G01*
X1435100Y5080000D03*
G01*
X1943100Y5080000D03*
G01*
X1943100Y3556000D03*
G01*
X1689100Y3556000D03*
D20*
G01*
X1181100Y4191000D03*
D18*
G01*
X1435100Y3556000D03*
D20*
G01*
X1181100Y3937000D03*
D18*
G01*
X2197100Y5080000D03*
D20*
G01*
X1181100Y4445000D03*
D17*
G01*
X7137400Y3648900D03*
G01*
X7137400Y4148899D03*
D21*
G01*
X6290500Y1016000D03*
G01*
X6790499Y1016000D03*
G01*
X4839525Y1016000D03*
G01*
X5339524Y1016000D03*
G01*
X3388550Y1016000D03*
G01*
X3888549Y1016000D03*
G01*
X1937575Y1016000D03*
G01*
X2437574Y1016000D03*
G01*
X486600Y1016000D03*
G01*
X986599Y1016000D03*
D22*
G01*
X6991350Y2768600D03*
G01*
X546100Y3175000D03*
G01*
X6991350Y5448300D03*
G01*
X546100Y5283200D03*
M02*
