G04 Layer: BottomLayer*
G04 EasyEDA v6.5.22, 2023-01-03 09:55:25*
G04 7daa880b0f2f4c369114fb813a63f3e8,5dd06754fdd742daa6fe38bf62b7df6b,10*
G04 Gerber Generator version 0.2*
G04 Scale: 100 percent, Rotated: No, Reflected: No *
G04 Dimensions in millimeters *
G04 leading zeros omitted , absolute positions ,4 integer and 5 decimal *
%FSLAX45Y45*%
%MOMM*%

%AMMACRO1*21,1,$1,$2,0,0,$3*%
%ADD10C,1.6000*%
%ADD11C,2.0000*%
%ADD12R,1.3770X1.1325*%
%ADD13MACRO1,1.377X1.1325X0.0000*%
%ADD14MACRO1,0.98X3.2941X-90.0000*%
%ADD15R,7.5321X10.5664*%
%ADD16MACRO1,2.0015X2.4994X0.0000*%
%ADD17O,1.9999959999999999X2.4999949999999997*%
%ADD18C,3.0000*%
%ADD19C,1.5080*%
%ADD20O,2.4999949999999997X1.9999959999999999*%
%ADD21C,2.5000*%
%ADD22C,4.0000*%
%ADD23C,0.0134*%

%LPD*%
G36*
X844753Y42418D02*
G01*
X806043Y43383D01*
X767842Y46228D01*
X729792Y50901D01*
X692048Y57454D01*
X654710Y65887D01*
X617778Y76098D01*
X581406Y88138D01*
X545642Y101955D01*
X510641Y117449D01*
X476402Y134721D01*
X443077Y153619D01*
X410718Y174091D01*
X379425Y196189D01*
X349199Y219760D01*
X320192Y244805D01*
X292455Y271221D01*
X266039Y298958D01*
X241046Y328015D01*
X217474Y358190D01*
X195427Y389534D01*
X174955Y421893D01*
X156057Y455269D01*
X138836Y489508D01*
X123342Y524510D01*
X109575Y560273D01*
X97536Y596646D01*
X87376Y633577D01*
X78994Y670966D01*
X72440Y708710D01*
X67767Y746760D01*
X64973Y784961D01*
X64008Y823417D01*
X64008Y5035042D01*
X64973Y5074056D01*
X67818Y5112258D01*
X72491Y5150256D01*
X79044Y5188000D01*
X87477Y5225389D01*
X97688Y5262321D01*
X109728Y5298694D01*
X123545Y5334457D01*
X139090Y5369458D01*
X156311Y5403646D01*
X175209Y5437022D01*
X195732Y5469382D01*
X217779Y5500674D01*
X241350Y5530850D01*
X266395Y5559856D01*
X292811Y5587593D01*
X320598Y5614009D01*
X349605Y5639054D01*
X379831Y5662625D01*
X411124Y5684672D01*
X443534Y5705144D01*
X476859Y5723991D01*
X511098Y5741212D01*
X546100Y5756757D01*
X581863Y5770524D01*
X618236Y5782513D01*
X655167Y5792724D01*
X692556Y5801106D01*
X730300Y5807659D01*
X768350Y5812332D01*
X806551Y5815126D01*
X845007Y5816092D01*
X7295642Y5816092D01*
X7334656Y5815126D01*
X7372858Y5812282D01*
X7410856Y5807557D01*
X7448600Y5801004D01*
X7485989Y5792622D01*
X7522921Y5782360D01*
X7559294Y5770372D01*
X7595006Y5756554D01*
X7630058Y5741009D01*
X7664246Y5723788D01*
X7697571Y5704890D01*
X7729981Y5684367D01*
X7761274Y5662320D01*
X7791450Y5638749D01*
X7820456Y5613704D01*
X7848193Y5587288D01*
X7874609Y5559501D01*
X7899653Y5530494D01*
X7923225Y5500268D01*
X7945272Y5468924D01*
X7965744Y5436565D01*
X7984591Y5403240D01*
X8001812Y5369001D01*
X8017357Y5333949D01*
X8031124Y5298236D01*
X8043113Y5261864D01*
X8053324Y5224932D01*
X8061706Y5187543D01*
X8068259Y5149799D01*
X8072932Y5111750D01*
X8075726Y5073548D01*
X8076692Y5035042D01*
X8076692Y823417D01*
X8075726Y784453D01*
X8072881Y746252D01*
X8068157Y708202D01*
X8061604Y670458D01*
X8053222Y633069D01*
X8042960Y596188D01*
X8030972Y559816D01*
X8017154Y524052D01*
X8001609Y489051D01*
X7984388Y454812D01*
X7965490Y421487D01*
X7944967Y389128D01*
X7922920Y357784D01*
X7899298Y327609D01*
X7874304Y298602D01*
X7847838Y270865D01*
X7820101Y244449D01*
X7791094Y219456D01*
X7760868Y195884D01*
X7729524Y173837D01*
X7697165Y153365D01*
X7663840Y134467D01*
X7629601Y117246D01*
X7594549Y101752D01*
X7558836Y87985D01*
X7522413Y75946D01*
X7485532Y65735D01*
X7448143Y57353D01*
X7410399Y50850D01*
X7372350Y46177D01*
X7334148Y43332D01*
X7295642Y42418D01*
G37*

%LPC*%
G36*
X7097725Y5554624D02*
G01*
X7250684Y5554624D01*
X7248245Y5560974D01*
X7238034Y5581802D01*
X7226198Y5601716D01*
X7212736Y5620613D01*
X7197750Y5638292D01*
X7181342Y5654700D01*
X7163663Y5669635D01*
X7144766Y5683148D01*
X7124852Y5694984D01*
X7104024Y5705195D01*
X7097725Y5707634D01*
G37*
G36*
X6732016Y5554624D02*
G01*
X6885025Y5554624D01*
X6885025Y5707634D01*
X6878675Y5705195D01*
X6857847Y5694984D01*
X6837934Y5683148D01*
X6819036Y5669635D01*
X6801358Y5654700D01*
X6784949Y5638292D01*
X6770014Y5620613D01*
X6756501Y5601716D01*
X6744665Y5581802D01*
X6734454Y5560974D01*
G37*
G36*
X286766Y5389524D02*
G01*
X439775Y5389524D01*
X439775Y5542534D01*
X433425Y5540095D01*
X412597Y5529884D01*
X392684Y5518048D01*
X373786Y5504535D01*
X356108Y5489600D01*
X339699Y5473192D01*
X324764Y5455513D01*
X311251Y5436616D01*
X299415Y5416702D01*
X289204Y5395874D01*
G37*
G36*
X652475Y5389524D02*
G01*
X805434Y5389524D01*
X802995Y5395874D01*
X792784Y5416702D01*
X780948Y5436616D01*
X767486Y5455513D01*
X752500Y5473192D01*
X736092Y5489600D01*
X718413Y5504535D01*
X699516Y5518048D01*
X679602Y5529884D01*
X658774Y5540095D01*
X652475Y5542534D01*
G37*
G36*
X7097725Y5188966D02*
G01*
X7104024Y5191404D01*
X7124852Y5201615D01*
X7144766Y5213451D01*
X7163663Y5226913D01*
X7181342Y5241899D01*
X7197750Y5258308D01*
X7212736Y5275986D01*
X7226198Y5294884D01*
X7238034Y5314797D01*
X7248245Y5335625D01*
X7250684Y5341924D01*
X7097725Y5341924D01*
G37*
G36*
X6885025Y5188966D02*
G01*
X6885025Y5341924D01*
X6732016Y5341924D01*
X6734454Y5335625D01*
X6744665Y5314797D01*
X6756501Y5294884D01*
X6770014Y5275986D01*
X6784949Y5258308D01*
X6801358Y5241899D01*
X6819036Y5226913D01*
X6837934Y5213451D01*
X6857847Y5201615D01*
X6878675Y5191404D01*
G37*
G36*
X439775Y5023866D02*
G01*
X439775Y5176824D01*
X286766Y5176824D01*
X289204Y5170525D01*
X299415Y5149697D01*
X311251Y5129784D01*
X324764Y5110886D01*
X339699Y5093208D01*
X356108Y5076799D01*
X373786Y5061813D01*
X392684Y5048351D01*
X412597Y5036515D01*
X433425Y5026304D01*
G37*
G36*
X652475Y5023866D02*
G01*
X658774Y5026304D01*
X679602Y5036515D01*
X699516Y5048351D01*
X718413Y5061813D01*
X736092Y5076799D01*
X752500Y5093208D01*
X767486Y5110886D01*
X780948Y5129784D01*
X792784Y5149697D01*
X802995Y5170525D01*
X805434Y5176824D01*
X652475Y5176824D01*
G37*
G36*
X5364937Y4475937D02*
G01*
X5479999Y4475937D01*
X5474004Y4491888D01*
X5465673Y4508500D01*
X5455716Y4524197D01*
X5444185Y4538776D01*
X5431231Y4552086D01*
X5416956Y4563973D01*
X5401513Y4574336D01*
X5385104Y4583074D01*
X5367883Y4590084D01*
X5364937Y4590948D01*
G37*
G36*
X4079798Y4362043D02*
G01*
X4185056Y4362043D01*
X4185056Y4409643D01*
X4186072Y4414062D01*
X4188866Y4417568D01*
X4192930Y4419549D01*
X4197451Y4419549D01*
X4203446Y4418228D01*
X4220514Y4416348D01*
X4237685Y4416348D01*
X4254754Y4418228D01*
X4260748Y4419549D01*
X4265269Y4419549D01*
X4269333Y4417568D01*
X4272127Y4414062D01*
X4273143Y4409643D01*
X4273143Y4362043D01*
X4378401Y4362043D01*
X4375099Y4372660D01*
X4368190Y4388408D01*
X4359605Y4403293D01*
X4349445Y4417110D01*
X4337812Y4429760D01*
X4329176Y4437278D01*
X4326534Y4440834D01*
X4325670Y4445203D01*
X4326788Y4449521D01*
X4329582Y4452975D01*
X4331512Y4454448D01*
X4343806Y4466386D01*
X4354728Y4479645D01*
X4364126Y4494072D01*
X4371848Y4509363D01*
X4377893Y4525467D01*
X4382109Y4542129D01*
X4384446Y4559147D01*
X4384954Y4576318D01*
X4383532Y4593437D01*
X4380230Y4610252D01*
X4375099Y4626660D01*
X4368190Y4642408D01*
X4359605Y4657293D01*
X4349445Y4671110D01*
X4337812Y4683760D01*
X4329176Y4691278D01*
X4326534Y4694834D01*
X4325670Y4699203D01*
X4326788Y4703521D01*
X4329582Y4706975D01*
X4331512Y4708448D01*
X4343806Y4720386D01*
X4354728Y4733645D01*
X4364126Y4748072D01*
X4371848Y4763363D01*
X4377893Y4779467D01*
X4382109Y4796129D01*
X4384446Y4813147D01*
X4384954Y4830318D01*
X4383532Y4847437D01*
X4380230Y4864252D01*
X4375099Y4880660D01*
X4368190Y4896408D01*
X4359605Y4911293D01*
X4356608Y4915357D01*
X4355084Y4918506D01*
X4354677Y4922012D01*
X4355490Y4925415D01*
X4357420Y4928362D01*
X4366056Y4937404D01*
X4377232Y4951882D01*
X4386935Y4967376D01*
X4394962Y4983835D01*
X4401312Y5000955D01*
X4405934Y5018684D01*
X4408678Y5036718D01*
X4409643Y5055260D01*
X4409643Y5104739D01*
X4408678Y5123281D01*
X4405934Y5141315D01*
X4404156Y5148072D01*
X4403902Y5151729D01*
X4404969Y5155285D01*
X4407204Y5158181D01*
X4410354Y5160111D01*
X4414012Y5160772D01*
X4602886Y5160772D01*
X4606798Y5160010D01*
X4610100Y5157825D01*
X4827625Y4940300D01*
X4829810Y4936998D01*
X4830572Y4933086D01*
X4830622Y4736947D01*
X4831537Y4723587D01*
X4832248Y4718507D01*
X4832146Y4715306D01*
X4830267Y4704994D01*
X4828336Y4684115D01*
X4828336Y4663084D01*
X4830267Y4642205D01*
X4834077Y4621580D01*
X4839716Y4601362D01*
X4847183Y4581753D01*
X4856429Y4562906D01*
X4867300Y4544974D01*
X4879797Y4528108D01*
X4893767Y4512462D01*
X4909108Y4498136D01*
X4925669Y4485284D01*
X4943348Y4473956D01*
X4961991Y4464304D01*
X4981397Y4456379D01*
X5001514Y4450283D01*
X5022037Y4446016D01*
X5042865Y4443628D01*
X5063845Y4443171D01*
X5084775Y4444593D01*
X5105501Y4447895D01*
X5125821Y4453128D01*
X5145633Y4460138D01*
X5164683Y4468926D01*
X5174437Y4474565D01*
X5176926Y4475581D01*
X5179517Y4475937D01*
X5252262Y4475937D01*
X5252262Y4545787D01*
X5252669Y4548784D01*
X5265623Y4572254D01*
X5274005Y4591456D01*
X5280710Y4611979D01*
X5285333Y4631842D01*
X5288178Y4652619D01*
X5289143Y4673600D01*
X5288178Y4694580D01*
X5285333Y4715357D01*
X5280609Y4735626D01*
X5280456Y4739538D01*
X5281828Y4743196D01*
X5284419Y4746040D01*
X5287924Y4747768D01*
X5291836Y4748022D01*
X5294680Y4747615D01*
X5313222Y4747158D01*
X5331764Y4748580D01*
X5350052Y4751933D01*
X5367883Y4757115D01*
X5385104Y4764125D01*
X5401513Y4772863D01*
X5416956Y4783226D01*
X5431231Y4795113D01*
X5444185Y4808423D01*
X5455716Y4823002D01*
X5465673Y4838700D01*
X5474004Y4855311D01*
X5480558Y4872685D01*
X5485282Y4890668D01*
X5488127Y4909058D01*
X5489092Y4927600D01*
X5488127Y4946142D01*
X5485282Y4964531D01*
X5480558Y4982514D01*
X5474004Y4999888D01*
X5465673Y5016500D01*
X5455716Y5032197D01*
X5445912Y5044592D01*
X5444286Y5047538D01*
X5443728Y5050891D01*
X5443677Y5338114D01*
X5442762Y5351576D01*
X5442254Y5355488D01*
X5439918Y5368696D01*
X5439003Y5372557D01*
X5435244Y5385460D01*
X5433923Y5389168D01*
X5428792Y5401564D01*
X5427116Y5405120D01*
X5418582Y5420258D01*
X5410860Y5431282D01*
X5408422Y5434380D01*
X5399582Y5444540D01*
X5152440Y5691682D01*
X5142280Y5700522D01*
X5139182Y5702960D01*
X5128158Y5710682D01*
X5113020Y5719216D01*
X5109464Y5720892D01*
X5097068Y5726023D01*
X5093360Y5727344D01*
X5080457Y5731103D01*
X5076596Y5732018D01*
X5063388Y5734354D01*
X5059476Y5734862D01*
X5046065Y5735777D01*
X2408885Y5735777D01*
X2395423Y5734862D01*
X2391511Y5734354D01*
X2378303Y5732018D01*
X2374442Y5731103D01*
X2361539Y5727344D01*
X2357831Y5726023D01*
X2345436Y5720892D01*
X2341880Y5719216D01*
X2326741Y5710682D01*
X2315718Y5702960D01*
X2312619Y5700522D01*
X2302459Y5691682D01*
X2080717Y5469940D01*
X2071878Y5459780D01*
X2069439Y5456682D01*
X2061718Y5445658D01*
X2053183Y5430520D01*
X2051507Y5426964D01*
X2046376Y5414568D01*
X2045055Y5410860D01*
X2041296Y5397957D01*
X2040382Y5394096D01*
X2038045Y5380888D01*
X2037537Y5376976D01*
X2036622Y5363514D01*
X2036572Y5276494D01*
X2035810Y5272582D01*
X2033574Y5269230D01*
X2030222Y5267045D01*
X2026310Y5266334D01*
X2022398Y5267147D01*
X2005787Y5274259D01*
X1988362Y5279745D01*
X1970430Y5283403D01*
X1952243Y5285282D01*
X1933956Y5285282D01*
X1915769Y5283403D01*
X1897837Y5279745D01*
X1880412Y5274259D01*
X1863598Y5267045D01*
X1847596Y5258206D01*
X1832610Y5247741D01*
X1822704Y5239258D01*
X1819605Y5237429D01*
X1816100Y5236768D01*
X1812594Y5237429D01*
X1809496Y5239258D01*
X1799589Y5247741D01*
X1784604Y5258206D01*
X1768602Y5267045D01*
X1751787Y5274259D01*
X1745437Y5276240D01*
X1745437Y5148834D01*
X1755597Y5148834D01*
X1759864Y5147919D01*
X1763318Y5145328D01*
X1765350Y5141468D01*
X1765655Y5137150D01*
X1763522Y5123281D01*
X1762607Y5104739D01*
X1762607Y5055260D01*
X1763522Y5036718D01*
X1765655Y5022850D01*
X1765350Y5018532D01*
X1763318Y5014671D01*
X1759864Y5012080D01*
X1755597Y5011166D01*
X1745437Y5011166D01*
X1745437Y4883759D01*
X1751787Y4885740D01*
X1768602Y4892954D01*
X1784604Y4901793D01*
X1799589Y4912258D01*
X1809496Y4920742D01*
X1812594Y4922570D01*
X1816100Y4923231D01*
X1819605Y4922570D01*
X1822704Y4920742D01*
X1832610Y4912258D01*
X1847596Y4901793D01*
X1863598Y4892954D01*
X1880412Y4885740D01*
X1897837Y4880254D01*
X1915769Y4876596D01*
X1933956Y4874717D01*
X1952243Y4874717D01*
X1970430Y4876596D01*
X1988362Y4880254D01*
X2005787Y4885740D01*
X2022602Y4892954D01*
X2033676Y4899101D01*
X2037740Y4900320D01*
X2041956Y4899761D01*
X2045614Y4897577D01*
X2048002Y4894021D01*
X2051507Y4885436D01*
X2053183Y4881880D01*
X2061718Y4866741D01*
X2069439Y4855718D01*
X2071878Y4852619D01*
X2080717Y4842459D01*
X2210409Y4712716D01*
X2223566Y4700879D01*
X2237638Y4690770D01*
X2252776Y4682185D01*
X2268728Y4675327D01*
X2285339Y4670247D01*
X2302408Y4666945D01*
X2319731Y4665573D01*
X2337104Y4666030D01*
X2354326Y4668367D01*
X2371191Y4672584D01*
X2387549Y4678578D01*
X2403094Y4686300D01*
X2417724Y4695647D01*
X2431288Y4706518D01*
X2443581Y4718812D01*
X2446172Y4722063D01*
X2449677Y4724857D01*
X2454046Y4725873D01*
X2458415Y4724908D01*
X2461971Y4722164D01*
X2463393Y4720386D01*
X2475687Y4708448D01*
X2489250Y4697882D01*
X2503881Y4688890D01*
X2519426Y4681575D01*
X2535682Y4675987D01*
X2552446Y4672228D01*
X2569514Y4670348D01*
X2586685Y4670348D01*
X2603754Y4672228D01*
X2620518Y4675987D01*
X2636774Y4681575D01*
X2652318Y4688890D01*
X2666949Y4697882D01*
X2680512Y4708448D01*
X2692806Y4720386D01*
X2703728Y4733645D01*
X2713126Y4748072D01*
X2720848Y4763363D01*
X2726893Y4779467D01*
X2731109Y4796129D01*
X2733446Y4813147D01*
X2733954Y4830318D01*
X2732532Y4847437D01*
X2729179Y4864506D01*
X2728772Y4868672D01*
X2730093Y4872685D01*
X2732938Y4875784D01*
X2736799Y4877460D01*
X2750362Y4880254D01*
X2767787Y4885740D01*
X2784602Y4892954D01*
X2800604Y4901793D01*
X2815590Y4912258D01*
X2825496Y4920742D01*
X2828594Y4922570D01*
X2832100Y4923231D01*
X2835605Y4922570D01*
X2838704Y4920742D01*
X2848610Y4912258D01*
X2863596Y4901793D01*
X2879598Y4892954D01*
X2896412Y4885740D01*
X2913837Y4880254D01*
X2931769Y4876596D01*
X2949956Y4874717D01*
X2968244Y4874717D01*
X2986430Y4876596D01*
X3004362Y4880254D01*
X3021787Y4885740D01*
X3038602Y4892954D01*
X3054604Y4901793D01*
X3069590Y4912258D01*
X3079496Y4920742D01*
X3082594Y4922570D01*
X3086100Y4923231D01*
X3089605Y4922570D01*
X3092704Y4920742D01*
X3102610Y4912258D01*
X3117596Y4901793D01*
X3133598Y4892954D01*
X3150412Y4885740D01*
X3167837Y4880254D01*
X3185769Y4876596D01*
X3203956Y4874717D01*
X3222244Y4874717D01*
X3240430Y4876596D01*
X3258362Y4880254D01*
X3275787Y4885740D01*
X3292601Y4892954D01*
X3308604Y4901793D01*
X3323590Y4912258D01*
X3333496Y4920742D01*
X3336594Y4922570D01*
X3340100Y4923231D01*
X3343605Y4922570D01*
X3346704Y4920742D01*
X3356610Y4912258D01*
X3371596Y4901793D01*
X3387598Y4892954D01*
X3404412Y4885740D01*
X3421837Y4880254D01*
X3439769Y4876596D01*
X3457956Y4874717D01*
X3476244Y4874717D01*
X3494430Y4876596D01*
X3512362Y4880254D01*
X3529787Y4885740D01*
X3546601Y4892954D01*
X3562604Y4901793D01*
X3577590Y4912258D01*
X3587496Y4920742D01*
X3590594Y4922570D01*
X3594100Y4923231D01*
X3597605Y4922570D01*
X3600704Y4920742D01*
X3610610Y4912258D01*
X3625596Y4901793D01*
X3641598Y4892954D01*
X3658412Y4885740D01*
X3675837Y4880254D01*
X3693769Y4876596D01*
X3711956Y4874717D01*
X3730244Y4874717D01*
X3748430Y4876596D01*
X3766362Y4880254D01*
X3783787Y4885740D01*
X3800601Y4892954D01*
X3816604Y4901793D01*
X3831590Y4912258D01*
X3841496Y4920742D01*
X3844594Y4922570D01*
X3848100Y4923231D01*
X3851605Y4922570D01*
X3854704Y4920742D01*
X3864610Y4912258D01*
X3879596Y4901793D01*
X3895598Y4892954D01*
X3912412Y4885740D01*
X3929837Y4880254D01*
X3947769Y4876596D01*
X3965956Y4874717D01*
X3984244Y4874717D01*
X4002430Y4876596D01*
X4020362Y4880254D01*
X4037787Y4885740D01*
X4054601Y4892954D01*
X4070604Y4901793D01*
X4072382Y4903063D01*
X4076395Y4904740D01*
X4080713Y4904536D01*
X4084624Y4902555D01*
X4087317Y4899152D01*
X4088333Y4894884D01*
X4087469Y4890617D01*
X4083100Y4880660D01*
X4077970Y4864252D01*
X4074668Y4847437D01*
X4073245Y4830318D01*
X4073753Y4813147D01*
X4076090Y4796129D01*
X4080306Y4779467D01*
X4086351Y4763363D01*
X4094073Y4748072D01*
X4103471Y4733645D01*
X4114393Y4720386D01*
X4126687Y4708448D01*
X4128617Y4706975D01*
X4131411Y4703521D01*
X4132529Y4699203D01*
X4131665Y4694834D01*
X4129024Y4691278D01*
X4120387Y4683760D01*
X4108754Y4671110D01*
X4098594Y4657293D01*
X4090009Y4642408D01*
X4083100Y4626660D01*
X4077970Y4610252D01*
X4074668Y4593437D01*
X4073245Y4576318D01*
X4073753Y4559147D01*
X4076090Y4542129D01*
X4080306Y4525467D01*
X4086351Y4509363D01*
X4094073Y4494072D01*
X4103471Y4479645D01*
X4114393Y4466386D01*
X4126687Y4454448D01*
X4128617Y4452975D01*
X4131411Y4449521D01*
X4132529Y4445203D01*
X4131665Y4440834D01*
X4129024Y4437278D01*
X4120387Y4429760D01*
X4108754Y4417110D01*
X4098594Y4403293D01*
X4090009Y4388408D01*
X4083100Y4372660D01*
G37*
G36*
X991565Y810564D02*
G01*
X1011377Y811987D01*
X1030935Y815340D01*
X1050086Y820572D01*
X1068679Y827582D01*
X1086459Y836371D01*
X1103325Y846886D01*
X1119124Y858926D01*
X1133652Y872439D01*
X1146810Y887323D01*
X1158494Y903376D01*
X1168552Y920496D01*
X1176934Y938530D01*
X1183487Y957224D01*
X1188262Y976528D01*
X1191158Y996187D01*
X1192072Y1016000D01*
X1191158Y1035812D01*
X1188262Y1055471D01*
X1183487Y1074775D01*
X1176934Y1093470D01*
X1168552Y1111504D01*
X1158494Y1128623D01*
X1153058Y1136091D01*
X1151636Y1138936D01*
X1151128Y1142085D01*
X1151128Y1759305D01*
X1151890Y1763217D01*
X1154125Y1766570D01*
X1157478Y1768754D01*
X1161389Y1769465D01*
X1165301Y1768652D01*
X1181912Y1761540D01*
X1188262Y1759559D01*
X1188262Y1886966D01*
X1178102Y1886966D01*
X1173835Y1887880D01*
X1170381Y1890471D01*
X1168349Y1894332D01*
X1168044Y1898650D01*
X1170178Y1912518D01*
X1171143Y1931060D01*
X1171143Y1980539D01*
X1170178Y1999081D01*
X1168044Y2012950D01*
X1168349Y2017268D01*
X1170381Y2021128D01*
X1173835Y2023719D01*
X1178102Y2024634D01*
X1188262Y2024634D01*
X1188262Y2152040D01*
X1181912Y2150059D01*
X1165098Y2142845D01*
X1149096Y2134006D01*
X1134110Y2123541D01*
X1124204Y2115058D01*
X1121105Y2113229D01*
X1117600Y2112568D01*
X1114094Y2113229D01*
X1110996Y2115058D01*
X1101090Y2123541D01*
X1086104Y2134006D01*
X1070102Y2142845D01*
X1053287Y2150059D01*
X1035862Y2155545D01*
X1017930Y2159203D01*
X999744Y2161082D01*
X981456Y2161082D01*
X963269Y2159203D01*
X945337Y2155545D01*
X927912Y2150059D01*
X911301Y2142947D01*
X907389Y2142083D01*
X903478Y2142845D01*
X900125Y2145030D01*
X897890Y2148332D01*
X897128Y2152243D01*
X897128Y2596286D01*
X897890Y2600198D01*
X900074Y2603500D01*
X1011275Y2714650D01*
X1014577Y2716834D01*
X1018438Y2717647D01*
X2450846Y2717647D01*
X2468473Y2718612D01*
X2480157Y2720492D01*
X2484374Y2720289D01*
X2488184Y2718409D01*
X2490825Y2715107D01*
X2491943Y2711043D01*
X2491282Y2706827D01*
X2488996Y2703322D01*
X2451100Y2665374D01*
X2447798Y2663190D01*
X2443886Y2662428D01*
X2345385Y2662377D01*
X2331923Y2661462D01*
X2328011Y2660954D01*
X2314803Y2658618D01*
X2310942Y2657703D01*
X2298039Y2653944D01*
X2294331Y2652623D01*
X2281936Y2647492D01*
X2278380Y2645816D01*
X2263241Y2637282D01*
X2252218Y2629560D01*
X2249119Y2627122D01*
X2238959Y2618282D01*
X2068017Y2447340D01*
X2059178Y2437180D01*
X2056739Y2434082D01*
X2049018Y2423058D01*
X2040483Y2407920D01*
X2038807Y2404364D01*
X2033676Y2391968D01*
X2032355Y2388260D01*
X2028596Y2375357D01*
X2027682Y2371496D01*
X2025345Y2358288D01*
X2024837Y2354376D01*
X2023922Y2340914D01*
X2023872Y2137308D01*
X2023364Y2134108D01*
X2021839Y2131212D01*
X2016709Y2124303D01*
X2011172Y2114245D01*
X2007158Y2103475D01*
X2004720Y2092248D01*
X2003907Y2080412D01*
X2003907Y1831136D01*
X2004720Y1819351D01*
X2007158Y1808124D01*
X2011172Y1797354D01*
X2016709Y1787296D01*
X2023567Y1778101D01*
X2031695Y1769973D01*
X2040889Y1763064D01*
X2050948Y1757578D01*
X2061718Y1753565D01*
X2072944Y1751126D01*
X2084781Y1750263D01*
X2267508Y1750263D01*
X2271420Y1749501D01*
X2274722Y1747316D01*
X2276906Y1744014D01*
X2277668Y1740103D01*
X2277160Y1147673D01*
X2276602Y1144270D01*
X2274925Y1141323D01*
X2271318Y1136802D01*
X2260396Y1120190D01*
X2251202Y1102614D01*
X2243683Y1084224D01*
X2238044Y1065174D01*
X2234234Y1045718D01*
X2232304Y1025906D01*
X2232304Y1006094D01*
X2234234Y986282D01*
X2238044Y966825D01*
X2243683Y947775D01*
X2251202Y929386D01*
X2260396Y911809D01*
X2271318Y895197D01*
X2283714Y879703D01*
X2297633Y865530D01*
X2312771Y852728D01*
X2329129Y841451D01*
X2346502Y831799D01*
X2364689Y823823D01*
X2383586Y817727D01*
X2402941Y813409D01*
X2422652Y811022D01*
X2442514Y810564D01*
X2462326Y811987D01*
X2481884Y815340D01*
X2501087Y820572D01*
X2519629Y827582D01*
X2537409Y836371D01*
X2554325Y846886D01*
X2570073Y858926D01*
X2584602Y872439D01*
X2597810Y887323D01*
X2609443Y903376D01*
X2619552Y920496D01*
X2627884Y938530D01*
X2634488Y957224D01*
X2639263Y976528D01*
X2642108Y996187D01*
X2643073Y1016000D01*
X2642108Y1035812D01*
X2639263Y1055471D01*
X2634488Y1074775D01*
X2627884Y1093470D01*
X2619552Y1111504D01*
X2609443Y1128623D01*
X2600147Y1141425D01*
X2598674Y1144270D01*
X2598216Y1147419D01*
X2598724Y1759407D01*
X2599537Y1763318D01*
X2601772Y1766620D01*
X2605074Y1768805D01*
X2608986Y1769567D01*
X2612898Y1768754D01*
X2629712Y1761540D01*
X2636062Y1759559D01*
X2636062Y1886966D01*
X2625902Y1886966D01*
X2621635Y1887880D01*
X2618181Y1890471D01*
X2616149Y1894332D01*
X2615844Y1898650D01*
X2617978Y1912518D01*
X2618943Y1931060D01*
X2618943Y1980539D01*
X2617978Y1999081D01*
X2615844Y2012950D01*
X2616149Y2017268D01*
X2618181Y2021128D01*
X2621635Y2023719D01*
X2625902Y2024634D01*
X2636062Y2024634D01*
X2636062Y2152040D01*
X2629712Y2150059D01*
X2612898Y2142845D01*
X2596896Y2134006D01*
X2581910Y2123541D01*
X2572004Y2115058D01*
X2568905Y2113229D01*
X2565400Y2112568D01*
X2561894Y2113229D01*
X2558796Y2115058D01*
X2548890Y2123541D01*
X2533904Y2134006D01*
X2517902Y2142845D01*
X2501087Y2150059D01*
X2483662Y2155545D01*
X2465730Y2159203D01*
X2447544Y2161082D01*
X2429256Y2161082D01*
X2411069Y2159203D01*
X2393137Y2155545D01*
X2375712Y2150059D01*
X2359101Y2142947D01*
X2355189Y2142083D01*
X2351278Y2142845D01*
X2347925Y2145030D01*
X2345690Y2148332D01*
X2344928Y2152243D01*
X2344928Y2266086D01*
X2345690Y2269998D01*
X2347874Y2273300D01*
X2413000Y2338425D01*
X2416302Y2340610D01*
X2420213Y2341372D01*
X2518714Y2341422D01*
X2532176Y2342337D01*
X2536088Y2342845D01*
X2549296Y2345182D01*
X2553157Y2346096D01*
X2566060Y2349855D01*
X2569768Y2351176D01*
X2582164Y2356307D01*
X2585720Y2357983D01*
X2600858Y2366518D01*
X2611882Y2374239D01*
X2614980Y2376678D01*
X2625140Y2385517D01*
X2781249Y2541524D01*
X2784551Y2543708D01*
X2788412Y2544521D01*
X2792272Y2543759D01*
X2795574Y2541574D01*
X2797810Y2538272D01*
X2798572Y2534412D01*
X2798622Y2523134D01*
X2799537Y2509723D01*
X2800045Y2505811D01*
X2802382Y2492603D01*
X2803296Y2488742D01*
X2807055Y2475839D01*
X2808376Y2472131D01*
X2813507Y2459736D01*
X2815183Y2456180D01*
X2823718Y2441041D01*
X2831439Y2430018D01*
X2833878Y2426919D01*
X2842717Y2416759D01*
X3051759Y2207717D01*
X3061919Y2198878D01*
X3065018Y2196439D01*
X3076041Y2188718D01*
X3091180Y2180183D01*
X3094736Y2178507D01*
X3107131Y2173376D01*
X3110839Y2172055D01*
X3123742Y2168296D01*
X3127603Y2167382D01*
X3140811Y2165045D01*
X3144723Y2164537D01*
X3158185Y2163622D01*
X3421786Y2163572D01*
X3425698Y2162810D01*
X3429000Y2160625D01*
X3459378Y2130196D01*
X3461715Y2126589D01*
X3462324Y2122322D01*
X3461105Y2118156D01*
X3458972Y2114245D01*
X3454958Y2103475D01*
X3452520Y2092248D01*
X3451707Y2080463D01*
X3451707Y1831187D01*
X3452520Y1819351D01*
X3454958Y1808124D01*
X3458972Y1797354D01*
X3464509Y1787296D01*
X3471367Y1778101D01*
X3479495Y1769973D01*
X3488690Y1763064D01*
X3498748Y1757578D01*
X3509518Y1753565D01*
X3520744Y1751126D01*
X3532581Y1750263D01*
X3716070Y1750263D01*
X3719931Y1749501D01*
X3723233Y1747316D01*
X3725418Y1744014D01*
X3726230Y1740154D01*
X3727704Y1147165D01*
X3727145Y1143762D01*
X3725468Y1140764D01*
X3722268Y1136802D01*
X3711397Y1120190D01*
X3702151Y1102614D01*
X3694684Y1084224D01*
X3688994Y1065174D01*
X3685184Y1045718D01*
X3683254Y1025906D01*
X3683254Y1006094D01*
X3685184Y986282D01*
X3688994Y966825D01*
X3694684Y947775D01*
X3702151Y929386D01*
X3711397Y911809D01*
X3722268Y895197D01*
X3734714Y879703D01*
X3748582Y865530D01*
X3763772Y852728D01*
X3780078Y841451D01*
X3797452Y831799D01*
X3815638Y823823D01*
X3834536Y817727D01*
X3853942Y813409D01*
X3873652Y811022D01*
X3893515Y810564D01*
X3913327Y811987D01*
X3932885Y815340D01*
X3952036Y820572D01*
X3970629Y827582D01*
X3988409Y836371D01*
X4005275Y846886D01*
X4021074Y858926D01*
X4035602Y872439D01*
X4048760Y887323D01*
X4060444Y903376D01*
X4070502Y920496D01*
X4078884Y938530D01*
X4085437Y957224D01*
X4090212Y976528D01*
X4093108Y996187D01*
X4094022Y1016000D01*
X4093108Y1035812D01*
X4090212Y1055471D01*
X4085437Y1074775D01*
X4078884Y1093470D01*
X4070502Y1111504D01*
X4060444Y1128623D01*
X4050690Y1142034D01*
X4049217Y1144879D01*
X4048709Y1147978D01*
X4047185Y1759102D01*
X4047998Y1763014D01*
X4050233Y1766316D01*
X4053535Y1768551D01*
X4057446Y1769262D01*
X4061358Y1768449D01*
X4077512Y1761540D01*
X4083862Y1759559D01*
X4083862Y1886966D01*
X4073702Y1886966D01*
X4069435Y1887880D01*
X4065981Y1890471D01*
X4063949Y1894332D01*
X4063644Y1898650D01*
X4065778Y1912518D01*
X4066743Y1931060D01*
X4066743Y1980539D01*
X4065778Y1999081D01*
X4063644Y2012950D01*
X4063949Y2017268D01*
X4065981Y2021128D01*
X4069435Y2023719D01*
X4073702Y2024634D01*
X4083862Y2024634D01*
X4083862Y2152040D01*
X4077512Y2150059D01*
X4060698Y2142845D01*
X4044696Y2134006D01*
X4029710Y2123541D01*
X4019804Y2115058D01*
X4016705Y2113229D01*
X4013200Y2112619D01*
X4009694Y2113229D01*
X4006596Y2115058D01*
X3996690Y2123541D01*
X3981704Y2134006D01*
X3965701Y2142845D01*
X3948887Y2150059D01*
X3931462Y2155545D01*
X3913530Y2159203D01*
X3895344Y2161082D01*
X3877056Y2161082D01*
X3858869Y2159203D01*
X3840937Y2155545D01*
X3823512Y2150059D01*
X3806901Y2142947D01*
X3802989Y2142134D01*
X3799078Y2142845D01*
X3795725Y2145030D01*
X3793490Y2148382D01*
X3792728Y2152294D01*
X3792677Y2188514D01*
X3791762Y2201976D01*
X3791254Y2205888D01*
X3788918Y2219096D01*
X3788003Y2222957D01*
X3784244Y2235860D01*
X3782923Y2239568D01*
X3777792Y2251964D01*
X3776116Y2255520D01*
X3767582Y2270658D01*
X3759860Y2281682D01*
X3757422Y2284780D01*
X3748582Y2294940D01*
X3617976Y2425649D01*
X3615791Y2428951D01*
X3614978Y2432812D01*
X3615791Y2436723D01*
X3617976Y2440025D01*
X3621278Y2442210D01*
X3625138Y2442972D01*
X3790086Y2442972D01*
X3793998Y2442210D01*
X3797300Y2440025D01*
X3877259Y2360117D01*
X3887419Y2351278D01*
X3890518Y2348839D01*
X3901541Y2341118D01*
X3916679Y2332583D01*
X3920236Y2330907D01*
X3932631Y2325776D01*
X3936339Y2324455D01*
X3949242Y2320696D01*
X3953103Y2319782D01*
X3966311Y2317445D01*
X3970223Y2316937D01*
X3983685Y2316022D01*
X4831486Y2315972D01*
X4835398Y2315210D01*
X4838700Y2313025D01*
X4916525Y2235200D01*
X4918710Y2231898D01*
X4919472Y2227986D01*
X4919472Y2137308D01*
X4918964Y2134108D01*
X4917440Y2131212D01*
X4912309Y2124303D01*
X4906772Y2114245D01*
X4902758Y2103475D01*
X4900320Y2092248D01*
X4899507Y2080412D01*
X4899507Y1831187D01*
X4900320Y1819351D01*
X4902758Y1808124D01*
X4906772Y1797354D01*
X4912309Y1787296D01*
X4919167Y1778101D01*
X4927295Y1769973D01*
X4936490Y1763064D01*
X4946548Y1757578D01*
X4957318Y1753565D01*
X4968544Y1751126D01*
X4980381Y1750263D01*
X5163312Y1750263D01*
X5167223Y1749501D01*
X5170525Y1747316D01*
X5172710Y1744014D01*
X5173472Y1740103D01*
X5173472Y1140155D01*
X5173065Y1137259D01*
X5171795Y1134618D01*
X5162346Y1120190D01*
X5153152Y1102614D01*
X5145633Y1084224D01*
X5139994Y1065174D01*
X5136184Y1045718D01*
X5134254Y1025906D01*
X5134254Y1006094D01*
X5136184Y986282D01*
X5139994Y966825D01*
X5145633Y947775D01*
X5153152Y929386D01*
X5162346Y911809D01*
X5173268Y895197D01*
X5185664Y879703D01*
X5199583Y865530D01*
X5214721Y852728D01*
X5231079Y841451D01*
X5248452Y831799D01*
X5266639Y823823D01*
X5285536Y817727D01*
X5304891Y813409D01*
X5324602Y811022D01*
X5344464Y810564D01*
X5364276Y811987D01*
X5383834Y815340D01*
X5403037Y820572D01*
X5421579Y827582D01*
X5439359Y836371D01*
X5456275Y846886D01*
X5472023Y858926D01*
X5486552Y872439D01*
X5499760Y887323D01*
X5511393Y903376D01*
X5521502Y920496D01*
X5529834Y938530D01*
X5536438Y957224D01*
X5541213Y976528D01*
X5544058Y996187D01*
X5545023Y1016000D01*
X5544058Y1035812D01*
X5541213Y1055471D01*
X5536438Y1074775D01*
X5529834Y1093470D01*
X5521502Y1111504D01*
X5511393Y1128623D01*
X5499760Y1144676D01*
X5497068Y1147673D01*
X5495188Y1150823D01*
X5494528Y1154430D01*
X5494528Y1759305D01*
X5495290Y1763217D01*
X5497525Y1766570D01*
X5500878Y1768754D01*
X5504789Y1769465D01*
X5508701Y1768652D01*
X5525312Y1761540D01*
X5531662Y1759559D01*
X5531662Y1886966D01*
X5521502Y1886966D01*
X5517235Y1887880D01*
X5513781Y1890471D01*
X5511749Y1894332D01*
X5511444Y1898650D01*
X5513578Y1912518D01*
X5514543Y1931060D01*
X5514543Y1980539D01*
X5513578Y1999081D01*
X5511444Y2012950D01*
X5511749Y2017268D01*
X5513781Y2021128D01*
X5517235Y2023719D01*
X5521502Y2024634D01*
X5531662Y2024634D01*
X5531662Y2152040D01*
X5525312Y2150059D01*
X5508498Y2142845D01*
X5492496Y2134006D01*
X5477510Y2123541D01*
X5467604Y2115058D01*
X5464505Y2113229D01*
X5461000Y2112568D01*
X5457494Y2113229D01*
X5454396Y2115058D01*
X5444490Y2123541D01*
X5429504Y2134006D01*
X5413502Y2142845D01*
X5396687Y2150059D01*
X5379262Y2155545D01*
X5361330Y2159203D01*
X5343144Y2161082D01*
X5324856Y2161082D01*
X5306669Y2159203D01*
X5288737Y2155545D01*
X5271312Y2150059D01*
X5254701Y2142947D01*
X5250789Y2142134D01*
X5246878Y2142845D01*
X5243525Y2145030D01*
X5241290Y2148382D01*
X5240528Y2152294D01*
X5240477Y2302814D01*
X5239562Y2316276D01*
X5239054Y2320188D01*
X5236718Y2333396D01*
X5235803Y2337257D01*
X5232044Y2350160D01*
X5230723Y2353868D01*
X5225592Y2366264D01*
X5223916Y2369820D01*
X5215382Y2384958D01*
X5207660Y2395982D01*
X5205222Y2399080D01*
X5196382Y2409240D01*
X5012740Y2592882D01*
X5002580Y2601722D01*
X4999482Y2604160D01*
X4988458Y2611882D01*
X4973320Y2620416D01*
X4969764Y2622092D01*
X4957368Y2627223D01*
X4953660Y2628544D01*
X4940757Y2632303D01*
X4936896Y2633218D01*
X4923688Y2635554D01*
X4919776Y2636062D01*
X4906365Y2636977D01*
X4058513Y2637028D01*
X4054601Y2637790D01*
X4051300Y2639974D01*
X3991000Y2700274D01*
X3988815Y2703576D01*
X3988054Y2707487D01*
X3988815Y2711348D01*
X3991000Y2714650D01*
X3994302Y2716834D01*
X3998214Y2717647D01*
X6220561Y2717647D01*
X6224422Y2716834D01*
X6227724Y2714650D01*
X6364325Y2578100D01*
X6366510Y2574798D01*
X6367272Y2570886D01*
X6367272Y2137308D01*
X6366764Y2134108D01*
X6365240Y2131212D01*
X6360109Y2124303D01*
X6354572Y2114245D01*
X6350558Y2103475D01*
X6348120Y2092248D01*
X6347307Y2080412D01*
X6347307Y1831136D01*
X6348120Y1819351D01*
X6350558Y1808124D01*
X6354572Y1797354D01*
X6360109Y1787296D01*
X6366967Y1778101D01*
X6375095Y1769973D01*
X6384290Y1763064D01*
X6394348Y1757578D01*
X6405118Y1753565D01*
X6416344Y1751126D01*
X6428181Y1750263D01*
X6611112Y1750263D01*
X6615023Y1749501D01*
X6618325Y1747316D01*
X6620509Y1744014D01*
X6621272Y1740103D01*
X6621272Y1135329D01*
X6620865Y1132433D01*
X6619595Y1129741D01*
X6613347Y1120190D01*
X6604101Y1102614D01*
X6596634Y1084224D01*
X6590944Y1065174D01*
X6587134Y1045718D01*
X6585203Y1025906D01*
X6585203Y1006094D01*
X6587134Y986282D01*
X6590944Y966825D01*
X6596634Y947775D01*
X6604101Y929386D01*
X6613347Y911809D01*
X6624218Y895197D01*
X6636664Y879703D01*
X6650532Y865530D01*
X6665722Y852728D01*
X6682028Y841451D01*
X6699402Y831799D01*
X6717588Y823823D01*
X6736486Y817727D01*
X6755892Y813409D01*
X6775602Y811022D01*
X6795465Y810564D01*
X6815277Y811987D01*
X6834835Y815340D01*
X6853986Y820572D01*
X6872579Y827582D01*
X6890359Y836371D01*
X6907225Y846886D01*
X6923024Y858926D01*
X6937552Y872439D01*
X6950709Y887323D01*
X6962394Y903376D01*
X6972452Y920496D01*
X6980834Y938530D01*
X6987387Y957224D01*
X6992162Y976528D01*
X6995058Y996187D01*
X6995972Y1016000D01*
X6995058Y1035812D01*
X6992162Y1055471D01*
X6987387Y1074775D01*
X6980834Y1093470D01*
X6972452Y1111504D01*
X6962394Y1128623D01*
X6950709Y1144676D01*
X6944868Y1151280D01*
X6942988Y1154430D01*
X6942328Y1158036D01*
X6942328Y1759305D01*
X6943090Y1763217D01*
X6945325Y1766570D01*
X6948678Y1768754D01*
X6952589Y1769465D01*
X6956501Y1768652D01*
X6973112Y1761540D01*
X6979462Y1759559D01*
X6979462Y1886966D01*
X6969302Y1886966D01*
X6965035Y1887880D01*
X6961581Y1890471D01*
X6959549Y1894332D01*
X6959244Y1898650D01*
X6961378Y1912518D01*
X6962343Y1931060D01*
X6962343Y1980539D01*
X6961378Y1999081D01*
X6959244Y2012950D01*
X6959549Y2017268D01*
X6961581Y2021128D01*
X6965035Y2023719D01*
X6969302Y2024634D01*
X6979462Y2024634D01*
X6979462Y2152040D01*
X6973112Y2150059D01*
X6956298Y2142845D01*
X6940296Y2134006D01*
X6925309Y2123541D01*
X6915403Y2115058D01*
X6912305Y2113229D01*
X6908800Y2112568D01*
X6905294Y2113229D01*
X6902196Y2115058D01*
X6892290Y2123541D01*
X6877303Y2134006D01*
X6861302Y2142845D01*
X6844487Y2150059D01*
X6827062Y2155545D01*
X6809130Y2159203D01*
X6790944Y2161082D01*
X6772656Y2161082D01*
X6754469Y2159203D01*
X6736537Y2155545D01*
X6719112Y2150059D01*
X6702501Y2142947D01*
X6698589Y2142083D01*
X6694678Y2142845D01*
X6691325Y2145030D01*
X6689090Y2148332D01*
X6688328Y2152243D01*
X6688277Y2645714D01*
X6687362Y2659176D01*
X6686854Y2663088D01*
X6684518Y2676296D01*
X6683603Y2680157D01*
X6679844Y2693060D01*
X6678523Y2696768D01*
X6673392Y2709164D01*
X6671716Y2712720D01*
X6663181Y2727858D01*
X6655460Y2738882D01*
X6653022Y2741980D01*
X6644182Y2752140D01*
X6401765Y2994558D01*
X6391656Y3003397D01*
X6388557Y3005785D01*
X6377533Y3013506D01*
X6374180Y3015589D01*
X6362395Y3022041D01*
X6358839Y3023717D01*
X6346393Y3028899D01*
X6342684Y3030220D01*
X6329781Y3033979D01*
X6325971Y3034842D01*
X6312712Y3037230D01*
X6308801Y3037687D01*
X6295390Y3038602D01*
X3634994Y3038652D01*
X3630726Y3039618D01*
X3627272Y3042259D01*
X3625189Y3046120D01*
X3624986Y3050489D01*
X3626662Y3060801D01*
X3627628Y3078429D01*
X3627628Y3359505D01*
X3628390Y3363417D01*
X3630625Y3366770D01*
X3633978Y3368954D01*
X3637889Y3369665D01*
X3641801Y3368852D01*
X3658412Y3361740D01*
X3675837Y3356254D01*
X3693769Y3352596D01*
X3711956Y3350717D01*
X3730244Y3350717D01*
X3748430Y3352596D01*
X3766362Y3356254D01*
X3783787Y3361740D01*
X3800601Y3368954D01*
X3816604Y3377793D01*
X3831590Y3388258D01*
X3841496Y3396742D01*
X3844594Y3398570D01*
X3848100Y3399231D01*
X3851605Y3398570D01*
X3854704Y3396742D01*
X3864610Y3388258D01*
X3879596Y3377793D01*
X3895598Y3368954D01*
X3912412Y3361740D01*
X3929837Y3356254D01*
X3947769Y3352596D01*
X3965956Y3350717D01*
X3984244Y3350717D01*
X4002430Y3352596D01*
X4020362Y3356254D01*
X4037787Y3361740D01*
X4054601Y3368954D01*
X4070604Y3377793D01*
X4085590Y3388258D01*
X4095496Y3396742D01*
X4098594Y3398570D01*
X4102100Y3399231D01*
X4105605Y3398570D01*
X4108704Y3396742D01*
X4118610Y3388258D01*
X4133596Y3377793D01*
X4149598Y3368954D01*
X4166412Y3361740D01*
X4183837Y3356254D01*
X4201769Y3352596D01*
X4219956Y3350717D01*
X4238244Y3350717D01*
X4256430Y3352596D01*
X4274362Y3356254D01*
X4291787Y3361740D01*
X4308602Y3368954D01*
X4324604Y3377793D01*
X4339590Y3388258D01*
X4353458Y3400196D01*
X4366056Y3413404D01*
X4377232Y3427882D01*
X4386935Y3443376D01*
X4394962Y3459835D01*
X4401312Y3476955D01*
X4405934Y3494684D01*
X4408678Y3512718D01*
X4409643Y3531260D01*
X4409643Y3580739D01*
X4408678Y3599281D01*
X4405934Y3617315D01*
X4401312Y3635044D01*
X4394962Y3652164D01*
X4386935Y3668623D01*
X4377232Y3684117D01*
X4366056Y3698595D01*
X4353458Y3711803D01*
X4339590Y3723741D01*
X4324604Y3734206D01*
X4308602Y3743045D01*
X4291787Y3750259D01*
X4274362Y3755745D01*
X4271314Y3756355D01*
X4267403Y3758082D01*
X4264558Y3761181D01*
X4263237Y3765245D01*
X4263644Y3769410D01*
X4265777Y3773119D01*
X4269181Y3775608D01*
X4273346Y3776472D01*
X4753965Y3776522D01*
X4767376Y3777437D01*
X4771288Y3777945D01*
X4784496Y3780282D01*
X4788357Y3781196D01*
X4801260Y3784955D01*
X4804968Y3786276D01*
X4817364Y3791407D01*
X4820920Y3793083D01*
X4836058Y3801618D01*
X4847082Y3809339D01*
X4850180Y3811778D01*
X4860340Y3820617D01*
X4991100Y3951325D01*
X4994402Y3953510D01*
X4998313Y3954272D01*
X5131054Y3954272D01*
X5148681Y3955237D01*
X5165801Y3958031D01*
X5182565Y3962704D01*
X5198719Y3969156D01*
X5214061Y3977284D01*
X5223306Y3983532D01*
X5225999Y3984853D01*
X5228996Y3985260D01*
X5295646Y3985260D01*
X5307482Y3986123D01*
X5318709Y3988562D01*
X5329428Y3992575D01*
X5339537Y3998061D01*
X5348732Y4004970D01*
X5356860Y4013098D01*
X5363718Y4022293D01*
X5369204Y4032351D01*
X5373217Y4043121D01*
X5375706Y4054348D01*
X5376519Y4066184D01*
X5376519Y4163415D01*
X5375706Y4175251D01*
X5373217Y4186478D01*
X5369204Y4197248D01*
X5363718Y4207306D01*
X5356860Y4216501D01*
X5348732Y4224629D01*
X5339537Y4231538D01*
X5329428Y4237024D01*
X5318709Y4241038D01*
X5307482Y4243476D01*
X5295646Y4244340D01*
X5262422Y4244340D01*
X5258511Y4245102D01*
X5255209Y4247286D01*
X5253024Y4250588D01*
X5252262Y4254500D01*
X5252262Y4363262D01*
X5137353Y4363262D01*
X5139690Y4355947D01*
X5147157Y4338878D01*
X5156301Y4322724D01*
X5167071Y4307586D01*
X5179314Y4293616D01*
X5188458Y4285183D01*
X5190998Y4281474D01*
X5191658Y4277055D01*
X5190439Y4272788D01*
X5187442Y4269435D01*
X5183276Y4267708D01*
X5178806Y4267962D01*
X5165801Y4271568D01*
X5148681Y4274362D01*
X5131054Y4275328D01*
X4923485Y4275277D01*
X4910023Y4274362D01*
X4906111Y4273854D01*
X4892903Y4271518D01*
X4889042Y4270603D01*
X4876139Y4266844D01*
X4872431Y4265523D01*
X4860036Y4260392D01*
X4856480Y4258716D01*
X4841341Y4250182D01*
X4830318Y4242460D01*
X4827219Y4240022D01*
X4817059Y4231182D01*
X4686300Y4100474D01*
X4682998Y4098290D01*
X4679086Y4097528D01*
X1823313Y4097528D01*
X1819402Y4098290D01*
X1816100Y4100474D01*
X1598574Y4318000D01*
X1596390Y4321302D01*
X1595628Y4325213D01*
X1595628Y4883505D01*
X1596390Y4887417D01*
X1598625Y4890770D01*
X1601978Y4892954D01*
X1605889Y4893665D01*
X1609801Y4892852D01*
X1626412Y4885740D01*
X1632762Y4883759D01*
X1632762Y5011166D01*
X1622602Y5011166D01*
X1618335Y5012080D01*
X1614881Y5014671D01*
X1612849Y5018532D01*
X1612544Y5022850D01*
X1614678Y5036718D01*
X1615643Y5055260D01*
X1615643Y5104739D01*
X1614678Y5123281D01*
X1612544Y5137150D01*
X1612849Y5141468D01*
X1614881Y5145328D01*
X1618335Y5147919D01*
X1622602Y5148834D01*
X1632762Y5148834D01*
X1632762Y5276240D01*
X1626412Y5274259D01*
X1609598Y5267045D01*
X1593596Y5258206D01*
X1578610Y5247741D01*
X1568704Y5239258D01*
X1565605Y5237429D01*
X1562100Y5236768D01*
X1558594Y5237429D01*
X1555496Y5239258D01*
X1545590Y5247741D01*
X1530604Y5258206D01*
X1514602Y5267045D01*
X1497787Y5274259D01*
X1480362Y5279745D01*
X1462430Y5283403D01*
X1444244Y5285282D01*
X1425956Y5285282D01*
X1407769Y5283403D01*
X1389837Y5279745D01*
X1372412Y5274259D01*
X1355598Y5267045D01*
X1339596Y5258206D01*
X1324610Y5247741D01*
X1310741Y5235803D01*
X1298143Y5222595D01*
X1286967Y5208117D01*
X1277264Y5192623D01*
X1269238Y5176164D01*
X1262888Y5159044D01*
X1258265Y5141315D01*
X1257706Y5137404D01*
X1256182Y5133492D01*
X1253236Y5130495D01*
X1249324Y5128920D01*
X1245108Y5129123D01*
X1242415Y5129834D01*
X1224381Y5132578D01*
X1205839Y5133492D01*
X1156360Y5133492D01*
X1137818Y5132578D01*
X1119784Y5129834D01*
X1102055Y5125212D01*
X1084935Y5118862D01*
X1068476Y5110835D01*
X1052982Y5101132D01*
X1038504Y5089956D01*
X1025296Y5077358D01*
X1013358Y5063490D01*
X1002893Y5048504D01*
X994054Y5032502D01*
X986840Y5015687D01*
X981354Y4998262D01*
X977696Y4980330D01*
X975817Y4962144D01*
X975817Y4943856D01*
X977696Y4925669D01*
X981354Y4907737D01*
X986840Y4890312D01*
X994054Y4873498D01*
X1002893Y4857496D01*
X1013358Y4842510D01*
X1021842Y4832604D01*
X1023670Y4829505D01*
X1024331Y4826000D01*
X1023670Y4822494D01*
X1021842Y4819396D01*
X1013358Y4809490D01*
X1002893Y4794504D01*
X994054Y4778502D01*
X986840Y4761687D01*
X981354Y4744262D01*
X977696Y4726330D01*
X975817Y4708144D01*
X975817Y4689856D01*
X977696Y4671669D01*
X981354Y4653737D01*
X986840Y4636312D01*
X994054Y4619498D01*
X1002893Y4603496D01*
X1013358Y4588510D01*
X1021842Y4578604D01*
X1023670Y4575505D01*
X1024331Y4572000D01*
X1023670Y4568494D01*
X1021842Y4565396D01*
X1013358Y4555490D01*
X1002893Y4540504D01*
X994054Y4524502D01*
X986840Y4507687D01*
X981354Y4490262D01*
X977696Y4472330D01*
X975817Y4454144D01*
X975817Y4435856D01*
X977696Y4417669D01*
X981354Y4399737D01*
X986840Y4382312D01*
X994054Y4365498D01*
X1002893Y4349496D01*
X1013358Y4334510D01*
X1021842Y4324604D01*
X1023670Y4321505D01*
X1024331Y4318000D01*
X1023670Y4314494D01*
X1021842Y4311396D01*
X1013358Y4301490D01*
X1002893Y4286504D01*
X994054Y4270502D01*
X986840Y4253687D01*
X981354Y4236262D01*
X977696Y4218330D01*
X975817Y4200144D01*
X975817Y4181856D01*
X977696Y4163669D01*
X981354Y4145737D01*
X986840Y4128312D01*
X994054Y4111498D01*
X1002893Y4095496D01*
X1013358Y4080510D01*
X1021842Y4070604D01*
X1023670Y4067505D01*
X1024331Y4064000D01*
X1023670Y4060494D01*
X1021842Y4057396D01*
X1013358Y4047490D01*
X1002893Y4032504D01*
X994054Y4016501D01*
X986840Y3999687D01*
X981354Y3982262D01*
X977696Y3964330D01*
X975817Y3946144D01*
X975817Y3927856D01*
X977696Y3909669D01*
X981354Y3891737D01*
X986840Y3874312D01*
X994054Y3857498D01*
X1002893Y3841496D01*
X1013358Y3826510D01*
X1025398Y3812489D01*
X1027430Y3808729D01*
X1027785Y3804513D01*
X1026312Y3800500D01*
X1023264Y3795623D01*
X1015237Y3779164D01*
X1008887Y3762044D01*
X1004265Y3744315D01*
X1001521Y3726281D01*
X1000607Y3707739D01*
X1000607Y3658260D01*
X1001521Y3639718D01*
X1004265Y3621684D01*
X1008887Y3603955D01*
X1015237Y3586835D01*
X1023264Y3570376D01*
X1032967Y3554882D01*
X1044143Y3540404D01*
X1056741Y3527196D01*
X1070610Y3515258D01*
X1085596Y3504793D01*
X1101598Y3495954D01*
X1118412Y3488740D01*
X1135837Y3483254D01*
X1153769Y3479596D01*
X1171956Y3477717D01*
X1190244Y3477717D01*
X1208430Y3479596D01*
X1226362Y3483254D01*
X1243787Y3488740D01*
X1247343Y3490264D01*
X1251610Y3491077D01*
X1255826Y3490061D01*
X1259230Y3487318D01*
X1261211Y3483457D01*
X1262888Y3476955D01*
X1269238Y3459835D01*
X1277264Y3443376D01*
X1286967Y3427882D01*
X1298143Y3413404D01*
X1310741Y3400196D01*
X1324610Y3388258D01*
X1339596Y3377793D01*
X1355598Y3368954D01*
X1372412Y3361740D01*
X1389837Y3356254D01*
X1407769Y3352596D01*
X1425956Y3350717D01*
X1444244Y3350717D01*
X1462430Y3352596D01*
X1480362Y3356254D01*
X1497787Y3361740D01*
X1514602Y3368954D01*
X1530604Y3377793D01*
X1545590Y3388258D01*
X1555496Y3396742D01*
X1558594Y3398570D01*
X1562100Y3399231D01*
X1565605Y3398570D01*
X1568704Y3396742D01*
X1578610Y3388258D01*
X1593596Y3377793D01*
X1609598Y3368954D01*
X1626412Y3361740D01*
X1643837Y3356254D01*
X1661769Y3352596D01*
X1679956Y3350717D01*
X1698243Y3350717D01*
X1716430Y3352596D01*
X1734362Y3356254D01*
X1751787Y3361740D01*
X1768602Y3368954D01*
X1784604Y3377793D01*
X1799589Y3388258D01*
X1809496Y3396742D01*
X1812594Y3398570D01*
X1816100Y3399231D01*
X1819605Y3398570D01*
X1822704Y3396742D01*
X1832610Y3388258D01*
X1847596Y3377793D01*
X1863598Y3368954D01*
X1880412Y3361740D01*
X1897837Y3356254D01*
X1915769Y3352596D01*
X1933956Y3350717D01*
X1952243Y3350717D01*
X1970430Y3352596D01*
X1988362Y3356254D01*
X2005787Y3361740D01*
X2022602Y3368954D01*
X2038604Y3377793D01*
X2053589Y3388258D01*
X2063496Y3396742D01*
X2066594Y3398570D01*
X2070100Y3399231D01*
X2073605Y3398570D01*
X2076704Y3396742D01*
X2086610Y3388258D01*
X2101596Y3377793D01*
X2117598Y3368954D01*
X2134412Y3361740D01*
X2140762Y3359759D01*
X2140762Y3487165D01*
X2130602Y3487165D01*
X2126335Y3488080D01*
X2122881Y3490671D01*
X2120849Y3494532D01*
X2120544Y3498850D01*
X2122678Y3512718D01*
X2123643Y3531260D01*
X2123643Y3580739D01*
X2122678Y3599281D01*
X2120544Y3613150D01*
X2120849Y3617468D01*
X2122881Y3621328D01*
X2126335Y3623919D01*
X2130602Y3624834D01*
X2140762Y3624834D01*
X2140762Y3752240D01*
X2134412Y3750259D01*
X2117598Y3743045D01*
X2101596Y3734206D01*
X2086610Y3723741D01*
X2076704Y3715258D01*
X2073605Y3713429D01*
X2070100Y3712768D01*
X2066594Y3713429D01*
X2063496Y3715258D01*
X2053589Y3723741D01*
X2038604Y3734206D01*
X2022602Y3743045D01*
X2005787Y3750259D01*
X1988362Y3755745D01*
X1985314Y3756355D01*
X1981403Y3758082D01*
X1978558Y3761181D01*
X1977237Y3765245D01*
X1977643Y3769410D01*
X1979777Y3773119D01*
X1983181Y3775608D01*
X1987346Y3776472D01*
X2406853Y3776472D01*
X2411018Y3775608D01*
X2414422Y3773119D01*
X2416556Y3769410D01*
X2416962Y3765245D01*
X2415641Y3761181D01*
X2412796Y3758082D01*
X2408885Y3756355D01*
X2405837Y3755745D01*
X2388412Y3750259D01*
X2371598Y3743045D01*
X2355596Y3734206D01*
X2340610Y3723741D01*
X2330704Y3715258D01*
X2327605Y3713429D01*
X2324100Y3712768D01*
X2320594Y3713429D01*
X2317496Y3715258D01*
X2307590Y3723741D01*
X2292604Y3734206D01*
X2276602Y3743045D01*
X2259787Y3750259D01*
X2253437Y3752240D01*
X2253437Y3624834D01*
X2263597Y3624834D01*
X2267864Y3623919D01*
X2271318Y3621328D01*
X2273350Y3617468D01*
X2273655Y3613150D01*
X2271522Y3599281D01*
X2270607Y3580739D01*
X2270607Y3531260D01*
X2271522Y3512718D01*
X2273655Y3498850D01*
X2273350Y3494532D01*
X2271318Y3490671D01*
X2267864Y3488080D01*
X2263597Y3487165D01*
X2253437Y3487165D01*
X2253437Y3359759D01*
X2259787Y3361740D01*
X2276398Y3368852D01*
X2280310Y3369665D01*
X2284222Y3368954D01*
X2287574Y3366770D01*
X2289810Y3363417D01*
X2290572Y3359505D01*
X2290572Y3078429D01*
X2291537Y3060801D01*
X2293213Y3050489D01*
X2293010Y3046120D01*
X2290927Y3042259D01*
X2287473Y3039618D01*
X2283206Y3038652D01*
X943610Y3038602D01*
X930198Y3037687D01*
X926287Y3037230D01*
X913028Y3034842D01*
X909218Y3033979D01*
X896315Y3030220D01*
X892606Y3028899D01*
X880160Y3023717D01*
X876604Y3022041D01*
X864819Y3015589D01*
X861466Y3013506D01*
X850442Y3005785D01*
X847344Y3003397D01*
X837234Y2994558D01*
X620217Y2777540D01*
X611378Y2767380D01*
X608939Y2764282D01*
X601218Y2753258D01*
X592683Y2738120D01*
X591007Y2734564D01*
X585876Y2722168D01*
X584555Y2718460D01*
X580796Y2705557D01*
X579882Y2701696D01*
X577545Y2688488D01*
X577037Y2684576D01*
X576122Y2671114D01*
X576072Y2137308D01*
X575564Y2134108D01*
X574040Y2131212D01*
X568909Y2124303D01*
X563372Y2114245D01*
X559358Y2103475D01*
X556920Y2092248D01*
X556107Y2080412D01*
X556107Y1831136D01*
X556920Y1819351D01*
X559358Y1808124D01*
X563372Y1797354D01*
X568909Y1787296D01*
X575767Y1778101D01*
X583895Y1769973D01*
X593090Y1763064D01*
X603148Y1757578D01*
X613918Y1753565D01*
X625144Y1751126D01*
X636981Y1750263D01*
X819912Y1750263D01*
X823823Y1749501D01*
X827125Y1747316D01*
X829310Y1744014D01*
X830071Y1740103D01*
X830071Y1152499D01*
X829513Y1149146D01*
X827836Y1146149D01*
X820318Y1136802D01*
X809447Y1120190D01*
X800201Y1102614D01*
X792734Y1084224D01*
X787044Y1065174D01*
X783234Y1045718D01*
X781304Y1025906D01*
X781304Y1006094D01*
X783234Y986282D01*
X787044Y966825D01*
X792734Y947775D01*
X800201Y929386D01*
X809447Y911809D01*
X820318Y895197D01*
X832764Y879703D01*
X846632Y865530D01*
X861821Y852728D01*
X878128Y841451D01*
X895502Y831799D01*
X913688Y823823D01*
X932586Y817727D01*
X951992Y813409D01*
X971702Y811022D01*
G37*
G36*
X5364937Y4248251D02*
G01*
X5367883Y4249115D01*
X5385104Y4256125D01*
X5401513Y4264863D01*
X5416956Y4275226D01*
X5431231Y4287113D01*
X5444185Y4300423D01*
X5455716Y4315002D01*
X5465673Y4330700D01*
X5474004Y4347311D01*
X5479999Y4363262D01*
X5364937Y4363262D01*
G37*
G36*
X4273143Y4168546D02*
G01*
X4287774Y4173575D01*
X4303318Y4180890D01*
X4317949Y4189882D01*
X4331512Y4200448D01*
X4343806Y4212386D01*
X4354728Y4225645D01*
X4364126Y4240072D01*
X4371848Y4255363D01*
X4377893Y4271467D01*
X4378502Y4273956D01*
X4273143Y4273956D01*
G37*
G36*
X4185056Y4168546D02*
G01*
X4185056Y4273956D01*
X4079697Y4273956D01*
X4080306Y4271467D01*
X4086351Y4255363D01*
X4094073Y4240072D01*
X4103471Y4225645D01*
X4114393Y4212386D01*
X4126687Y4200448D01*
X4140250Y4189882D01*
X4154881Y4180890D01*
X4170426Y4173575D01*
G37*
G36*
X6569557Y4131310D02*
G01*
X6832041Y4131310D01*
X6832041Y4388764D01*
X6831177Y4400550D01*
X6828739Y4411776D01*
X6824725Y4422546D01*
X6819239Y4432655D01*
X6812330Y4441850D01*
X6804202Y4449927D01*
X6795008Y4456836D01*
X6784949Y4462322D01*
X6774180Y4466336D01*
X6762953Y4468774D01*
X6751167Y4469638D01*
X6569557Y4469638D01*
G37*
G36*
X2748737Y1759559D02*
G01*
X2755087Y1761540D01*
X2771902Y1768754D01*
X2787904Y1777593D01*
X2802890Y1788058D01*
X2816758Y1799945D01*
X2829356Y1813204D01*
X2840532Y1827682D01*
X2850235Y1843176D01*
X2858262Y1859635D01*
X2864612Y1876755D01*
X2867253Y1886966D01*
X2748737Y1886966D01*
G37*
G36*
X4196537Y1759559D02*
G01*
X4202887Y1761540D01*
X4219702Y1768754D01*
X4235704Y1777593D01*
X4250690Y1788058D01*
X4264558Y1799996D01*
X4277156Y1813204D01*
X4288332Y1827682D01*
X4298035Y1843227D01*
X4306062Y1859635D01*
X4312412Y1876755D01*
X4315053Y1886966D01*
X4196537Y1886966D01*
G37*
G36*
X7092137Y1759559D02*
G01*
X7098487Y1761540D01*
X7115302Y1768754D01*
X7131303Y1777593D01*
X7146290Y1788058D01*
X7160158Y1799945D01*
X7172756Y1813204D01*
X7183932Y1827682D01*
X7193635Y1843176D01*
X7201662Y1859635D01*
X7208012Y1876755D01*
X7210653Y1886966D01*
X7092137Y1886966D01*
G37*
G36*
X5644337Y1759559D02*
G01*
X5650687Y1761540D01*
X5667502Y1768754D01*
X5683504Y1777593D01*
X5698490Y1788058D01*
X5712358Y1799996D01*
X5724956Y1813204D01*
X5736132Y1827682D01*
X5745835Y1843176D01*
X5753862Y1859635D01*
X5760212Y1876755D01*
X5762853Y1886966D01*
X5644337Y1886966D01*
G37*
G36*
X1300937Y1759559D02*
G01*
X1307287Y1761540D01*
X1324102Y1768754D01*
X1340104Y1777593D01*
X1355090Y1788058D01*
X1368958Y1799945D01*
X1381556Y1813204D01*
X1392732Y1827682D01*
X1402435Y1843176D01*
X1410462Y1859635D01*
X1416812Y1876755D01*
X1419453Y1886966D01*
X1300937Y1886966D01*
G37*
G36*
X6921957Y3730244D02*
G01*
X7056069Y3730244D01*
X7056069Y3864508D01*
X7036053Y3855923D01*
X7017613Y3845814D01*
X7000240Y3834129D01*
X6983933Y3820871D01*
X6968947Y3806240D01*
X6955332Y3790238D01*
X6943242Y3773119D01*
X6932726Y3754932D01*
X6923938Y3735882D01*
G37*
G36*
X7218730Y3730244D02*
G01*
X7352842Y3730244D01*
X7350861Y3735882D01*
X7342073Y3754932D01*
X7331557Y3773119D01*
X7319467Y3790238D01*
X7305852Y3806240D01*
X7290866Y3820871D01*
X7274559Y3834129D01*
X7257186Y3845814D01*
X7238746Y3855923D01*
X7218730Y3864508D01*
G37*
G36*
X7218730Y3433470D02*
G01*
X7229246Y3437483D01*
X7248093Y3446678D01*
X7266025Y3457600D01*
X7282891Y3470097D01*
X7298537Y3484067D01*
X7312863Y3499408D01*
X7325715Y3515969D01*
X7337044Y3533648D01*
X7346696Y3552240D01*
X7352893Y3567531D01*
X7218730Y3567531D01*
G37*
G36*
X7056069Y3433470D02*
G01*
X7056069Y3567531D01*
X6921906Y3567531D01*
X6928103Y3552240D01*
X6937756Y3533648D01*
X6949084Y3515969D01*
X6961936Y3499408D01*
X6976262Y3484067D01*
X6991908Y3470097D01*
X7008774Y3457600D01*
X7026706Y3446678D01*
X7045553Y3437483D01*
G37*
G36*
X6477254Y263956D02*
G01*
X7353046Y263956D01*
X7367219Y264515D01*
X7371384Y264871D01*
X7385354Y266852D01*
X7389469Y267665D01*
X7403134Y271018D01*
X7407148Y272186D01*
X7420457Y276910D01*
X7424318Y278536D01*
X7437069Y284581D01*
X7440726Y286562D01*
X7452817Y293878D01*
X7456271Y296214D01*
X7467549Y304698D01*
X7470749Y307390D01*
X7481112Y317042D01*
X7734757Y570687D01*
X7744409Y581050D01*
X7747101Y584250D01*
X7755585Y595528D01*
X7757922Y598982D01*
X7765237Y611073D01*
X7767218Y614730D01*
X7773263Y627481D01*
X7774889Y631342D01*
X7779613Y644652D01*
X7780781Y648665D01*
X7784134Y662330D01*
X7784947Y666445D01*
X7786928Y680415D01*
X7787284Y684580D01*
X7787843Y698754D01*
X7787843Y3962146D01*
X7787284Y3976319D01*
X7786928Y3980484D01*
X7784947Y3994454D01*
X7784134Y3998569D01*
X7780781Y4012234D01*
X7779613Y4016248D01*
X7774889Y4029557D01*
X7773263Y4033418D01*
X7767218Y4046169D01*
X7765237Y4049826D01*
X7757922Y4061917D01*
X7755585Y4065371D01*
X7747101Y4076649D01*
X7744409Y4079849D01*
X7734757Y4090212D01*
X7531912Y4293057D01*
X7521549Y4302709D01*
X7518349Y4305401D01*
X7507071Y4313885D01*
X7503617Y4316222D01*
X7491526Y4323537D01*
X7487869Y4325518D01*
X7475118Y4331563D01*
X7471257Y4333138D01*
X7457948Y4337913D01*
X7453934Y4339082D01*
X7440269Y4342434D01*
X7436154Y4343247D01*
X7422184Y4345228D01*
X7418019Y4345584D01*
X7403846Y4346092D01*
X7328103Y4346092D01*
X7324191Y4346905D01*
X7320889Y4349089D01*
X7318705Y4352391D01*
X7317943Y4356252D01*
X7317943Y4508246D01*
X7317384Y4522419D01*
X7317028Y4526584D01*
X7315047Y4540554D01*
X7314234Y4544669D01*
X7310881Y4558334D01*
X7309713Y4562348D01*
X7304989Y4575657D01*
X7303363Y4579518D01*
X7297318Y4592269D01*
X7295337Y4595926D01*
X7288022Y4608017D01*
X7285685Y4611471D01*
X7277201Y4622749D01*
X7274509Y4625949D01*
X7264857Y4636312D01*
X7087412Y4813757D01*
X7077049Y4823409D01*
X7073849Y4826101D01*
X7062571Y4834585D01*
X7059117Y4836922D01*
X7047026Y4844237D01*
X7043369Y4846218D01*
X7030618Y4852263D01*
X7026757Y4853838D01*
X7013448Y4858613D01*
X7009434Y4859782D01*
X6995769Y4863134D01*
X6991654Y4863947D01*
X6977684Y4865928D01*
X6973519Y4866284D01*
X6959346Y4866792D01*
X5943854Y4866792D01*
X5929680Y4866284D01*
X5925515Y4865928D01*
X5911545Y4863947D01*
X5907430Y4863134D01*
X5893765Y4859782D01*
X5889752Y4858613D01*
X5876442Y4853838D01*
X5872581Y4852263D01*
X5859830Y4846218D01*
X5856173Y4844237D01*
X5844082Y4836922D01*
X5840628Y4834585D01*
X5829350Y4826101D01*
X5826150Y4823409D01*
X5815787Y4813757D01*
X5600242Y4598212D01*
X5590590Y4587849D01*
X5587898Y4584649D01*
X5579414Y4573371D01*
X5577078Y4569917D01*
X5569762Y4557826D01*
X5567781Y4554169D01*
X5561736Y4541418D01*
X5560161Y4537557D01*
X5555386Y4524248D01*
X5554218Y4520234D01*
X5550865Y4506569D01*
X5550052Y4502454D01*
X5548071Y4488484D01*
X5547715Y4484319D01*
X5547207Y4470146D01*
X5547207Y3901694D01*
X5546394Y3897782D01*
X5544210Y3894480D01*
X5440019Y3790289D01*
X5436717Y3788105D01*
X5432806Y3787292D01*
X5131562Y3787292D01*
X5113020Y3786378D01*
X5094935Y3783634D01*
X5077256Y3779012D01*
X5060137Y3772662D01*
X5043678Y3764635D01*
X5028184Y3754932D01*
X5013706Y3743756D01*
X5008829Y3739134D01*
X5005578Y3737051D01*
X5001818Y3736340D01*
X4966970Y3736340D01*
X4955133Y3735476D01*
X4943906Y3733037D01*
X4933188Y3729024D01*
X4923078Y3723538D01*
X4913884Y3716629D01*
X4905756Y3708501D01*
X4898898Y3699306D01*
X4893360Y3689248D01*
X4889347Y3678478D01*
X4886909Y3667251D01*
X4886096Y3655415D01*
X4886096Y3558184D01*
X4886909Y3546348D01*
X4889347Y3535121D01*
X4893360Y3524351D01*
X4898898Y3514293D01*
X4905756Y3505098D01*
X4913884Y3496970D01*
X4923078Y3490061D01*
X4933188Y3484575D01*
X4943906Y3480562D01*
X4955133Y3478123D01*
X4966970Y3477260D01*
X5001818Y3477260D01*
X5005578Y3476548D01*
X5008829Y3474465D01*
X5013706Y3469843D01*
X5028184Y3458667D01*
X5043678Y3448964D01*
X5060137Y3440937D01*
X5077256Y3434587D01*
X5094935Y3429965D01*
X5113020Y3427222D01*
X5131562Y3426256D01*
X5431028Y3426256D01*
X5434634Y3425596D01*
X5440781Y3423259D01*
X5449417Y3420567D01*
X5458307Y3418281D01*
X5467248Y3416401D01*
X5476290Y3415029D01*
X5485384Y3414115D01*
X5494528Y3413658D01*
X5503672Y3413658D01*
X5512816Y3414115D01*
X5521909Y3415029D01*
X5530951Y3416401D01*
X5539892Y3418281D01*
X5548782Y3420567D01*
X5557469Y3423310D01*
X5566054Y3426460D01*
X5574487Y3430066D01*
X5582666Y3434079D01*
X5590692Y3438550D01*
X5598414Y3443376D01*
X5605932Y3448608D01*
X5613196Y3454196D01*
X5620105Y3460140D01*
X5626811Y3466541D01*
X5855157Y3694887D01*
X5864809Y3705250D01*
X5867501Y3708450D01*
X5875985Y3719728D01*
X5878322Y3723182D01*
X5885637Y3735273D01*
X5887618Y3738930D01*
X5893663Y3751681D01*
X5895289Y3755593D01*
X5899962Y3768801D01*
X5901182Y3772865D01*
X5904534Y3786530D01*
X5905347Y3790645D01*
X5907328Y3804615D01*
X5907684Y3808780D01*
X5908243Y3822954D01*
X5908243Y4121150D01*
X5909005Y4125061D01*
X5911189Y4128312D01*
X5914491Y4130548D01*
X5918403Y4131310D01*
X6180277Y4131310D01*
X6180277Y4469638D01*
X6006744Y4469638D01*
X6002883Y4470400D01*
X5999581Y4472635D01*
X5997346Y4475886D01*
X5996584Y4479798D01*
X5997346Y4483709D01*
X5999581Y4486960D01*
X6015380Y4502810D01*
X6018682Y4504994D01*
X6022594Y4505756D01*
X6880606Y4505756D01*
X6884517Y4504994D01*
X6887819Y4502810D01*
X6953910Y4436719D01*
X6956094Y4433417D01*
X6956907Y4429506D01*
X6956907Y4295698D01*
X6956399Y4292600D01*
X6955028Y4289806D01*
X6943242Y4273092D01*
X6932726Y4254957D01*
X6923938Y4235907D01*
X6916928Y4216095D01*
X6911695Y4195775D01*
X6908393Y4175048D01*
X6906971Y4154119D01*
X6907428Y4133138D01*
X6909816Y4112310D01*
X6914083Y4091787D01*
X6920179Y4071670D01*
X6928103Y4052265D01*
X6937756Y4033621D01*
X6949084Y4015943D01*
X6961936Y3999382D01*
X6976262Y3984040D01*
X6991908Y3970070D01*
X7008774Y3957574D01*
X7026706Y3946702D01*
X7045553Y3937457D01*
X7065162Y3929989D01*
X7085380Y3924350D01*
X7106005Y3920540D01*
X7126884Y3918610D01*
X7147915Y3918610D01*
X7168794Y3920540D01*
X7189419Y3924350D01*
X7209637Y3929989D01*
X7229246Y3937457D01*
X7248093Y3946702D01*
X7266025Y3957574D01*
X7282891Y3970070D01*
X7296810Y3982516D01*
X7299959Y3984396D01*
X7303566Y3985056D01*
X7325106Y3985056D01*
X7329017Y3984294D01*
X7332319Y3982110D01*
X7423810Y3890619D01*
X7425994Y3887317D01*
X7426807Y3883406D01*
X7426807Y777494D01*
X7425994Y773582D01*
X7423810Y770280D01*
X7281519Y627989D01*
X7278217Y625805D01*
X7274306Y624992D01*
X6555994Y624992D01*
X6552082Y625805D01*
X6548780Y627989D01*
X6474002Y702818D01*
X6471818Y706069D01*
X6471005Y709980D01*
X6471005Y915314D01*
X6471970Y919581D01*
X6480810Y938530D01*
X6487414Y957224D01*
X6492189Y976528D01*
X6495034Y996187D01*
X6495999Y1016000D01*
X6495034Y1035812D01*
X6492189Y1055471D01*
X6487414Y1074775D01*
X6480810Y1093470D01*
X6472478Y1111504D01*
X6462369Y1128623D01*
X6450736Y1144676D01*
X6437528Y1159560D01*
X6422999Y1173073D01*
X6407251Y1185113D01*
X6390335Y1195628D01*
X6372555Y1204417D01*
X6354013Y1211427D01*
X6334810Y1216660D01*
X6315252Y1220012D01*
X6295440Y1221435D01*
X6275578Y1220978D01*
X6255867Y1218590D01*
X6236512Y1214272D01*
X6217615Y1208176D01*
X6199428Y1200200D01*
X6182055Y1190548D01*
X6165697Y1179271D01*
X6150559Y1166469D01*
X6136640Y1152296D01*
X6124244Y1136802D01*
X6113322Y1120190D01*
X6104128Y1102614D01*
X6096609Y1084224D01*
X6090970Y1065174D01*
X6087160Y1045718D01*
X6085230Y1025906D01*
X6085230Y1006094D01*
X6087160Y986282D01*
X6090970Y966825D01*
X6096609Y947775D01*
X6104128Y929386D01*
X6108801Y920445D01*
X6109716Y918159D01*
X6109970Y915720D01*
X6109970Y794207D01*
X6109208Y790295D01*
X6107023Y786993D01*
X5973419Y653389D01*
X5970117Y651205D01*
X5966206Y650392D01*
X5097119Y650392D01*
X5093258Y651205D01*
X5089956Y653389D01*
X5023002Y720344D01*
X5020818Y723595D01*
X5020056Y727506D01*
X5020056Y915314D01*
X5021021Y919581D01*
X5029860Y938530D01*
X5036413Y957224D01*
X5041188Y976528D01*
X5044084Y996187D01*
X5044998Y1016000D01*
X5044084Y1035812D01*
X5041188Y1055471D01*
X5036413Y1074775D01*
X5029860Y1093470D01*
X5021478Y1111504D01*
X5011420Y1128623D01*
X4999736Y1144676D01*
X4986578Y1159560D01*
X4972050Y1173073D01*
X4956251Y1185113D01*
X4939385Y1195628D01*
X4921605Y1204417D01*
X4903012Y1211427D01*
X4883861Y1216660D01*
X4864303Y1220012D01*
X4844491Y1221435D01*
X4824628Y1220978D01*
X4804918Y1218590D01*
X4785512Y1214272D01*
X4766614Y1208176D01*
X4748428Y1200200D01*
X4731054Y1190548D01*
X4714748Y1179271D01*
X4699558Y1166469D01*
X4685690Y1152296D01*
X4673244Y1136802D01*
X4662373Y1120190D01*
X4653127Y1102614D01*
X4645660Y1084224D01*
X4639970Y1065174D01*
X4636160Y1045718D01*
X4634230Y1025906D01*
X4634230Y1006094D01*
X4636160Y986282D01*
X4639970Y966825D01*
X4645660Y947775D01*
X4653127Y929386D01*
X4657852Y920445D01*
X4658715Y918159D01*
X4659020Y915720D01*
X4659020Y727506D01*
X4658258Y723595D01*
X4656023Y720344D01*
X4589119Y653389D01*
X4585817Y651205D01*
X4581906Y650392D01*
X3668369Y650392D01*
X3664508Y651205D01*
X3661206Y653389D01*
X3572052Y742543D01*
X3569868Y745845D01*
X3569055Y749706D01*
X3569055Y915314D01*
X3570020Y919581D01*
X3578860Y938530D01*
X3585464Y957224D01*
X3590239Y976528D01*
X3593084Y996187D01*
X3594049Y1016000D01*
X3593084Y1035812D01*
X3590239Y1055471D01*
X3585464Y1074775D01*
X3578860Y1093470D01*
X3570528Y1111504D01*
X3560419Y1128623D01*
X3548786Y1144676D01*
X3535578Y1159560D01*
X3521049Y1173073D01*
X3505301Y1185113D01*
X3488385Y1195628D01*
X3470605Y1204417D01*
X3452063Y1211427D01*
X3432860Y1216660D01*
X3413302Y1220012D01*
X3393490Y1221435D01*
X3373628Y1220978D01*
X3353917Y1218590D01*
X3334562Y1214272D01*
X3315665Y1208176D01*
X3297478Y1200200D01*
X3280105Y1190548D01*
X3263747Y1179271D01*
X3248609Y1166469D01*
X3234690Y1152296D01*
X3222294Y1136802D01*
X3211372Y1120190D01*
X3202178Y1102614D01*
X3194659Y1084224D01*
X3189020Y1065174D01*
X3185210Y1045718D01*
X3183280Y1025906D01*
X3183280Y1006094D01*
X3185210Y986282D01*
X3189020Y966825D01*
X3194659Y947775D01*
X3202178Y929386D01*
X3206851Y920445D01*
X3207766Y918159D01*
X3208020Y915720D01*
X3208020Y749757D01*
X3207258Y745845D01*
X3205073Y742543D01*
X3115919Y653389D01*
X3112617Y651205D01*
X3108706Y650392D01*
X2212594Y650392D01*
X2208682Y651205D01*
X2205380Y653389D01*
X2126589Y732180D01*
X2124405Y735482D01*
X2123643Y739394D01*
X2123643Y927049D01*
X2124557Y931316D01*
X2127910Y938530D01*
X2134463Y957224D01*
X2139238Y976528D01*
X2142134Y996187D01*
X2143048Y1016000D01*
X2142134Y1035812D01*
X2139238Y1055471D01*
X2134463Y1074775D01*
X2127910Y1093470D01*
X2119528Y1111504D01*
X2109470Y1128623D01*
X2097786Y1144676D01*
X2084628Y1159560D01*
X2070100Y1173073D01*
X2054301Y1185113D01*
X2037435Y1195628D01*
X2019655Y1204417D01*
X2001062Y1211427D01*
X1981911Y1216660D01*
X1962353Y1220012D01*
X1942541Y1221435D01*
X1922678Y1220978D01*
X1902968Y1218590D01*
X1883562Y1214272D01*
X1864664Y1208176D01*
X1846478Y1200200D01*
X1829104Y1190548D01*
X1812798Y1179271D01*
X1797608Y1166469D01*
X1783740Y1152296D01*
X1771294Y1136802D01*
X1760423Y1120190D01*
X1751177Y1102614D01*
X1743710Y1084224D01*
X1738020Y1065174D01*
X1734210Y1045718D01*
X1732280Y1025906D01*
X1732280Y1006094D01*
X1734210Y986282D01*
X1738020Y966825D01*
X1743710Y947775D01*
X1751177Y929386D01*
X1762150Y908405D01*
X1762607Y905510D01*
X1762607Y739394D01*
X1761794Y735482D01*
X1759610Y732180D01*
X1680819Y653389D01*
X1677517Y651205D01*
X1673606Y650392D01*
X790194Y650392D01*
X786282Y651205D01*
X782980Y653389D01*
X670102Y766318D01*
X667867Y769569D01*
X667105Y773480D01*
X667105Y915263D01*
X668070Y919581D01*
X676910Y938530D01*
X683514Y957224D01*
X688289Y976528D01*
X691134Y996187D01*
X692099Y1016000D01*
X691134Y1035812D01*
X688289Y1055471D01*
X683514Y1074775D01*
X676910Y1093470D01*
X668578Y1111504D01*
X658469Y1128623D01*
X646836Y1144676D01*
X633628Y1159560D01*
X619099Y1173073D01*
X603351Y1185113D01*
X586435Y1195628D01*
X568655Y1204417D01*
X550113Y1211427D01*
X530910Y1216660D01*
X511352Y1220012D01*
X491540Y1221435D01*
X471678Y1220978D01*
X451967Y1218590D01*
X432612Y1214272D01*
X413715Y1208176D01*
X395528Y1200200D01*
X378155Y1190548D01*
X361797Y1179271D01*
X346659Y1166469D01*
X332740Y1152296D01*
X320344Y1136802D01*
X309422Y1120190D01*
X300228Y1102614D01*
X292709Y1084224D01*
X287070Y1065174D01*
X283260Y1045718D01*
X281330Y1025906D01*
X281330Y1006094D01*
X283260Y986282D01*
X287070Y966825D01*
X292709Y947775D01*
X300228Y929386D01*
X304901Y920445D01*
X305765Y918159D01*
X306070Y915720D01*
X306070Y694740D01*
X306628Y680618D01*
X306984Y676452D01*
X308965Y662482D01*
X309727Y658368D01*
X313080Y644652D01*
X314299Y640638D01*
X319024Y627380D01*
X320649Y623468D01*
X326694Y610768D01*
X328676Y607060D01*
X335991Y595020D01*
X338328Y591515D01*
X346811Y580288D01*
X349504Y577088D01*
X359156Y566674D01*
X583387Y342442D01*
X593750Y332790D01*
X596950Y330098D01*
X608228Y321614D01*
X611682Y319278D01*
X623773Y311962D01*
X627430Y309981D01*
X640181Y303936D01*
X644042Y302310D01*
X657352Y297586D01*
X661365Y296418D01*
X675030Y293065D01*
X679145Y292252D01*
X693115Y290271D01*
X697280Y289915D01*
X711454Y289356D01*
X1752346Y289356D01*
X1766519Y289915D01*
X1770684Y290271D01*
X1784654Y292252D01*
X1788769Y293065D01*
X1802434Y296418D01*
X1806448Y297586D01*
X1819757Y302310D01*
X1823618Y303936D01*
X1836369Y309981D01*
X1840026Y311962D01*
X1852117Y319278D01*
X1855571Y321614D01*
X1866849Y330098D01*
X1870049Y332790D01*
X1880412Y342442D01*
X1935937Y397916D01*
X1939188Y400151D01*
X1943100Y400913D01*
X1947011Y400151D01*
X1950262Y397916D01*
X2005787Y342442D01*
X2016150Y332790D01*
X2019350Y330098D01*
X2030628Y321614D01*
X2034082Y319278D01*
X2046173Y311962D01*
X2049830Y309981D01*
X2062581Y303936D01*
X2066442Y302310D01*
X2079752Y297586D01*
X2083765Y296418D01*
X2097430Y293065D01*
X2101545Y292252D01*
X2115515Y290271D01*
X2119680Y289915D01*
X2133854Y289356D01*
X3187446Y289356D01*
X3201619Y289915D01*
X3205784Y290271D01*
X3219754Y292252D01*
X3223869Y293065D01*
X3237534Y296418D01*
X3241548Y297586D01*
X3254857Y302310D01*
X3258718Y303936D01*
X3271469Y309981D01*
X3275126Y311962D01*
X3287217Y319278D01*
X3290671Y321614D01*
X3301898Y330098D01*
X3305149Y332790D01*
X3315512Y342442D01*
X3381349Y408279D01*
X3384651Y410464D01*
X3388563Y411226D01*
X3392424Y410464D01*
X3395726Y408279D01*
X3461562Y342442D01*
X3471976Y332790D01*
X3475177Y330098D01*
X3486454Y321614D01*
X3489909Y319278D01*
X3501948Y311962D01*
X3505657Y309981D01*
X3518408Y303936D01*
X3522268Y302361D01*
X3535527Y297586D01*
X3539540Y296418D01*
X3553256Y293065D01*
X3557371Y292252D01*
X3571341Y290271D01*
X3575507Y289915D01*
X3589680Y289356D01*
X4660646Y289356D01*
X4674819Y289915D01*
X4678984Y290271D01*
X4692954Y292252D01*
X4697069Y293065D01*
X4710734Y296418D01*
X4714748Y297586D01*
X4728057Y302310D01*
X4731918Y303936D01*
X4744669Y309981D01*
X4748326Y311962D01*
X4760417Y319278D01*
X4763871Y321614D01*
X4775098Y330098D01*
X4778349Y332790D01*
X4788712Y342442D01*
X4832350Y386029D01*
X4835652Y388264D01*
X4839512Y389026D01*
X4843424Y388264D01*
X4846726Y386029D01*
X4890312Y342442D01*
X4900726Y332790D01*
X4903927Y330098D01*
X4915204Y321614D01*
X4918659Y319278D01*
X4930698Y311962D01*
X4934407Y309981D01*
X4947158Y303936D01*
X4951018Y302361D01*
X4964277Y297586D01*
X4968290Y296418D01*
X4982006Y293065D01*
X4986121Y292252D01*
X5000091Y290271D01*
X5004257Y289915D01*
X5018430Y289356D01*
X6044946Y289356D01*
X6059119Y289915D01*
X6063284Y290271D01*
X6077254Y292252D01*
X6081369Y293065D01*
X6095034Y296418D01*
X6099048Y297586D01*
X6112357Y302310D01*
X6116218Y303936D01*
X6128969Y309981D01*
X6132626Y311962D01*
X6144717Y319278D01*
X6148171Y321614D01*
X6159398Y330098D01*
X6162649Y332790D01*
X6173012Y342442D01*
X6241237Y410616D01*
X6244539Y412851D01*
X6248400Y413613D01*
X6252311Y412851D01*
X6255562Y410616D01*
X6349187Y317042D01*
X6359550Y307390D01*
X6362750Y304698D01*
X6374028Y296214D01*
X6377482Y293878D01*
X6389573Y286562D01*
X6393230Y284581D01*
X6405981Y278536D01*
X6409842Y276961D01*
X6423152Y272186D01*
X6427165Y271018D01*
X6440830Y267665D01*
X6444945Y266852D01*
X6458915Y264871D01*
X6463080Y264515D01*
G37*
G36*
X5644337Y2024634D02*
G01*
X5762853Y2024634D01*
X5760212Y2034844D01*
X5753862Y2051964D01*
X5745835Y2068423D01*
X5736132Y2083917D01*
X5724956Y2098395D01*
X5712358Y2111603D01*
X5698490Y2123541D01*
X5683504Y2134006D01*
X5667502Y2142845D01*
X5650687Y2150059D01*
X5644337Y2152040D01*
G37*
G36*
X2748737Y2024634D02*
G01*
X2867253Y2024634D01*
X2864612Y2034844D01*
X2858262Y2051964D01*
X2850235Y2068372D01*
X2840532Y2083917D01*
X2829356Y2098395D01*
X2816758Y2111603D01*
X2802890Y2123541D01*
X2787904Y2134006D01*
X2771902Y2142845D01*
X2755087Y2150059D01*
X2748737Y2152040D01*
G37*
G36*
X1300937Y2024634D02*
G01*
X1419453Y2024634D01*
X1416812Y2034844D01*
X1410462Y2051964D01*
X1402435Y2068372D01*
X1392732Y2083917D01*
X1381556Y2098395D01*
X1368958Y2111603D01*
X1355090Y2123541D01*
X1340104Y2134006D01*
X1324102Y2142845D01*
X1307287Y2150059D01*
X1300937Y2152040D01*
G37*
G36*
X4196537Y2024634D02*
G01*
X4315053Y2024634D01*
X4312412Y2034844D01*
X4306062Y2051964D01*
X4298035Y2068423D01*
X4288332Y2083917D01*
X4277156Y2098395D01*
X4264558Y2111654D01*
X4250690Y2123541D01*
X4235704Y2134006D01*
X4219702Y2142845D01*
X4202887Y2150059D01*
X4196537Y2152040D01*
G37*
G36*
X7092137Y2024634D02*
G01*
X7210653Y2024634D01*
X7208012Y2034844D01*
X7201662Y2051964D01*
X7193635Y2068372D01*
X7183932Y2083917D01*
X7172756Y2098395D01*
X7160158Y2111603D01*
X7146290Y2123541D01*
X7131303Y2134006D01*
X7115302Y2142845D01*
X7098487Y2150059D01*
X7092137Y2152040D01*
G37*
G36*
X286766Y3281324D02*
G01*
X439775Y3281324D01*
X439775Y3434334D01*
X433425Y3431895D01*
X412597Y3421684D01*
X392684Y3409848D01*
X373786Y3396335D01*
X356108Y3381400D01*
X339699Y3364992D01*
X324764Y3347313D01*
X311251Y3328415D01*
X299415Y3308502D01*
X289204Y3287674D01*
G37*
G36*
X652475Y3281324D02*
G01*
X805434Y3281324D01*
X802995Y3287674D01*
X792784Y3308502D01*
X780948Y3328415D01*
X767486Y3347313D01*
X752500Y3364992D01*
X736092Y3381400D01*
X718413Y3396335D01*
X699516Y3409848D01*
X679602Y3421684D01*
X658774Y3431895D01*
X652475Y3434334D01*
G37*
G36*
X6569557Y3251962D02*
G01*
X6751167Y3251962D01*
X6762953Y3252825D01*
X6774180Y3255264D01*
X6784949Y3259277D01*
X6795008Y3264763D01*
X6804202Y3271672D01*
X6812330Y3279749D01*
X6819239Y3288944D01*
X6824725Y3299053D01*
X6828739Y3309823D01*
X6831177Y3321050D01*
X6832041Y3332835D01*
X6832041Y3590290D01*
X6569557Y3590290D01*
G37*
G36*
X5998667Y3251962D02*
G01*
X6180277Y3251962D01*
X6180277Y3590290D01*
X5917793Y3590290D01*
X5917793Y3332835D01*
X5918657Y3321050D01*
X5921095Y3309823D01*
X5925108Y3299053D01*
X5930595Y3288944D01*
X5937453Y3279749D01*
X5945581Y3271672D01*
X5954776Y3264763D01*
X5964885Y3259277D01*
X5975654Y3255264D01*
X5986830Y3252825D01*
G37*
G36*
X439775Y2915666D02*
G01*
X439775Y3068624D01*
X286766Y3068624D01*
X289204Y3062325D01*
X299415Y3041497D01*
X311251Y3021584D01*
X324764Y3002686D01*
X339699Y2985008D01*
X356108Y2968599D01*
X373786Y2953613D01*
X392684Y2940151D01*
X412597Y2928315D01*
X433425Y2918104D01*
G37*
G36*
X652475Y2915666D02*
G01*
X658774Y2918104D01*
X679602Y2928315D01*
X699516Y2940151D01*
X718413Y2953613D01*
X736092Y2968599D01*
X752500Y2985008D01*
X767486Y3002686D01*
X780948Y3021584D01*
X792784Y3041497D01*
X802995Y3062325D01*
X805434Y3068624D01*
X652475Y3068624D01*
G37*
G36*
X7097725Y2874924D02*
G01*
X7250684Y2874924D01*
X7248245Y2881274D01*
X7238034Y2902102D01*
X7226198Y2922016D01*
X7212736Y2940913D01*
X7197750Y2958592D01*
X7181342Y2975000D01*
X7163663Y2989935D01*
X7144766Y3003448D01*
X7124852Y3015284D01*
X7104024Y3025495D01*
X7097725Y3027934D01*
G37*
G36*
X6732016Y2874924D02*
G01*
X6885025Y2874924D01*
X6885025Y3027934D01*
X6878675Y3025495D01*
X6857847Y3015284D01*
X6837934Y3003448D01*
X6819036Y2989935D01*
X6801358Y2975000D01*
X6784949Y2958592D01*
X6770014Y2940913D01*
X6756501Y2922016D01*
X6744665Y2902102D01*
X6734454Y2881274D01*
G37*
G36*
X7097725Y2509266D02*
G01*
X7104024Y2511704D01*
X7124852Y2521915D01*
X7144766Y2533751D01*
X7163663Y2547213D01*
X7181342Y2562199D01*
X7197750Y2578608D01*
X7212736Y2596286D01*
X7226198Y2615184D01*
X7238034Y2635097D01*
X7248245Y2655925D01*
X7250684Y2662224D01*
X7097725Y2662224D01*
G37*
G36*
X6885025Y2509266D02*
G01*
X6885025Y2662224D01*
X6732016Y2662224D01*
X6734454Y2655925D01*
X6744665Y2635097D01*
X6756501Y2615184D01*
X6770014Y2596286D01*
X6784949Y2578608D01*
X6801358Y2562199D01*
X6819036Y2547213D01*
X6837934Y2533751D01*
X6857847Y2521915D01*
X6878675Y2511704D01*
G37*

%LPD*%
D10*
X5131308Y4114800D02*
G01*
X4927600Y4114800D01*
X4749800Y3937000D01*
X1752600Y3937000D01*
X1435100Y4254500D01*
X1435100Y5080000D01*
D11*
X6290505Y715200D02*
G01*
X6290505Y630999D01*
X6477000Y444500D01*
X7353300Y444500D01*
X7607300Y698500D01*
X7607300Y3962400D01*
X7404100Y4165600D01*
X7154105Y4165600D01*
X7137400Y4148899D01*
X6290505Y1016000D02*
G01*
X6290505Y715200D01*
X6045200Y469900D01*
X5018148Y469900D01*
X4839530Y648525D01*
X4839530Y1016000D02*
G01*
X4839530Y648525D01*
X4660900Y469900D01*
X3589398Y469900D01*
X3388555Y670750D01*
X3388555Y1016000D02*
G01*
X3388555Y670750D01*
X3187700Y469900D01*
X2133600Y469900D01*
X1943100Y660400D01*
X486600Y1016000D02*
G01*
X486600Y694499D01*
X711200Y469900D01*
X1752600Y469900D01*
X1943100Y660400D01*
X1943100Y1010475D01*
X1937575Y1016000D01*
X7137400Y4148899D02*
G01*
X7137400Y4508500D01*
X6959600Y4686300D01*
X5943600Y4686300D01*
X5727700Y4470400D01*
X5727700Y3822700D01*
X5499100Y3594100D01*
X5486400Y3606800D01*
X5131295Y3606800D01*
D10*
X2197100Y5080000D02*
G01*
X2197100Y5359400D01*
X2413000Y5575300D01*
X5041900Y5575300D01*
X5283200Y5334000D01*
X5283200Y4953000D01*
X5308600Y4927600D01*
X3213100Y5080000D02*
G01*
X3213100Y5194300D01*
X3340100Y5321300D01*
X4673600Y5321300D01*
X4991100Y5003800D01*
X4991100Y4741113D01*
X5058618Y4673600D01*
X2197100Y5080000D02*
G01*
X2197100Y4953000D01*
X2324100Y4826000D01*
X6781800Y1955800D02*
G01*
X6781800Y1024699D01*
X6790494Y1016000D01*
X5334000Y1955800D02*
G01*
X5334000Y1021524D01*
X5339519Y1016000D01*
X3886200Y1955800D02*
G01*
X3888544Y1016000D01*
X2438400Y1955800D02*
G01*
X2437569Y1016000D01*
X990600Y1955800D02*
G01*
X990600Y1020000D01*
X986599Y1016000D01*
X3467100Y2878150D02*
G01*
X6291249Y2878150D01*
X6527800Y2641600D01*
X6527800Y1955800D01*
X3213100Y2878150D02*
G01*
X3213100Y2730500D01*
X3225800Y2730500D01*
X3352800Y2603500D01*
X3860800Y2603500D01*
X3987800Y2476500D01*
X4902200Y2476500D01*
X5080000Y2298700D01*
X5080000Y1955800D01*
X2959100Y2878150D02*
G01*
X2959100Y2527300D01*
X3162300Y2324100D01*
X3492500Y2324100D01*
X3632200Y2184400D01*
X3632200Y1955800D01*
X2705100Y2878150D02*
G01*
X2705100Y2692400D01*
X2514600Y2501900D01*
X2349500Y2501900D01*
X2184400Y2336800D01*
X2184400Y1955800D01*
X2451100Y2878150D02*
G01*
X947750Y2878150D01*
X736600Y2667000D01*
X736600Y1955800D01*
X3467100Y3556000D02*
G01*
X3467100Y3078149D01*
X3213100Y3556000D02*
G01*
X3213100Y3078149D01*
X2959100Y3556000D02*
G01*
X2959100Y3078149D01*
X2705100Y3078149D02*
G01*
X2705100Y3556000D01*
X2451100Y3078149D02*
G01*
X2451100Y3556000D01*
D12*
G01*
X3467100Y2878150D03*
D13*
G01*
X3467100Y3078154D03*
D12*
G01*
X3213100Y2878150D03*
D13*
G01*
X3213100Y3078154D03*
D12*
G01*
X2959100Y2878150D03*
D13*
G01*
X2959100Y3078154D03*
D12*
G01*
X2705100Y2878150D03*
D13*
G01*
X2705100Y3078154D03*
D12*
G01*
X2451100Y2878150D03*
D13*
G01*
X2451100Y3078154D03*
D14*
G01*
X5131305Y3606800D03*
G01*
X5131305Y4114800D03*
D15*
G01*
X6374909Y3860800D03*
D16*
G01*
X6527800Y1955797D03*
D17*
G01*
X7035800Y1955797D03*
G01*
X6781800Y1955797D03*
D16*
G01*
X5080000Y1955800D03*
D17*
G01*
X5588000Y1955800D03*
G01*
X5334000Y1955800D03*
D16*
G01*
X3632200Y1955802D03*
D17*
G01*
X4140200Y1955802D03*
G01*
X3886200Y1955802D03*
D16*
G01*
X2184400Y1955797D03*
D17*
G01*
X2692400Y1955797D03*
G01*
X2438400Y1955797D03*
D16*
G01*
X736600Y1955797D03*
D17*
G01*
X1244600Y1955797D03*
G01*
X990600Y1955797D03*
D11*
G01*
X5308600Y4419600D03*
D18*
G01*
X5058613Y4673600D03*
D11*
G01*
X5308600Y4927600D03*
D17*
G01*
X3213100Y5080000D03*
G01*
X2959100Y5080000D03*
G01*
X2705100Y5080000D03*
G01*
X2451100Y5080000D03*
D19*
G01*
X2578100Y4826000D03*
G01*
X2324100Y4826000D03*
G01*
X4229100Y4572000D03*
G01*
X4229100Y4826000D03*
D20*
G01*
X1181100Y4953000D03*
D17*
G01*
X2451100Y3556000D03*
G01*
X2705100Y3556000D03*
G01*
X2959100Y3556000D03*
G01*
X3213100Y3556000D03*
G01*
X3467100Y3556000D03*
G01*
X3721100Y3556000D03*
G01*
X3975100Y3556000D03*
G01*
X4229100Y3556000D03*
G01*
X4229100Y5080000D03*
G01*
X3975100Y5080000D03*
G01*
X3721100Y5080000D03*
G01*
X3467100Y5080000D03*
G01*
X1181100Y3683000D03*
G01*
X2197100Y3556000D03*
G01*
X1689100Y5080000D03*
D20*
G01*
X1181100Y4699000D03*
D19*
G01*
X4229100Y4318000D03*
D17*
G01*
X1435100Y5080000D03*
G01*
X1943100Y5080000D03*
G01*
X1943100Y3556000D03*
G01*
X1689100Y3556000D03*
D20*
G01*
X1181100Y4191000D03*
D17*
G01*
X1435100Y3556000D03*
D20*
G01*
X1181100Y3937000D03*
D17*
G01*
X2197100Y5080000D03*
D20*
G01*
X1181100Y4445000D03*
D18*
G01*
X7137400Y3648900D03*
G01*
X7137400Y4148899D03*
D21*
G01*
X6290500Y1016000D03*
G01*
X6790499Y1016000D03*
G01*
X4839525Y1016000D03*
G01*
X5339524Y1016000D03*
G01*
X3388550Y1016000D03*
G01*
X3888549Y1016000D03*
G01*
X1937575Y1016000D03*
G01*
X2437574Y1016000D03*
G01*
X486600Y1016000D03*
G01*
X986599Y1016000D03*
D22*
G01*
X6991350Y2768600D03*
G01*
X546100Y3175000D03*
G01*
X6991350Y5448300D03*
G01*
X546100Y5283200D03*
M02*
