G04 Layer: TopSilkscreenLayer*
G04 EasyEDA v6.5.22, 2023-01-03 09:55:25*
G04 7daa880b0f2f4c369114fb813a63f3e8,5dd06754fdd742daa6fe38bf62b7df6b,10*
G04 Gerber Generator version 0.2*
G04 Scale: 100 percent, Rotated: No, Reflected: No *
G04 Dimensions in millimeters *
G04 leading zeros omitted , absolute positions ,4 integer and 5 decimal *
%FSLAX45Y45*%
%MOMM*%

%ADD10C,0.1524*%
%ADD11C,0.0813*%
%ADD12C,0.0488*%
%ADD13C,0.0650*%
%ADD14C,0.2540*%
%ADD15C,0.1270*%
%ADD16C,0.4000*%
%ADD17C,0.0183*%

%LPD*%
D10*
X6094984Y1974339D02*
G01*
X6100063Y1963925D01*
X6110477Y1953511D01*
X6120891Y1948177D01*
X6136640Y1943097D01*
X6162547Y1943097D01*
X6178041Y1948177D01*
X6188456Y1953511D01*
X6198870Y1963925D01*
X6203950Y1974339D01*
X6203950Y1995167D01*
X6198870Y2005327D01*
X6188456Y2015741D01*
X6178041Y2021075D01*
X6162547Y2026155D01*
X6136640Y2026155D01*
X6120891Y2021075D01*
X6110477Y2015741D01*
X6100063Y2005327D01*
X6094984Y1995167D01*
X6094984Y1974339D01*
X6183375Y1989833D02*
G01*
X6214363Y2021075D01*
X6094984Y2070859D02*
G01*
X6094984Y2128009D01*
X6136640Y2096767D01*
X6136640Y2112515D01*
X6141720Y2122929D01*
X6146800Y2128009D01*
X6162547Y2133343D01*
X6172961Y2133343D01*
X6188456Y2128009D01*
X6198870Y2117595D01*
X6203950Y2102101D01*
X6203950Y2086607D01*
X6198870Y2070859D01*
X6193790Y2065779D01*
X6183375Y2060445D01*
X4647184Y1974342D02*
G01*
X4652263Y1963928D01*
X4662677Y1953513D01*
X4673091Y1948179D01*
X4688840Y1943100D01*
X4714747Y1943100D01*
X4730241Y1948179D01*
X4740656Y1953513D01*
X4751070Y1963928D01*
X4756150Y1974342D01*
X4756150Y1995170D01*
X4751070Y2005329D01*
X4740656Y2015744D01*
X4730241Y2021078D01*
X4714747Y2026157D01*
X4688840Y2026157D01*
X4673091Y2021078D01*
X4662677Y2015744D01*
X4652263Y2005329D01*
X4647184Y1995170D01*
X4647184Y1974342D01*
X4735575Y1989836D02*
G01*
X4766563Y2021078D01*
X4647184Y2112518D02*
G01*
X4719827Y2060447D01*
X4719827Y2138426D01*
X4647184Y2112518D02*
G01*
X4756150Y2112518D01*
X3199384Y1974344D02*
G01*
X3204463Y1963930D01*
X3214877Y1953516D01*
X3225291Y1948182D01*
X3241040Y1943102D01*
X3266947Y1943102D01*
X3282441Y1948182D01*
X3292856Y1953516D01*
X3303270Y1963930D01*
X3308350Y1974344D01*
X3308350Y1995172D01*
X3303270Y2005332D01*
X3292856Y2015746D01*
X3282441Y2021080D01*
X3266947Y2026160D01*
X3241040Y2026160D01*
X3225291Y2021080D01*
X3214877Y2015746D01*
X3204463Y2005332D01*
X3199384Y1995172D01*
X3199384Y1974344D01*
X3287775Y1989838D02*
G01*
X3318763Y2021080D01*
X3199384Y2122934D02*
G01*
X3199384Y2070864D01*
X3246120Y2065784D01*
X3241040Y2070864D01*
X3235706Y2086612D01*
X3235706Y2102106D01*
X3241040Y2117600D01*
X3251200Y2128014D01*
X3266947Y2133348D01*
X3277361Y2133348D01*
X3292856Y2128014D01*
X3303270Y2117600D01*
X3308350Y2102106D01*
X3308350Y2086612D01*
X3303270Y2070864D01*
X3298190Y2065784D01*
X3287775Y2060450D01*
X1751584Y1974339D02*
G01*
X1756663Y1963925D01*
X1767078Y1953511D01*
X1777492Y1948177D01*
X1793239Y1943097D01*
X1819147Y1943097D01*
X1834642Y1948177D01*
X1845055Y1953511D01*
X1855470Y1963925D01*
X1860550Y1974339D01*
X1860550Y1995167D01*
X1855470Y2005327D01*
X1845055Y2015741D01*
X1834642Y2021075D01*
X1819147Y2026155D01*
X1793239Y2026155D01*
X1777492Y2021075D01*
X1767078Y2015741D01*
X1756663Y2005327D01*
X1751584Y1995167D01*
X1751584Y1974339D01*
X1839976Y1989833D02*
G01*
X1870963Y2021075D01*
X1767078Y2122929D02*
G01*
X1756663Y2117595D01*
X1751584Y2102101D01*
X1751584Y2091687D01*
X1756663Y2076193D01*
X1772412Y2065779D01*
X1798320Y2060445D01*
X1824228Y2060445D01*
X1845055Y2065779D01*
X1855470Y2076193D01*
X1860550Y2091687D01*
X1860550Y2096767D01*
X1855470Y2112515D01*
X1845055Y2122929D01*
X1829562Y2128009D01*
X1824228Y2128009D01*
X1808734Y2122929D01*
X1798320Y2112515D01*
X1793239Y2096767D01*
X1793239Y2091687D01*
X1798320Y2076193D01*
X1808734Y2065779D01*
X1824228Y2060445D01*
X303784Y1974339D02*
G01*
X308863Y1963925D01*
X319278Y1953511D01*
X329692Y1948177D01*
X345439Y1943097D01*
X371347Y1943097D01*
X386842Y1948177D01*
X397255Y1953511D01*
X407670Y1963925D01*
X412750Y1974339D01*
X412750Y1995167D01*
X407670Y2005327D01*
X397255Y2015741D01*
X386842Y2021075D01*
X371347Y2026155D01*
X345439Y2026155D01*
X329692Y2021075D01*
X319278Y2015741D01*
X308863Y2005327D01*
X303784Y1995167D01*
X303784Y1974339D01*
X392176Y1989833D02*
G01*
X423163Y2021075D01*
X303784Y2133343D02*
G01*
X412750Y2081273D01*
X303784Y2060445D02*
G01*
X303784Y2133343D01*
X5090922Y5169915D02*
G01*
X5090922Y5060950D01*
X5054600Y5169915D02*
G01*
X5127243Y5169915D01*
X5161534Y5169915D02*
G01*
X5161534Y5060950D01*
X5161534Y5169915D02*
G01*
X5203190Y5060950D01*
X5244845Y5169915D02*
G01*
X5203190Y5060950D01*
X5244845Y5169915D02*
G01*
X5244845Y5060950D01*
X5279136Y5149087D02*
G01*
X5289550Y5154421D01*
X5305043Y5169915D01*
X5305043Y5060950D01*
X786384Y4318000D02*
G01*
X864362Y4318000D01*
X879855Y4323079D01*
X890270Y4333494D01*
X895350Y4349242D01*
X895350Y4359655D01*
X890270Y4375150D01*
X879855Y4385563D01*
X864362Y4390644D01*
X786384Y4390644D01*
X807212Y4424934D02*
G01*
X801878Y4435347D01*
X786384Y4451095D01*
X895350Y4451095D01*
D11*
X1891284Y3733800D02*
G01*
X1988311Y3733800D01*
X1891284Y3733800D02*
G01*
X1891284Y3775455D01*
X1896110Y3789171D01*
X1900681Y3793744D01*
X1909826Y3798570D01*
X1918970Y3798570D01*
X1928368Y3793744D01*
X1932940Y3789171D01*
X1937511Y3775455D01*
X1937511Y3733800D01*
X1937511Y3766057D02*
G01*
X1988311Y3798570D01*
X1905254Y3893565D02*
G01*
X1896110Y3884421D01*
X1891284Y3870452D01*
X1891284Y3851910D01*
X1896110Y3838194D01*
X1905254Y3829050D01*
X1914397Y3829050D01*
X1923795Y3833621D01*
X1928368Y3838194D01*
X1932940Y3847337D01*
X1942084Y3875023D01*
X1946909Y3884421D01*
X1951481Y3888994D01*
X1960625Y3893565D01*
X1974595Y3893565D01*
X1983740Y3884421D01*
X1988311Y3870452D01*
X1988311Y3851910D01*
X1983740Y3838194D01*
X1974595Y3829050D01*
X1891284Y3956304D02*
G01*
X1988311Y3956304D01*
X1891284Y3924045D02*
G01*
X1891284Y3988815D01*
X2168397Y3803142D02*
G01*
X2159254Y3798570D01*
X2150109Y3789171D01*
X2145284Y3780028D01*
X2145284Y3761486D01*
X2150109Y3752342D01*
X2159254Y3742944D01*
X2168397Y3738371D01*
X2182368Y3733800D01*
X2205481Y3733800D01*
X2219197Y3738371D01*
X2228595Y3742944D01*
X2237740Y3752342D01*
X2242311Y3761486D01*
X2242311Y3780028D01*
X2237740Y3789171D01*
X2228595Y3798570D01*
X2219197Y3803142D01*
X2205481Y3803142D01*
X2205481Y3780028D02*
G01*
X2205481Y3803142D01*
X2145284Y3833621D02*
G01*
X2242311Y3833621D01*
X2145284Y3833621D02*
G01*
X2242311Y3898137D01*
X2145284Y3898137D02*
G01*
X2242311Y3898137D01*
X2145284Y3928618D02*
G01*
X2242311Y3928618D01*
X2145284Y3928618D02*
G01*
X2145284Y3961129D01*
X2150109Y3974845D01*
X2159254Y3983989D01*
X2168397Y3988815D01*
X2182368Y3993387D01*
X2205481Y3993387D01*
X2219197Y3988815D01*
X2228595Y3983989D01*
X2237740Y3974845D01*
X2242311Y3961129D01*
X2242311Y3928618D01*
X2399284Y3733800D02*
G01*
X2496311Y3733800D01*
X2399284Y3733800D02*
G01*
X2399284Y3766057D01*
X2404109Y3780028D01*
X2413254Y3789171D01*
X2422397Y3793744D01*
X2436368Y3798570D01*
X2459481Y3798570D01*
X2473197Y3793744D01*
X2482595Y3789171D01*
X2491740Y3780028D01*
X2496311Y3766057D01*
X2496311Y3733800D01*
X2422397Y3833621D02*
G01*
X2417825Y3833621D01*
X2408681Y3838194D01*
X2404109Y3842765D01*
X2399284Y3851910D01*
X2399284Y3870452D01*
X2404109Y3879850D01*
X2408681Y3884421D01*
X2417825Y3888994D01*
X2426970Y3888994D01*
X2436368Y3884421D01*
X2450084Y3875023D01*
X2496311Y3829050D01*
X2496311Y3893565D01*
X1637284Y3733800D02*
G01*
X1734312Y3733800D01*
X1637284Y3733800D02*
G01*
X1637284Y3775455D01*
X1642110Y3789171D01*
X1646681Y3793744D01*
X1655826Y3798570D01*
X1664970Y3798570D01*
X1674368Y3793744D01*
X1678939Y3789171D01*
X1683512Y3775455D01*
X1683512Y3733800D01*
X1683512Y3766057D02*
G01*
X1734312Y3798570D01*
X1637284Y3829050D02*
G01*
X1734312Y3893565D01*
X1637284Y3893565D02*
G01*
X1734312Y3829050D01*
X1383284Y3766057D02*
G01*
X1480312Y3766057D01*
X1383284Y3733800D02*
G01*
X1383284Y3798570D01*
X1383284Y3829050D02*
G01*
X1480312Y3893565D01*
X1383284Y3893565D02*
G01*
X1480312Y3829050D01*
D12*
X941831Y3606800D02*
G01*
X999997Y3606800D01*
X941831Y3606800D02*
G01*
X941831Y3626104D01*
X944626Y3634486D01*
X950213Y3640073D01*
X955547Y3642868D01*
X963929Y3645662D01*
X977900Y3645662D01*
X986028Y3642868D01*
X991615Y3640073D01*
X997204Y3634486D01*
X999997Y3626104D01*
X999997Y3606800D01*
X941831Y3683254D02*
G01*
X999997Y3683254D01*
X941831Y3663950D02*
G01*
X941831Y3702557D01*
X941831Y3720845D02*
G01*
X999997Y3720845D01*
X941831Y3720845D02*
G01*
X941831Y3745992D01*
X944626Y3754120D01*
X947420Y3756913D01*
X952754Y3759707D01*
X958342Y3759707D01*
X963929Y3756913D01*
X966723Y3754120D01*
X969518Y3745992D01*
X969518Y3720845D01*
X969518Y3740404D02*
G01*
X999997Y3759707D01*
X941831Y3925570D02*
G01*
X999997Y3925570D01*
X941831Y3906012D02*
G01*
X941831Y3944873D01*
X941831Y3963162D02*
G01*
X999997Y4002023D01*
X941831Y4002023D02*
G01*
X999997Y3963162D01*
X941831Y4148328D02*
G01*
X999997Y4148328D01*
X941831Y4148328D02*
G01*
X941831Y4173220D01*
X944626Y4181602D01*
X947420Y4184142D01*
X952754Y4186936D01*
X958342Y4186936D01*
X963929Y4184142D01*
X966723Y4181602D01*
X969518Y4173220D01*
X969518Y4148328D01*
X969518Y4167631D02*
G01*
X999997Y4186936D01*
X941831Y4205223D02*
G01*
X999997Y4244086D01*
X941831Y4244086D02*
G01*
X999997Y4205223D01*
X941831Y4347718D02*
G01*
X999997Y4369815D01*
X941831Y4392168D02*
G01*
X999997Y4369815D01*
X955547Y4451857D02*
G01*
X950213Y4449063D01*
X944626Y4443729D01*
X941831Y4438142D01*
X941831Y4426965D01*
X944626Y4421378D01*
X950213Y4415789D01*
X955547Y4413250D01*
X963929Y4410455D01*
X977900Y4410455D01*
X986028Y4413250D01*
X991615Y4415789D01*
X997204Y4421378D01*
X999997Y4426965D01*
X999997Y4438142D01*
X997204Y4443729D01*
X991615Y4449063D01*
X986028Y4451857D01*
X955547Y4511802D02*
G01*
X950213Y4509007D01*
X944626Y4503420D01*
X941831Y4497831D01*
X941831Y4486910D01*
X944626Y4481321D01*
X950213Y4475734D01*
X955547Y4472939D01*
X963929Y4470145D01*
X977900Y4470145D01*
X986028Y4472939D01*
X991615Y4475734D01*
X997204Y4481321D01*
X999997Y4486910D01*
X999997Y4497831D01*
X997204Y4503420D01*
X991615Y4509007D01*
X986028Y4511802D01*
X955547Y4657089D02*
G01*
X950213Y4654295D01*
X944626Y4648707D01*
X941831Y4643120D01*
X941831Y4631944D01*
X944626Y4626610D01*
X950213Y4621021D01*
X955547Y4618228D01*
X963929Y4615434D01*
X977900Y4615434D01*
X986028Y4618228D01*
X991615Y4621021D01*
X997204Y4626610D01*
X999997Y4631944D01*
X999997Y4643120D01*
X997204Y4648707D01*
X991615Y4654295D01*
X986028Y4657089D01*
X977900Y4657089D01*
X977900Y4643120D02*
G01*
X977900Y4657089D01*
X941831Y4675378D02*
G01*
X999997Y4675378D01*
X941831Y4675378D02*
G01*
X999997Y4713986D01*
X941831Y4713986D02*
G01*
X999997Y4713986D01*
X941831Y4732273D02*
G01*
X999997Y4732273D01*
X941831Y4732273D02*
G01*
X941831Y4751831D01*
X944626Y4759960D01*
X950213Y4765547D01*
X955547Y4768342D01*
X963929Y4771136D01*
X977900Y4771136D01*
X986028Y4768342D01*
X991615Y4765547D01*
X997204Y4759960D01*
X999997Y4751831D01*
X999997Y4732273D01*
X941831Y4874768D02*
G01*
X999997Y4874768D01*
X941831Y4874768D02*
G01*
X941831Y4899660D01*
X944626Y4908042D01*
X947420Y4910836D01*
X952754Y4913629D01*
X958342Y4913629D01*
X963929Y4910836D01*
X966723Y4908042D01*
X969518Y4899660D01*
X969518Y4874768D02*
G01*
X969518Y4899660D01*
X972312Y4908042D01*
X975105Y4910836D01*
X980694Y4913629D01*
X988821Y4913629D01*
X994410Y4910836D01*
X997204Y4908042D01*
X999997Y4899660D01*
X999997Y4874768D01*
X941831Y4931918D02*
G01*
X999997Y4931918D01*
X999997Y4931918D02*
G01*
X999997Y4965192D01*
X941831Y4983479D02*
G01*
X999997Y4983479D01*
X941831Y5022087D02*
G01*
X980694Y4983479D01*
X966723Y4997195D02*
G01*
X999997Y5022087D01*
D11*
X2907284Y3733800D02*
G01*
X3004311Y3733800D01*
X2907284Y3733800D02*
G01*
X2907284Y3766057D01*
X2912109Y3780028D01*
X2921254Y3789171D01*
X2930397Y3793744D01*
X2944368Y3798570D01*
X2967481Y3798570D01*
X2981197Y3793744D01*
X2990595Y3789171D01*
X2999740Y3780028D01*
X3004311Y3766057D01*
X3004311Y3733800D01*
X2907284Y3875023D02*
G01*
X2972054Y3829050D01*
X2972054Y3898137D01*
X2907284Y3875023D02*
G01*
X3004311Y3875023D01*
X3161284Y3733800D02*
G01*
X3258311Y3733800D01*
X3161284Y3733800D02*
G01*
X3161284Y3766057D01*
X3166109Y3780028D01*
X3175254Y3789171D01*
X3184397Y3793744D01*
X3198368Y3798570D01*
X3221481Y3798570D01*
X3235197Y3793744D01*
X3244595Y3789171D01*
X3253740Y3780028D01*
X3258311Y3766057D01*
X3258311Y3733800D01*
X3161284Y3884421D02*
G01*
X3161284Y3838194D01*
X3202940Y3833621D01*
X3198368Y3838194D01*
X3193795Y3851910D01*
X3193795Y3865879D01*
X3198368Y3879850D01*
X3207511Y3888994D01*
X3221481Y3893565D01*
X3230625Y3893565D01*
X3244595Y3888994D01*
X3253740Y3879850D01*
X3258311Y3865879D01*
X3258311Y3851910D01*
X3253740Y3838194D01*
X3249168Y3833621D01*
X3239770Y3829050D01*
X3415284Y3733800D02*
G01*
X3512311Y3733800D01*
X3415284Y3733800D02*
G01*
X3415284Y3766057D01*
X3420109Y3780028D01*
X3429254Y3789171D01*
X3438397Y3793744D01*
X3452368Y3798570D01*
X3475481Y3798570D01*
X3489197Y3793744D01*
X3498595Y3789171D01*
X3507740Y3780028D01*
X3512311Y3766057D01*
X3512311Y3733800D01*
X3429254Y3884421D02*
G01*
X3420109Y3879850D01*
X3415284Y3865879D01*
X3415284Y3856736D01*
X3420109Y3842765D01*
X3433825Y3833621D01*
X3456940Y3829050D01*
X3480054Y3829050D01*
X3498595Y3833621D01*
X3507740Y3842765D01*
X3512311Y3856736D01*
X3512311Y3861307D01*
X3507740Y3875023D01*
X3498595Y3884421D01*
X3484625Y3888994D01*
X3480054Y3888994D01*
X3466084Y3884421D01*
X3456940Y3875023D01*
X3452368Y3861307D01*
X3452368Y3856736D01*
X3456940Y3842765D01*
X3466084Y3833621D01*
X3480054Y3829050D01*
X3669284Y3733800D02*
G01*
X3766311Y3733800D01*
X3669284Y3733800D02*
G01*
X3669284Y3766057D01*
X3674109Y3780028D01*
X3683254Y3789171D01*
X3692397Y3793744D01*
X3706368Y3798570D01*
X3729481Y3798570D01*
X3743197Y3793744D01*
X3752595Y3789171D01*
X3761740Y3780028D01*
X3766311Y3766057D01*
X3766311Y3733800D01*
X3669284Y3893565D02*
G01*
X3766311Y3847337D01*
X3669284Y3829050D02*
G01*
X3669284Y3893565D01*
X3923284Y3733800D02*
G01*
X4020311Y3733800D01*
X3923284Y3733800D02*
G01*
X3923284Y3766057D01*
X3928109Y3780028D01*
X3937254Y3789171D01*
X3946397Y3793744D01*
X3960368Y3798570D01*
X3983481Y3798570D01*
X3997197Y3793744D01*
X4006595Y3789171D01*
X4015740Y3780028D01*
X4020311Y3766057D01*
X4020311Y3733800D01*
X3923284Y3851910D02*
G01*
X3928109Y3838194D01*
X3937254Y3833621D01*
X3946397Y3833621D01*
X3955795Y3838194D01*
X3960368Y3847337D01*
X3964940Y3865879D01*
X3969511Y3879850D01*
X3978909Y3888994D01*
X3988054Y3893565D01*
X4001770Y3893565D01*
X4011168Y3888994D01*
X4015740Y3884421D01*
X4020311Y3870452D01*
X4020311Y3851910D01*
X4015740Y3838194D01*
X4011168Y3833621D01*
X4001770Y3829050D01*
X3988054Y3829050D01*
X3978909Y3833621D01*
X3969511Y3842765D01*
X3964940Y3856736D01*
X3960368Y3875023D01*
X3955795Y3884421D01*
X3946397Y3888994D01*
X3937254Y3888994D01*
X3928109Y3884421D01*
X3923284Y3870452D01*
X3923284Y3851910D01*
X4177284Y3733800D02*
G01*
X4274311Y3733800D01*
X4177284Y3733800D02*
G01*
X4177284Y3766057D01*
X4182109Y3780028D01*
X4191254Y3789171D01*
X4200397Y3793744D01*
X4214368Y3798570D01*
X4237481Y3798570D01*
X4251197Y3793744D01*
X4260595Y3789171D01*
X4269740Y3780028D01*
X4274311Y3766057D01*
X4274311Y3733800D01*
X4209795Y3888994D02*
G01*
X4223511Y3884421D01*
X4232909Y3875023D01*
X4237481Y3861307D01*
X4237481Y3856736D01*
X4232909Y3842765D01*
X4223511Y3833621D01*
X4209795Y3829050D01*
X4204970Y3829050D01*
X4191254Y3833621D01*
X4182109Y3842765D01*
X4177284Y3856736D01*
X4177284Y3861307D01*
X4182109Y3875023D01*
X4191254Y3884421D01*
X4209795Y3888994D01*
X4232909Y3888994D01*
X4255770Y3884421D01*
X4269740Y3875023D01*
X4274311Y3861307D01*
X4274311Y3851910D01*
X4269740Y3838194D01*
X4260595Y3833621D01*
X4380484Y4978400D02*
G01*
X4477511Y4978400D01*
X4380484Y4978400D02*
G01*
X4380484Y5010657D01*
X4385309Y5024628D01*
X4394454Y5033771D01*
X4403597Y5038344D01*
X4417568Y5043170D01*
X4440681Y5043170D01*
X4454397Y5038344D01*
X4463795Y5033771D01*
X4472940Y5024628D01*
X4477511Y5010657D01*
X4477511Y4978400D01*
X4399025Y5073650D02*
G01*
X4394454Y5082794D01*
X4380484Y5096510D01*
X4477511Y5096510D01*
X4380484Y5154929D02*
G01*
X4385309Y5140960D01*
X4399025Y5131815D01*
X4422140Y5126989D01*
X4436109Y5126989D01*
X4458970Y5131815D01*
X4472940Y5140960D01*
X4477511Y5154929D01*
X4477511Y5164073D01*
X4472940Y5177789D01*
X4458970Y5187187D01*
X4436109Y5191760D01*
X4422140Y5191760D01*
X4399025Y5187187D01*
X4385309Y5177789D01*
X4380484Y5164073D01*
X4380484Y5154929D01*
X3948684Y4766055D02*
G01*
X4045711Y4766055D01*
X3948684Y4766055D02*
G01*
X3948684Y4798313D01*
X3953509Y4812284D01*
X3962654Y4821428D01*
X3971797Y4826000D01*
X3985768Y4830826D01*
X4008881Y4830826D01*
X4022597Y4826000D01*
X4031995Y4821428D01*
X4041140Y4812284D01*
X4045711Y4798313D01*
X4045711Y4766055D01*
X3967225Y4861305D02*
G01*
X3962654Y4870450D01*
X3948684Y4884165D01*
X4045711Y4884165D01*
X3967225Y4914645D02*
G01*
X3962654Y4924044D01*
X3948684Y4937760D01*
X4045711Y4937760D01*
X3694684Y4724400D02*
G01*
X3791711Y4724400D01*
X3694684Y4724400D02*
G01*
X3694684Y4756657D01*
X3699509Y4770628D01*
X3708654Y4779771D01*
X3717797Y4784344D01*
X3731768Y4789170D01*
X3754881Y4789170D01*
X3768597Y4784344D01*
X3777995Y4779771D01*
X3787140Y4770628D01*
X3791711Y4756657D01*
X3791711Y4724400D01*
X3713225Y4819650D02*
G01*
X3708654Y4828794D01*
X3694684Y4842510D01*
X3791711Y4842510D01*
X3717797Y4877815D02*
G01*
X3713225Y4877815D01*
X3704081Y4882387D01*
X3699509Y4886960D01*
X3694684Y4896104D01*
X3694684Y4914645D01*
X3699509Y4923789D01*
X3704081Y4928615D01*
X3713225Y4933187D01*
X3722370Y4933187D01*
X3731768Y4928615D01*
X3745484Y4919218D01*
X3791711Y4872989D01*
X3791711Y4937760D01*
X3440684Y4724400D02*
G01*
X3537711Y4724400D01*
X3440684Y4724400D02*
G01*
X3440684Y4756657D01*
X3445509Y4770628D01*
X3454654Y4779771D01*
X3463797Y4784344D01*
X3477768Y4789170D01*
X3500881Y4789170D01*
X3514597Y4784344D01*
X3523995Y4779771D01*
X3533140Y4770628D01*
X3537711Y4756657D01*
X3537711Y4724400D01*
X3459225Y4819650D02*
G01*
X3454654Y4828794D01*
X3440684Y4842510D01*
X3537711Y4842510D01*
X3440684Y4882387D02*
G01*
X3440684Y4933187D01*
X3477768Y4905502D01*
X3477768Y4919218D01*
X3482340Y4928615D01*
X3486911Y4933187D01*
X3500881Y4937760D01*
X3510025Y4937760D01*
X3523995Y4933187D01*
X3533140Y4923789D01*
X3537711Y4910073D01*
X3537711Y4896104D01*
X3533140Y4882387D01*
X3528568Y4877815D01*
X3519170Y4872989D01*
X3186684Y4805679D02*
G01*
X3283711Y4768850D01*
X3186684Y4805679D02*
G01*
X3283711Y4842763D01*
X3251454Y4782820D02*
G01*
X3251454Y4828794D01*
X3186684Y4900929D02*
G01*
X3191509Y4886960D01*
X3205225Y4877815D01*
X3228340Y4873244D01*
X3242309Y4873244D01*
X3265170Y4877815D01*
X3279140Y4886960D01*
X3283711Y4900929D01*
X3283711Y4910073D01*
X3279140Y4924044D01*
X3265170Y4933187D01*
X3242309Y4937760D01*
X3228340Y4937760D01*
X3205225Y4933187D01*
X3191509Y4924044D01*
X3186684Y4910073D01*
X3186684Y4900929D01*
X2932684Y4847081D02*
G01*
X3029711Y4810252D01*
X2932684Y4847081D02*
G01*
X3029711Y4884165D01*
X2997454Y4824221D02*
G01*
X2997454Y4870195D01*
X2951225Y4914645D02*
G01*
X2946654Y4923789D01*
X2932684Y4937760D01*
X3029711Y4937760D01*
D13*
X2490122Y4981046D02*
G01*
X2524246Y4905253D01*
X2490122Y4981046D02*
G01*
X2566095Y4947102D01*
X2513830Y4931476D02*
G01*
X2539872Y4957518D01*
X2544003Y5008704D02*
G01*
X2541308Y5011399D01*
X2538793Y5019301D01*
X2538793Y5024330D01*
X2541308Y5032235D01*
X2551904Y5042829D01*
X2559809Y5045344D01*
X2564838Y5045344D01*
X2572740Y5042829D01*
X2577947Y5037622D01*
X2580462Y5029720D01*
X2583157Y5016609D01*
X2583337Y4964343D01*
X2619796Y5000802D01*
X2346853Y4915822D02*
G01*
X2422646Y4949946D01*
X2346853Y4915822D02*
G01*
X2380797Y4991795D01*
X2396423Y4939530D02*
G01*
X2370381Y4965572D01*
X2303388Y4959286D02*
G01*
X2274651Y4988024D01*
X2311112Y4993231D01*
X2303388Y5000955D01*
X2300874Y5008857D01*
X2300874Y5014244D01*
X2306083Y5024483D01*
X2311290Y5029690D01*
X2321709Y5035080D01*
X2332126Y5035080D01*
X2342723Y5029870D01*
X2350625Y5021968D01*
X2355654Y5011552D01*
X2355654Y5006162D01*
X2352959Y4998440D01*
X2064258Y4699000D02*
G01*
X2141981Y4728463D01*
X2064258Y4758181D02*
G01*
X2141981Y4728463D01*
X2082800Y4837937D02*
G01*
X2075434Y4834128D01*
X2068068Y4826762D01*
X2064258Y4819395D01*
X2064258Y4804663D01*
X2068068Y4797297D01*
X2075434Y4789931D01*
X2082800Y4786121D01*
X2093722Y4782565D01*
X2112263Y4782565D01*
X2123440Y4786121D01*
X2130806Y4789931D01*
X2138172Y4797297D01*
X2141981Y4804663D01*
X2141981Y4819395D01*
X2138172Y4826762D01*
X2130806Y4834128D01*
X2123440Y4837937D01*
X2082800Y4917694D02*
G01*
X2075434Y4914137D01*
X2068068Y4906518D01*
X2064258Y4899152D01*
X2064258Y4884420D01*
X2068068Y4877054D01*
X2075434Y4869687D01*
X2082800Y4865878D01*
X2093722Y4862321D01*
X2112263Y4862321D01*
X2123440Y4865878D01*
X2130806Y4869687D01*
X2138172Y4877054D01*
X2141981Y4884420D01*
X2141981Y4899152D01*
X2138172Y4906518D01*
X2130806Y4914137D01*
X2123440Y4917694D01*
D11*
X1865884Y4673600D02*
G01*
X1962911Y4673600D01*
X1865884Y4673600D02*
G01*
X1865884Y4715255D01*
X1870710Y4728971D01*
X1875281Y4733544D01*
X1884426Y4738370D01*
X1893570Y4738370D01*
X1902968Y4733544D01*
X1907539Y4728971D01*
X1912112Y4715255D01*
X1912112Y4673600D01*
X1912112Y4705857D02*
G01*
X1962911Y4738370D01*
X1879854Y4833365D02*
G01*
X1870710Y4824221D01*
X1865884Y4810252D01*
X1865884Y4791710D01*
X1870710Y4777994D01*
X1879854Y4768850D01*
X1888997Y4768850D01*
X1898395Y4773421D01*
X1902968Y4777994D01*
X1907539Y4787137D01*
X1916684Y4814823D01*
X1921510Y4824221D01*
X1926081Y4828794D01*
X1935225Y4833365D01*
X1949195Y4833365D01*
X1958340Y4824221D01*
X1962911Y4810252D01*
X1962911Y4791710D01*
X1958340Y4777994D01*
X1949195Y4768850D01*
X1865884Y4896104D02*
G01*
X1962911Y4896104D01*
X1865884Y4863845D02*
G01*
X1865884Y4928615D01*
X1660397Y4717542D02*
G01*
X1651254Y4712970D01*
X1642110Y4703571D01*
X1637284Y4694428D01*
X1637284Y4675886D01*
X1642110Y4666742D01*
X1651254Y4657344D01*
X1660397Y4652771D01*
X1674368Y4648200D01*
X1697481Y4648200D01*
X1711197Y4652771D01*
X1720595Y4657344D01*
X1729739Y4666742D01*
X1734312Y4675886D01*
X1734312Y4694428D01*
X1729739Y4703571D01*
X1720595Y4712970D01*
X1711197Y4717542D01*
X1697481Y4717542D01*
X1697481Y4694428D02*
G01*
X1697481Y4717542D01*
X1637284Y4748021D02*
G01*
X1734312Y4748021D01*
X1637284Y4748021D02*
G01*
X1734312Y4812537D01*
X1637284Y4812537D02*
G01*
X1734312Y4812537D01*
X1637284Y4843018D02*
G01*
X1734312Y4843018D01*
X1637284Y4843018D02*
G01*
X1637284Y4875529D01*
X1642110Y4889245D01*
X1651254Y4898389D01*
X1660397Y4903215D01*
X1674368Y4907787D01*
X1697481Y4907787D01*
X1711197Y4903215D01*
X1720595Y4898389D01*
X1729739Y4889245D01*
X1734312Y4875529D01*
X1734312Y4843018D01*
X1408684Y4622800D02*
G01*
X1505712Y4622800D01*
X1408684Y4622800D02*
G01*
X1408684Y4664455D01*
X1413510Y4678171D01*
X1418081Y4682744D01*
X1427226Y4687570D01*
X1436370Y4687570D01*
X1445768Y4682744D01*
X1450339Y4678171D01*
X1454912Y4664455D01*
X1454912Y4622800D01*
X1454912Y4655057D02*
G01*
X1505712Y4687570D01*
X1408684Y4754879D02*
G01*
X1505712Y4718050D01*
X1408684Y4754879D02*
G01*
X1505712Y4791710D01*
X1473454Y4731765D02*
G01*
X1473454Y4777994D01*
X1408684Y4822189D02*
G01*
X1505712Y4845304D01*
X1408684Y4868418D02*
G01*
X1505712Y4845304D01*
X1408684Y4868418D02*
G01*
X1505712Y4891531D01*
X1408684Y4914645D02*
G01*
X1505712Y4891531D01*
X2653284Y3733800D02*
G01*
X2750311Y3733800D01*
X2653284Y3733800D02*
G01*
X2653284Y3766057D01*
X2658109Y3780028D01*
X2667254Y3789171D01*
X2676397Y3793744D01*
X2690368Y3798570D01*
X2713481Y3798570D01*
X2727197Y3793744D01*
X2736595Y3789171D01*
X2745740Y3780028D01*
X2750311Y3766057D01*
X2750311Y3733800D01*
X2653284Y3838194D02*
G01*
X2653284Y3888994D01*
X2690368Y3861307D01*
X2690368Y3875023D01*
X2694940Y3884421D01*
X2699511Y3888994D01*
X2713481Y3893565D01*
X2722625Y3893565D01*
X2736595Y3888994D01*
X2745740Y3879850D01*
X2750311Y3865879D01*
X2750311Y3851910D01*
X2745740Y3838194D01*
X2741168Y3833621D01*
X2731770Y3829050D01*
X4380484Y4532629D02*
G01*
X4477511Y4495800D01*
X4380484Y4532629D02*
G01*
X4477511Y4569713D01*
X4445254Y4509770D02*
G01*
X4445254Y4555744D01*
X4394454Y4655565D02*
G01*
X4385309Y4650994D01*
X4380484Y4637023D01*
X4380484Y4627879D01*
X4385309Y4613910D01*
X4399025Y4604765D01*
X4422140Y4600194D01*
X4445254Y4600194D01*
X4463795Y4604765D01*
X4472940Y4613910D01*
X4477511Y4627879D01*
X4477511Y4632452D01*
X4472940Y4646421D01*
X4463795Y4655565D01*
X4449825Y4660137D01*
X4445254Y4660137D01*
X4431284Y4655565D01*
X4422140Y4646421D01*
X4417568Y4632452D01*
X4417568Y4627879D01*
X4422140Y4613910D01*
X4431284Y4604765D01*
X4445254Y4600194D01*
X4380484Y4786629D02*
G01*
X4477511Y4749800D01*
X4380484Y4786629D02*
G01*
X4477511Y4823713D01*
X4445254Y4763770D02*
G01*
X4445254Y4809744D01*
X4380484Y4918710D02*
G01*
X4477511Y4872736D01*
X4380484Y4854194D02*
G01*
X4380484Y4918710D01*
X2272284Y4532629D02*
G01*
X2369311Y4495800D01*
X2272284Y4532629D02*
G01*
X2369311Y4569713D01*
X2337054Y4509770D02*
G01*
X2337054Y4555744D01*
X2272284Y4655565D02*
G01*
X2272284Y4609337D01*
X2313940Y4604765D01*
X2309368Y4609337D01*
X2304795Y4623307D01*
X2304795Y4637023D01*
X2309368Y4650994D01*
X2318511Y4660137D01*
X2332481Y4664710D01*
X2341625Y4664710D01*
X2355595Y4660137D01*
X2364740Y4650994D01*
X2369311Y4637023D01*
X2369311Y4623307D01*
X2364740Y4609337D01*
X2360168Y4604765D01*
X2350770Y4600194D01*
X2526284Y4532629D02*
G01*
X2623311Y4495800D01*
X2526284Y4532629D02*
G01*
X2623311Y4569713D01*
X2591054Y4509770D02*
G01*
X2591054Y4555744D01*
X2526284Y4646421D02*
G01*
X2591054Y4600194D01*
X2591054Y4669536D01*
X2526284Y4646421D02*
G01*
X2623311Y4646421D01*
X4403597Y4260342D02*
G01*
X4394454Y4255770D01*
X4385309Y4246371D01*
X4380484Y4237228D01*
X4380484Y4218686D01*
X4385309Y4209542D01*
X4394454Y4200144D01*
X4403597Y4195571D01*
X4417568Y4191000D01*
X4440681Y4191000D01*
X4454397Y4195571D01*
X4463795Y4200144D01*
X4472940Y4209542D01*
X4477511Y4218686D01*
X4477511Y4237228D01*
X4472940Y4246371D01*
X4463795Y4255770D01*
X4454397Y4260342D01*
X4440681Y4260342D01*
X4440681Y4237228D02*
G01*
X4440681Y4260342D01*
X4380484Y4290821D02*
G01*
X4477511Y4290821D01*
X4380484Y4290821D02*
G01*
X4477511Y4355337D01*
X4380484Y4355337D02*
G01*
X4477511Y4355337D01*
X4380484Y4385818D02*
G01*
X4477511Y4385818D01*
X4380484Y4385818D02*
G01*
X4380484Y4418329D01*
X4385309Y4432045D01*
X4394454Y4441189D01*
X4403597Y4446015D01*
X4417568Y4450587D01*
X4440681Y4450587D01*
X4454397Y4446015D01*
X4463795Y4441189D01*
X4472940Y4432045D01*
X4477511Y4418329D01*
X4477511Y4385818D01*
D10*
X6628384Y3899598D02*
G01*
X6706361Y3899598D01*
X6721856Y3904678D01*
X6732270Y3915092D01*
X6737350Y3930840D01*
X6737350Y3941254D01*
X6732270Y3956748D01*
X6721856Y3967162D01*
X6706361Y3972242D01*
X6628384Y3972242D01*
X6628384Y4016946D02*
G01*
X6628384Y4074096D01*
X6670040Y4043108D01*
X6670040Y4058602D01*
X6675120Y4069016D01*
X6680200Y4074096D01*
X6695947Y4079430D01*
X6706361Y4079430D01*
X6721856Y4074096D01*
X6732270Y4063682D01*
X6737350Y4048188D01*
X6737350Y4032694D01*
X6732270Y4016946D01*
X6727190Y4011866D01*
X6716775Y4006532D01*
X6541198Y1525015D02*
G01*
X6541198Y1447037D01*
X6546278Y1431544D01*
X6556692Y1421129D01*
X6572440Y1416050D01*
X6582854Y1416050D01*
X6598348Y1421129D01*
X6608762Y1431544D01*
X6613842Y1447037D01*
X6613842Y1525015D01*
X6710616Y1525015D02*
G01*
X6658546Y1525015D01*
X6653466Y1478279D01*
X6658546Y1483360D01*
X6674294Y1488694D01*
X6689788Y1488694D01*
X6705282Y1483360D01*
X6715696Y1473200D01*
X6721030Y1457452D01*
X6721030Y1447037D01*
X6715696Y1431544D01*
X6705282Y1421129D01*
X6689788Y1416050D01*
X6674294Y1416050D01*
X6658546Y1421129D01*
X6653466Y1426210D01*
X6648132Y1436623D01*
X5090223Y1525015D02*
G01*
X5090223Y1447037D01*
X5095303Y1431544D01*
X5105717Y1421129D01*
X5121465Y1416050D01*
X5131879Y1416050D01*
X5147373Y1421129D01*
X5157787Y1431544D01*
X5162867Y1447037D01*
X5162867Y1525015D01*
X5270055Y1525015D02*
G01*
X5217985Y1416050D01*
X5197157Y1525015D02*
G01*
X5270055Y1525015D01*
X3639248Y1525015D02*
G01*
X3639248Y1447037D01*
X3644328Y1431544D01*
X3654742Y1421129D01*
X3670490Y1416050D01*
X3680904Y1416050D01*
X3696398Y1421129D01*
X3706812Y1431544D01*
X3711892Y1447037D01*
X3711892Y1525015D01*
X3772344Y1525015D02*
G01*
X3756596Y1519936D01*
X3751516Y1509521D01*
X3751516Y1499107D01*
X3756596Y1488694D01*
X3767010Y1483360D01*
X3787838Y1478279D01*
X3803332Y1473200D01*
X3813746Y1462786D01*
X3819080Y1452371D01*
X3819080Y1436623D01*
X3813746Y1426210D01*
X3808666Y1421129D01*
X3792918Y1416050D01*
X3772344Y1416050D01*
X3756596Y1421129D01*
X3751516Y1426210D01*
X3746182Y1436623D01*
X3746182Y1452371D01*
X3751516Y1462786D01*
X3761930Y1473200D01*
X3777424Y1478279D01*
X3798252Y1483360D01*
X3808666Y1488694D01*
X3813746Y1499107D01*
X3813746Y1509521D01*
X3808666Y1519936D01*
X3792918Y1525015D01*
X3772344Y1525015D01*
X2188273Y1525015D02*
G01*
X2188273Y1447037D01*
X2193353Y1431544D01*
X2203767Y1421129D01*
X2219515Y1416050D01*
X2229929Y1416050D01*
X2245423Y1421129D01*
X2255837Y1431544D01*
X2260917Y1447037D01*
X2260917Y1525015D01*
X2362771Y1488694D02*
G01*
X2357691Y1473200D01*
X2347277Y1462786D01*
X2331783Y1457452D01*
X2326449Y1457452D01*
X2310955Y1462786D01*
X2300541Y1473200D01*
X2295207Y1488694D01*
X2295207Y1493773D01*
X2300541Y1509521D01*
X2310955Y1519936D01*
X2326449Y1525015D01*
X2331783Y1525015D01*
X2347277Y1519936D01*
X2357691Y1509521D01*
X2362771Y1488694D01*
X2362771Y1462786D01*
X2357691Y1436623D01*
X2347277Y1421129D01*
X2331783Y1416050D01*
X2321369Y1416050D01*
X2305621Y1421129D01*
X2300541Y1431544D01*
X737298Y1525015D02*
G01*
X737298Y1447037D01*
X742378Y1431544D01*
X752792Y1421129D01*
X768540Y1416050D01*
X778954Y1416050D01*
X794448Y1421129D01*
X804862Y1431544D01*
X809942Y1447037D01*
X809942Y1525015D01*
X844232Y1504187D02*
G01*
X854646Y1509521D01*
X870394Y1525015D01*
X870394Y1416050D01*
X935672Y1525015D02*
G01*
X920178Y1519936D01*
X909764Y1504187D01*
X904684Y1478279D01*
X904684Y1462786D01*
X909764Y1436623D01*
X920178Y1421129D01*
X935672Y1416050D01*
X946086Y1416050D01*
X961834Y1421129D01*
X972248Y1436623D01*
X977328Y1462786D01*
X977328Y1478279D01*
X972248Y1504187D01*
X961834Y1519936D01*
X946086Y1525015D01*
X935672Y1525015D01*
G36*
X5207000Y4699000D02*
G01*
X5207000Y4648200D01*
X5308600Y4648200D01*
X5308600Y4699000D01*
G37*
D14*
X6273800Y2138796D02*
G01*
X7289800Y2138796D01*
X6273800Y1777997D02*
G01*
X7289800Y1777997D01*
X7289800Y2222497D01*
X6273800Y2222497D01*
X6273800Y1777997D01*
X4826000Y2138799D02*
G01*
X5842000Y2138799D01*
X4826000Y1778000D02*
G01*
X5842000Y1778000D01*
X5842000Y2222500D01*
X4826000Y2222500D01*
X4826000Y1778000D01*
X3378200Y2138801D02*
G01*
X4394200Y2138801D01*
X3378200Y1778002D02*
G01*
X4394200Y1778002D01*
X4394200Y2222502D01*
X3378200Y2222502D01*
X3378200Y1778002D01*
X1930400Y2138796D02*
G01*
X2946400Y2138796D01*
X1930400Y1777997D02*
G01*
X2946400Y1777997D01*
X2946400Y2222497D01*
X1930400Y2222497D01*
X1930400Y1777997D01*
X482600Y2138796D02*
G01*
X1498600Y2138796D01*
X482600Y1777997D02*
G01*
X1498600Y1777997D01*
X1498600Y2222497D01*
X482600Y2222497D01*
X482600Y1777997D01*
X4758613Y4998593D02*
G01*
X5308625Y4998593D01*
X5308625Y4348581D01*
X4758613Y4348581D01*
X4758613Y4998593D01*
D15*
X1371600Y3429000D02*
G01*
X1498600Y3429000D01*
X1562100Y3492500D01*
X1625600Y3429000D01*
X1752600Y3429000D01*
X1816100Y3492500D01*
X1879600Y3429000D01*
X2006600Y3429000D01*
X2070100Y3492500D01*
X2133600Y3429000D01*
X2260600Y3429000D01*
X2324100Y3492500D01*
X2387600Y3429000D01*
X2514600Y3429000D01*
X2578100Y3492500D01*
X2641600Y3429000D01*
X2768600Y3429000D01*
X2832100Y3492500D01*
X2895600Y3429000D01*
X3022600Y3429000D01*
X3086100Y3492500D01*
X3149600Y3429000D01*
X3276600Y3429000D01*
X3340100Y3492500D01*
X3403600Y3429000D01*
X3530600Y3429000D01*
X3594100Y3492500D01*
X3657600Y3429000D01*
X3784600Y3429000D01*
X3848100Y3492500D01*
X3911600Y3429000D01*
X4038600Y3429000D01*
X4102100Y3492500D01*
X4165600Y3429000D01*
X4292600Y3429000D01*
X4356100Y3492500D01*
X4356100Y3619500D01*
X4292600Y3683000D01*
X4165600Y3683000D01*
X4102100Y3619500D01*
X4038600Y3683000D01*
X3911600Y3683000D01*
X3848100Y3619500D01*
X3784600Y3683000D01*
X3657600Y3683000D01*
X3594100Y3619500D01*
X3530600Y3683000D01*
X3403600Y3683000D01*
X3340100Y3619500D01*
X3276600Y3683000D01*
X3149600Y3683000D01*
X3086100Y3619500D01*
X3022600Y3683000D01*
X2895600Y3683000D01*
X2832100Y3619500D01*
X2768600Y3683000D01*
X2641600Y3683000D01*
X2578100Y3619500D01*
X2514600Y3683000D01*
X2387600Y3683000D01*
X2324100Y3619500D01*
X2260600Y3683000D01*
X2133600Y3683000D01*
X2070100Y3619500D01*
X2006600Y3683000D01*
X1879600Y3683000D01*
X1816100Y3619500D01*
X1752600Y3683000D01*
X1625600Y3683000D01*
X1562100Y3619500D01*
X1498600Y3683000D01*
X1371600Y3683000D01*
X1308100Y3619500D01*
X1308100Y3492500D01*
X1371600Y3429000D01*
X4102100Y5016500D02*
G01*
X4165600Y4953000D01*
X4102100Y4889500D01*
X4102100Y4762500D01*
X4165600Y4699000D01*
X4102100Y4635500D01*
X4102100Y4508500D01*
X4165600Y4445000D01*
X4102100Y4381500D01*
X4102100Y4254500D01*
X4165600Y4191000D01*
X4292600Y4191000D01*
X4356100Y4254500D01*
X4356100Y4381500D01*
X4292600Y4445000D01*
X4356100Y4508500D01*
X4356100Y4635500D01*
X4292600Y4699000D01*
X4356100Y4762500D01*
X4356100Y4889500D01*
X4292600Y4953000D01*
X4356100Y5016500D01*
X4356100Y5143500D01*
X4292600Y5207000D01*
X4165600Y5207000D01*
X4102100Y5143500D01*
X4038600Y5207000D01*
X3911600Y5207000D01*
X3848100Y5143500D01*
X3784600Y5207000D01*
X3657600Y5207000D01*
X3594100Y5143500D01*
X3530600Y5207000D01*
X3403600Y5207000D01*
X3340100Y5143500D01*
X3276600Y5207000D01*
X3149600Y5207000D01*
X3086100Y5143500D01*
X3022600Y5207000D01*
X2895600Y5207000D01*
X2832100Y5143500D01*
X2768600Y5207000D01*
X2641600Y5207000D01*
X2578100Y5143500D01*
X2514600Y5207000D01*
X2387600Y5207000D01*
X2324100Y5143500D01*
X2260600Y5207000D01*
X2133600Y5207000D01*
X2070100Y5143500D01*
X2006600Y5207000D01*
X1879600Y5207000D01*
X1816100Y5143500D01*
X1752600Y5207000D01*
X1625600Y5207000D01*
X1562100Y5143500D01*
X1498600Y5207000D01*
X1371600Y5207000D01*
X1308100Y5143500D01*
X1308100Y5016500D01*
X1371600Y4953000D01*
X1498600Y4953000D01*
X1562100Y5016500D01*
X1625600Y4953000D01*
X1752600Y4953000D01*
X1816100Y5016500D01*
X1879600Y4953000D01*
X2006600Y4953000D01*
X2070100Y5016500D01*
X2133600Y4953000D01*
X2260600Y4953000D01*
X2197100Y4889500D01*
X2197100Y4762500D01*
X2260600Y4699000D01*
X2387600Y4699000D01*
X2451100Y4762500D01*
X2514600Y4699000D01*
X2641600Y4699000D01*
X2705100Y4762500D01*
X2705100Y4889500D01*
X2641600Y4953000D01*
X2768600Y4953000D01*
X2832100Y5016500D01*
X2895600Y4953000D01*
X3022600Y4953000D01*
X3086100Y5016500D01*
X3149600Y4953000D01*
X3276600Y4953000D01*
X3340100Y5016500D01*
X3403600Y4953000D01*
X3530600Y4953000D01*
X3594100Y5016500D01*
X3657600Y4953000D01*
X3784600Y4953000D01*
X3848100Y5016500D01*
X3911600Y4953000D01*
X4038600Y4953000D01*
X4102100Y5016500D01*
X1054100Y3619500D02*
G01*
X1117600Y3556000D01*
X1244600Y3556000D01*
X1308100Y3619500D01*
X1308100Y3746500D01*
X1244600Y3810000D01*
X1308100Y3873500D01*
X1308100Y4000500D01*
X1244600Y4064000D01*
X1308100Y4127500D01*
X1308100Y4254500D01*
X1244600Y4318000D01*
X1308100Y4381500D01*
X1308100Y4508500D01*
X1244600Y4572000D01*
X1308100Y4635500D01*
X1308100Y4762500D01*
X1244600Y4826000D01*
X1308100Y4889500D01*
X1308100Y5016500D01*
X1244600Y5080000D01*
X1117600Y5080000D01*
X1054100Y5016500D01*
X1054100Y4889500D01*
X1117600Y4826000D01*
X1054100Y4762500D01*
X1054100Y4635500D01*
X1117600Y4572000D01*
X1054100Y4508500D01*
X1054100Y4381500D01*
X1117600Y4318000D01*
X1054100Y4254500D01*
X1054100Y4127500D01*
X1117600Y4064000D01*
X1054100Y4000500D01*
X1054100Y3873500D01*
X1117600Y3810000D01*
X1054100Y3746500D01*
X1054100Y3619500D01*
X4165600Y4953000D02*
G01*
X4292600Y4953000D01*
D14*
X6797403Y3390897D02*
G01*
X6797400Y4406897D01*
X6797400Y4406897D02*
G01*
X7557399Y4406897D01*
X7557399Y3390884D02*
G01*
X6797400Y3390884D01*
X7557399Y3390897D02*
G01*
X7557399Y4406897D01*
X7353300Y3390897D02*
G01*
X7353300Y4406900D01*
X6921500Y3390900D02*
G01*
X6921500Y4406902D01*
X7366000Y4406900D02*
G01*
X7366000Y4434941D01*
X7388758Y4457700D01*
X7287158Y4457700D01*
X7312558Y4432300D01*
X7312558Y4419600D01*
X6985000Y3860812D02*
G01*
X6985000Y3937012D01*
X7277100Y3937012D01*
X7277100Y3860812D01*
X6985000Y3860812D01*
X6032497Y1355996D02*
G01*
X7048497Y1355999D01*
X7048497Y1355999D02*
G01*
X7048497Y596000D01*
X6032484Y596000D02*
G01*
X6032484Y1355999D01*
X6032497Y596000D02*
G01*
X7048497Y596000D01*
X6032497Y800100D02*
G01*
X7048500Y800100D01*
X6032500Y1231900D02*
G01*
X7048502Y1231900D01*
X7048500Y787400D02*
G01*
X7076541Y787400D01*
X7099300Y764641D01*
X7099300Y866241D01*
X7073900Y840841D01*
X7061200Y840841D01*
X6502412Y1168400D02*
G01*
X6578612Y1168400D01*
X6578612Y876300D01*
X6502412Y876300D01*
X6502412Y1168400D01*
X4581522Y1355996D02*
G01*
X5597522Y1355999D01*
X5597522Y1355999D02*
G01*
X5597522Y596000D01*
X4581509Y596000D02*
G01*
X4581509Y1355999D01*
X4581522Y596000D02*
G01*
X5597522Y596000D01*
X4581522Y800100D02*
G01*
X5597525Y800100D01*
X4581525Y1231900D02*
G01*
X5597527Y1231900D01*
X5597525Y787400D02*
G01*
X5625566Y787400D01*
X5648325Y764641D01*
X5648325Y866241D01*
X5622925Y840841D01*
X5610225Y840841D01*
X5051437Y1168400D02*
G01*
X5127637Y1168400D01*
X5127637Y876300D01*
X5051437Y876300D01*
X5051437Y1168400D01*
X3130547Y1355996D02*
G01*
X4146547Y1355999D01*
X4146547Y1355999D02*
G01*
X4146547Y596000D01*
X3130534Y596000D02*
G01*
X3130534Y1355999D01*
X3130547Y596000D02*
G01*
X4146547Y596000D01*
X3130547Y800100D02*
G01*
X4146550Y800100D01*
X3130550Y1231900D02*
G01*
X4146552Y1231900D01*
X4146550Y787400D02*
G01*
X4174591Y787400D01*
X4197350Y764641D01*
X4197350Y866241D01*
X4171950Y840841D01*
X4159250Y840841D01*
X3600462Y1168400D02*
G01*
X3676662Y1168400D01*
X3676662Y876300D01*
X3600462Y876300D01*
X3600462Y1168400D01*
X1679572Y1355996D02*
G01*
X2695572Y1355999D01*
X2695572Y1355999D02*
G01*
X2695572Y596000D01*
X1679559Y596000D02*
G01*
X1679559Y1355999D01*
X1679572Y596000D02*
G01*
X2695572Y596000D01*
X1679572Y800100D02*
G01*
X2695575Y800100D01*
X1679575Y1231900D02*
G01*
X2695577Y1231900D01*
X2695575Y787400D02*
G01*
X2723616Y787400D01*
X2746375Y764641D01*
X2746375Y866241D01*
X2720975Y840841D01*
X2708275Y840841D01*
X2149487Y1168400D02*
G01*
X2225687Y1168400D01*
X2225687Y876300D01*
X2149487Y876300D01*
X2149487Y1168400D01*
X228597Y1355996D02*
G01*
X1244597Y1355999D01*
X1244597Y1355999D02*
G01*
X1244597Y596000D01*
X228584Y596000D02*
G01*
X228584Y1355999D01*
X228597Y596000D02*
G01*
X1244597Y596000D01*
X228597Y800100D02*
G01*
X1244600Y800100D01*
X228600Y1231900D02*
G01*
X1244602Y1231900D01*
X1244600Y787400D02*
G01*
X1272641Y787400D01*
X1295400Y764641D01*
X1295400Y866241D01*
X1270000Y840841D01*
X1257300Y840841D01*
X698512Y1168400D02*
G01*
X774712Y1168400D01*
X774712Y876300D01*
X698512Y876300D01*
X698512Y1168400D01*
D16*
G75*
G01*
X6504940Y1709417D02*
G03*
X6505194Y1709417I127J-19999D01*
G75*
G01*
X5057140Y1709420D02*
G03*
X5057394Y1709420I127J-20000D01*
G75*
G01*
X3609340Y1709423D02*
G03*
X3609594Y1709423I127J-20000D01*
G75*
G01*
X2161540Y1709417D02*
G03*
X2161794Y1709417I127J-19999D01*
G75*
G01*
X713740Y1709417D02*
G03*
X713994Y1709417I127J-19999D01*
D14*
G75*
G01
X7469657Y3644913D02*
G03X7469657Y3644913I-40157J0D01*
G75*
G01
X7469657Y4152887D02*
G03X7469657Y4152887I-40157J0D01*
G75*
G01
X6326670Y723900D02*
G03X6326670Y723900I-40157J0D01*
G75*
G01
X6834645Y723900D02*
G03X6834645Y723900I-40157J0D01*
G75*
G01
X4875695Y723900D02*
G03X4875695Y723900I-40157J0D01*
G75*
G01
X5383670Y723900D02*
G03X5383670Y723900I-40157J0D01*
G75*
G01
X3424720Y723900D02*
G03X3424720Y723900I-40157J0D01*
G75*
G01
X3932695Y723900D02*
G03X3932695Y723900I-40157J0D01*
G75*
G01
X1973745Y723900D02*
G03X1973745Y723900I-40157J0D01*
G75*
G01
X2481720Y723900D02*
G03X2481720Y723900I-40157J0D01*
G75*
G01
X522770Y723900D02*
G03X522770Y723900I-40157J0D01*
G75*
G01
X1030745Y723900D02*
G03X1030745Y723900I-40157J0D01*
M02*
