G04 Layer: BottomPasteMaskLayer*
G04 EasyEDA v6.5.22, 2023-01-03 09:55:25*
G04 7daa880b0f2f4c369114fb813a63f3e8,5dd06754fdd742daa6fe38bf62b7df6b,10*
G04 Gerber Generator version 0.2*
G04 Scale: 100 percent, Rotated: No, Reflected: No *
G04 Dimensions in millimeters *
G04 leading zeros omitted , absolute positions ,4 integer and 5 decimal *
%FSLAX45Y45*%
%MOMM*%

%AMMACRO1*21,1,$1,$2,0,0,$3*%
%ADD10MACRO1,0.98X3.2941X-90.0000*%
%ADD11R,7.5321X10.5664*%

%LPD*%
G36*
X3403092Y3148177D02*
G01*
X3398113Y3143148D01*
X3398113Y3028137D01*
X3403092Y3023158D01*
X3444087Y3022650D01*
X3444087Y3067659D01*
X3489096Y3067659D01*
X3489096Y3023666D01*
X3531108Y3023158D01*
X3536086Y3028137D01*
X3536086Y3143148D01*
X3531108Y3148177D01*
G37*
G36*
X3403092Y2933141D02*
G01*
X3398113Y2928162D01*
X3398113Y2813151D01*
X3403092Y2808173D01*
X3531108Y2808173D01*
X3536086Y2813151D01*
X3536086Y2928162D01*
X3531108Y2933141D01*
X3489096Y2933141D01*
X3489096Y2888640D01*
X3444087Y2888640D01*
X3444087Y2932633D01*
G37*
G36*
X3149092Y3148177D02*
G01*
X3144113Y3143148D01*
X3144113Y3028137D01*
X3149092Y3023158D01*
X3190087Y3022650D01*
X3190087Y3067659D01*
X3235096Y3067659D01*
X3235096Y3023666D01*
X3277108Y3023158D01*
X3282086Y3028137D01*
X3282086Y3143148D01*
X3277108Y3148177D01*
G37*
G36*
X3149092Y2933141D02*
G01*
X3144113Y2928162D01*
X3144113Y2813151D01*
X3149092Y2808173D01*
X3277108Y2808173D01*
X3282086Y2813151D01*
X3282086Y2928162D01*
X3277108Y2933141D01*
X3235096Y2933141D01*
X3235096Y2888640D01*
X3190087Y2888640D01*
X3190087Y2932633D01*
G37*
G36*
X2895092Y3148177D02*
G01*
X2890113Y3143148D01*
X2890113Y3028137D01*
X2895092Y3023158D01*
X2936087Y3022650D01*
X2936087Y3067659D01*
X2981096Y3067659D01*
X2981096Y3023666D01*
X3023108Y3023158D01*
X3028086Y3028137D01*
X3028086Y3143148D01*
X3023108Y3148177D01*
G37*
G36*
X2895092Y2933141D02*
G01*
X2890113Y2928162D01*
X2890113Y2813151D01*
X2895092Y2808173D01*
X3023108Y2808173D01*
X3028086Y2813151D01*
X3028086Y2928162D01*
X3023108Y2933141D01*
X2981096Y2933141D01*
X2981096Y2888640D01*
X2936087Y2888640D01*
X2936087Y2932633D01*
G37*
G36*
X2641092Y3148177D02*
G01*
X2636113Y3143148D01*
X2636113Y3028137D01*
X2641092Y3023158D01*
X2682087Y3022650D01*
X2682087Y3067659D01*
X2727096Y3067659D01*
X2727096Y3023666D01*
X2769108Y3023158D01*
X2774086Y3028137D01*
X2774086Y3143148D01*
X2769108Y3148177D01*
G37*
G36*
X2641092Y2933141D02*
G01*
X2636113Y2928162D01*
X2636113Y2813151D01*
X2641092Y2808173D01*
X2769108Y2808173D01*
X2774086Y2813151D01*
X2774086Y2928162D01*
X2769108Y2933141D01*
X2727096Y2933141D01*
X2727096Y2888640D01*
X2682087Y2888640D01*
X2682087Y2932633D01*
G37*
G36*
X2387092Y3148177D02*
G01*
X2382113Y3143148D01*
X2382113Y3028137D01*
X2387092Y3023158D01*
X2428087Y3022650D01*
X2428087Y3067659D01*
X2473096Y3067659D01*
X2473096Y3023666D01*
X2515108Y3023158D01*
X2520086Y3028137D01*
X2520086Y3143148D01*
X2515108Y3148177D01*
G37*
G36*
X2387092Y2933141D02*
G01*
X2382113Y2928162D01*
X2382113Y2813151D01*
X2387092Y2808173D01*
X2515108Y2808173D01*
X2520086Y2813151D01*
X2520086Y2928162D01*
X2515108Y2933141D01*
X2473096Y2933141D01*
X2473096Y2888640D01*
X2428087Y2888640D01*
X2428087Y2932633D01*
G37*
D10*
G01*
X5131305Y3606800D03*
G01*
X5131305Y4114800D03*
D11*
G01*
X6374909Y3860800D03*
M02*
