M48
METRIC,LZ,000.000
;FILE_FORMAT=3:3
;TYPE=PLATED
;Layer: PTH_Through
;EasyEDA v6.5.9, 2022-12-19 01:16:27
;b9351db9c1bb4c489ec9b4c5568df8d6,5dd06754fdd742daa6fe38bf62b7df6b,10
;Gerber Generator version 0.2
;Holesize 1 = 0.101 mm
T01C0.101
;Holesize 2 = 0.813 mm
T02C0.813
;Holesize 3 = 1.000 mm
T03C1.000
;Holesize 4 = 1.016 mm
T04C1.016
;Holesize 5 = 1.321 mm
T05C1.321
%
G05
G90
T01
X030224Y101346G85X030228Y101346
X060196Y100838G85X060200Y100838
X090168Y100838G85X090172Y100838
X089914Y075184G85X089918Y075184
X060450Y074676G85X060454Y074676
X030478Y074930G85X030482Y074930
X030478Y048514G85X030482Y048514
X060450Y048514G85X060454Y048514
X090168Y048514G85X090172Y048514
X089914Y022098G85X089918Y022098
X060196Y022098G85X060200Y022098
X030478Y022352G85X030482Y022352
T02
X047752Y090173G85X047752Y090167
X047752Y082553G85X047752Y082547
X037592Y092707G85X037592Y092713
X037592Y100327G85X037592Y100333
X077724Y090173G85X077724Y090167
X077724Y082553G85X077724Y082547
X067564Y092707G85X067564Y092713
X067564Y100327G85X067564Y100333
X077470Y064519G85X077470Y064513
X077470Y056899G85X077470Y056893
X067310Y067053G85X067310Y067059
X067310Y074673G85X067310Y074679
X048006Y064011G85X048006Y064005
X048006Y056391G85X048006Y056385
X037846Y066545G85X037846Y066551
X037846Y074165G85X037846Y074171
X018034Y064265G85X018034Y064259
X018034Y056645G85X018034Y056639
X007874Y066799G85X007874Y066805
X007874Y074419G85X007874Y074425
X018034Y037849G85X018034Y037843
X018034Y030229G85X018034Y030223
X007874Y040383G85X007874Y040389
X007874Y048003G85X007874Y048009
X048006Y037849G85X048006Y037843
X048006Y030229G85X048006Y030223
X037846Y040383G85X037846Y040389
X037846Y048003G85X037846Y048009
X077724Y037849G85X077724Y037843
X077724Y030229G85X077724Y030223
X067564Y040383G85X067564Y040389
X067564Y048003G85X067564Y048009
X077470Y011433G85X077470Y011427
X077470Y003813G85X077470Y003807
X067310Y013967G85X067310Y013973
X067310Y021587G85X067310Y021593
X047752Y011433G85X047752Y011427
X047752Y003813G85X047752Y003807
X037592Y013967G85X037592Y013973
X037592Y021587G85X037592Y021593
X018034Y011687G85X018034Y011681
X018034Y004067G85X018034Y004061
X007874Y014221G85X007874Y014227
X007874Y021841G85X007874Y021847
X007620Y093215G85X007620Y093221
X007620Y100835G85X007620Y100841
X017780Y090681G85X017780Y090675
X017780Y083061G85X017780Y083055
T03
X045215Y097790G85X045209Y097790
X045215Y095250G85X045209Y095250
X052829Y095250G85X052835Y095250
X052829Y097790G85X052835Y097790
X045215Y092710G85X045209Y092710
X052829Y092710G85X052835Y092710
X075187Y097790G85X075181Y097790
X075187Y095250G85X075181Y095250
X082801Y095250G85X082807Y095250
X082801Y097790G85X082807Y097790
X075187Y092710G85X075181Y092710
X082801Y092710G85X082807Y092710
X074933Y072136G85X074927Y072136
X074933Y069596G85X074927Y069596
X082547Y069596G85X082553Y069596
X082547Y072136G85X082553Y072136
X074933Y067056G85X074927Y067056
X082547Y067056G85X082553Y067056
X045469Y071628G85X045463Y071628
X045469Y069088G85X045463Y069088
X053083Y069088G85X053089Y069088
X053083Y071628G85X053089Y071628
X045469Y066548G85X045463Y066548
X053083Y066548G85X053089Y066548
X015497Y071882G85X015491Y071882
X015497Y069342G85X015491Y069342
X023111Y069342G85X023117Y069342
X023111Y071882G85X023117Y071882
X015497Y066802G85X015491Y066802
X023111Y066802G85X023117Y066802
X015497Y045466G85X015491Y045466
X015497Y042926G85X015491Y042926
X023111Y042926G85X023117Y042926
X023111Y045466G85X023117Y045466
X015497Y040386G85X015491Y040386
X023111Y040386G85X023117Y040386
X045469Y045466G85X045463Y045466
X045469Y042926G85X045463Y042926
X053083Y042926G85X053089Y042926
X053083Y045466G85X053089Y045466
X045469Y040386G85X045463Y040386
X053083Y040386G85X053089Y040386
X075187Y045466G85X075181Y045466
X075187Y042926G85X075181Y042926
X082801Y042926G85X082807Y042926
X082801Y045466G85X082807Y045466
X075187Y040386G85X075181Y040386
X082801Y040386G85X082807Y040386
X074933Y019050G85X074927Y019050
X074933Y016510G85X074927Y016510
X082547Y016510G85X082553Y016510
X082547Y019050G85X082553Y019050
X074933Y013970G85X074927Y013970
X082547Y013970G85X082553Y013970
X045215Y019050G85X045209Y019050
X045215Y016510G85X045209Y016510
X052829Y016510G85X052835Y016510
X052829Y019050G85X052835Y019050
X045215Y013970G85X045209Y013970
X052829Y013970G85X052835Y013970
X015497Y019304G85X015491Y019304
X015497Y016764G85X015491Y016764
X023111Y016764G85X023117Y016764
X023111Y019304G85X023117Y019304
X015497Y014224G85X015491Y014224
X023111Y014224G85X023117Y014224
X015243Y098298G85X015237Y098298
X015243Y095758G85X015237Y095758
X022857Y095758G85X022863Y095758
X022857Y098298G85X022863Y098298
X015243Y093218G85X015237Y093218
X022857Y093218G85X022863Y093218
T04
X052832Y087633G85X052832Y087627
X055372Y087633G85X055372Y087627
X052832Y085093G85X052832Y085087
X055372Y085093G85X055372Y085087
X052832Y082553G85X052832Y082547
X055372Y082553G85X055372Y082547
X082804Y087633G85X082804Y087627
X085344Y087633G85X085344Y087627
X082804Y085093G85X082804Y085087
X085344Y085093G85X085344Y085087
X082804Y082553G85X082804Y082547
X085344Y082553G85X085344Y082547
X082550Y061979G85X082550Y061973
X085090Y061979G85X085090Y061973
X082550Y059439G85X082550Y059433
X085090Y059439G85X085090Y059433
X082550Y056899G85X082550Y056893
X085090Y056899G85X085090Y056893
X053086Y061471G85X053086Y061465
X055626Y061471G85X055626Y061465
X053086Y058931G85X053086Y058925
X055626Y058931G85X055626Y058925
X053086Y056391G85X053086Y056385
X055626Y056391G85X055626Y056385
X023114Y061725G85X023114Y061719
X025654Y061725G85X025654Y061719
X023114Y059185G85X023114Y059179
X025654Y059185G85X025654Y059179
X023114Y056645G85X023114Y056639
X025654Y056645G85X025654Y056639
X023114Y035309G85X023114Y035303
X025654Y035309G85X025654Y035303
X023114Y032769G85X023114Y032763
X025654Y032769G85X025654Y032763
X023114Y030229G85X023114Y030223
X025654Y030229G85X025654Y030223
X053086Y035309G85X053086Y035303
X055626Y035309G85X055626Y035303
X053086Y032769G85X053086Y032763
X055626Y032769G85X055626Y032763
X053086Y030229G85X053086Y030223
X055626Y030229G85X055626Y030223
X082804Y035309G85X082804Y035303
X085344Y035309G85X085344Y035303
X082804Y032769G85X082804Y032763
X085344Y032769G85X085344Y032763
X082804Y030229G85X082804Y030223
X085344Y030229G85X085344Y030223
X082550Y008893G85X082550Y008887
X085090Y008893G85X085090Y008887
X082550Y006353G85X082550Y006347
X085090Y006353G85X085090Y006347
X082550Y003813G85X082550Y003807
X085090Y003813G85X085090Y003807
X052832Y008893G85X052832Y008887
X055372Y008893G85X055372Y008887
X052832Y006353G85X052832Y006347
X055372Y006353G85X055372Y006347
X052832Y003813G85X052832Y003807
X055372Y003813G85X055372Y003807
X023114Y009147G85X023114Y009141
X025654Y009147G85X025654Y009141
X023114Y006607G85X023114Y006601
X025654Y006607G85X025654Y006601
X023114Y004067G85X023114Y004061
X025654Y004067G85X025654Y004061
X022860Y088141G85X022860Y088135
X025400Y088141G85X025400Y088135
X022860Y085601G85X022860Y085595
X025400Y085601G85X025400Y085595
X022860Y083061G85X022860Y083055
X025400Y083061G85X025400Y083055
T05
X037589Y088875G85X037595Y088875
X037589Y083845G85X037595Y083845
X067561Y088875G85X067567Y088875
X067561Y083845G85X067567Y083845
X067307Y063221G85X067313Y063221
X067307Y058191G85X067313Y058191
X037843Y062713G85X037849Y062713
X037843Y057683G85X037849Y057683
X007871Y062967G85X007877Y062967
X007871Y057937G85X007877Y057937
X007871Y036551G85X007877Y036551
X007871Y031521G85X007877Y031521
X037843Y036551G85X037849Y036551
X037843Y031521G85X037849Y031521
X067561Y036551G85X067567Y036551
X067561Y031521G85X067567Y031521
X067307Y010135G85X067313Y010135
X067307Y005105G85X067313Y005105
X037589Y010135G85X037595Y010135
X037589Y005105G85X037595Y005105
X007871Y010389G85X007877Y010389
X007871Y005359G85X007877Y005359
X007617Y089383G85X007623Y089383
X007617Y084353G85X007623Y084353
M30
