G04 Layer: MechanicalLayer*
G04 Panelize: V-CUT, Column: 3, Row: 4, Board Size: 28.19mm x 24.64mm, Panelized Board Size: 87.78mm x 103.35mm*
G04 EasyEDA v6.5.9, 2022-12-19 01:16:27*
G04 b9351db9c1bb4c489ec9b4c5568df8d6,5dd06754fdd742daa6fe38bf62b7df6b,10*
G04 Gerber Generator version 0.2*
G04 Scale: 100 percent, Rotated: No, Reflected: No *
G04 Dimensions in millimeters *
G04 leading zeros omitted , absolute positions ,4 integer and 5 decimal *
%FSLAX45Y45*%
%MOMM*%

%ADD10C,0.2540*%

%LPD*%
D10*
X406400Y11838178D02*
G01*
X406400Y11644376D01*
X406400Y11838178D02*
G01*
X489458Y11838178D01*
X517143Y11829034D01*
X526542Y11819890D01*
X535686Y11801348D01*
X535686Y11782806D01*
X526542Y11764264D01*
X517143Y11755120D01*
X489458Y11745976D01*
X406400Y11745976D01*
X471170Y11745976D02*
G01*
X535686Y11644376D01*
X642874Y11773662D02*
G01*
X624332Y11764264D01*
X605790Y11745976D01*
X596646Y11718290D01*
X596646Y11699748D01*
X605790Y11672062D01*
X624332Y11653520D01*
X642874Y11644376D01*
X670560Y11644376D01*
X689102Y11653520D01*
X707390Y11672062D01*
X716788Y11699748D01*
X716788Y11718290D01*
X707390Y11745976D01*
X689102Y11764264D01*
X670560Y11773662D01*
X642874Y11773662D01*
X777748Y11773662D02*
G01*
X814578Y11644376D01*
X851662Y11773662D02*
G01*
X814578Y11644376D01*
X851662Y11773662D02*
G01*
X888492Y11644376D01*
X925576Y11773662D02*
G01*
X888492Y11644376D01*
X1258062Y11810492D02*
G01*
X1239520Y11829034D01*
X1211834Y11838178D01*
X1174750Y11838178D01*
X1147064Y11829034D01*
X1128776Y11810492D01*
X1128776Y11791950D01*
X1137920Y11773662D01*
X1147064Y11764264D01*
X1165606Y11755120D01*
X1220978Y11736578D01*
X1239520Y11727434D01*
X1248664Y11718290D01*
X1258062Y11699748D01*
X1258062Y11672062D01*
X1239520Y11653520D01*
X1211834Y11644376D01*
X1174750Y11644376D01*
X1147064Y11653520D01*
X1128776Y11672062D01*
X1319022Y11773662D02*
G01*
X1319022Y11579606D01*
X1319022Y11745976D02*
G01*
X1337310Y11764264D01*
X1355852Y11773662D01*
X1383538Y11773662D01*
X1402080Y11764264D01*
X1420622Y11745976D01*
X1429766Y11718290D01*
X1429766Y11699748D01*
X1420622Y11672062D01*
X1402080Y11653520D01*
X1383538Y11644376D01*
X1355852Y11644376D01*
X1337310Y11653520D01*
X1319022Y11672062D01*
X1601470Y11773662D02*
G01*
X1601470Y11644376D01*
X1601470Y11745976D02*
G01*
X1583182Y11764264D01*
X1564640Y11773662D01*
X1536954Y11773662D01*
X1518412Y11764264D01*
X1499870Y11745976D01*
X1490726Y11718290D01*
X1490726Y11699748D01*
X1499870Y11672062D01*
X1518412Y11653520D01*
X1536954Y11644376D01*
X1564640Y11644376D01*
X1583182Y11653520D01*
X1601470Y11672062D01*
X1773428Y11745976D02*
G01*
X1754886Y11764264D01*
X1736343Y11773662D01*
X1708657Y11773662D01*
X1690370Y11764264D01*
X1671828Y11745976D01*
X1662430Y11718290D01*
X1662430Y11699748D01*
X1671828Y11672062D01*
X1690370Y11653520D01*
X1708657Y11644376D01*
X1736343Y11644376D01*
X1754886Y11653520D01*
X1773428Y11672062D01*
X1834388Y11838178D02*
G01*
X1843532Y11829034D01*
X1852930Y11838178D01*
X1843532Y11847576D01*
X1834388Y11838178D01*
X1843532Y11773662D02*
G01*
X1843532Y11644376D01*
X1913889Y11773662D02*
G01*
X1913889Y11644376D01*
X1913889Y11736578D02*
G01*
X1941575Y11764264D01*
X1959864Y11773662D01*
X1987550Y11773662D01*
X2006092Y11764264D01*
X2015489Y11736578D01*
X2015489Y11644376D01*
X2187194Y11773662D02*
G01*
X2187194Y11625834D01*
X2178050Y11598148D01*
X2168652Y11588750D01*
X2150110Y11579606D01*
X2122424Y11579606D01*
X2104136Y11588750D01*
X2187194Y11745976D02*
G01*
X2168652Y11764264D01*
X2150110Y11773662D01*
X2122424Y11773662D01*
X2104136Y11764264D01*
X2085593Y11745976D01*
X2076450Y11718290D01*
X2076450Y11699748D01*
X2085593Y11672062D01*
X2104136Y11653520D01*
X2122424Y11644376D01*
X2150110Y11644376D01*
X2168652Y11653520D01*
X2187194Y11672062D01*
X2257298Y11755120D02*
G01*
X2248154Y11745976D01*
X2257298Y11736578D01*
X2266696Y11745976D01*
X2257298Y11755120D01*
X2257298Y11690350D02*
G01*
X2248154Y11681206D01*
X2257298Y11672062D01*
X2266696Y11681206D01*
X2257298Y11690350D01*
X2469896Y11801348D02*
G01*
X2488184Y11810492D01*
X2515870Y11838178D01*
X2515870Y11644376D01*
X2586228Y11690350D02*
G01*
X2576830Y11681206D01*
X2586228Y11672062D01*
X2595372Y11681206D01*
X2586228Y11690350D01*
X2767330Y11810492D02*
G01*
X2757932Y11829034D01*
X2730246Y11838178D01*
X2711704Y11838178D01*
X2684018Y11829034D01*
X2665730Y11801348D01*
X2656332Y11755120D01*
X2656332Y11708892D01*
X2665730Y11672062D01*
X2684018Y11653520D01*
X2711704Y11644376D01*
X2721102Y11644376D01*
X2748788Y11653520D01*
X2767330Y11672062D01*
X2776474Y11699748D01*
X2776474Y11708892D01*
X2767330Y11736578D01*
X2748788Y11755120D01*
X2721102Y11764264D01*
X2711704Y11764264D01*
X2684018Y11755120D01*
X2665730Y11736578D01*
X2656332Y11708892D01*
X2837434Y11773662D02*
G01*
X2837434Y11644376D01*
X2837434Y11736578D02*
G01*
X2865120Y11764264D01*
X2883662Y11773662D01*
X2911348Y11773662D01*
X2929890Y11764264D01*
X2939034Y11736578D01*
X2939034Y11644376D01*
X2939034Y11736578D02*
G01*
X2966720Y11764264D01*
X2985262Y11773662D01*
X3012948Y11773662D01*
X3031490Y11764264D01*
X3040634Y11736578D01*
X3040634Y11644376D01*
X3101594Y11773662D02*
G01*
X3101594Y11644376D01*
X3101594Y11736578D02*
G01*
X3129280Y11764264D01*
X3147822Y11773662D01*
X3175508Y11773662D01*
X3194050Y11764264D01*
X3203194Y11736578D01*
X3203194Y11644376D01*
X3203194Y11736578D02*
G01*
X3230880Y11764264D01*
X3249422Y11773662D01*
X3277108Y11773662D01*
X3295650Y11764264D01*
X3304794Y11736578D01*
X3304794Y11644376D01*
X544830Y11487150D02*
G01*
X535686Y11505692D01*
X517143Y11524234D01*
X498856Y11533378D01*
X461772Y11533378D01*
X443230Y11524234D01*
X424942Y11505692D01*
X415543Y11487150D01*
X406400Y11459464D01*
X406400Y11413490D01*
X415543Y11385550D01*
X424942Y11367262D01*
X443230Y11348720D01*
X461772Y11339576D01*
X498856Y11339576D01*
X517143Y11348720D01*
X535686Y11367262D01*
X544830Y11385550D01*
X652018Y11468862D02*
G01*
X633730Y11459464D01*
X615188Y11441176D01*
X605790Y11413490D01*
X605790Y11394948D01*
X615188Y11367262D01*
X633730Y11348720D01*
X652018Y11339576D01*
X679704Y11339576D01*
X698246Y11348720D01*
X716788Y11367262D01*
X725932Y11394948D01*
X725932Y11413490D01*
X716788Y11441176D01*
X698246Y11459464D01*
X679704Y11468862D01*
X652018Y11468862D01*
X786892Y11533378D02*
G01*
X786892Y11339576D01*
X847852Y11468862D02*
G01*
X847852Y11376406D01*
X857250Y11348720D01*
X875537Y11339576D01*
X903224Y11339576D01*
X921766Y11348720D01*
X949452Y11376406D01*
X949452Y11468862D02*
G01*
X949452Y11339576D01*
X1010412Y11468862D02*
G01*
X1010412Y11339576D01*
X1010412Y11431778D02*
G01*
X1038098Y11459464D01*
X1056640Y11468862D01*
X1084326Y11468862D01*
X1102868Y11459464D01*
X1112012Y11431778D01*
X1112012Y11339576D01*
X1112012Y11431778D02*
G01*
X1139698Y11459464D01*
X1158240Y11468862D01*
X1185926Y11468862D01*
X1204468Y11459464D01*
X1213612Y11431778D01*
X1213612Y11339576D01*
X1274572Y11468862D02*
G01*
X1274572Y11339576D01*
X1274572Y11431778D02*
G01*
X1302258Y11459464D01*
X1320800Y11468862D01*
X1348486Y11468862D01*
X1367028Y11459464D01*
X1376172Y11431778D01*
X1376172Y11339576D01*
X1708657Y11505692D02*
G01*
X1690370Y11524234D01*
X1662430Y11533378D01*
X1625600Y11533378D01*
X1597914Y11524234D01*
X1579372Y11505692D01*
X1579372Y11487150D01*
X1588770Y11468862D01*
X1597914Y11459464D01*
X1616456Y11450320D01*
X1671828Y11431778D01*
X1690370Y11422634D01*
X1699514Y11413490D01*
X1708657Y11394948D01*
X1708657Y11367262D01*
X1690370Y11348720D01*
X1662430Y11339576D01*
X1625600Y11339576D01*
X1597914Y11348720D01*
X1579372Y11367262D01*
X1769618Y11468862D02*
G01*
X1769618Y11274806D01*
X1769618Y11441176D02*
G01*
X1788160Y11459464D01*
X1806702Y11468862D01*
X1834388Y11468862D01*
X1852930Y11459464D01*
X1871218Y11441176D01*
X1880616Y11413490D01*
X1880616Y11394948D01*
X1871218Y11367262D01*
X1852930Y11348720D01*
X1834388Y11339576D01*
X1806702Y11339576D01*
X1788160Y11348720D01*
X1769618Y11367262D01*
X2052320Y11468862D02*
G01*
X2052320Y11339576D01*
X2052320Y11441176D02*
G01*
X2033778Y11459464D01*
X2015489Y11468862D01*
X1987550Y11468862D01*
X1969262Y11459464D01*
X1950720Y11441176D01*
X1941575Y11413490D01*
X1941575Y11394948D01*
X1950720Y11367262D01*
X1969262Y11348720D01*
X1987550Y11339576D01*
X2015489Y11339576D01*
X2033778Y11348720D01*
X2052320Y11367262D01*
X2224024Y11441176D02*
G01*
X2205736Y11459464D01*
X2187194Y11468862D01*
X2159508Y11468862D01*
X2140966Y11459464D01*
X2122424Y11441176D01*
X2113280Y11413490D01*
X2113280Y11394948D01*
X2122424Y11367262D01*
X2140966Y11348720D01*
X2159508Y11339576D01*
X2187194Y11339576D01*
X2205736Y11348720D01*
X2224024Y11367262D01*
X2284984Y11533378D02*
G01*
X2294382Y11524234D01*
X2303526Y11533378D01*
X2294382Y11542776D01*
X2284984Y11533378D01*
X2294382Y11468862D02*
G01*
X2294382Y11339576D01*
X2364486Y11468862D02*
G01*
X2364486Y11339576D01*
X2364486Y11431778D02*
G01*
X2392172Y11459464D01*
X2410714Y11468862D01*
X2438400Y11468862D01*
X2456942Y11459464D01*
X2466086Y11431778D01*
X2466086Y11339576D01*
X2637790Y11468862D02*
G01*
X2637790Y11321034D01*
X2628646Y11293348D01*
X2619502Y11283950D01*
X2600960Y11274806D01*
X2573274Y11274806D01*
X2554732Y11283950D01*
X2637790Y11441176D02*
G01*
X2619502Y11459464D01*
X2600960Y11468862D01*
X2573274Y11468862D01*
X2554732Y11459464D01*
X2536190Y11441176D01*
X2527046Y11413490D01*
X2527046Y11394948D01*
X2536190Y11367262D01*
X2554732Y11348720D01*
X2573274Y11339576D01*
X2600960Y11339576D01*
X2619502Y11348720D01*
X2637790Y11367262D01*
X2708148Y11450320D02*
G01*
X2698750Y11441176D01*
X2708148Y11431778D01*
X2717292Y11441176D01*
X2708148Y11450320D01*
X2708148Y11385550D02*
G01*
X2698750Y11376406D01*
X2708148Y11367262D01*
X2717292Y11376406D01*
X2708148Y11385550D01*
X2920492Y11496548D02*
G01*
X2939034Y11505692D01*
X2966720Y11533378D01*
X2966720Y11339576D01*
X3036824Y11385550D02*
G01*
X3027680Y11376406D01*
X3036824Y11367262D01*
X3046222Y11376406D01*
X3036824Y11385550D01*
X3217926Y11505692D02*
G01*
X3208782Y11524234D01*
X3181096Y11533378D01*
X3162554Y11533378D01*
X3134868Y11524234D01*
X3116326Y11496548D01*
X3107182Y11450320D01*
X3107182Y11404092D01*
X3116326Y11367262D01*
X3134868Y11348720D01*
X3162554Y11339576D01*
X3171698Y11339576D01*
X3199384Y11348720D01*
X3217926Y11367262D01*
X3227070Y11394948D01*
X3227070Y11404092D01*
X3217926Y11431778D01*
X3199384Y11450320D01*
X3171698Y11459464D01*
X3162554Y11459464D01*
X3134868Y11450320D01*
X3116326Y11431778D01*
X3107182Y11404092D01*
X3288029Y11468862D02*
G01*
X3288029Y11339576D01*
X3288029Y11431778D02*
G01*
X3315970Y11459464D01*
X3334258Y11468862D01*
X3361944Y11468862D01*
X3380486Y11459464D01*
X3389629Y11431778D01*
X3389629Y11339576D01*
X3389629Y11431778D02*
G01*
X3417570Y11459464D01*
X3435858Y11468862D01*
X3463544Y11468862D01*
X3482086Y11459464D01*
X3491229Y11431778D01*
X3491229Y11339576D01*
X3552190Y11468862D02*
G01*
X3552190Y11339576D01*
X3552190Y11431778D02*
G01*
X3580129Y11459464D01*
X3598418Y11468862D01*
X3626104Y11468862D01*
X3644646Y11459464D01*
X3653790Y11431778D01*
X3653790Y11339576D01*
X3653790Y11431778D02*
G01*
X3681729Y11459464D01*
X3700018Y11468862D01*
X3727704Y11468862D01*
X3746246Y11459464D01*
X3755390Y11431778D01*
X3755390Y11339576D01*
X544830Y11182350D02*
G01*
X535686Y11200892D01*
X517143Y11219434D01*
X498856Y11228578D01*
X461772Y11228578D01*
X443230Y11219434D01*
X424942Y11200892D01*
X415543Y11182350D01*
X406400Y11154664D01*
X406400Y11108690D01*
X415543Y11080750D01*
X424942Y11062462D01*
X443230Y11043920D01*
X461772Y11034776D01*
X498856Y11034776D01*
X517143Y11043920D01*
X535686Y11062462D01*
X544830Y11080750D01*
X652018Y11164062D02*
G01*
X633730Y11154664D01*
X615188Y11136376D01*
X605790Y11108690D01*
X605790Y11090148D01*
X615188Y11062462D01*
X633730Y11043920D01*
X652018Y11034776D01*
X679704Y11034776D01*
X698246Y11043920D01*
X716788Y11062462D01*
X725932Y11090148D01*
X725932Y11108690D01*
X716788Y11136376D01*
X698246Y11154664D01*
X679704Y11164062D01*
X652018Y11164062D01*
X786892Y11164062D02*
G01*
X786892Y11071606D01*
X796290Y11043920D01*
X814578Y11034776D01*
X842264Y11034776D01*
X860806Y11043920D01*
X888492Y11071606D01*
X888492Y11164062D02*
G01*
X888492Y11034776D01*
X949452Y11164062D02*
G01*
X949452Y11034776D01*
X949452Y11126978D02*
G01*
X977137Y11154664D01*
X995680Y11164062D01*
X1023366Y11164062D01*
X1041908Y11154664D01*
X1051052Y11126978D01*
X1051052Y11034776D01*
X1139698Y11228578D02*
G01*
X1139698Y11071606D01*
X1149096Y11043920D01*
X1167384Y11034776D01*
X1185926Y11034776D01*
X1112012Y11164062D02*
G01*
X1176782Y11164062D01*
X1256030Y11145520D02*
G01*
X1246886Y11136376D01*
X1256030Y11126978D01*
X1265428Y11136376D01*
X1256030Y11145520D01*
X1256030Y11080750D02*
G01*
X1246886Y11071606D01*
X1256030Y11062462D01*
X1265428Y11071606D01*
X1256030Y11080750D01*
X1560830Y11228578D02*
G01*
X1468628Y11099292D01*
X1607058Y11099292D01*
X1560830Y11228578D02*
G01*
X1560830Y11034776D01*
X1810257Y11164062D02*
G01*
X1911857Y11034776D01*
X1911857Y11164062D02*
G01*
X1810257Y11034776D01*
X2133600Y11228578D02*
G01*
X2235200Y11228578D01*
X2179828Y11154664D01*
X2207514Y11154664D01*
X2226056Y11145520D01*
X2235200Y11136376D01*
X2244344Y11108690D01*
X2244344Y11090148D01*
X2235200Y11062462D01*
X2216658Y11043920D01*
X2188972Y11034776D01*
X2161286Y11034776D01*
X2133600Y11043920D01*
X2124456Y11053064D01*
X2115058Y11071606D01*
X406400Y10923778D02*
G01*
X406400Y10729976D01*
X406400Y10923778D02*
G01*
X489458Y10923778D01*
X517143Y10914634D01*
X526542Y10905490D01*
X535686Y10886948D01*
X535686Y10868406D01*
X526542Y10849864D01*
X517143Y10840720D01*
X489458Y10831576D01*
X406400Y10831576D01*
X471170Y10831576D02*
G01*
X535686Y10729976D01*
X596646Y10803890D02*
G01*
X707390Y10803890D01*
X707390Y10822178D01*
X698246Y10840720D01*
X689102Y10849864D01*
X670560Y10859262D01*
X642874Y10859262D01*
X624332Y10849864D01*
X605790Y10831576D01*
X596646Y10803890D01*
X596646Y10785348D01*
X605790Y10757662D01*
X624332Y10739120D01*
X642874Y10729976D01*
X670560Y10729976D01*
X689102Y10739120D01*
X707390Y10757662D01*
X768350Y10859262D02*
G01*
X768350Y10729976D01*
X768350Y10822178D02*
G01*
X796290Y10849864D01*
X814578Y10859262D01*
X842264Y10859262D01*
X860806Y10849864D01*
X869950Y10822178D01*
X869950Y10729976D01*
X869950Y10822178D02*
G01*
X897890Y10849864D01*
X916178Y10859262D01*
X943864Y10859262D01*
X962406Y10849864D01*
X971550Y10822178D01*
X971550Y10729976D01*
X1143508Y10859262D02*
G01*
X1143508Y10729976D01*
X1143508Y10831576D02*
G01*
X1124966Y10849864D01*
X1106424Y10859262D01*
X1078738Y10859262D01*
X1060450Y10849864D01*
X1041908Y10831576D01*
X1032510Y10803890D01*
X1032510Y10785348D01*
X1041908Y10757662D01*
X1060450Y10739120D01*
X1078738Y10729976D01*
X1106424Y10729976D01*
X1124966Y10739120D01*
X1143508Y10757662D01*
X1204468Y10859262D02*
G01*
X1204468Y10729976D01*
X1204468Y10803890D02*
G01*
X1213612Y10831576D01*
X1232154Y10849864D01*
X1250696Y10859262D01*
X1278382Y10859262D01*
X1339342Y10923778D02*
G01*
X1339342Y10729976D01*
X1431544Y10859262D02*
G01*
X1339342Y10766806D01*
X1376172Y10803890D02*
G01*
X1440942Y10729976D01*
X1511046Y10840720D02*
G01*
X1501902Y10831576D01*
X1511046Y10822178D01*
X1520190Y10831576D01*
X1511046Y10840720D01*
X1511046Y10775950D02*
G01*
X1501902Y10766806D01*
X1511046Y10757662D01*
X1520190Y10766806D01*
X1511046Y10775950D01*
X1788160Y10923778D02*
G01*
X1788160Y10729976D01*
X1723389Y10923778D02*
G01*
X1852930Y10923778D01*
X1913889Y10923778D02*
G01*
X1913889Y10729976D01*
X1913889Y10822178D02*
G01*
X1941575Y10849864D01*
X1959864Y10859262D01*
X1987550Y10859262D01*
X2006092Y10849864D01*
X2015489Y10822178D01*
X2015489Y10729976D01*
X2076450Y10923778D02*
G01*
X2085593Y10914634D01*
X2094738Y10923778D01*
X2085593Y10933176D01*
X2076450Y10923778D01*
X2085593Y10859262D02*
G01*
X2085593Y10729976D01*
X2257298Y10831576D02*
G01*
X2248154Y10849864D01*
X2220468Y10859262D01*
X2192782Y10859262D01*
X2165096Y10849864D01*
X2155698Y10831576D01*
X2165096Y10813034D01*
X2183384Y10803890D01*
X2229612Y10794492D01*
X2248154Y10785348D01*
X2257298Y10766806D01*
X2257298Y10757662D01*
X2248154Y10739120D01*
X2220468Y10729976D01*
X2192782Y10729976D01*
X2165096Y10739120D01*
X2155698Y10757662D01*
X2599182Y10877550D02*
G01*
X2589784Y10896092D01*
X2571496Y10914634D01*
X2552954Y10923778D01*
X2515870Y10923778D01*
X2497582Y10914634D01*
X2479040Y10896092D01*
X2469896Y10877550D01*
X2460498Y10849864D01*
X2460498Y10803890D01*
X2469896Y10775950D01*
X2479040Y10757662D01*
X2497582Y10739120D01*
X2515870Y10729976D01*
X2552954Y10729976D01*
X2571496Y10739120D01*
X2589784Y10757662D01*
X2599182Y10775950D01*
X2599182Y10803890D01*
X2552954Y10803890D02*
G01*
X2599182Y10803890D01*
X2660142Y10803890D02*
G01*
X2770886Y10803890D01*
X2770886Y10822178D01*
X2761742Y10840720D01*
X2752344Y10849864D01*
X2734056Y10859262D01*
X2706370Y10859262D01*
X2687828Y10849864D01*
X2669286Y10831576D01*
X2660142Y10803890D01*
X2660142Y10785348D01*
X2669286Y10757662D01*
X2687828Y10739120D01*
X2706370Y10729976D01*
X2734056Y10729976D01*
X2752344Y10739120D01*
X2770886Y10757662D01*
X2831846Y10859262D02*
G01*
X2831846Y10729976D01*
X2831846Y10803890D02*
G01*
X2840990Y10831576D01*
X2859532Y10849864D01*
X2878074Y10859262D01*
X2905760Y10859262D01*
X2966720Y10923778D02*
G01*
X2966720Y10729976D01*
X2966720Y10831576D02*
G01*
X2985262Y10849864D01*
X3003550Y10859262D01*
X3031490Y10859262D01*
X3049778Y10849864D01*
X3068320Y10831576D01*
X3077464Y10803890D01*
X3077464Y10785348D01*
X3068320Y10757662D01*
X3049778Y10739120D01*
X3031490Y10729976D01*
X3003550Y10729976D01*
X2985262Y10739120D01*
X2966720Y10757662D01*
X3138424Y10803890D02*
G01*
X3249422Y10803890D01*
X3249422Y10822178D01*
X3240024Y10840720D01*
X3230880Y10849864D01*
X3212338Y10859262D01*
X3184652Y10859262D01*
X3166110Y10849864D01*
X3147822Y10831576D01*
X3138424Y10803890D01*
X3138424Y10785348D01*
X3147822Y10757662D01*
X3166110Y10739120D01*
X3184652Y10729976D01*
X3212338Y10729976D01*
X3230880Y10739120D01*
X3249422Y10757662D01*
X3310382Y10859262D02*
G01*
X3310382Y10729976D01*
X3310382Y10803890D02*
G01*
X3319526Y10831576D01*
X3338068Y10849864D01*
X3356610Y10859262D01*
X3384296Y10859262D01*
X3587496Y10923778D02*
G01*
X3596640Y10914634D01*
X3605784Y10923778D01*
X3596640Y10933176D01*
X3587496Y10923778D01*
X3596640Y10859262D02*
G01*
X3596640Y10729976D01*
X3768344Y10831576D02*
G01*
X3759200Y10849864D01*
X3731514Y10859262D01*
X3703828Y10859262D01*
X3676142Y10849864D01*
X3666744Y10831576D01*
X3676142Y10813034D01*
X3694429Y10803890D01*
X3740658Y10794492D01*
X3759200Y10785348D01*
X3768344Y10766806D01*
X3768344Y10757662D01*
X3759200Y10739120D01*
X3731514Y10729976D01*
X3703828Y10729976D01*
X3676142Y10739120D01*
X3666744Y10757662D01*
X4082542Y10859262D02*
G01*
X4082542Y10729976D01*
X4082542Y10831576D02*
G01*
X4064000Y10849864D01*
X4045458Y10859262D01*
X4017772Y10859262D01*
X3999229Y10849864D01*
X3980942Y10831576D01*
X3971544Y10803890D01*
X3971544Y10785348D01*
X3980942Y10757662D01*
X3999229Y10739120D01*
X4017772Y10729976D01*
X4045458Y10729976D01*
X4064000Y10739120D01*
X4082542Y10757662D01*
X4285742Y10859262D02*
G01*
X4285742Y10665206D01*
X4285742Y10831576D02*
G01*
X4304030Y10849864D01*
X4322572Y10859262D01*
X4350258Y10859262D01*
X4368800Y10849864D01*
X4387342Y10831576D01*
X4396486Y10803890D01*
X4396486Y10785348D01*
X4387342Y10757662D01*
X4368800Y10739120D01*
X4350258Y10729976D01*
X4322572Y10729976D01*
X4304030Y10739120D01*
X4285742Y10757662D01*
X4568190Y10859262D02*
G01*
X4568190Y10729976D01*
X4568190Y10831576D02*
G01*
X4549902Y10849864D01*
X4531360Y10859262D01*
X4503674Y10859262D01*
X4485132Y10849864D01*
X4466590Y10831576D01*
X4457446Y10803890D01*
X4457446Y10785348D01*
X4466590Y10757662D01*
X4485132Y10739120D01*
X4503674Y10729976D01*
X4531360Y10729976D01*
X4549902Y10739120D01*
X4568190Y10757662D01*
X4629150Y10859262D02*
G01*
X4629150Y10729976D01*
X4629150Y10822178D02*
G01*
X4657090Y10849864D01*
X4675378Y10859262D01*
X4703064Y10859262D01*
X4721606Y10849864D01*
X4730750Y10822178D01*
X4730750Y10729976D01*
X4791710Y10803890D02*
G01*
X4902708Y10803890D01*
X4902708Y10822178D01*
X4893310Y10840720D01*
X4884166Y10849864D01*
X4865624Y10859262D01*
X4837938Y10859262D01*
X4819650Y10849864D01*
X4801108Y10831576D01*
X4791710Y10803890D01*
X4791710Y10785348D01*
X4801108Y10757662D01*
X4819650Y10739120D01*
X4837938Y10729976D01*
X4865624Y10729976D01*
X4884166Y10739120D01*
X4902708Y10757662D01*
X4963668Y10923778D02*
G01*
X4963668Y10729976D01*
X5024628Y10923778D02*
G01*
X5033772Y10914634D01*
X5043170Y10923778D01*
X5033772Y10933176D01*
X5024628Y10923778D01*
X5033772Y10859262D02*
G01*
X5033772Y10729976D01*
X5205730Y10859262D02*
G01*
X5104130Y10729976D01*
X5104130Y10859262D02*
G01*
X5205730Y10859262D01*
X5104130Y10729976D02*
G01*
X5205730Y10729976D01*
X5266690Y10803890D02*
G01*
X5377434Y10803890D01*
X5377434Y10822178D01*
X5368290Y10840720D01*
X5358892Y10849864D01*
X5340350Y10859262D01*
X5312664Y10859262D01*
X5294376Y10849864D01*
X5275834Y10831576D01*
X5266690Y10803890D01*
X5266690Y10785348D01*
X5275834Y10757662D01*
X5294376Y10739120D01*
X5312664Y10729976D01*
X5340350Y10729976D01*
X5358892Y10739120D01*
X5377434Y10757662D01*
X5549138Y10923778D02*
G01*
X5549138Y10729976D01*
X5549138Y10831576D02*
G01*
X5530850Y10849864D01*
X5512308Y10859262D01*
X5484622Y10859262D01*
X5466080Y10849864D01*
X5447538Y10831576D01*
X5438394Y10803890D01*
X5438394Y10785348D01*
X5447538Y10757662D01*
X5466080Y10739120D01*
X5484622Y10729976D01*
X5512308Y10729976D01*
X5530850Y10739120D01*
X5549138Y10757662D01*
X5826252Y10923778D02*
G01*
X5807710Y10923778D01*
X5789422Y10914634D01*
X5780024Y10886948D01*
X5780024Y10729976D01*
X5752338Y10859262D02*
G01*
X5817108Y10859262D01*
X5887212Y10923778D02*
G01*
X5896610Y10914634D01*
X5905754Y10923778D01*
X5896610Y10933176D01*
X5887212Y10923778D01*
X5896610Y10859262D02*
G01*
X5896610Y10729976D01*
X5966714Y10923778D02*
G01*
X5966714Y10729976D01*
X6027674Y10803890D02*
G01*
X6138418Y10803890D01*
X6138418Y10822178D01*
X6129274Y10840720D01*
X6120130Y10849864D01*
X6101588Y10859262D01*
X6073902Y10859262D01*
X6055360Y10849864D01*
X6036818Y10831576D01*
X6027674Y10803890D01*
X6027674Y10785348D01*
X6036818Y10757662D01*
X6055360Y10739120D01*
X6073902Y10729976D01*
X6101588Y10729976D01*
X6120130Y10739120D01*
X6138418Y10757662D01*
X6217920Y10766806D02*
G01*
X6208776Y10757662D01*
X6199378Y10766806D01*
X6208776Y10775950D01*
X6217920Y10766806D01*
X6217920Y10748264D01*
X6199378Y10729976D01*
X6421120Y10859262D02*
G01*
X6421120Y10665206D01*
X6421120Y10831576D02*
G01*
X6439662Y10849864D01*
X6457950Y10859262D01*
X6485890Y10859262D01*
X6504178Y10849864D01*
X6522720Y10831576D01*
X6531864Y10803890D01*
X6531864Y10785348D01*
X6522720Y10757662D01*
X6504178Y10739120D01*
X6485890Y10729976D01*
X6457950Y10729976D01*
X6439662Y10739120D01*
X6421120Y10757662D01*
X6703822Y10859262D02*
G01*
X6703822Y10729976D01*
X6703822Y10831576D02*
G01*
X6685280Y10849864D01*
X6666738Y10859262D01*
X6639052Y10859262D01*
X6620509Y10849864D01*
X6602222Y10831576D01*
X6592824Y10803890D01*
X6592824Y10785348D01*
X6602222Y10757662D01*
X6620509Y10739120D01*
X6639052Y10729976D01*
X6666738Y10729976D01*
X6685280Y10739120D01*
X6703822Y10757662D01*
X6764781Y10859262D02*
G01*
X6764781Y10729976D01*
X6764781Y10822178D02*
G01*
X6792468Y10849864D01*
X6811009Y10859262D01*
X6838696Y10859262D01*
X6856984Y10849864D01*
X6866381Y10822178D01*
X6866381Y10729976D01*
X6927342Y10803890D02*
G01*
X7038086Y10803890D01*
X7038086Y10822178D01*
X7028942Y10840720D01*
X7019544Y10849864D01*
X7001256Y10859262D01*
X6973570Y10859262D01*
X6955028Y10849864D01*
X6936486Y10831576D01*
X6927342Y10803890D01*
X6927342Y10785348D01*
X6936486Y10757662D01*
X6955028Y10739120D01*
X6973570Y10729976D01*
X7001256Y10729976D01*
X7019544Y10739120D01*
X7038086Y10757662D01*
X7099046Y10923778D02*
G01*
X7099046Y10729976D01*
X7160006Y10923778D02*
G01*
X7169150Y10914634D01*
X7178548Y10923778D01*
X7169150Y10933176D01*
X7160006Y10923778D01*
X7169150Y10859262D02*
G01*
X7169150Y10729976D01*
X7341108Y10859262D02*
G01*
X7239508Y10729976D01*
X7239508Y10859262D02*
G01*
X7341108Y10859262D01*
X7239508Y10729976D02*
G01*
X7341108Y10729976D01*
X7402068Y10803890D02*
G01*
X7512812Y10803890D01*
X7512812Y10822178D01*
X7503668Y10840720D01*
X7494270Y10849864D01*
X7475981Y10859262D01*
X7448296Y10859262D01*
X7429753Y10849864D01*
X7411212Y10831576D01*
X7402068Y10803890D01*
X7402068Y10785348D01*
X7411212Y10757662D01*
X7429753Y10739120D01*
X7448296Y10729976D01*
X7475981Y10729976D01*
X7494270Y10739120D01*
X7512812Y10757662D01*
X7684770Y10923778D02*
G01*
X7684770Y10729976D01*
X7684770Y10831576D02*
G01*
X7666228Y10849864D01*
X7647686Y10859262D01*
X7620000Y10859262D01*
X7601458Y10849864D01*
X7583170Y10831576D01*
X7573772Y10803890D01*
X7573772Y10785348D01*
X7583170Y10757662D01*
X7601458Y10739120D01*
X7620000Y10729976D01*
X7647686Y10729976D01*
X7666228Y10739120D01*
X7684770Y10757662D01*
X7887970Y10923778D02*
G01*
X7887970Y10729976D01*
X7887970Y10831576D02*
G01*
X7906258Y10849864D01*
X7924800Y10859262D01*
X7952486Y10859262D01*
X7971028Y10849864D01*
X7989570Y10831576D01*
X7998714Y10803890D01*
X7998714Y10785348D01*
X7989570Y10757662D01*
X7971028Y10739120D01*
X7952486Y10729976D01*
X7924800Y10729976D01*
X7906258Y10739120D01*
X7887970Y10757662D01*
X8068818Y10859262D02*
G01*
X8124190Y10729976D01*
X8179816Y10859262D02*
G01*
X8124190Y10729976D01*
X8105902Y10692892D01*
X8087359Y10674350D01*
X8068818Y10665206D01*
X8059674Y10665206D01*
X8410702Y10923778D02*
G01*
X8410702Y10766806D01*
X8419846Y10739120D01*
X8438388Y10729976D01*
X8456930Y10729976D01*
X8383016Y10859262D02*
G01*
X8447532Y10859262D01*
X8517890Y10923778D02*
G01*
X8517890Y10729976D01*
X8517890Y10822178D02*
G01*
X8545576Y10849864D01*
X8563864Y10859262D01*
X8591550Y10859262D01*
X8610092Y10849864D01*
X8619490Y10822178D01*
X8619490Y10729976D01*
X8680450Y10803890D02*
G01*
X8791194Y10803890D01*
X8791194Y10822178D01*
X8782050Y10840720D01*
X8772652Y10849864D01*
X8754110Y10859262D01*
X8726424Y10859262D01*
X8708136Y10849864D01*
X8689594Y10831576D01*
X8680450Y10803890D01*
X8680450Y10785348D01*
X8689594Y10757662D01*
X8708136Y10739120D01*
X8726424Y10729976D01*
X8754110Y10729976D01*
X8772652Y10739120D01*
X8791194Y10757662D01*
X8994394Y10923778D02*
G01*
X8994394Y10729976D01*
X8994394Y10831576D02*
G01*
X9012936Y10849864D01*
X9031224Y10859262D01*
X9058910Y10859262D01*
X9077452Y10849864D01*
X9095994Y10831576D01*
X9105138Y10803890D01*
X9105138Y10785348D01*
X9095994Y10757662D01*
X9077452Y10739120D01*
X9058910Y10729976D01*
X9031224Y10729976D01*
X9012936Y10739120D01*
X8994394Y10757662D01*
X9212326Y10859262D02*
G01*
X9193784Y10849864D01*
X9175496Y10831576D01*
X9166098Y10803890D01*
X9166098Y10785348D01*
X9175496Y10757662D01*
X9193784Y10739120D01*
X9212326Y10729976D01*
X9240012Y10729976D01*
X9258554Y10739120D01*
X9277096Y10757662D01*
X9286240Y10785348D01*
X9286240Y10803890D01*
X9277096Y10831576D01*
X9258554Y10849864D01*
X9240012Y10859262D01*
X9212326Y10859262D01*
X9457944Y10859262D02*
G01*
X9457944Y10729976D01*
X9457944Y10831576D02*
G01*
X9439656Y10849864D01*
X9421114Y10859262D01*
X9393428Y10859262D01*
X9374886Y10849864D01*
X9356344Y10831576D01*
X9347200Y10803890D01*
X9347200Y10785348D01*
X9356344Y10757662D01*
X9374886Y10739120D01*
X9393428Y10729976D01*
X9421114Y10729976D01*
X9439656Y10739120D01*
X9457944Y10757662D01*
X9518904Y10859262D02*
G01*
X9518904Y10729976D01*
X9518904Y10803890D02*
G01*
X9528302Y10831576D01*
X9546590Y10849864D01*
X9565132Y10859262D01*
X9592818Y10859262D01*
X9764776Y10923778D02*
G01*
X9764776Y10729976D01*
X9764776Y10831576D02*
G01*
X9746234Y10849864D01*
X9727692Y10859262D01*
X9700006Y10859262D01*
X9681464Y10849864D01*
X9663176Y10831576D01*
X9653778Y10803890D01*
X9653778Y10785348D01*
X9663176Y10757662D01*
X9681464Y10739120D01*
X9700006Y10729976D01*
X9727692Y10729976D01*
X9746234Y10739120D01*
X9764776Y10757662D01*
X10013950Y10859262D02*
G01*
X9995662Y10849864D01*
X9977120Y10831576D01*
X9967976Y10803890D01*
X9967976Y10785348D01*
X9977120Y10757662D01*
X9995662Y10739120D01*
X10013950Y10729976D01*
X10041890Y10729976D01*
X10060178Y10739120D01*
X10078720Y10757662D01*
X10087864Y10785348D01*
X10087864Y10803890D01*
X10078720Y10831576D01*
X10060178Y10849864D01*
X10041890Y10859262D01*
X10013950Y10859262D01*
X10148824Y10859262D02*
G01*
X10148824Y10766806D01*
X10158222Y10739120D01*
X10176510Y10729976D01*
X10204450Y10729976D01*
X10222738Y10739120D01*
X10250424Y10766806D01*
X10250424Y10859262D02*
G01*
X10250424Y10729976D01*
X10339070Y10923778D02*
G01*
X10339070Y10766806D01*
X10348468Y10739120D01*
X10367010Y10729976D01*
X10385298Y10729976D01*
X10311384Y10859262D02*
G01*
X10376154Y10859262D01*
X10446258Y10923778D02*
G01*
X10446258Y10729976D01*
X10507218Y10923778D02*
G01*
X10516616Y10914634D01*
X10525760Y10923778D01*
X10516616Y10933176D01*
X10507218Y10923778D01*
X10516616Y10859262D02*
G01*
X10516616Y10729976D01*
X10586720Y10859262D02*
G01*
X10586720Y10729976D01*
X10586720Y10822178D02*
G01*
X10614406Y10849864D01*
X10632948Y10859262D01*
X10660634Y10859262D01*
X10679176Y10849864D01*
X10688320Y10822178D01*
X10688320Y10729976D01*
X10749280Y10803890D02*
G01*
X10860024Y10803890D01*
X10860024Y10822178D01*
X10850880Y10840720D01*
X10841736Y10849864D01*
X10823194Y10859262D01*
X10795508Y10859262D01*
X10776966Y10849864D01*
X10758424Y10831576D01*
X10749280Y10803890D01*
X10749280Y10785348D01*
X10758424Y10757662D01*
X10776966Y10739120D01*
X10795508Y10729976D01*
X10823194Y10729976D01*
X10841736Y10739120D01*
X10860024Y10757662D01*
X11022584Y10831576D02*
G01*
X11013440Y10849864D01*
X10985754Y10859262D01*
X10958068Y10859262D01*
X10930382Y10849864D01*
X10920984Y10831576D01*
X10930382Y10813034D01*
X10948670Y10803890D01*
X10994898Y10794492D01*
X11013440Y10785348D01*
X11022584Y10766806D01*
X11022584Y10757662D01*
X11013440Y10739120D01*
X10985754Y10729976D01*
X10958068Y10729976D01*
X10930382Y10739120D01*
X10920984Y10757662D01*
X11092942Y10775950D02*
G01*
X11083544Y10766806D01*
X11092942Y10757662D01*
X11102086Y10766806D01*
X11092942Y10775950D01*
X9586214Y8045703D02*
G01*
X9641586Y7900162D01*
X9696958Y8045703D02*
G01*
X9641586Y7900162D01*
X9742678Y7962392D02*
G01*
X9867392Y7962392D01*
X10016998Y8010906D02*
G01*
X10010140Y8024875D01*
X9996170Y8038592D01*
X9982454Y8045703D01*
X9954768Y8045703D01*
X9940798Y8038592D01*
X9927082Y8024875D01*
X9919970Y8010906D01*
X9913112Y7990078D01*
X9913112Y7955534D01*
X9919970Y7934706D01*
X9927082Y7920990D01*
X9940798Y7907020D01*
X9954768Y7900162D01*
X9982454Y7900162D01*
X9996170Y7907020D01*
X10010140Y7920990D01*
X10016998Y7934706D01*
X10062718Y8045703D02*
G01*
X10062718Y7941564D01*
X10069830Y7920990D01*
X10083546Y7907020D01*
X10104374Y7900162D01*
X10118090Y7900162D01*
X10138918Y7907020D01*
X10152888Y7920990D01*
X10159746Y7941564D01*
X10159746Y8045703D01*
X10253980Y8045703D02*
G01*
X10253980Y7900162D01*
X10205466Y8045703D02*
G01*
X10302494Y8045703D01*
X9586214Y8205470D02*
G01*
X9641586Y8060181D01*
X9696958Y8205470D02*
G01*
X9641586Y8060181D01*
X9742678Y8122412D02*
G01*
X9867392Y8122412D01*
X10016998Y8170925D02*
G01*
X10010140Y8184896D01*
X9996170Y8198612D01*
X9982454Y8205470D01*
X9954768Y8205470D01*
X9940798Y8198612D01*
X9927082Y8184896D01*
X9919970Y8170925D01*
X9913112Y8150098D01*
X9913112Y8115553D01*
X9919970Y8094725D01*
X9927082Y8081009D01*
X9940798Y8067040D01*
X9954768Y8060181D01*
X9982454Y8060181D01*
X9996170Y8067040D01*
X10010140Y8081009D01*
X10016998Y8094725D01*
X10062718Y8205470D02*
G01*
X10062718Y8101584D01*
X10069830Y8081009D01*
X10083546Y8067040D01*
X10104374Y8060181D01*
X10118090Y8060181D01*
X10138918Y8067040D01*
X10152888Y8081009D01*
X10159746Y8101584D01*
X10159746Y8205470D01*
X10253980Y8205470D02*
G01*
X10253980Y8060181D01*
X10205466Y8205470D02*
G01*
X10302494Y8205470D01*
X9586214Y5421884D02*
G01*
X9641586Y5276342D01*
X9696958Y5421884D02*
G01*
X9641586Y5276342D01*
X9742678Y5338572D02*
G01*
X9867392Y5338572D01*
X10016998Y5387086D02*
G01*
X10010140Y5401056D01*
X9996170Y5414772D01*
X9982454Y5421884D01*
X9954768Y5421884D01*
X9940798Y5414772D01*
X9927082Y5401056D01*
X9919970Y5387086D01*
X9913112Y5366258D01*
X9913112Y5331714D01*
X9919970Y5310886D01*
X9927082Y5297170D01*
X9940798Y5283200D01*
X9954768Y5276342D01*
X9982454Y5276342D01*
X9996170Y5283200D01*
X10010140Y5297170D01*
X10016998Y5310886D01*
X10062718Y5421884D02*
G01*
X10062718Y5317998D01*
X10069830Y5297170D01*
X10083546Y5283200D01*
X10104374Y5276342D01*
X10118090Y5276342D01*
X10138918Y5283200D01*
X10152888Y5297170D01*
X10159746Y5317998D01*
X10159746Y5421884D01*
X10253980Y5421884D02*
G01*
X10253980Y5276342D01*
X10205466Y5421884D02*
G01*
X10302494Y5421884D01*
X9586214Y5581904D02*
G01*
X9641586Y5436362D01*
X9696958Y5581904D02*
G01*
X9641586Y5436362D01*
X9742678Y5498592D02*
G01*
X9867392Y5498592D01*
X10016998Y5547106D02*
G01*
X10010140Y5561076D01*
X9996170Y5574792D01*
X9982454Y5581904D01*
X9954768Y5581904D01*
X9940798Y5574792D01*
X9927082Y5561076D01*
X9919970Y5547106D01*
X9913112Y5526278D01*
X9913112Y5491734D01*
X9919970Y5470906D01*
X9927082Y5457190D01*
X9940798Y5443220D01*
X9954768Y5436362D01*
X9982454Y5436362D01*
X9996170Y5443220D01*
X10010140Y5457190D01*
X10016998Y5470906D01*
X10062718Y5581904D02*
G01*
X10062718Y5477764D01*
X10069830Y5457190D01*
X10083546Y5443220D01*
X10104374Y5436362D01*
X10118090Y5436362D01*
X10138918Y5443220D01*
X10152888Y5457190D01*
X10159746Y5477764D01*
X10159746Y5581904D01*
X10253980Y5581904D02*
G01*
X10253980Y5436362D01*
X10205466Y5581904D02*
G01*
X10302494Y5581904D01*
X9586214Y2798064D02*
G01*
X9641586Y2652522D01*
X9696958Y2798064D02*
G01*
X9641586Y2652522D01*
X9742678Y2714752D02*
G01*
X9867392Y2714752D01*
X10016998Y2763266D02*
G01*
X10010140Y2777236D01*
X9996170Y2790952D01*
X9982454Y2798064D01*
X9954768Y2798064D01*
X9940798Y2790952D01*
X9927082Y2777236D01*
X9919970Y2763266D01*
X9913112Y2742692D01*
X9913112Y2707894D01*
X9919970Y2687066D01*
X9927082Y2673350D01*
X9940798Y2659380D01*
X9954768Y2652522D01*
X9982454Y2652522D01*
X9996170Y2659380D01*
X10010140Y2673350D01*
X10016998Y2687066D01*
X10062718Y2798064D02*
G01*
X10062718Y2694178D01*
X10069830Y2673350D01*
X10083546Y2659380D01*
X10104374Y2652522D01*
X10118090Y2652522D01*
X10138918Y2659380D01*
X10152888Y2673350D01*
X10159746Y2694178D01*
X10159746Y2798064D01*
X10253980Y2798064D02*
G01*
X10253980Y2652522D01*
X10205466Y2798064D02*
G01*
X10302494Y2798064D01*
X9586214Y2958084D02*
G01*
X9641586Y2812542D01*
X9696958Y2958084D02*
G01*
X9641586Y2812542D01*
X9742678Y2874772D02*
G01*
X9867392Y2874772D01*
X10016998Y2923286D02*
G01*
X10010140Y2937256D01*
X9996170Y2950972D01*
X9982454Y2958084D01*
X9954768Y2958084D01*
X9940798Y2950972D01*
X9927082Y2937256D01*
X9919970Y2923286D01*
X9913112Y2902458D01*
X9913112Y2867914D01*
X9919970Y2847086D01*
X9927082Y2833370D01*
X9940798Y2819400D01*
X9954768Y2812542D01*
X9982454Y2812542D01*
X9996170Y2819400D01*
X10010140Y2833370D01*
X10016998Y2847086D01*
X10062718Y2958084D02*
G01*
X10062718Y2854198D01*
X10069830Y2833370D01*
X10083546Y2819400D01*
X10104374Y2812542D01*
X10118090Y2812542D01*
X10138918Y2819400D01*
X10152888Y2833370D01*
X10159746Y2854198D01*
X10159746Y2958084D01*
X10253980Y2958084D02*
G01*
X10253980Y2812542D01*
X10205466Y2958084D02*
G01*
X10302494Y2958084D01*
X3130336Y-733978D02*
G01*
X3275878Y-678606D01*
X3130336Y-623234D02*
G01*
X3275878Y-678606D01*
X3213648Y-577514D02*
G01*
X3213648Y-452800D01*
X3165134Y-303194D02*
G01*
X3151164Y-310052D01*
X3137448Y-324022D01*
X3130336Y-337738D01*
X3130336Y-365424D01*
X3137448Y-379394D01*
X3151164Y-393110D01*
X3165134Y-400222D01*
X3185708Y-407080D01*
X3220506Y-407080D01*
X3241334Y-400222D01*
X3255050Y-393110D01*
X3269020Y-379394D01*
X3275878Y-365424D01*
X3275878Y-337738D01*
X3269020Y-324022D01*
X3255050Y-310052D01*
X3241334Y-303194D01*
X3130336Y-257474D02*
G01*
X3234222Y-257474D01*
X3255050Y-250362D01*
X3269020Y-236646D01*
X3275878Y-215818D01*
X3275878Y-202102D01*
X3269020Y-181274D01*
X3255050Y-167304D01*
X3234222Y-160446D01*
X3130336Y-160446D01*
X3130336Y-66212D02*
G01*
X3275878Y-66212D01*
X3130336Y-114726D02*
G01*
X3130336Y-17698D01*
X2970336Y-733999D02*
G01*
X3115878Y-678627D01*
X2970336Y-623255D02*
G01*
X3115878Y-678627D01*
X3053648Y-577535D02*
G01*
X3053648Y-452821D01*
X3005134Y-303215D02*
G01*
X2991164Y-310073D01*
X2977448Y-323789D01*
X2970336Y-337759D01*
X2970336Y-365445D01*
X2977448Y-379415D01*
X2991164Y-393131D01*
X3005134Y-399989D01*
X3025708Y-407101D01*
X3060506Y-407101D01*
X3081334Y-399989D01*
X3095050Y-393131D01*
X3109020Y-379415D01*
X3115878Y-365445D01*
X3115878Y-337759D01*
X3109020Y-323789D01*
X3095050Y-310073D01*
X3081334Y-303215D01*
X2970336Y-257495D02*
G01*
X3074222Y-257495D01*
X3095050Y-250383D01*
X3109020Y-236667D01*
X3115878Y-215839D01*
X3115878Y-201869D01*
X3109020Y-181295D01*
X3095050Y-167325D01*
X3074222Y-160467D01*
X2970336Y-160467D01*
X2970336Y-66233D02*
G01*
X3115878Y-66233D01*
X2970336Y-114747D02*
G01*
X2970336Y-17719D01*
X6109736Y-733958D02*
G01*
X6255278Y-678586D01*
X6109736Y-623214D02*
G01*
X6255278Y-678586D01*
X6193048Y-577494D02*
G01*
X6193048Y-452780D01*
X6144534Y-303174D02*
G01*
X6130564Y-310032D01*
X6116848Y-324002D01*
X6109736Y-337718D01*
X6109736Y-365404D01*
X6116848Y-379374D01*
X6130564Y-393090D01*
X6144534Y-400202D01*
X6165108Y-407060D01*
X6199906Y-407060D01*
X6220734Y-400202D01*
X6234450Y-393090D01*
X6248420Y-379374D01*
X6255278Y-365404D01*
X6255278Y-337718D01*
X6248420Y-324002D01*
X6234450Y-310032D01*
X6220734Y-303174D01*
X6109736Y-257454D02*
G01*
X6213622Y-257454D01*
X6234450Y-250596D01*
X6248420Y-236626D01*
X6255278Y-215798D01*
X6255278Y-202082D01*
X6248420Y-181254D01*
X6234450Y-167284D01*
X6213622Y-160426D01*
X6109736Y-160426D01*
X6109736Y-66192D02*
G01*
X6255278Y-66192D01*
X6109736Y-114706D02*
G01*
X6109736Y-17678D01*
X5949736Y-733978D02*
G01*
X6095278Y-678606D01*
X5949736Y-623234D02*
G01*
X6095278Y-678606D01*
X6033048Y-577514D02*
G01*
X6033048Y-452800D01*
X5984534Y-303194D02*
G01*
X5970564Y-310052D01*
X5956848Y-324022D01*
X5949736Y-337738D01*
X5949736Y-365424D01*
X5956848Y-379394D01*
X5970564Y-393110D01*
X5984534Y-400222D01*
X6005108Y-407080D01*
X6039906Y-407080D01*
X6060734Y-400222D01*
X6074450Y-393110D01*
X6088420Y-379394D01*
X6095278Y-365424D01*
X6095278Y-337738D01*
X6088420Y-324022D01*
X6074450Y-310052D01*
X6060734Y-303194D01*
X5949736Y-257474D02*
G01*
X6053622Y-257474D01*
X6074450Y-250362D01*
X6088420Y-236646D01*
X6095278Y-215818D01*
X6095278Y-202102D01*
X6088420Y-181274D01*
X6074450Y-167304D01*
X6053622Y-160446D01*
X5949736Y-160446D01*
X5949736Y-66212D02*
G01*
X6095278Y-66212D01*
X5949736Y-114726D02*
G01*
X5949736Y-17698D01*
X150936Y-733999D02*
G01*
X296478Y-678627D01*
X150936Y-623255D02*
G01*
X296478Y-678627D01*
X234248Y-577535D02*
G01*
X234248Y-452821D01*
X185734Y-303215D02*
G01*
X171764Y-310073D01*
X158048Y-323789D01*
X150936Y-337759D01*
X150936Y-365445D01*
X158048Y-379415D01*
X171764Y-393131D01*
X185734Y-399989D01*
X206308Y-407101D01*
X241106Y-407101D01*
X261934Y-399989D01*
X275650Y-393131D01*
X289620Y-379415D01*
X296478Y-365445D01*
X296478Y-337759D01*
X289620Y-323789D01*
X275650Y-310073D01*
X261934Y-303215D01*
X150936Y-257495D02*
G01*
X254822Y-257495D01*
X275650Y-250383D01*
X289620Y-236667D01*
X296478Y-215839D01*
X296478Y-201869D01*
X289620Y-181295D01*
X275650Y-167325D01*
X254822Y-160467D01*
X150936Y-160467D01*
X150936Y-66233D02*
G01*
X296478Y-66233D01*
X150936Y-114747D02*
G01*
X150936Y-17719D01*
X8929136Y-733958D02*
G01*
X9074678Y-678586D01*
X8929136Y-623214D02*
G01*
X9074678Y-678586D01*
X9012448Y-577494D02*
G01*
X9012448Y-452780D01*
X8963934Y-303174D02*
G01*
X8949964Y-310032D01*
X8936248Y-324002D01*
X8929136Y-337718D01*
X8929136Y-365404D01*
X8936248Y-379374D01*
X8949964Y-393090D01*
X8963934Y-400202D01*
X8984508Y-407060D01*
X9019306Y-407060D01*
X9040134Y-400202D01*
X9053850Y-393090D01*
X9067820Y-379374D01*
X9074678Y-365404D01*
X9074678Y-337718D01*
X9067820Y-324002D01*
X9053850Y-310032D01*
X9040134Y-303174D01*
X8929136Y-257454D02*
G01*
X9033022Y-257454D01*
X9053850Y-250596D01*
X9067820Y-236626D01*
X9074678Y-215798D01*
X9074678Y-202082D01*
X9067820Y-181254D01*
X9053850Y-167284D01*
X9033022Y-160426D01*
X8929136Y-160426D01*
X8929136Y-66192D02*
G01*
X9074678Y-66192D01*
X8929136Y-114706D02*
G01*
X8929136Y-17678D01*
X106400Y7790200D02*
G01*
X10297398Y7790200D01*
X106400Y7950200D02*
G01*
X10297398Y7950200D01*
X106400Y5166400D02*
G01*
X10297398Y5166400D01*
X106400Y5326400D02*
G01*
X10297398Y5326400D01*
X106400Y2542600D02*
G01*
X10297398Y2542600D01*
X106400Y2702600D02*
G01*
X10297398Y2702600D01*
X3385799Y10414000D02*
G01*
X3385799Y-733999D01*
X3225800Y10414000D02*
G01*
X3225800Y-733999D01*
X6365199Y10414000D02*
G01*
X6365199Y-733999D01*
X6205199Y10414000D02*
G01*
X6205199Y-733999D01*
X406400Y10414000D02*
G01*
X406400Y-733999D01*
X9184599Y10414000D02*
G01*
X9184599Y-733999D01*
M02*
