G04 Layer: BottomLayer*
G04 EasyEDA v6.5.9, 2022-12-19 01:16:27*
G04 b9351db9c1bb4c489ec9b4c5568df8d6,5dd06754fdd742daa6fe38bf62b7df6b,10*
G04 Gerber Generator version 0.2*
G04 Scale: 100 percent, Rotated: No, Reflected: No *
G04 Dimensions in millimeters *
G04 leading zeros omitted , absolute positions ,4 integer and 5 decimal *
%FSLAX45Y45*%
%MOMM*%

%ADD10C,0.2000*%
%ADD11C,1.2700*%
%ADD12C,1.0000*%
%ADD13C,2.0000*%

%LPD*%
D10*
X2729344Y10121668D02*
G01*
X2738582Y10130904D01*
X2752435Y10135524D01*
X2770908Y10135524D01*
X2784764Y10130904D01*
X2794000Y10121668D01*
X2794000Y10112433D01*
X2789382Y10103195D01*
X2784764Y10098577D01*
X2775526Y10093960D01*
X2747817Y10084724D01*
X2738582Y10080104D01*
X2733964Y10075486D01*
X2729344Y10066251D01*
X2729344Y10052395D01*
X2738582Y10043160D01*
X2752435Y10038542D01*
X2770908Y10038542D01*
X2784764Y10043160D01*
X2794000Y10052395D01*
X2675775Y10103195D02*
G01*
X2685011Y10098577D01*
X2694246Y10089342D01*
X2698864Y10075486D01*
X2698864Y10066251D01*
X2694246Y10052395D01*
X2685011Y10043160D01*
X2675775Y10038542D01*
X2661920Y10038542D01*
X2652684Y10043160D01*
X2643446Y10052395D01*
X2638828Y10066251D01*
X2638828Y10075486D01*
X2643446Y10089342D01*
X2652684Y10098577D01*
X2661920Y10103195D01*
X2675775Y10103195D01*
X2608348Y10135524D02*
G01*
X2608348Y10038542D01*
X2577868Y10135524D02*
G01*
X2573251Y10130904D01*
X2568633Y10135524D01*
X2573251Y10140142D01*
X2577868Y10135524D01*
X2573251Y10103195D02*
G01*
X2573251Y10038542D01*
X2538153Y10103195D02*
G01*
X2538153Y10038542D01*
X2538153Y10084724D02*
G01*
X2524297Y10098577D01*
X2515062Y10103195D01*
X2501206Y10103195D01*
X2491971Y10098577D01*
X2487353Y10084724D01*
X2487353Y10038542D01*
X2443017Y10135524D02*
G01*
X2443017Y10057015D01*
X2438400Y10043160D01*
X2429164Y10038542D01*
X2419926Y10038542D01*
X2456873Y10103195D02*
G01*
X2424544Y10103195D01*
X2389446Y10075486D02*
G01*
X2334028Y10075486D01*
X2334028Y10084724D01*
X2338646Y10093960D01*
X2343264Y10098577D01*
X2352502Y10103195D01*
X2366355Y10103195D01*
X2375593Y10098577D01*
X2384828Y10089342D01*
X2389446Y10075486D01*
X2389446Y10066251D01*
X2384828Y10052395D01*
X2375593Y10043160D01*
X2366355Y10038542D01*
X2352502Y10038542D01*
X2343264Y10043160D01*
X2334028Y10052395D01*
X2248131Y10089342D02*
G01*
X2257366Y10098577D01*
X2266604Y10103195D01*
X2280457Y10103195D01*
X2289695Y10098577D01*
X2298931Y10089342D01*
X2303548Y10075486D01*
X2303548Y10066251D01*
X2298931Y10052395D01*
X2289695Y10043160D01*
X2280457Y10038542D01*
X2266604Y10038542D01*
X2257366Y10043160D01*
X2248131Y10052395D01*
X2081875Y10121668D02*
G01*
X2091113Y10130904D01*
X2104966Y10135524D01*
X2123440Y10135524D01*
X2137295Y10130904D01*
X2146531Y10121668D01*
X2146531Y10112433D01*
X2141913Y10103195D01*
X2137295Y10098577D01*
X2128057Y10093960D01*
X2100348Y10084724D01*
X2091113Y10080104D01*
X2086495Y10075486D01*
X2081875Y10066251D01*
X2081875Y10052395D01*
X2091113Y10043160D01*
X2104966Y10038542D01*
X2123440Y10038542D01*
X2137295Y10043160D01*
X2146531Y10052395D01*
X2051395Y10135524D02*
G01*
X2051395Y10038542D01*
X2051395Y10135524D02*
G01*
X2009833Y10135524D01*
X1995977Y10130904D01*
X1991360Y10126286D01*
X1986742Y10117051D01*
X1986742Y10107815D01*
X1991360Y10098577D01*
X1995977Y10093960D01*
X2009833Y10089342D01*
X2051395Y10089342D01*
X2019068Y10089342D02*
G01*
X1986742Y10038542D01*
X1956262Y10135524D02*
G01*
X1956262Y10038542D01*
X1956262Y10038542D02*
G01*
X1900844Y10038542D01*
X5726544Y10070868D02*
G01*
X5735782Y10080104D01*
X5749635Y10084724D01*
X5768108Y10084724D01*
X5781964Y10080104D01*
X5791200Y10070868D01*
X5791200Y10061633D01*
X5786582Y10052395D01*
X5781964Y10047777D01*
X5772726Y10043160D01*
X5745017Y10033924D01*
X5735782Y10029304D01*
X5731164Y10024686D01*
X5726544Y10015451D01*
X5726544Y10001595D01*
X5735782Y9992360D01*
X5749635Y9987742D01*
X5768108Y9987742D01*
X5781964Y9992360D01*
X5791200Y10001595D01*
X5672975Y10052395D02*
G01*
X5682211Y10047777D01*
X5691446Y10038542D01*
X5696064Y10024686D01*
X5696064Y10015451D01*
X5691446Y10001595D01*
X5682211Y9992360D01*
X5672975Y9987742D01*
X5659120Y9987742D01*
X5649884Y9992360D01*
X5640646Y10001595D01*
X5636028Y10015451D01*
X5636028Y10024686D01*
X5640646Y10038542D01*
X5649884Y10047777D01*
X5659120Y10052395D01*
X5672975Y10052395D01*
X5605548Y10084724D02*
G01*
X5605548Y9987742D01*
X5575068Y10084724D02*
G01*
X5570451Y10080104D01*
X5565833Y10084724D01*
X5570451Y10089342D01*
X5575068Y10084724D01*
X5570451Y10052395D02*
G01*
X5570451Y9987742D01*
X5535353Y10052395D02*
G01*
X5535353Y9987742D01*
X5535353Y10033924D02*
G01*
X5521497Y10047777D01*
X5512262Y10052395D01*
X5498406Y10052395D01*
X5489171Y10047777D01*
X5484553Y10033924D01*
X5484553Y9987742D01*
X5440217Y10084724D02*
G01*
X5440217Y10006215D01*
X5435600Y9992360D01*
X5426364Y9987742D01*
X5417126Y9987742D01*
X5454073Y10052395D02*
G01*
X5421744Y10052395D01*
X5386646Y10024686D02*
G01*
X5331228Y10024686D01*
X5331228Y10033924D01*
X5335846Y10043160D01*
X5340464Y10047777D01*
X5349702Y10052395D01*
X5363555Y10052395D01*
X5372793Y10047777D01*
X5382028Y10038542D01*
X5386646Y10024686D01*
X5386646Y10015451D01*
X5382028Y10001595D01*
X5372793Y9992360D01*
X5363555Y9987742D01*
X5349702Y9987742D01*
X5340464Y9992360D01*
X5331228Y10001595D01*
X5245331Y10038542D02*
G01*
X5254566Y10047777D01*
X5263804Y10052395D01*
X5277657Y10052395D01*
X5286895Y10047777D01*
X5296131Y10038542D01*
X5300748Y10024686D01*
X5300748Y10015451D01*
X5296131Y10001595D01*
X5286895Y9992360D01*
X5277657Y9987742D01*
X5263804Y9987742D01*
X5254566Y9992360D01*
X5245331Y10001595D01*
X5079075Y10070868D02*
G01*
X5088313Y10080104D01*
X5102166Y10084724D01*
X5120640Y10084724D01*
X5134495Y10080104D01*
X5143731Y10070868D01*
X5143731Y10061633D01*
X5139113Y10052395D01*
X5134495Y10047777D01*
X5125257Y10043160D01*
X5097548Y10033924D01*
X5088313Y10029304D01*
X5083695Y10024686D01*
X5079075Y10015451D01*
X5079075Y10001595D01*
X5088313Y9992360D01*
X5102166Y9987742D01*
X5120640Y9987742D01*
X5134495Y9992360D01*
X5143731Y10001595D01*
X5048595Y10084724D02*
G01*
X5048595Y9987742D01*
X5048595Y10084724D02*
G01*
X5007033Y10084724D01*
X4993177Y10080104D01*
X4988560Y10075486D01*
X4983942Y10066251D01*
X4983942Y10057015D01*
X4988560Y10047777D01*
X4993177Y10043160D01*
X5007033Y10038542D01*
X5048595Y10038542D01*
X5016268Y10038542D02*
G01*
X4983942Y9987742D01*
X4953462Y10084724D02*
G01*
X4953462Y9987742D01*
X4953462Y9987742D02*
G01*
X4898044Y9987742D01*
X8723744Y10070868D02*
G01*
X8732982Y10080104D01*
X8746835Y10084724D01*
X8765308Y10084724D01*
X8779164Y10080104D01*
X8788400Y10070868D01*
X8788400Y10061633D01*
X8783782Y10052395D01*
X8779164Y10047777D01*
X8769926Y10043160D01*
X8742217Y10033924D01*
X8732982Y10029304D01*
X8728364Y10024686D01*
X8723744Y10015451D01*
X8723744Y10001595D01*
X8732982Y9992360D01*
X8746835Y9987742D01*
X8765308Y9987742D01*
X8779164Y9992360D01*
X8788400Y10001595D01*
X8670175Y10052395D02*
G01*
X8679411Y10047777D01*
X8688646Y10038542D01*
X8693264Y10024686D01*
X8693264Y10015451D01*
X8688646Y10001595D01*
X8679411Y9992360D01*
X8670175Y9987742D01*
X8656320Y9987742D01*
X8647084Y9992360D01*
X8637846Y10001595D01*
X8633228Y10015451D01*
X8633228Y10024686D01*
X8637846Y10038542D01*
X8647084Y10047777D01*
X8656320Y10052395D01*
X8670175Y10052395D01*
X8602748Y10084724D02*
G01*
X8602748Y9987742D01*
X8572268Y10084724D02*
G01*
X8567651Y10080104D01*
X8563033Y10084724D01*
X8567651Y10089342D01*
X8572268Y10084724D01*
X8567651Y10052395D02*
G01*
X8567651Y9987742D01*
X8532553Y10052395D02*
G01*
X8532553Y9987742D01*
X8532553Y10033924D02*
G01*
X8518697Y10047777D01*
X8509462Y10052395D01*
X8495606Y10052395D01*
X8486371Y10047777D01*
X8481753Y10033924D01*
X8481753Y9987742D01*
X8437417Y10084724D02*
G01*
X8437417Y10006215D01*
X8432800Y9992360D01*
X8423564Y9987742D01*
X8414326Y9987742D01*
X8451273Y10052395D02*
G01*
X8418944Y10052395D01*
X8383846Y10024686D02*
G01*
X8328428Y10024686D01*
X8328428Y10033924D01*
X8333046Y10043160D01*
X8337664Y10047777D01*
X8346902Y10052395D01*
X8360755Y10052395D01*
X8369993Y10047777D01*
X8379228Y10038542D01*
X8383846Y10024686D01*
X8383846Y10015451D01*
X8379228Y10001595D01*
X8369993Y9992360D01*
X8360755Y9987742D01*
X8346902Y9987742D01*
X8337664Y9992360D01*
X8328428Y10001595D01*
X8242531Y10038542D02*
G01*
X8251766Y10047777D01*
X8261004Y10052395D01*
X8274857Y10052395D01*
X8284095Y10047777D01*
X8293331Y10038542D01*
X8297948Y10024686D01*
X8297948Y10015451D01*
X8293331Y10001595D01*
X8284095Y9992360D01*
X8274857Y9987742D01*
X8261004Y9987742D01*
X8251766Y9992360D01*
X8242531Y10001595D01*
X8076275Y10070868D02*
G01*
X8085513Y10080104D01*
X8099366Y10084724D01*
X8117840Y10084724D01*
X8131695Y10080104D01*
X8140931Y10070868D01*
X8140931Y10061633D01*
X8136313Y10052395D01*
X8131695Y10047777D01*
X8122457Y10043160D01*
X8094748Y10033924D01*
X8085513Y10029304D01*
X8080895Y10024686D01*
X8076275Y10015451D01*
X8076275Y10001595D01*
X8085513Y9992360D01*
X8099366Y9987742D01*
X8117840Y9987742D01*
X8131695Y9992360D01*
X8140931Y10001595D01*
X8045795Y10084724D02*
G01*
X8045795Y9987742D01*
X8045795Y10084724D02*
G01*
X8004233Y10084724D01*
X7990377Y10080104D01*
X7985759Y10075486D01*
X7981142Y10066251D01*
X7981142Y10057015D01*
X7985759Y10047777D01*
X7990377Y10043160D01*
X8004233Y10038542D01*
X8045795Y10038542D01*
X8013468Y10038542D02*
G01*
X7981142Y9987742D01*
X7950662Y10084724D02*
G01*
X7950662Y9987742D01*
X7950662Y9987742D02*
G01*
X7895244Y9987742D01*
X8698344Y7505468D02*
G01*
X8707582Y7514704D01*
X8721435Y7519324D01*
X8739908Y7519324D01*
X8753764Y7514704D01*
X8763000Y7505468D01*
X8763000Y7496233D01*
X8758382Y7486995D01*
X8753764Y7482377D01*
X8744526Y7477759D01*
X8716817Y7468524D01*
X8707582Y7463904D01*
X8702964Y7459286D01*
X8698344Y7450051D01*
X8698344Y7436195D01*
X8707582Y7426959D01*
X8721435Y7422342D01*
X8739908Y7422342D01*
X8753764Y7426959D01*
X8763000Y7436195D01*
X8644775Y7486995D02*
G01*
X8654011Y7482377D01*
X8663246Y7473142D01*
X8667864Y7459286D01*
X8667864Y7450051D01*
X8663246Y7436195D01*
X8654011Y7426959D01*
X8644775Y7422342D01*
X8630920Y7422342D01*
X8621684Y7426959D01*
X8612446Y7436195D01*
X8607828Y7450051D01*
X8607828Y7459286D01*
X8612446Y7473142D01*
X8621684Y7482377D01*
X8630920Y7486995D01*
X8644775Y7486995D01*
X8577348Y7519324D02*
G01*
X8577348Y7422342D01*
X8546868Y7519324D02*
G01*
X8542251Y7514704D01*
X8537633Y7519324D01*
X8542251Y7523942D01*
X8546868Y7519324D01*
X8542251Y7486995D02*
G01*
X8542251Y7422342D01*
X8507153Y7486995D02*
G01*
X8507153Y7422342D01*
X8507153Y7468524D02*
G01*
X8493297Y7482377D01*
X8484062Y7486995D01*
X8470206Y7486995D01*
X8460971Y7482377D01*
X8456353Y7468524D01*
X8456353Y7422342D01*
X8412017Y7519324D02*
G01*
X8412017Y7440815D01*
X8407400Y7426959D01*
X8398164Y7422342D01*
X8388926Y7422342D01*
X8425873Y7486995D02*
G01*
X8393544Y7486995D01*
X8358446Y7459286D02*
G01*
X8303028Y7459286D01*
X8303028Y7468524D01*
X8307646Y7477759D01*
X8312264Y7482377D01*
X8321502Y7486995D01*
X8335355Y7486995D01*
X8344593Y7482377D01*
X8353828Y7473142D01*
X8358446Y7459286D01*
X8358446Y7450051D01*
X8353828Y7436195D01*
X8344593Y7426959D01*
X8335355Y7422342D01*
X8321502Y7422342D01*
X8312264Y7426959D01*
X8303028Y7436195D01*
X8217131Y7473142D02*
G01*
X8226366Y7482377D01*
X8235604Y7486995D01*
X8249457Y7486995D01*
X8258695Y7482377D01*
X8267931Y7473142D01*
X8272548Y7459286D01*
X8272548Y7450051D01*
X8267931Y7436195D01*
X8258695Y7426959D01*
X8249457Y7422342D01*
X8235604Y7422342D01*
X8226366Y7426959D01*
X8217131Y7436195D01*
X8050875Y7505468D02*
G01*
X8060113Y7514704D01*
X8073966Y7519324D01*
X8092440Y7519324D01*
X8106295Y7514704D01*
X8115531Y7505468D01*
X8115531Y7496233D01*
X8110913Y7486995D01*
X8106295Y7482377D01*
X8097057Y7477759D01*
X8069348Y7468524D01*
X8060113Y7463904D01*
X8055495Y7459286D01*
X8050875Y7450051D01*
X8050875Y7436195D01*
X8060113Y7426959D01*
X8073966Y7422342D01*
X8092440Y7422342D01*
X8106295Y7426959D01*
X8115531Y7436195D01*
X8020395Y7519324D02*
G01*
X8020395Y7422342D01*
X8020395Y7519324D02*
G01*
X7978833Y7519324D01*
X7964977Y7514704D01*
X7960359Y7510086D01*
X7955742Y7500851D01*
X7955742Y7491615D01*
X7960359Y7482377D01*
X7964977Y7477759D01*
X7978833Y7473142D01*
X8020395Y7473142D01*
X7988068Y7473142D02*
G01*
X7955742Y7422342D01*
X7925262Y7519324D02*
G01*
X7925262Y7422342D01*
X7925262Y7422342D02*
G01*
X7869844Y7422342D01*
X5751944Y7454668D02*
G01*
X5761182Y7463904D01*
X5775035Y7468524D01*
X5793508Y7468524D01*
X5807364Y7463904D01*
X5816600Y7454668D01*
X5816600Y7445433D01*
X5811982Y7436195D01*
X5807364Y7431577D01*
X5798126Y7426959D01*
X5770417Y7417724D01*
X5761182Y7413104D01*
X5756564Y7408486D01*
X5751944Y7399251D01*
X5751944Y7385395D01*
X5761182Y7376159D01*
X5775035Y7371542D01*
X5793508Y7371542D01*
X5807364Y7376159D01*
X5816600Y7385395D01*
X5698375Y7436195D02*
G01*
X5707611Y7431577D01*
X5716846Y7422342D01*
X5721464Y7408486D01*
X5721464Y7399251D01*
X5716846Y7385395D01*
X5707611Y7376159D01*
X5698375Y7371542D01*
X5684520Y7371542D01*
X5675284Y7376159D01*
X5666046Y7385395D01*
X5661428Y7399251D01*
X5661428Y7408486D01*
X5666046Y7422342D01*
X5675284Y7431577D01*
X5684520Y7436195D01*
X5698375Y7436195D01*
X5630948Y7468524D02*
G01*
X5630948Y7371542D01*
X5600468Y7468524D02*
G01*
X5595851Y7463904D01*
X5591233Y7468524D01*
X5595851Y7473142D01*
X5600468Y7468524D01*
X5595851Y7436195D02*
G01*
X5595851Y7371542D01*
X5560753Y7436195D02*
G01*
X5560753Y7371542D01*
X5560753Y7417724D02*
G01*
X5546897Y7431577D01*
X5537662Y7436195D01*
X5523806Y7436195D01*
X5514571Y7431577D01*
X5509953Y7417724D01*
X5509953Y7371542D01*
X5465617Y7468524D02*
G01*
X5465617Y7390015D01*
X5461000Y7376159D01*
X5451764Y7371542D01*
X5442526Y7371542D01*
X5479473Y7436195D02*
G01*
X5447144Y7436195D01*
X5412046Y7408486D02*
G01*
X5356628Y7408486D01*
X5356628Y7417724D01*
X5361246Y7426959D01*
X5365864Y7431577D01*
X5375102Y7436195D01*
X5388955Y7436195D01*
X5398193Y7431577D01*
X5407428Y7422342D01*
X5412046Y7408486D01*
X5412046Y7399251D01*
X5407428Y7385395D01*
X5398193Y7376159D01*
X5388955Y7371542D01*
X5375102Y7371542D01*
X5365864Y7376159D01*
X5356628Y7385395D01*
X5270731Y7422342D02*
G01*
X5279966Y7431577D01*
X5289204Y7436195D01*
X5303057Y7436195D01*
X5312295Y7431577D01*
X5321531Y7422342D01*
X5326148Y7408486D01*
X5326148Y7399251D01*
X5321531Y7385395D01*
X5312295Y7376159D01*
X5303057Y7371542D01*
X5289204Y7371542D01*
X5279966Y7376159D01*
X5270731Y7385395D01*
X5104475Y7454668D02*
G01*
X5113713Y7463904D01*
X5127566Y7468524D01*
X5146040Y7468524D01*
X5159895Y7463904D01*
X5169131Y7454668D01*
X5169131Y7445433D01*
X5164513Y7436195D01*
X5159895Y7431577D01*
X5150657Y7426959D01*
X5122948Y7417724D01*
X5113713Y7413104D01*
X5109095Y7408486D01*
X5104475Y7399251D01*
X5104475Y7385395D01*
X5113713Y7376159D01*
X5127566Y7371542D01*
X5146040Y7371542D01*
X5159895Y7376159D01*
X5169131Y7385395D01*
X5073995Y7468524D02*
G01*
X5073995Y7371542D01*
X5073995Y7468524D02*
G01*
X5032433Y7468524D01*
X5018577Y7463904D01*
X5013960Y7459286D01*
X5009342Y7450051D01*
X5009342Y7440815D01*
X5013960Y7431577D01*
X5018577Y7426959D01*
X5032433Y7422342D01*
X5073995Y7422342D01*
X5041668Y7422342D02*
G01*
X5009342Y7371542D01*
X4978862Y7468524D02*
G01*
X4978862Y7371542D01*
X4978862Y7371542D02*
G01*
X4923444Y7371542D01*
X2754744Y7480068D02*
G01*
X2763982Y7489304D01*
X2777835Y7493924D01*
X2796308Y7493924D01*
X2810164Y7489304D01*
X2819400Y7480068D01*
X2819400Y7470833D01*
X2814782Y7461595D01*
X2810164Y7456977D01*
X2800926Y7452359D01*
X2773217Y7443124D01*
X2763982Y7438504D01*
X2759364Y7433886D01*
X2754744Y7424651D01*
X2754744Y7410795D01*
X2763982Y7401559D01*
X2777835Y7396942D01*
X2796308Y7396942D01*
X2810164Y7401559D01*
X2819400Y7410795D01*
X2701175Y7461595D02*
G01*
X2710411Y7456977D01*
X2719646Y7447742D01*
X2724264Y7433886D01*
X2724264Y7424651D01*
X2719646Y7410795D01*
X2710411Y7401559D01*
X2701175Y7396942D01*
X2687320Y7396942D01*
X2678084Y7401559D01*
X2668846Y7410795D01*
X2664228Y7424651D01*
X2664228Y7433886D01*
X2668846Y7447742D01*
X2678084Y7456977D01*
X2687320Y7461595D01*
X2701175Y7461595D01*
X2633748Y7493924D02*
G01*
X2633748Y7396942D01*
X2603268Y7493924D02*
G01*
X2598651Y7489304D01*
X2594033Y7493924D01*
X2598651Y7498542D01*
X2603268Y7493924D01*
X2598651Y7461595D02*
G01*
X2598651Y7396942D01*
X2563553Y7461595D02*
G01*
X2563553Y7396942D01*
X2563553Y7443124D02*
G01*
X2549697Y7456977D01*
X2540462Y7461595D01*
X2526606Y7461595D01*
X2517371Y7456977D01*
X2512753Y7443124D01*
X2512753Y7396942D01*
X2468417Y7493924D02*
G01*
X2468417Y7415415D01*
X2463800Y7401559D01*
X2454564Y7396942D01*
X2445326Y7396942D01*
X2482273Y7461595D02*
G01*
X2449944Y7461595D01*
X2414846Y7433886D02*
G01*
X2359428Y7433886D01*
X2359428Y7443124D01*
X2364046Y7452359D01*
X2368664Y7456977D01*
X2377902Y7461595D01*
X2391755Y7461595D01*
X2400993Y7456977D01*
X2410228Y7447742D01*
X2414846Y7433886D01*
X2414846Y7424651D01*
X2410228Y7410795D01*
X2400993Y7401559D01*
X2391755Y7396942D01*
X2377902Y7396942D01*
X2368664Y7401559D01*
X2359428Y7410795D01*
X2273531Y7447742D02*
G01*
X2282766Y7456977D01*
X2292004Y7461595D01*
X2305857Y7461595D01*
X2315095Y7456977D01*
X2324331Y7447742D01*
X2328948Y7433886D01*
X2328948Y7424651D01*
X2324331Y7410795D01*
X2315095Y7401559D01*
X2305857Y7396942D01*
X2292004Y7396942D01*
X2282766Y7401559D01*
X2273531Y7410795D01*
X2107275Y7480068D02*
G01*
X2116513Y7489304D01*
X2130366Y7493924D01*
X2148840Y7493924D01*
X2162695Y7489304D01*
X2171931Y7480068D01*
X2171931Y7470833D01*
X2167313Y7461595D01*
X2162695Y7456977D01*
X2153457Y7452359D01*
X2125748Y7443124D01*
X2116513Y7438504D01*
X2111895Y7433886D01*
X2107275Y7424651D01*
X2107275Y7410795D01*
X2116513Y7401559D01*
X2130366Y7396942D01*
X2148840Y7396942D01*
X2162695Y7401559D01*
X2171931Y7410795D01*
X2076795Y7493924D02*
G01*
X2076795Y7396942D01*
X2076795Y7493924D02*
G01*
X2035233Y7493924D01*
X2021377Y7489304D01*
X2016760Y7484686D01*
X2012142Y7475451D01*
X2012142Y7466215D01*
X2016760Y7456977D01*
X2021377Y7452359D01*
X2035233Y7447742D01*
X2076795Y7447742D01*
X2044468Y7447742D02*
G01*
X2012142Y7396942D01*
X1981662Y7493924D02*
G01*
X1981662Y7396942D01*
X1981662Y7396942D02*
G01*
X1926244Y7396942D01*
X2754744Y4838468D02*
G01*
X2763982Y4847704D01*
X2777835Y4852324D01*
X2796308Y4852324D01*
X2810164Y4847704D01*
X2819400Y4838468D01*
X2819400Y4829233D01*
X2814782Y4819995D01*
X2810164Y4815377D01*
X2800926Y4810760D01*
X2773217Y4801524D01*
X2763982Y4796904D01*
X2759364Y4792286D01*
X2754744Y4783051D01*
X2754744Y4769195D01*
X2763982Y4759960D01*
X2777835Y4755342D01*
X2796308Y4755342D01*
X2810164Y4759960D01*
X2819400Y4769195D01*
X2701175Y4819995D02*
G01*
X2710411Y4815377D01*
X2719646Y4806142D01*
X2724264Y4792286D01*
X2724264Y4783051D01*
X2719646Y4769195D01*
X2710411Y4759960D01*
X2701175Y4755342D01*
X2687320Y4755342D01*
X2678084Y4759960D01*
X2668846Y4769195D01*
X2664228Y4783051D01*
X2664228Y4792286D01*
X2668846Y4806142D01*
X2678084Y4815377D01*
X2687320Y4819995D01*
X2701175Y4819995D01*
X2633748Y4852324D02*
G01*
X2633748Y4755342D01*
X2603268Y4852324D02*
G01*
X2598651Y4847704D01*
X2594033Y4852324D01*
X2598651Y4856942D01*
X2603268Y4852324D01*
X2598651Y4819995D02*
G01*
X2598651Y4755342D01*
X2563553Y4819995D02*
G01*
X2563553Y4755342D01*
X2563553Y4801524D02*
G01*
X2549697Y4815377D01*
X2540462Y4819995D01*
X2526606Y4819995D01*
X2517371Y4815377D01*
X2512753Y4801524D01*
X2512753Y4755342D01*
X2468417Y4852324D02*
G01*
X2468417Y4773815D01*
X2463800Y4759960D01*
X2454564Y4755342D01*
X2445326Y4755342D01*
X2482273Y4819995D02*
G01*
X2449944Y4819995D01*
X2414846Y4792286D02*
G01*
X2359428Y4792286D01*
X2359428Y4801524D01*
X2364046Y4810760D01*
X2368664Y4815377D01*
X2377902Y4819995D01*
X2391755Y4819995D01*
X2400993Y4815377D01*
X2410228Y4806142D01*
X2414846Y4792286D01*
X2414846Y4783051D01*
X2410228Y4769195D01*
X2400993Y4759960D01*
X2391755Y4755342D01*
X2377902Y4755342D01*
X2368664Y4759960D01*
X2359428Y4769195D01*
X2273531Y4806142D02*
G01*
X2282766Y4815377D01*
X2292004Y4819995D01*
X2305857Y4819995D01*
X2315095Y4815377D01*
X2324331Y4806142D01*
X2328948Y4792286D01*
X2328948Y4783051D01*
X2324331Y4769195D01*
X2315095Y4759960D01*
X2305857Y4755342D01*
X2292004Y4755342D01*
X2282766Y4759960D01*
X2273531Y4769195D01*
X2107275Y4838468D02*
G01*
X2116513Y4847704D01*
X2130366Y4852324D01*
X2148840Y4852324D01*
X2162695Y4847704D01*
X2171931Y4838468D01*
X2171931Y4829233D01*
X2167313Y4819995D01*
X2162695Y4815377D01*
X2153457Y4810760D01*
X2125748Y4801524D01*
X2116513Y4796904D01*
X2111895Y4792286D01*
X2107275Y4783051D01*
X2107275Y4769195D01*
X2116513Y4759960D01*
X2130366Y4755342D01*
X2148840Y4755342D01*
X2162695Y4759960D01*
X2171931Y4769195D01*
X2076795Y4852324D02*
G01*
X2076795Y4755342D01*
X2076795Y4852324D02*
G01*
X2035233Y4852324D01*
X2021377Y4847704D01*
X2016760Y4843086D01*
X2012142Y4833851D01*
X2012142Y4824615D01*
X2016760Y4815377D01*
X2021377Y4810760D01*
X2035233Y4806142D01*
X2076795Y4806142D01*
X2044468Y4806142D02*
G01*
X2012142Y4755342D01*
X1981662Y4852324D02*
G01*
X1981662Y4755342D01*
X1981662Y4755342D02*
G01*
X1926244Y4755342D01*
X5751944Y4838468D02*
G01*
X5761182Y4847704D01*
X5775035Y4852324D01*
X5793508Y4852324D01*
X5807364Y4847704D01*
X5816600Y4838468D01*
X5816600Y4829233D01*
X5811982Y4819995D01*
X5807364Y4815377D01*
X5798126Y4810760D01*
X5770417Y4801524D01*
X5761182Y4796904D01*
X5756564Y4792286D01*
X5751944Y4783051D01*
X5751944Y4769195D01*
X5761182Y4759960D01*
X5775035Y4755342D01*
X5793508Y4755342D01*
X5807364Y4759960D01*
X5816600Y4769195D01*
X5698375Y4819995D02*
G01*
X5707611Y4815377D01*
X5716846Y4806142D01*
X5721464Y4792286D01*
X5721464Y4783051D01*
X5716846Y4769195D01*
X5707611Y4759960D01*
X5698375Y4755342D01*
X5684520Y4755342D01*
X5675284Y4759960D01*
X5666046Y4769195D01*
X5661428Y4783051D01*
X5661428Y4792286D01*
X5666046Y4806142D01*
X5675284Y4815377D01*
X5684520Y4819995D01*
X5698375Y4819995D01*
X5630948Y4852324D02*
G01*
X5630948Y4755342D01*
X5600468Y4852324D02*
G01*
X5595851Y4847704D01*
X5591233Y4852324D01*
X5595851Y4856942D01*
X5600468Y4852324D01*
X5595851Y4819995D02*
G01*
X5595851Y4755342D01*
X5560753Y4819995D02*
G01*
X5560753Y4755342D01*
X5560753Y4801524D02*
G01*
X5546897Y4815377D01*
X5537662Y4819995D01*
X5523806Y4819995D01*
X5514571Y4815377D01*
X5509953Y4801524D01*
X5509953Y4755342D01*
X5465617Y4852324D02*
G01*
X5465617Y4773815D01*
X5461000Y4759960D01*
X5451764Y4755342D01*
X5442526Y4755342D01*
X5479473Y4819995D02*
G01*
X5447144Y4819995D01*
X5412046Y4792286D02*
G01*
X5356628Y4792286D01*
X5356628Y4801524D01*
X5361246Y4810760D01*
X5365864Y4815377D01*
X5375102Y4819995D01*
X5388955Y4819995D01*
X5398193Y4815377D01*
X5407428Y4806142D01*
X5412046Y4792286D01*
X5412046Y4783051D01*
X5407428Y4769195D01*
X5398193Y4759960D01*
X5388955Y4755342D01*
X5375102Y4755342D01*
X5365864Y4759960D01*
X5356628Y4769195D01*
X5270731Y4806142D02*
G01*
X5279966Y4815377D01*
X5289204Y4819995D01*
X5303057Y4819995D01*
X5312295Y4815377D01*
X5321531Y4806142D01*
X5326148Y4792286D01*
X5326148Y4783051D01*
X5321531Y4769195D01*
X5312295Y4759960D01*
X5303057Y4755342D01*
X5289204Y4755342D01*
X5279966Y4759960D01*
X5270731Y4769195D01*
X5104475Y4838468D02*
G01*
X5113713Y4847704D01*
X5127566Y4852324D01*
X5146040Y4852324D01*
X5159895Y4847704D01*
X5169131Y4838468D01*
X5169131Y4829233D01*
X5164513Y4819995D01*
X5159895Y4815377D01*
X5150657Y4810760D01*
X5122948Y4801524D01*
X5113713Y4796904D01*
X5109095Y4792286D01*
X5104475Y4783051D01*
X5104475Y4769195D01*
X5113713Y4759960D01*
X5127566Y4755342D01*
X5146040Y4755342D01*
X5159895Y4759960D01*
X5169131Y4769195D01*
X5073995Y4852324D02*
G01*
X5073995Y4755342D01*
X5073995Y4852324D02*
G01*
X5032433Y4852324D01*
X5018577Y4847704D01*
X5013960Y4843086D01*
X5009342Y4833851D01*
X5009342Y4824615D01*
X5013960Y4815377D01*
X5018577Y4810760D01*
X5032433Y4806142D01*
X5073995Y4806142D01*
X5041668Y4806142D02*
G01*
X5009342Y4755342D01*
X4978862Y4852324D02*
G01*
X4978862Y4755342D01*
X4978862Y4755342D02*
G01*
X4923444Y4755342D01*
X8723744Y4838468D02*
G01*
X8732982Y4847704D01*
X8746835Y4852324D01*
X8765308Y4852324D01*
X8779164Y4847704D01*
X8788400Y4838468D01*
X8788400Y4829233D01*
X8783782Y4819995D01*
X8779164Y4815377D01*
X8769926Y4810760D01*
X8742217Y4801524D01*
X8732982Y4796904D01*
X8728364Y4792286D01*
X8723744Y4783051D01*
X8723744Y4769195D01*
X8732982Y4759960D01*
X8746835Y4755342D01*
X8765308Y4755342D01*
X8779164Y4759960D01*
X8788400Y4769195D01*
X8670175Y4819995D02*
G01*
X8679411Y4815377D01*
X8688646Y4806142D01*
X8693264Y4792286D01*
X8693264Y4783051D01*
X8688646Y4769195D01*
X8679411Y4759960D01*
X8670175Y4755342D01*
X8656320Y4755342D01*
X8647084Y4759960D01*
X8637846Y4769195D01*
X8633228Y4783051D01*
X8633228Y4792286D01*
X8637846Y4806142D01*
X8647084Y4815377D01*
X8656320Y4819995D01*
X8670175Y4819995D01*
X8602748Y4852324D02*
G01*
X8602748Y4755342D01*
X8572268Y4852324D02*
G01*
X8567651Y4847704D01*
X8563033Y4852324D01*
X8567651Y4856942D01*
X8572268Y4852324D01*
X8567651Y4819995D02*
G01*
X8567651Y4755342D01*
X8532553Y4819995D02*
G01*
X8532553Y4755342D01*
X8532553Y4801524D02*
G01*
X8518697Y4815377D01*
X8509462Y4819995D01*
X8495606Y4819995D01*
X8486371Y4815377D01*
X8481753Y4801524D01*
X8481753Y4755342D01*
X8437417Y4852324D02*
G01*
X8437417Y4773815D01*
X8432800Y4759960D01*
X8423564Y4755342D01*
X8414326Y4755342D01*
X8451273Y4819995D02*
G01*
X8418944Y4819995D01*
X8383846Y4792286D02*
G01*
X8328428Y4792286D01*
X8328428Y4801524D01*
X8333046Y4810760D01*
X8337664Y4815377D01*
X8346902Y4819995D01*
X8360755Y4819995D01*
X8369993Y4815377D01*
X8379228Y4806142D01*
X8383846Y4792286D01*
X8383846Y4783051D01*
X8379228Y4769195D01*
X8369993Y4759960D01*
X8360755Y4755342D01*
X8346902Y4755342D01*
X8337664Y4759960D01*
X8328428Y4769195D01*
X8242531Y4806142D02*
G01*
X8251766Y4815377D01*
X8261004Y4819995D01*
X8274857Y4819995D01*
X8284095Y4815377D01*
X8293331Y4806142D01*
X8297948Y4792286D01*
X8297948Y4783051D01*
X8293331Y4769195D01*
X8284095Y4759960D01*
X8274857Y4755342D01*
X8261004Y4755342D01*
X8251766Y4759960D01*
X8242531Y4769195D01*
X8076275Y4838468D02*
G01*
X8085513Y4847704D01*
X8099366Y4852324D01*
X8117840Y4852324D01*
X8131695Y4847704D01*
X8140931Y4838468D01*
X8140931Y4829233D01*
X8136313Y4819995D01*
X8131695Y4815377D01*
X8122457Y4810760D01*
X8094748Y4801524D01*
X8085513Y4796904D01*
X8080895Y4792286D01*
X8076275Y4783051D01*
X8076275Y4769195D01*
X8085513Y4759960D01*
X8099366Y4755342D01*
X8117840Y4755342D01*
X8131695Y4759960D01*
X8140931Y4769195D01*
X8045795Y4852324D02*
G01*
X8045795Y4755342D01*
X8045795Y4852324D02*
G01*
X8004233Y4852324D01*
X7990377Y4847704D01*
X7985759Y4843086D01*
X7981142Y4833851D01*
X7981142Y4824615D01*
X7985759Y4815377D01*
X7990377Y4810760D01*
X8004233Y4806142D01*
X8045795Y4806142D01*
X8013468Y4806142D02*
G01*
X7981142Y4755342D01*
X7950662Y4852324D02*
G01*
X7950662Y4755342D01*
X7950662Y4755342D02*
G01*
X7895244Y4755342D01*
X8698344Y2196868D02*
G01*
X8707582Y2206104D01*
X8721435Y2210724D01*
X8739908Y2210724D01*
X8753764Y2206104D01*
X8763000Y2196868D01*
X8763000Y2187633D01*
X8758382Y2178395D01*
X8753764Y2173777D01*
X8744526Y2169160D01*
X8716817Y2159924D01*
X8707582Y2155304D01*
X8702964Y2150686D01*
X8698344Y2141451D01*
X8698344Y2127595D01*
X8707582Y2118360D01*
X8721435Y2113742D01*
X8739908Y2113742D01*
X8753764Y2118360D01*
X8763000Y2127595D01*
X8644775Y2178395D02*
G01*
X8654011Y2173777D01*
X8663246Y2164542D01*
X8667864Y2150686D01*
X8667864Y2141451D01*
X8663246Y2127595D01*
X8654011Y2118360D01*
X8644775Y2113742D01*
X8630920Y2113742D01*
X8621684Y2118360D01*
X8612446Y2127595D01*
X8607828Y2141451D01*
X8607828Y2150686D01*
X8612446Y2164542D01*
X8621684Y2173777D01*
X8630920Y2178395D01*
X8644775Y2178395D01*
X8577348Y2210724D02*
G01*
X8577348Y2113742D01*
X8546868Y2210724D02*
G01*
X8542251Y2206104D01*
X8537633Y2210724D01*
X8542251Y2215342D01*
X8546868Y2210724D01*
X8542251Y2178395D02*
G01*
X8542251Y2113742D01*
X8507153Y2178395D02*
G01*
X8507153Y2113742D01*
X8507153Y2159924D02*
G01*
X8493297Y2173777D01*
X8484062Y2178395D01*
X8470206Y2178395D01*
X8460971Y2173777D01*
X8456353Y2159924D01*
X8456353Y2113742D01*
X8412017Y2210724D02*
G01*
X8412017Y2132215D01*
X8407400Y2118360D01*
X8398164Y2113742D01*
X8388926Y2113742D01*
X8425873Y2178395D02*
G01*
X8393544Y2178395D01*
X8358446Y2150686D02*
G01*
X8303028Y2150686D01*
X8303028Y2159924D01*
X8307646Y2169160D01*
X8312264Y2173777D01*
X8321502Y2178395D01*
X8335355Y2178395D01*
X8344593Y2173777D01*
X8353828Y2164542D01*
X8358446Y2150686D01*
X8358446Y2141451D01*
X8353828Y2127595D01*
X8344593Y2118360D01*
X8335355Y2113742D01*
X8321502Y2113742D01*
X8312264Y2118360D01*
X8303028Y2127595D01*
X8217131Y2164542D02*
G01*
X8226366Y2173777D01*
X8235604Y2178395D01*
X8249457Y2178395D01*
X8258695Y2173777D01*
X8267931Y2164542D01*
X8272548Y2150686D01*
X8272548Y2141451D01*
X8267931Y2127595D01*
X8258695Y2118360D01*
X8249457Y2113742D01*
X8235604Y2113742D01*
X8226366Y2118360D01*
X8217131Y2127595D01*
X8050875Y2196868D02*
G01*
X8060113Y2206104D01*
X8073966Y2210724D01*
X8092440Y2210724D01*
X8106295Y2206104D01*
X8115531Y2196868D01*
X8115531Y2187633D01*
X8110913Y2178395D01*
X8106295Y2173777D01*
X8097057Y2169160D01*
X8069348Y2159924D01*
X8060113Y2155304D01*
X8055495Y2150686D01*
X8050875Y2141451D01*
X8050875Y2127595D01*
X8060113Y2118360D01*
X8073966Y2113742D01*
X8092440Y2113742D01*
X8106295Y2118360D01*
X8115531Y2127595D01*
X8020395Y2210724D02*
G01*
X8020395Y2113742D01*
X8020395Y2210724D02*
G01*
X7978833Y2210724D01*
X7964977Y2206104D01*
X7960359Y2201486D01*
X7955742Y2192251D01*
X7955742Y2183015D01*
X7960359Y2173777D01*
X7964977Y2169160D01*
X7978833Y2164542D01*
X8020395Y2164542D01*
X7988068Y2164542D02*
G01*
X7955742Y2113742D01*
X7925262Y2210724D02*
G01*
X7925262Y2113742D01*
X7925262Y2113742D02*
G01*
X7869844Y2113742D01*
X5726544Y2196868D02*
G01*
X5735782Y2206104D01*
X5749635Y2210724D01*
X5768108Y2210724D01*
X5781964Y2206104D01*
X5791200Y2196868D01*
X5791200Y2187633D01*
X5786582Y2178395D01*
X5781964Y2173777D01*
X5772726Y2169160D01*
X5745017Y2159924D01*
X5735782Y2155304D01*
X5731164Y2150686D01*
X5726544Y2141451D01*
X5726544Y2127595D01*
X5735782Y2118360D01*
X5749635Y2113742D01*
X5768108Y2113742D01*
X5781964Y2118360D01*
X5791200Y2127595D01*
X5672975Y2178395D02*
G01*
X5682211Y2173777D01*
X5691446Y2164542D01*
X5696064Y2150686D01*
X5696064Y2141451D01*
X5691446Y2127595D01*
X5682211Y2118360D01*
X5672975Y2113742D01*
X5659120Y2113742D01*
X5649884Y2118360D01*
X5640646Y2127595D01*
X5636028Y2141451D01*
X5636028Y2150686D01*
X5640646Y2164542D01*
X5649884Y2173777D01*
X5659120Y2178395D01*
X5672975Y2178395D01*
X5605548Y2210724D02*
G01*
X5605548Y2113742D01*
X5575068Y2210724D02*
G01*
X5570451Y2206104D01*
X5565833Y2210724D01*
X5570451Y2215342D01*
X5575068Y2210724D01*
X5570451Y2178395D02*
G01*
X5570451Y2113742D01*
X5535353Y2178395D02*
G01*
X5535353Y2113742D01*
X5535353Y2159924D02*
G01*
X5521497Y2173777D01*
X5512262Y2178395D01*
X5498406Y2178395D01*
X5489171Y2173777D01*
X5484553Y2159924D01*
X5484553Y2113742D01*
X5440217Y2210724D02*
G01*
X5440217Y2132215D01*
X5435600Y2118360D01*
X5426364Y2113742D01*
X5417126Y2113742D01*
X5454073Y2178395D02*
G01*
X5421744Y2178395D01*
X5386646Y2150686D02*
G01*
X5331228Y2150686D01*
X5331228Y2159924D01*
X5335846Y2169160D01*
X5340464Y2173777D01*
X5349702Y2178395D01*
X5363555Y2178395D01*
X5372793Y2173777D01*
X5382028Y2164542D01*
X5386646Y2150686D01*
X5386646Y2141451D01*
X5382028Y2127595D01*
X5372793Y2118360D01*
X5363555Y2113742D01*
X5349702Y2113742D01*
X5340464Y2118360D01*
X5331228Y2127595D01*
X5245331Y2164542D02*
G01*
X5254566Y2173777D01*
X5263804Y2178395D01*
X5277657Y2178395D01*
X5286895Y2173777D01*
X5296131Y2164542D01*
X5300748Y2150686D01*
X5300748Y2141451D01*
X5296131Y2127595D01*
X5286895Y2118360D01*
X5277657Y2113742D01*
X5263804Y2113742D01*
X5254566Y2118360D01*
X5245331Y2127595D01*
X5079075Y2196868D02*
G01*
X5088313Y2206104D01*
X5102166Y2210724D01*
X5120640Y2210724D01*
X5134495Y2206104D01*
X5143731Y2196868D01*
X5143731Y2187633D01*
X5139113Y2178395D01*
X5134495Y2173777D01*
X5125257Y2169160D01*
X5097548Y2159924D01*
X5088313Y2155304D01*
X5083695Y2150686D01*
X5079075Y2141451D01*
X5079075Y2127595D01*
X5088313Y2118360D01*
X5102166Y2113742D01*
X5120640Y2113742D01*
X5134495Y2118360D01*
X5143731Y2127595D01*
X5048595Y2210724D02*
G01*
X5048595Y2113742D01*
X5048595Y2210724D02*
G01*
X5007033Y2210724D01*
X4993177Y2206104D01*
X4988560Y2201486D01*
X4983942Y2192251D01*
X4983942Y2183015D01*
X4988560Y2173777D01*
X4993177Y2169160D01*
X5007033Y2164542D01*
X5048595Y2164542D01*
X5016268Y2164542D02*
G01*
X4983942Y2113742D01*
X4953462Y2210724D02*
G01*
X4953462Y2113742D01*
X4953462Y2113742D02*
G01*
X4898044Y2113742D01*
X2754744Y2222268D02*
G01*
X2763982Y2231504D01*
X2777835Y2236124D01*
X2796308Y2236124D01*
X2810164Y2231504D01*
X2819400Y2222268D01*
X2819400Y2213033D01*
X2814782Y2203795D01*
X2810164Y2199177D01*
X2800926Y2194560D01*
X2773217Y2185324D01*
X2763982Y2180704D01*
X2759364Y2176086D01*
X2754744Y2166851D01*
X2754744Y2152995D01*
X2763982Y2143760D01*
X2777835Y2139142D01*
X2796308Y2139142D01*
X2810164Y2143760D01*
X2819400Y2152995D01*
X2701175Y2203795D02*
G01*
X2710411Y2199177D01*
X2719646Y2189942D01*
X2724264Y2176086D01*
X2724264Y2166851D01*
X2719646Y2152995D01*
X2710411Y2143760D01*
X2701175Y2139142D01*
X2687320Y2139142D01*
X2678084Y2143760D01*
X2668846Y2152995D01*
X2664228Y2166851D01*
X2664228Y2176086D01*
X2668846Y2189942D01*
X2678084Y2199177D01*
X2687320Y2203795D01*
X2701175Y2203795D01*
X2633748Y2236124D02*
G01*
X2633748Y2139142D01*
X2603268Y2236124D02*
G01*
X2598651Y2231504D01*
X2594033Y2236124D01*
X2598651Y2240742D01*
X2603268Y2236124D01*
X2598651Y2203795D02*
G01*
X2598651Y2139142D01*
X2563553Y2203795D02*
G01*
X2563553Y2139142D01*
X2563553Y2185324D02*
G01*
X2549697Y2199177D01*
X2540462Y2203795D01*
X2526606Y2203795D01*
X2517371Y2199177D01*
X2512753Y2185324D01*
X2512753Y2139142D01*
X2468417Y2236124D02*
G01*
X2468417Y2157615D01*
X2463800Y2143760D01*
X2454564Y2139142D01*
X2445326Y2139142D01*
X2482273Y2203795D02*
G01*
X2449944Y2203795D01*
X2414846Y2176086D02*
G01*
X2359428Y2176086D01*
X2359428Y2185324D01*
X2364046Y2194560D01*
X2368664Y2199177D01*
X2377902Y2203795D01*
X2391755Y2203795D01*
X2400993Y2199177D01*
X2410228Y2189942D01*
X2414846Y2176086D01*
X2414846Y2166851D01*
X2410228Y2152995D01*
X2400993Y2143760D01*
X2391755Y2139142D01*
X2377902Y2139142D01*
X2368664Y2143760D01*
X2359428Y2152995D01*
X2273531Y2189942D02*
G01*
X2282766Y2199177D01*
X2292004Y2203795D01*
X2305857Y2203795D01*
X2315095Y2199177D01*
X2324331Y2189942D01*
X2328948Y2176086D01*
X2328948Y2166851D01*
X2324331Y2152995D01*
X2315095Y2143760D01*
X2305857Y2139142D01*
X2292004Y2139142D01*
X2282766Y2143760D01*
X2273531Y2152995D01*
X2107275Y2222268D02*
G01*
X2116513Y2231504D01*
X2130366Y2236124D01*
X2148840Y2236124D01*
X2162695Y2231504D01*
X2171931Y2222268D01*
X2171931Y2213033D01*
X2167313Y2203795D01*
X2162695Y2199177D01*
X2153457Y2194560D01*
X2125748Y2185324D01*
X2116513Y2180704D01*
X2111895Y2176086D01*
X2107275Y2166851D01*
X2107275Y2152995D01*
X2116513Y2143760D01*
X2130366Y2139142D01*
X2148840Y2139142D01*
X2162695Y2143760D01*
X2171931Y2152995D01*
X2076795Y2236124D02*
G01*
X2076795Y2139142D01*
X2076795Y2236124D02*
G01*
X2035233Y2236124D01*
X2021377Y2231504D01*
X2016760Y2226886D01*
X2012142Y2217651D01*
X2012142Y2208415D01*
X2016760Y2199177D01*
X2021377Y2194560D01*
X2035233Y2189942D01*
X2076795Y2189942D01*
X2044468Y2189942D02*
G01*
X2012142Y2139142D01*
X1981662Y2236124D02*
G01*
X1981662Y2139142D01*
X1981662Y2139142D02*
G01*
X1926244Y2139142D01*
D11*
X2311400Y1422400D02*
G01*
X2692400Y1422400D01*
X2819400Y1295400D01*
X2819400Y533400D01*
X2692400Y406400D01*
X2565400Y406400D01*
X1549400Y1930400D02*
G01*
X1041400Y1930400D01*
X787400Y2184400D01*
X2565400Y914400D02*
G01*
X2565400Y1041400D01*
X2438400Y1168400D01*
X2057400Y1168400D01*
X1803400Y1168400D01*
X787400Y535940D02*
G01*
X1170940Y535940D01*
X1295400Y660400D01*
X1295400Y1168400D01*
X1168400Y1295400D01*
X1168400Y1549400D01*
X1295400Y1676400D01*
X1549400Y1676400D01*
X2311400Y1676400D02*
G01*
X2184400Y1676400D01*
X2057400Y1549400D01*
X2057400Y1168400D01*
X2311400Y406400D02*
G01*
X1803400Y406400D01*
X787400Y1038860D02*
G01*
X787400Y1422400D01*
X5283200Y1397000D02*
G01*
X5664200Y1397000D01*
X5791200Y1270000D01*
X5791200Y508000D01*
X5664200Y381000D01*
X5537200Y381000D01*
X4521200Y1905000D02*
G01*
X4013200Y1905000D01*
X3759200Y2159000D01*
X5537200Y889000D02*
G01*
X5537200Y1016000D01*
X5410200Y1143000D01*
X5029200Y1143000D01*
X4775200Y1143000D01*
X3759200Y510540D02*
G01*
X4142740Y510540D01*
X4267200Y635000D01*
X4267200Y1143000D01*
X4140200Y1270000D01*
X4140200Y1524000D01*
X4267200Y1651000D01*
X4521200Y1651000D01*
X5283200Y1651000D02*
G01*
X5156200Y1651000D01*
X5029200Y1524000D01*
X5029200Y1143000D01*
X5283200Y381000D02*
G01*
X4775200Y381000D01*
X3759200Y1013460D02*
G01*
X3759200Y1397000D01*
X8255000Y1397000D02*
G01*
X8636000Y1397000D01*
X8763000Y1270000D01*
X8763000Y508000D01*
X8636000Y381000D01*
X8509000Y381000D01*
X7493000Y1905000D02*
G01*
X6985000Y1905000D01*
X6731000Y2159000D01*
X8509000Y889000D02*
G01*
X8509000Y1016000D01*
X8382000Y1143000D01*
X8001000Y1143000D01*
X7747000Y1143000D01*
X6731000Y510540D02*
G01*
X7114540Y510540D01*
X7239000Y635000D01*
X7239000Y1143000D01*
X7112000Y1270000D01*
X7112000Y1524000D01*
X7239000Y1651000D01*
X7493000Y1651000D01*
X8255000Y1651000D02*
G01*
X8128000Y1651000D01*
X8001000Y1524000D01*
X8001000Y1143000D01*
X8255000Y381000D02*
G01*
X7747000Y381000D01*
X6731000Y1013460D02*
G01*
X6731000Y1397000D01*
X8280400Y4038600D02*
G01*
X8661400Y4038600D01*
X8788400Y3911600D01*
X8788400Y3149600D01*
X8661400Y3022600D01*
X8534400Y3022600D01*
X7518400Y4546600D02*
G01*
X7010400Y4546600D01*
X6756400Y4800600D01*
X8534400Y3530600D02*
G01*
X8534400Y3657600D01*
X8407400Y3784600D01*
X8026400Y3784600D01*
X7772400Y3784600D01*
X6756400Y3152140D02*
G01*
X7139940Y3152140D01*
X7264400Y3276600D01*
X7264400Y3784600D01*
X7137400Y3911600D01*
X7137400Y4165600D01*
X7264400Y4292600D01*
X7518400Y4292600D01*
X8280400Y4292600D02*
G01*
X8153400Y4292600D01*
X8026400Y4165600D01*
X8026400Y3784600D01*
X8280400Y3022600D02*
G01*
X7772400Y3022600D01*
X6756400Y3655060D02*
G01*
X6756400Y4038600D01*
X5308600Y4038600D02*
G01*
X5689600Y4038600D01*
X5816600Y3911600D01*
X5816600Y3149600D01*
X5689600Y3022600D01*
X5562600Y3022600D01*
X4546600Y4546600D02*
G01*
X4038600Y4546600D01*
X3784600Y4800600D01*
X5562600Y3530600D02*
G01*
X5562600Y3657600D01*
X5435600Y3784600D01*
X5054600Y3784600D01*
X4800600Y3784600D01*
X3784600Y3152140D02*
G01*
X4168140Y3152140D01*
X4292600Y3276600D01*
X4292600Y3784600D01*
X4165600Y3911600D01*
X4165600Y4165600D01*
X4292600Y4292600D01*
X4546600Y4292600D01*
X5308600Y4292600D02*
G01*
X5181600Y4292600D01*
X5054600Y4165600D01*
X5054600Y3784600D01*
X5308600Y3022600D02*
G01*
X4800600Y3022600D01*
X3784600Y3655060D02*
G01*
X3784600Y4038600D01*
X2311400Y4038600D02*
G01*
X2692400Y4038600D01*
X2819400Y3911600D01*
X2819400Y3149600D01*
X2692400Y3022600D01*
X2565400Y3022600D01*
X1549400Y4546600D02*
G01*
X1041400Y4546600D01*
X787400Y4800600D01*
X2565400Y3530600D02*
G01*
X2565400Y3657600D01*
X2438400Y3784600D01*
X2057400Y3784600D01*
X1803400Y3784600D01*
X787400Y3152140D02*
G01*
X1170940Y3152140D01*
X1295400Y3276600D01*
X1295400Y3784600D01*
X1168400Y3911600D01*
X1168400Y4165600D01*
X1295400Y4292600D01*
X1549400Y4292600D01*
X2311400Y4292600D02*
G01*
X2184400Y4292600D01*
X2057400Y4165600D01*
X2057400Y3784600D01*
X2311400Y3022600D02*
G01*
X1803400Y3022600D01*
X787400Y3655060D02*
G01*
X787400Y4038600D01*
X2311400Y6680200D02*
G01*
X2692400Y6680200D01*
X2819400Y6553200D01*
X2819400Y5791200D01*
X2692400Y5664200D01*
X2565400Y5664200D01*
X1549400Y7188200D02*
G01*
X1041400Y7188200D01*
X787400Y7442200D01*
X2565400Y6172200D02*
G01*
X2565400Y6299200D01*
X2438400Y6426200D01*
X2057400Y6426200D01*
X1803400Y6426200D01*
X787400Y5793740D02*
G01*
X1170940Y5793740D01*
X1295400Y5918200D01*
X1295400Y6426200D01*
X1168400Y6553200D01*
X1168400Y6807200D01*
X1295400Y6934200D01*
X1549400Y6934200D01*
X2311400Y6934200D02*
G01*
X2184400Y6934200D01*
X2057400Y6807200D01*
X2057400Y6426200D01*
X2311400Y5664200D02*
G01*
X1803400Y5664200D01*
X787400Y6296660D02*
G01*
X787400Y6680200D01*
X5308600Y6654800D02*
G01*
X5689600Y6654800D01*
X5816600Y6527800D01*
X5816600Y5765800D01*
X5689600Y5638800D01*
X5562600Y5638800D01*
X4546600Y7162800D02*
G01*
X4038600Y7162800D01*
X3784600Y7416800D01*
X5562600Y6146800D02*
G01*
X5562600Y6273800D01*
X5435600Y6400800D01*
X5054600Y6400800D01*
X4800600Y6400800D01*
X3784600Y5768340D02*
G01*
X4168140Y5768340D01*
X4292600Y5892800D01*
X4292600Y6400800D01*
X4165600Y6527800D01*
X4165600Y6781800D01*
X4292600Y6908800D01*
X4546600Y6908800D01*
X5308600Y6908800D02*
G01*
X5181600Y6908800D01*
X5054600Y6781800D01*
X5054600Y6400800D01*
X5308600Y5638800D02*
G01*
X4800600Y5638800D01*
X3784600Y6271260D02*
G01*
X3784600Y6654800D01*
X8255000Y6705600D02*
G01*
X8636000Y6705600D01*
X8763000Y6578600D01*
X8763000Y5816600D01*
X8636000Y5689600D01*
X8509000Y5689600D01*
X7493000Y7213600D02*
G01*
X6985000Y7213600D01*
X6731000Y7467600D01*
X8509000Y6197600D02*
G01*
X8509000Y6324600D01*
X8382000Y6451600D01*
X8001000Y6451600D01*
X7747000Y6451600D01*
X6731000Y5819140D02*
G01*
X7114540Y5819140D01*
X7239000Y5943600D01*
X7239000Y6451600D01*
X7112000Y6578600D01*
X7112000Y6832600D01*
X7239000Y6959600D01*
X7493000Y6959600D01*
X8255000Y6959600D02*
G01*
X8128000Y6959600D01*
X8001000Y6832600D01*
X8001000Y6451600D01*
X8255000Y5689600D02*
G01*
X7747000Y5689600D01*
X6731000Y6322060D02*
G01*
X6731000Y6705600D01*
X8280400Y9271000D02*
G01*
X8661400Y9271000D01*
X8788400Y9144000D01*
X8788400Y8382000D01*
X8661400Y8255000D01*
X8534400Y8255000D01*
X7518400Y9779000D02*
G01*
X7010400Y9779000D01*
X6756400Y10033000D01*
X8534400Y8763000D02*
G01*
X8534400Y8890000D01*
X8407400Y9017000D01*
X8026400Y9017000D01*
X7772400Y9017000D01*
X6756400Y8384540D02*
G01*
X7139940Y8384540D01*
X7264400Y8509000D01*
X7264400Y9017000D01*
X7137400Y9144000D01*
X7137400Y9398000D01*
X7264400Y9525000D01*
X7518400Y9525000D01*
X8280400Y9525000D02*
G01*
X8153400Y9525000D01*
X8026400Y9398000D01*
X8026400Y9017000D01*
X8280400Y8255000D02*
G01*
X7772400Y8255000D01*
X6756400Y8887460D02*
G01*
X6756400Y9271000D01*
X5283200Y9271000D02*
G01*
X5664200Y9271000D01*
X5791200Y9144000D01*
X5791200Y8382000D01*
X5664200Y8255000D01*
X5537200Y8255000D01*
X4521200Y9779000D02*
G01*
X4013200Y9779000D01*
X3759200Y10033000D01*
X5537200Y8763000D02*
G01*
X5537200Y8890000D01*
X5410200Y9017000D01*
X5029200Y9017000D01*
X4775200Y9017000D01*
X3759200Y8384540D02*
G01*
X4142740Y8384540D01*
X4267200Y8509000D01*
X4267200Y9017000D01*
X4140200Y9144000D01*
X4140200Y9398000D01*
X4267200Y9525000D01*
X4521200Y9525000D01*
X5283200Y9525000D02*
G01*
X5156200Y9525000D01*
X5029200Y9398000D01*
X5029200Y9017000D01*
X5283200Y8255000D02*
G01*
X4775200Y8255000D01*
X3759200Y8887460D02*
G01*
X3759200Y9271000D01*
X2286000Y9321800D02*
G01*
X2667000Y9321800D01*
X2794000Y9194800D01*
X2794000Y8432800D01*
X2667000Y8305800D01*
X2540000Y8305800D01*
X1524000Y9829800D02*
G01*
X1016000Y9829800D01*
X762000Y10083800D01*
X2540000Y8813800D02*
G01*
X2540000Y8940800D01*
X2413000Y9067800D01*
X2032000Y9067800D01*
X1778000Y9067800D01*
X762000Y8435340D02*
G01*
X1145540Y8435340D01*
X1270000Y8559800D01*
X1270000Y9067800D01*
X1143000Y9194800D01*
X1143000Y9448800D01*
X1270000Y9575800D01*
X1524000Y9575800D01*
X2286000Y9575800D02*
G01*
X2159000Y9575800D01*
X2032000Y9448800D01*
X2032000Y9067800D01*
X2286000Y8305800D02*
G01*
X1778000Y8305800D01*
X762000Y8938260D02*
G01*
X762000Y9321800D01*
D12*
G01*
X206400Y9414002D03*
G01*
X9384598Y8914003D03*
G01*
X206400Y1078798D03*
G01*
X9384598Y1578797D03*
D13*
G01*
X3022600Y10134600D03*
G01*
X6019800Y10083800D03*
G01*
X9017000Y10083800D03*
G01*
X8991600Y7518400D03*
G01*
X6045200Y7467600D03*
G01*
X3048000Y7493000D03*
G01*
X3048000Y4851400D03*
G01*
X6045200Y4851400D03*
G01*
X9017000Y4851400D03*
G01*
X8991600Y2209800D03*
G01*
X6019800Y2209800D03*
G01*
X3048000Y2235200D03*
X4775200Y9017000D02*
G01*
X4775200Y9017000D01*
X4775200Y8255000D02*
G01*
X4775200Y8255000D01*
X3759200Y9271000D02*
G01*
X3759200Y9271000D01*
X3759200Y10033000D02*
G01*
X3759200Y10033000D01*
X5283200Y8763000D02*
G01*
X5283200Y8763000D01*
X5537200Y8763000D02*
G01*
X5537200Y8763000D01*
X5283200Y8509000D02*
G01*
X5283200Y8509000D01*
X5537200Y8509000D02*
G01*
X5537200Y8509000D01*
X5283200Y8255000D02*
G01*
X5283200Y8255000D01*
X5537200Y8255000D02*
G01*
X5537200Y8255000D01*
X3661079Y8887460D02*
G01*
X3857320Y8887460D01*
X3661079Y8384540D02*
G01*
X3857320Y8384540D01*
X4571199Y9779000D02*
G01*
X4471200Y9779000D01*
X4571199Y9525000D02*
G01*
X4471200Y9525000D01*
X5233200Y9525000D02*
G01*
X5333199Y9525000D01*
X5233200Y9779000D02*
G01*
X5333199Y9779000D01*
X4571199Y9271000D02*
G01*
X4471200Y9271000D01*
X5233200Y9271000D02*
G01*
X5333199Y9271000D01*
X7772400Y9017000D02*
G01*
X7772400Y9017000D01*
X7772400Y8255000D02*
G01*
X7772400Y8255000D01*
X6756400Y9271000D02*
G01*
X6756400Y9271000D01*
X6756400Y10033000D02*
G01*
X6756400Y10033000D01*
X8280400Y8763000D02*
G01*
X8280400Y8763000D01*
X8534400Y8763000D02*
G01*
X8534400Y8763000D01*
X8280400Y8509000D02*
G01*
X8280400Y8509000D01*
X8534400Y8509000D02*
G01*
X8534400Y8509000D01*
X8280400Y8255000D02*
G01*
X8280400Y8255000D01*
X8534400Y8255000D02*
G01*
X8534400Y8255000D01*
X6658279Y8887460D02*
G01*
X6854520Y8887460D01*
X6658279Y8384540D02*
G01*
X6854520Y8384540D01*
X7568399Y9779000D02*
G01*
X7468400Y9779000D01*
X7568399Y9525000D02*
G01*
X7468400Y9525000D01*
X8230400Y9525000D02*
G01*
X8330399Y9525000D01*
X8230400Y9779000D02*
G01*
X8330399Y9779000D01*
X7568399Y9271000D02*
G01*
X7468400Y9271000D01*
X8230400Y9271000D02*
G01*
X8330399Y9271000D01*
X7747000Y6451600D02*
G01*
X7747000Y6451600D01*
X7747000Y5689600D02*
G01*
X7747000Y5689600D01*
X6731000Y6705600D02*
G01*
X6731000Y6705600D01*
X6731000Y7467600D02*
G01*
X6731000Y7467600D01*
X8255000Y6197600D02*
G01*
X8255000Y6197600D01*
X8509000Y6197600D02*
G01*
X8509000Y6197600D01*
X8255000Y5943600D02*
G01*
X8255000Y5943600D01*
X8509000Y5943600D02*
G01*
X8509000Y5943600D01*
X8255000Y5689600D02*
G01*
X8255000Y5689600D01*
X8509000Y5689600D02*
G01*
X8509000Y5689600D01*
X6632879Y6322060D02*
G01*
X6829120Y6322060D01*
X6632879Y5819140D02*
G01*
X6829120Y5819140D01*
X7542999Y7213600D02*
G01*
X7443000Y7213600D01*
X7542999Y6959600D02*
G01*
X7443000Y6959600D01*
X8205000Y6959600D02*
G01*
X8304999Y6959600D01*
X8205000Y7213600D02*
G01*
X8304999Y7213600D01*
X7542999Y6705600D02*
G01*
X7443000Y6705600D01*
X8205000Y6705600D02*
G01*
X8304999Y6705600D01*
X4800600Y6400800D02*
G01*
X4800600Y6400800D01*
X4800600Y5638800D02*
G01*
X4800600Y5638800D01*
X3784600Y6654800D02*
G01*
X3784600Y6654800D01*
X3784600Y7416800D02*
G01*
X3784600Y7416800D01*
X5308600Y6146800D02*
G01*
X5308600Y6146800D01*
X5562600Y6146800D02*
G01*
X5562600Y6146800D01*
X5308600Y5892800D02*
G01*
X5308600Y5892800D01*
X5562600Y5892800D02*
G01*
X5562600Y5892800D01*
X5308600Y5638800D02*
G01*
X5308600Y5638800D01*
X5562600Y5638800D02*
G01*
X5562600Y5638800D01*
X3686479Y6271260D02*
G01*
X3882720Y6271260D01*
X3686479Y5768340D02*
G01*
X3882720Y5768340D01*
X4596599Y7162800D02*
G01*
X4496600Y7162800D01*
X4596599Y6908800D02*
G01*
X4496600Y6908800D01*
X5258600Y6908800D02*
G01*
X5358599Y6908800D01*
X5258600Y7162800D02*
G01*
X5358599Y7162800D01*
X4596599Y6654800D02*
G01*
X4496600Y6654800D01*
X5258600Y6654800D02*
G01*
X5358599Y6654800D01*
X1803400Y6426200D02*
G01*
X1803400Y6426200D01*
X1803400Y5664200D02*
G01*
X1803400Y5664200D01*
X787400Y6680200D02*
G01*
X787400Y6680200D01*
X787400Y7442200D02*
G01*
X787400Y7442200D01*
X2311400Y6172200D02*
G01*
X2311400Y6172200D01*
X2565400Y6172200D02*
G01*
X2565400Y6172200D01*
X2311400Y5918200D02*
G01*
X2311400Y5918200D01*
X2565400Y5918200D02*
G01*
X2565400Y5918200D01*
X2311400Y5664200D02*
G01*
X2311400Y5664200D01*
X2565400Y5664200D02*
G01*
X2565400Y5664200D01*
X689279Y6296660D02*
G01*
X885520Y6296660D01*
X689279Y5793740D02*
G01*
X885520Y5793740D01*
X1599399Y7188200D02*
G01*
X1499400Y7188200D01*
X1599399Y6934200D02*
G01*
X1499400Y6934200D01*
X2261400Y6934200D02*
G01*
X2361399Y6934200D01*
X2261400Y7188200D02*
G01*
X2361399Y7188200D01*
X1599399Y6680200D02*
G01*
X1499400Y6680200D01*
X2261400Y6680200D02*
G01*
X2361399Y6680200D01*
X1803400Y3784600D02*
G01*
X1803400Y3784600D01*
X1803400Y3022600D02*
G01*
X1803400Y3022600D01*
X787400Y4038600D02*
G01*
X787400Y4038600D01*
X787400Y4800600D02*
G01*
X787400Y4800600D01*
X2311400Y3530600D02*
G01*
X2311400Y3530600D01*
X2565400Y3530600D02*
G01*
X2565400Y3530600D01*
X2311400Y3276600D02*
G01*
X2311400Y3276600D01*
X2565400Y3276600D02*
G01*
X2565400Y3276600D01*
X2311400Y3022600D02*
G01*
X2311400Y3022600D01*
X2565400Y3022600D02*
G01*
X2565400Y3022600D01*
X689279Y3655060D02*
G01*
X885520Y3655060D01*
X689279Y3152140D02*
G01*
X885520Y3152140D01*
X1599399Y4546600D02*
G01*
X1499400Y4546600D01*
X1599399Y4292600D02*
G01*
X1499400Y4292600D01*
X2261400Y4292600D02*
G01*
X2361399Y4292600D01*
X2261400Y4546600D02*
G01*
X2361399Y4546600D01*
X1599399Y4038600D02*
G01*
X1499400Y4038600D01*
X2261400Y4038600D02*
G01*
X2361399Y4038600D01*
X4800600Y3784600D02*
G01*
X4800600Y3784600D01*
X4800600Y3022600D02*
G01*
X4800600Y3022600D01*
X3784600Y4038600D02*
G01*
X3784600Y4038600D01*
X3784600Y4800600D02*
G01*
X3784600Y4800600D01*
X5308600Y3530600D02*
G01*
X5308600Y3530600D01*
X5562600Y3530600D02*
G01*
X5562600Y3530600D01*
X5308600Y3276600D02*
G01*
X5308600Y3276600D01*
X5562600Y3276600D02*
G01*
X5562600Y3276600D01*
X5308600Y3022600D02*
G01*
X5308600Y3022600D01*
X5562600Y3022600D02*
G01*
X5562600Y3022600D01*
X3686479Y3655060D02*
G01*
X3882720Y3655060D01*
X3686479Y3152140D02*
G01*
X3882720Y3152140D01*
X4596599Y4546600D02*
G01*
X4496600Y4546600D01*
X4596599Y4292600D02*
G01*
X4496600Y4292600D01*
X5258600Y4292600D02*
G01*
X5358599Y4292600D01*
X5258600Y4546600D02*
G01*
X5358599Y4546600D01*
X4596599Y4038600D02*
G01*
X4496600Y4038600D01*
X5258600Y4038600D02*
G01*
X5358599Y4038600D01*
X7772400Y3784600D02*
G01*
X7772400Y3784600D01*
X7772400Y3022600D02*
G01*
X7772400Y3022600D01*
X6756400Y4038600D02*
G01*
X6756400Y4038600D01*
X6756400Y4800600D02*
G01*
X6756400Y4800600D01*
X8280400Y3530600D02*
G01*
X8280400Y3530600D01*
X8534400Y3530600D02*
G01*
X8534400Y3530600D01*
X8280400Y3276600D02*
G01*
X8280400Y3276600D01*
X8534400Y3276600D02*
G01*
X8534400Y3276600D01*
X8280400Y3022600D02*
G01*
X8280400Y3022600D01*
X8534400Y3022600D02*
G01*
X8534400Y3022600D01*
X6658279Y3655060D02*
G01*
X6854520Y3655060D01*
X6658279Y3152140D02*
G01*
X6854520Y3152140D01*
X7568399Y4546600D02*
G01*
X7468400Y4546600D01*
X7568399Y4292600D02*
G01*
X7468400Y4292600D01*
X8230400Y4292600D02*
G01*
X8330399Y4292600D01*
X8230400Y4546600D02*
G01*
X8330399Y4546600D01*
X7568399Y4038600D02*
G01*
X7468400Y4038600D01*
X8230400Y4038600D02*
G01*
X8330399Y4038600D01*
X7747000Y1143000D02*
G01*
X7747000Y1143000D01*
X7747000Y381000D02*
G01*
X7747000Y381000D01*
X6731000Y1397000D02*
G01*
X6731000Y1397000D01*
X6731000Y2159000D02*
G01*
X6731000Y2159000D01*
X8255000Y889000D02*
G01*
X8255000Y889000D01*
X8509000Y889000D02*
G01*
X8509000Y889000D01*
X8255000Y635000D02*
G01*
X8255000Y635000D01*
X8509000Y635000D02*
G01*
X8509000Y635000D01*
X8255000Y381000D02*
G01*
X8255000Y381000D01*
X8509000Y381000D02*
G01*
X8509000Y381000D01*
X6632879Y1013460D02*
G01*
X6829120Y1013460D01*
X6632879Y510540D02*
G01*
X6829120Y510540D01*
X7542999Y1905000D02*
G01*
X7443000Y1905000D01*
X7542999Y1651000D02*
G01*
X7443000Y1651000D01*
X8205000Y1651000D02*
G01*
X8304999Y1651000D01*
X8205000Y1905000D02*
G01*
X8304999Y1905000D01*
X7542999Y1397000D02*
G01*
X7443000Y1397000D01*
X8205000Y1397000D02*
G01*
X8304999Y1397000D01*
X4775200Y1143000D02*
G01*
X4775200Y1143000D01*
X4775200Y381000D02*
G01*
X4775200Y381000D01*
X3759200Y1397000D02*
G01*
X3759200Y1397000D01*
X3759200Y2159000D02*
G01*
X3759200Y2159000D01*
X5283200Y889000D02*
G01*
X5283200Y889000D01*
X5537200Y889000D02*
G01*
X5537200Y889000D01*
X5283200Y635000D02*
G01*
X5283200Y635000D01*
X5537200Y635000D02*
G01*
X5537200Y635000D01*
X5283200Y381000D02*
G01*
X5283200Y381000D01*
X5537200Y381000D02*
G01*
X5537200Y381000D01*
X3661079Y1013460D02*
G01*
X3857320Y1013460D01*
X3661079Y510540D02*
G01*
X3857320Y510540D01*
X4571199Y1905000D02*
G01*
X4471200Y1905000D01*
X4571199Y1651000D02*
G01*
X4471200Y1651000D01*
X5233200Y1651000D02*
G01*
X5333199Y1651000D01*
X5233200Y1905000D02*
G01*
X5333199Y1905000D01*
X4571199Y1397000D02*
G01*
X4471200Y1397000D01*
X5233200Y1397000D02*
G01*
X5333199Y1397000D01*
X1803400Y1168400D02*
G01*
X1803400Y1168400D01*
X1803400Y406400D02*
G01*
X1803400Y406400D01*
X787400Y1422400D02*
G01*
X787400Y1422400D01*
X787400Y2184400D02*
G01*
X787400Y2184400D01*
X2311400Y914400D02*
G01*
X2311400Y914400D01*
X2565400Y914400D02*
G01*
X2565400Y914400D01*
X2311400Y660400D02*
G01*
X2311400Y660400D01*
X2565400Y660400D02*
G01*
X2565400Y660400D01*
X2311400Y406400D02*
G01*
X2311400Y406400D01*
X2565400Y406400D02*
G01*
X2565400Y406400D01*
X689279Y1038860D02*
G01*
X885520Y1038860D01*
X689279Y535940D02*
G01*
X885520Y535940D01*
X1599399Y1930400D02*
G01*
X1499400Y1930400D01*
X1599399Y1676400D02*
G01*
X1499400Y1676400D01*
X2261400Y1676400D02*
G01*
X2361399Y1676400D01*
X2261400Y1930400D02*
G01*
X2361399Y1930400D01*
X1599399Y1422400D02*
G01*
X1499400Y1422400D01*
X2261400Y1422400D02*
G01*
X2361399Y1422400D01*
X1573999Y9829800D02*
G01*
X1474000Y9829800D01*
X1573999Y9575800D02*
G01*
X1474000Y9575800D01*
X2236000Y9575800D02*
G01*
X2335999Y9575800D01*
X2236000Y9829800D02*
G01*
X2335999Y9829800D01*
X1573999Y9321800D02*
G01*
X1474000Y9321800D01*
X2236000Y9321800D02*
G01*
X2335999Y9321800D01*
X663879Y8938260D02*
G01*
X860120Y8938260D01*
X663879Y8435340D02*
G01*
X860120Y8435340D01*
X2286000Y8813800D02*
G01*
X2286000Y8813800D01*
X2540000Y8813800D02*
G01*
X2540000Y8813800D01*
X2286000Y8559800D02*
G01*
X2286000Y8559800D01*
X2540000Y8559800D02*
G01*
X2540000Y8559800D01*
X2286000Y8305800D02*
G01*
X2286000Y8305800D01*
X2540000Y8305800D02*
G01*
X2540000Y8305800D01*
X762000Y9321800D02*
G01*
X762000Y9321800D01*
X762000Y10083800D02*
G01*
X762000Y10083800D01*
X1778000Y9067800D02*
G01*
X1778000Y9067800D01*
X1778000Y8305800D02*
G01*
X1778000Y8305800D01*
M02*
