M48
METRIC,LZ,000.000
;FILE_FORMAT=3:3
;TYPE=PLATED
;Layer: PTH_Through
;EasyEDA v6.5.22, 2022-12-30 10:19:24
;cc661ac33e424cae800a4ac99e05d963,5dd06754fdd742daa6fe38bf62b7df6b,10
;Gerber Generator version 0.2
;Holesize 1 = 0.501 mm
T01C0.501
;Holesize 2 = 0.915 mm
T02C0.915
;Holesize 3 = 1.000 mm
T03C1.000
;Holesize 4 = 1.301 mm
T04C1.301
;Holesize 5 = 1.600 mm
T05C1.600
;Holesize 6 = 2.000 mm
T06C2.000
%
G05
G90
T01
X024334Y044895
X027453Y044895
X025894Y044895
X029012Y044895
X024278Y042736
X025838Y042736
X027397Y042736
X028956Y042736
X024278Y040831
X025838Y040831
X027397Y040831
X028956Y040831
X094196Y041440
X092637Y041440
X091078Y041440
X089518Y041440
X094196Y043345
X092637Y043345
X091078Y043345
X089518Y043345
X094252Y045504
X091134Y045504
X092693Y045504
X089574Y045504
T02
X099961Y055254
X099961Y051324
X099961Y048784
X099961Y046244
X099961Y043704
X099961Y041164
X099961Y038624
X099961Y036084
X099961Y033544
X099961Y031004
X099961Y028464
X096151Y028464
X093611Y028464
X091071Y028464
X088531Y028464
X084721Y028464
X084721Y031004
X084721Y033544
X084721Y036084
X084721Y038624
X084721Y041164
X084721Y043704
X084721Y046244
X084721Y048784
X084721Y051324
X084721Y055254
X034721Y054644
X034721Y050715
X034721Y048175
X034721Y045635
X034721Y043095
X034721Y040555
X034721Y038015
X034721Y035475
X034721Y032935
X034721Y030395
X034721Y027855
X030911Y027855
X028371Y027855
X025831Y027855
X023291Y027855
X019481Y027855
X019481Y030395
X019481Y032935
X019481Y035475
X019481Y038015
X019481Y040555
X019481Y043095
X019481Y045635
X019481Y048175
X019481Y050715
X019481Y054644
T03
X080244Y046266G85X080250Y046266
X077745Y048806G85X077750Y048806
X080244Y051346G85X080250Y051346
X015004Y045657G85X015010Y045657
X012505Y048197G85X012510Y048197
X015004Y050737G85X015010Y050737
T04
X102197Y019279
X107277Y019279
X104737Y019279
X091402Y019279
X096482Y019279
X093942Y019279
X080607Y019279
X085687Y019279
X083147Y019279
X111849Y026200
X111849Y031280
X111849Y028740
X111849Y037672
X111849Y042752
X111849Y040212
X111849Y049145
X111849Y054225
X111849Y051685
X111849Y060617
X111849Y065697
X111849Y063157
X046609Y060008
X046609Y065088
X046609Y062548
X046609Y048535
X046609Y053615
X046609Y051075
X046609Y037063
X046609Y042143
X046609Y039603
X046609Y025591
X046609Y030671
X046609Y028131
X015367Y018669
X020447Y018669
X017907Y018669
X026162Y018669
X031242Y018669
X028702Y018669
X036957Y018669
X042037Y018669
X039497Y018669
T05
X099824Y010198
X104824Y010198
X089029Y010325
X094029Y010325
X077980Y010325
X082980Y010325
X120295Y024081
X120295Y029081
X120295Y058117
X120295Y063117
X120295Y035426
X120295Y040426
X120295Y046772
X120295Y051772
X074913Y057609
X074913Y062609
X009673Y056999
X009673Y061999
X055055Y046162
X055055Y051162
X055055Y034817
X055055Y039817
X055055Y057507
X055055Y062507
X055055Y023471
X055055Y028471
X012740Y009716
X017740Y009716
X023789Y009716
X028789Y009716
X034584Y009589
X039584Y009589
T06
X011303Y040196
X039899Y062865
X012319Y015431
X050546Y015177
X115786Y015786
X077559Y016040
X105139Y063475
X076543Y040805
M30
