G04 Layer: BottomPasteMaskLayer*
G04 EasyEDA v6.5.22, 2022-12-30 10:19:24*
G04 cc661ac33e424cae800a4ac99e05d963,5dd06754fdd742daa6fe38bf62b7df6b,10*
G04 Gerber Generator version 0.2*
G04 Scale: 100 percent, Rotated: No, Reflected: No *
G04 Dimensions in millimeters *
G04 leading zeros omitted , absolute positions ,4 integer and 5 decimal *
%FSLAX45Y45*%
%MOMM*%

%AMMACRO1*21,1,$1,$2,0,0,$3*%
%ADD10MACRO1,2.8X0.8X90.0000*%
%ADD11MACRO1,0.98X3.2941X0.0000*%
%ADD12MACRO1,10.5664X7.5321X0.0000*%

%LPD*%
G36*
X3812184Y5142636D02*
G01*
X3807206Y5137658D01*
X3807206Y5009642D01*
X3812184Y5004663D01*
X3927195Y5004663D01*
X3932174Y5009642D01*
X3932682Y5050637D01*
X3887724Y5050637D01*
X3887724Y5095646D01*
X3931716Y5095646D01*
X3932174Y5137658D01*
X3927195Y5142636D01*
G37*
G36*
X4027220Y5142636D02*
G01*
X4022191Y5137658D01*
X4022191Y5095646D01*
X4066692Y5095646D01*
X4066692Y5050637D01*
X4022699Y5050637D01*
X4022191Y5009642D01*
X4027220Y5004663D01*
X4142181Y5004663D01*
X4147210Y5009642D01*
X4147210Y5137658D01*
X4142181Y5142636D01*
G37*
G36*
X3812184Y4888636D02*
G01*
X3807206Y4883658D01*
X3807206Y4755642D01*
X3812184Y4750663D01*
X3927195Y4750663D01*
X3932174Y4755642D01*
X3932682Y4796637D01*
X3887724Y4796637D01*
X3887724Y4841646D01*
X3931716Y4841646D01*
X3932174Y4883658D01*
X3927195Y4888636D01*
G37*
G36*
X4027220Y4888636D02*
G01*
X4022191Y4883658D01*
X4022191Y4841646D01*
X4066692Y4841646D01*
X4066692Y4796637D01*
X4022699Y4796637D01*
X4022191Y4755642D01*
X4027220Y4750663D01*
X4142181Y4750663D01*
X4147210Y4755642D01*
X4147210Y4883658D01*
X4142181Y4888636D01*
G37*
G36*
X3812184Y4393336D02*
G01*
X3807206Y4388358D01*
X3807206Y4260342D01*
X3812184Y4255363D01*
X3927195Y4255363D01*
X3932174Y4260342D01*
X3932682Y4301337D01*
X3887724Y4301337D01*
X3887724Y4346346D01*
X3931716Y4346346D01*
X3932174Y4388358D01*
X3927195Y4393336D01*
G37*
G36*
X4027220Y4393336D02*
G01*
X4022191Y4388358D01*
X4022191Y4346346D01*
X4066692Y4346346D01*
X4066692Y4301337D01*
X4022699Y4301337D01*
X4022191Y4260342D01*
X4027220Y4255363D01*
X4142181Y4255363D01*
X4147210Y4260342D01*
X4147210Y4388358D01*
X4142181Y4393336D01*
G37*
G36*
X3812184Y4139336D02*
G01*
X3807206Y4134358D01*
X3807206Y4006342D01*
X3812184Y4001363D01*
X3927195Y4001363D01*
X3932174Y4006342D01*
X3932682Y4047337D01*
X3887724Y4047337D01*
X3887724Y4092346D01*
X3931716Y4092346D01*
X3932174Y4134358D01*
X3927195Y4139336D01*
G37*
G36*
X4027220Y4139336D02*
G01*
X4022191Y4134358D01*
X4022191Y4092346D01*
X4066692Y4092346D01*
X4066692Y4047337D01*
X4022699Y4047337D01*
X4022191Y4006342D01*
X4027220Y4001363D01*
X4142181Y4001363D01*
X4147210Y4006342D01*
X4147210Y4134358D01*
X4142181Y4139336D01*
G37*
G36*
X3085541Y3859936D02*
G01*
X3080562Y3854958D01*
X3080054Y3813962D01*
X3125063Y3813962D01*
X3125063Y3768953D01*
X3081020Y3768953D01*
X3080562Y3726942D01*
X3085541Y3721963D01*
X3200552Y3721963D01*
X3205530Y3726942D01*
X3205530Y3854958D01*
X3200552Y3859936D01*
G37*
G36*
X2870555Y3859936D02*
G01*
X2865526Y3854958D01*
X2865526Y3726942D01*
X2870555Y3721963D01*
X2985566Y3721963D01*
X2990545Y3726942D01*
X2990545Y3768953D01*
X2946044Y3768953D01*
X2946044Y3813962D01*
X2990037Y3813962D01*
X2990545Y3854958D01*
X2985566Y3859936D01*
G37*
G36*
X3087420Y3618636D02*
G01*
X3082391Y3613658D01*
X3081883Y3572662D01*
X3126892Y3572662D01*
X3126892Y3527653D01*
X3082899Y3527653D01*
X3082391Y3485642D01*
X3087420Y3480663D01*
X3202381Y3480663D01*
X3207410Y3485642D01*
X3207410Y3613658D01*
X3202381Y3618636D01*
G37*
G36*
X2872384Y3618636D02*
G01*
X2867406Y3613658D01*
X2867406Y3485642D01*
X2872384Y3480663D01*
X2987395Y3480663D01*
X2992424Y3485642D01*
X2992374Y3527653D01*
X2947924Y3527653D01*
X2947924Y3572662D01*
X2991916Y3572662D01*
X2992424Y3613658D01*
X2987395Y3618636D01*
G37*
G36*
X3085541Y3377336D02*
G01*
X3080562Y3372358D01*
X3080054Y3331362D01*
X3125063Y3331362D01*
X3125063Y3286353D01*
X3081020Y3286353D01*
X3080562Y3244342D01*
X3085541Y3239363D01*
X3200552Y3239363D01*
X3205530Y3244342D01*
X3205530Y3372358D01*
X3200552Y3377336D01*
G37*
G36*
X2870555Y3377336D02*
G01*
X2865526Y3372358D01*
X2865526Y3244342D01*
X2870555Y3239363D01*
X2985566Y3239363D01*
X2990545Y3244342D01*
X2990545Y3286353D01*
X2946044Y3286353D01*
X2946044Y3331362D01*
X2990037Y3331362D01*
X2990545Y3372358D01*
X2985566Y3377336D01*
G37*
G36*
X9609531Y3438296D02*
G01*
X9604552Y3433318D01*
X9604044Y3392322D01*
X9649053Y3392322D01*
X9649053Y3347313D01*
X9605060Y3347313D01*
X9604552Y3305301D01*
X9609531Y3300323D01*
X9724542Y3300323D01*
X9729520Y3305301D01*
X9729520Y3433318D01*
X9724542Y3438296D01*
G37*
G36*
X9394545Y3438296D02*
G01*
X9389567Y3433318D01*
X9389567Y3305301D01*
X9394545Y3300323D01*
X9509556Y3300323D01*
X9514535Y3305301D01*
X9514535Y3347313D01*
X9470034Y3347313D01*
X9470034Y3392322D01*
X9514027Y3392322D01*
X9514535Y3433318D01*
X9509556Y3438296D01*
G37*
G36*
X9611410Y3679596D02*
G01*
X9606381Y3674618D01*
X9605924Y3633622D01*
X9650882Y3633622D01*
X9650882Y3588613D01*
X9606889Y3588613D01*
X9606381Y3546601D01*
X9611410Y3541623D01*
X9726422Y3541623D01*
X9731400Y3546601D01*
X9731400Y3674618D01*
X9726422Y3679596D01*
G37*
G36*
X9396425Y3679596D02*
G01*
X9391396Y3674618D01*
X9391396Y3546601D01*
X9396425Y3541623D01*
X9511385Y3541623D01*
X9516414Y3546601D01*
X9516414Y3588613D01*
X9471914Y3588613D01*
X9471914Y3633622D01*
X9515906Y3633622D01*
X9516414Y3674618D01*
X9511385Y3679596D01*
G37*
G36*
X9609531Y3920896D02*
G01*
X9604552Y3915918D01*
X9604044Y3874922D01*
X9649053Y3874922D01*
X9649053Y3829913D01*
X9605060Y3829913D01*
X9604552Y3787901D01*
X9609531Y3782923D01*
X9724542Y3782923D01*
X9729520Y3787901D01*
X9729520Y3915918D01*
X9724542Y3920896D01*
G37*
G36*
X9394545Y3920896D02*
G01*
X9389567Y3915918D01*
X9389567Y3787901D01*
X9394545Y3782923D01*
X9509556Y3782923D01*
X9514535Y3787901D01*
X9514535Y3829913D01*
X9470034Y3829913D01*
X9470034Y3874922D01*
X9514027Y3874922D01*
X9514535Y3915918D01*
X9509556Y3920896D01*
G37*
G36*
X10336174Y4200296D02*
G01*
X10331196Y4195318D01*
X10331196Y4067301D01*
X10336174Y4062323D01*
X10451185Y4062323D01*
X10456214Y4067301D01*
X10456722Y4108297D01*
X10411714Y4108297D01*
X10411714Y4153306D01*
X10455706Y4153306D01*
X10456214Y4195318D01*
X10451185Y4200296D01*
G37*
G36*
X10551210Y4200296D02*
G01*
X10546181Y4195318D01*
X10546181Y4153306D01*
X10590682Y4153306D01*
X10590682Y4108297D01*
X10546689Y4108297D01*
X10546181Y4067301D01*
X10551210Y4062323D01*
X10666222Y4062323D01*
X10671200Y4067301D01*
X10671200Y4195318D01*
X10666222Y4200296D01*
G37*
G36*
X10336174Y4454296D02*
G01*
X10331196Y4449318D01*
X10331196Y4321302D01*
X10336174Y4316323D01*
X10451185Y4316323D01*
X10456214Y4321302D01*
X10456722Y4362297D01*
X10411714Y4362297D01*
X10411714Y4407306D01*
X10455706Y4407306D01*
X10456214Y4449318D01*
X10451185Y4454296D01*
G37*
G36*
X10551210Y4454296D02*
G01*
X10546181Y4449318D01*
X10546181Y4407306D01*
X10590682Y4407306D01*
X10590682Y4362297D01*
X10546689Y4362297D01*
X10546181Y4321302D01*
X10551210Y4316323D01*
X10666222Y4316323D01*
X10671200Y4321302D01*
X10671200Y4449318D01*
X10666222Y4454296D01*
G37*
G36*
X10336174Y4949596D02*
G01*
X10331196Y4944618D01*
X10331196Y4816602D01*
X10336174Y4811623D01*
X10451185Y4811623D01*
X10456214Y4816602D01*
X10456722Y4857597D01*
X10411714Y4857597D01*
X10411714Y4902606D01*
X10455706Y4902606D01*
X10456214Y4944618D01*
X10451185Y4949596D01*
G37*
G36*
X10551210Y4949596D02*
G01*
X10546181Y4944618D01*
X10546181Y4902606D01*
X10590682Y4902606D01*
X10590682Y4857597D01*
X10546689Y4857597D01*
X10546181Y4816602D01*
X10551210Y4811623D01*
X10666222Y4811623D01*
X10671200Y4816602D01*
X10671200Y4944618D01*
X10666222Y4949596D01*
G37*
G36*
X10336174Y5203596D02*
G01*
X10331196Y5198618D01*
X10331196Y5070602D01*
X10336174Y5065623D01*
X10451185Y5065623D01*
X10456214Y5070602D01*
X10456722Y5111597D01*
X10411714Y5111597D01*
X10411714Y5156606D01*
X10455706Y5156606D01*
X10456214Y5198618D01*
X10451185Y5203596D01*
G37*
G36*
X10551210Y5203596D02*
G01*
X10546181Y5198618D01*
X10546181Y5156606D01*
X10590682Y5156606D01*
X10590682Y5111597D01*
X10546689Y5111597D01*
X10546181Y5070602D01*
X10551210Y5065623D01*
X10666222Y5065623D01*
X10671200Y5070602D01*
X10671200Y5198618D01*
X10666222Y5203596D01*
G37*
D10*
G01*
X1894400Y5962650D03*
G01*
X1894400Y6470650D03*
D11*
G01*
X2440500Y6279644D03*
G01*
X2948500Y6279644D03*
D12*
G01*
X2694500Y5036037D03*
D11*
G01*
X8964500Y6340609D03*
G01*
X9472500Y6340609D03*
D12*
G01*
X9218500Y5097002D03*
D10*
G01*
X8418400Y6023615D03*
G01*
X8418400Y6531615D03*
M02*
