G04 Layer: TopSilkscreenLayer*
G04 EasyEDA v6.5.22, 2022-12-30 10:19:24*
G04 cc661ac33e424cae800a4ac99e05d963,5dd06754fdd742daa6fe38bf62b7df6b,10*
G04 Gerber Generator version 0.2*
G04 Scale: 100 percent, Rotated: No, Reflected: No *
G04 Dimensions in millimeters *
G04 leading zeros omitted , absolute positions ,4 integer and 5 decimal *
%FSLAX45Y45*%
%MOMM*%

%ADD10C,0.8000*%
%ADD11C,0.1524*%
%ADD12C,0.2032*%
%ADD13C,0.2540*%
%ADD14C,0.4000*%
%ADD15C,0.0177*%

%LPD*%
D10*
X458792Y6209792D02*
G01*
X292676Y6209792D01*
X375734Y6292850D02*
G01*
X375734Y6126479D01*
X375734Y5781039D02*
G01*
X375734Y5614923D01*
X1238750Y355092D02*
G01*
X1238750Y188976D01*
X1155692Y272034D02*
G01*
X1322062Y272034D01*
X1667502Y272034D02*
G01*
X1833618Y272034D01*
X2407150Y355092D02*
G01*
X2407150Y188976D01*
X2324092Y272034D02*
G01*
X2490462Y272034D01*
X2835902Y272034D02*
G01*
X3002018Y272034D01*
X3410450Y355092D02*
G01*
X3410450Y188976D01*
X3327392Y272034D02*
G01*
X3493762Y272034D01*
X3839202Y272034D02*
G01*
X4005318Y272034D01*
X6033000Y2286507D02*
G01*
X6199116Y2286507D01*
X6116058Y2203450D02*
G01*
X6116058Y2369820D01*
X6116058Y2715260D02*
G01*
X6116058Y2881376D01*
X6033000Y3442207D02*
G01*
X6199116Y3442207D01*
X6116058Y3359150D02*
G01*
X6116058Y3525520D01*
X6116058Y3870960D02*
G01*
X6116058Y4037076D01*
X6020300Y4686807D02*
G01*
X6186416Y4686807D01*
X6103358Y4603750D02*
G01*
X6103358Y4770120D01*
X6103358Y5115560D02*
G01*
X6103358Y5281676D01*
X6020308Y5715507D02*
G01*
X6186424Y5715507D01*
X6103365Y5632450D02*
G01*
X6103365Y5798820D01*
X6103365Y6144260D02*
G01*
X6103365Y6310376D01*
X12544308Y5776473D02*
G01*
X12710424Y5776473D01*
X12627366Y5693415D02*
G01*
X12627366Y5859785D01*
X12627366Y6205225D02*
G01*
X12627366Y6371341D01*
X12544300Y4747773D02*
G01*
X12710416Y4747773D01*
X12627358Y4664715D02*
G01*
X12627358Y4831085D01*
X12627358Y5176525D02*
G01*
X12627358Y5342641D01*
X12557000Y3503173D02*
G01*
X12723116Y3503173D01*
X12640058Y3420115D02*
G01*
X12640058Y3586485D01*
X12640058Y3931925D02*
G01*
X12640058Y4098041D01*
X12557000Y2347473D02*
G01*
X12723116Y2347473D01*
X12640058Y2264415D02*
G01*
X12640058Y2430785D01*
X12640058Y2776225D02*
G01*
X12640058Y2942341D01*
X9934450Y416057D02*
G01*
X9934450Y249941D01*
X9851392Y332999D02*
G01*
X10017762Y332999D01*
X10363202Y332999D02*
G01*
X10529318Y332999D01*
X8931150Y416057D02*
G01*
X8931150Y249941D01*
X8848092Y332999D02*
G01*
X9014462Y332999D01*
X9359902Y332999D02*
G01*
X9526018Y332999D01*
X7762750Y416057D02*
G01*
X7762750Y249941D01*
X7679692Y332999D02*
G01*
X7846062Y332999D01*
X8191502Y332999D02*
G01*
X8357618Y332999D01*
X6982792Y6270757D02*
G01*
X6816676Y6270757D01*
X6899734Y6353815D02*
G01*
X6899734Y6187445D01*
X6899734Y5842005D02*
G01*
X6899734Y5675889D01*
D11*
X10233152Y1528826D02*
G01*
X10233152Y1450847D01*
X10238231Y1435354D01*
X10248645Y1424939D01*
X10264140Y1419860D01*
X10274554Y1419860D01*
X10290302Y1424939D01*
X10300715Y1435354D01*
X10305795Y1450847D01*
X10305795Y1528826D01*
X10340086Y1507997D02*
G01*
X10350500Y1513331D01*
X10365993Y1528826D01*
X10365993Y1419860D01*
X10405618Y1502918D02*
G01*
X10405618Y1507997D01*
X10410697Y1518412D01*
X10416031Y1523745D01*
X10426445Y1528826D01*
X10447020Y1528826D01*
X10457434Y1523745D01*
X10462768Y1518412D01*
X10467847Y1507997D01*
X10467847Y1497584D01*
X10462768Y1487170D01*
X10452354Y1471676D01*
X10400284Y1419860D01*
X10473181Y1419860D01*
X9153652Y1541526D02*
G01*
X9153652Y1463547D01*
X9158731Y1448054D01*
X9169145Y1437639D01*
X9184640Y1432560D01*
X9195054Y1432560D01*
X9210802Y1437639D01*
X9221215Y1448054D01*
X9226295Y1463547D01*
X9226295Y1541526D01*
X9260586Y1520697D02*
G01*
X9271000Y1526031D01*
X9286493Y1541526D01*
X9286493Y1432560D01*
X9331197Y1541526D02*
G01*
X9388347Y1541526D01*
X9357359Y1499870D01*
X9372854Y1499870D01*
X9383268Y1494789D01*
X9388347Y1489710D01*
X9393681Y1473962D01*
X9393681Y1463547D01*
X9388347Y1448054D01*
X9377934Y1437639D01*
X9362440Y1432560D01*
X9346945Y1432560D01*
X9331197Y1437639D01*
X9326118Y1442720D01*
X9320784Y1453134D01*
X8048752Y1541526D02*
G01*
X8048752Y1463547D01*
X8053831Y1448054D01*
X8064245Y1437639D01*
X8079740Y1432560D01*
X8090154Y1432560D01*
X8105902Y1437639D01*
X8116315Y1448054D01*
X8121395Y1463547D01*
X8121395Y1541526D01*
X8155686Y1520697D02*
G01*
X8166100Y1526031D01*
X8181593Y1541526D01*
X8181593Y1432560D01*
X8267954Y1541526D02*
G01*
X8215884Y1468881D01*
X8293861Y1468881D01*
X8267954Y1541526D02*
G01*
X8267954Y1432560D01*
X11520370Y2658783D02*
G01*
X11598348Y2658783D01*
X11613842Y2664117D01*
X11624256Y2674277D01*
X11629590Y2690025D01*
X11629590Y2700439D01*
X11624256Y2715933D01*
X11613842Y2726347D01*
X11598348Y2731427D01*
X11520370Y2731427D01*
X11541198Y2765717D02*
G01*
X11536118Y2776131D01*
X11520370Y2791879D01*
X11629590Y2791879D01*
X11520370Y2888399D02*
G01*
X11520370Y2836583D01*
X11567106Y2831249D01*
X11562026Y2836583D01*
X11556692Y2852077D01*
X11556692Y2867571D01*
X11562026Y2883319D01*
X11572440Y2893733D01*
X11587934Y2898813D01*
X11598348Y2898813D01*
X11613842Y2893733D01*
X11624256Y2883319D01*
X11629590Y2867571D01*
X11629590Y2852077D01*
X11624256Y2836583D01*
X11619176Y2831249D01*
X11608762Y2826169D01*
X11520370Y6062383D02*
G01*
X11598348Y6062383D01*
X11613842Y6067717D01*
X11624256Y6077877D01*
X11629590Y6093625D01*
X11629590Y6104039D01*
X11624256Y6119533D01*
X11613842Y6129947D01*
X11598348Y6135027D01*
X11520370Y6135027D01*
X11541198Y6169317D02*
G01*
X11536118Y6179731D01*
X11520370Y6195479D01*
X11629590Y6195479D01*
X11536118Y6291999D02*
G01*
X11525704Y6286919D01*
X11520370Y6271171D01*
X11520370Y6260757D01*
X11525704Y6245263D01*
X11541198Y6234849D01*
X11567106Y6229769D01*
X11593268Y6229769D01*
X11613842Y6234849D01*
X11624256Y6245263D01*
X11629590Y6260757D01*
X11629590Y6266091D01*
X11624256Y6281585D01*
X11613842Y6291999D01*
X11598348Y6297333D01*
X11593268Y6297333D01*
X11577520Y6291999D01*
X11567106Y6281585D01*
X11562026Y6266091D01*
X11562026Y6260757D01*
X11567106Y6245263D01*
X11577520Y6234849D01*
X11593268Y6229769D01*
X11520294Y3793324D02*
G01*
X11598272Y3793324D01*
X11614020Y3798658D01*
X11624434Y3808818D01*
X11629514Y3824566D01*
X11629514Y3834980D01*
X11624434Y3850474D01*
X11614020Y3860888D01*
X11598272Y3865968D01*
X11520294Y3865968D01*
X11541122Y3900258D02*
G01*
X11536042Y3910672D01*
X11520294Y3926420D01*
X11629514Y3926420D01*
X11520294Y4033354D02*
G01*
X11629514Y3981538D01*
X11520294Y3960710D02*
G01*
X11520294Y4033354D01*
X11520472Y4927866D02*
G01*
X11598450Y4927866D01*
X11613944Y4933200D01*
X11624358Y4943360D01*
X11629438Y4959108D01*
X11629438Y4969522D01*
X11624358Y4985016D01*
X11613944Y4995430D01*
X11598450Y5000510D01*
X11520472Y5000510D01*
X11541300Y5034800D02*
G01*
X11535966Y5045214D01*
X11520472Y5060962D01*
X11629438Y5060962D01*
X11520472Y5121160D02*
G01*
X11525552Y5105666D01*
X11535966Y5100332D01*
X11546380Y5100332D01*
X11556794Y5105666D01*
X11561874Y5116080D01*
X11567208Y5136654D01*
X11572288Y5152402D01*
X11582702Y5162816D01*
X11593116Y5167896D01*
X11608864Y5167896D01*
X11619024Y5162816D01*
X11624358Y5157482D01*
X11629438Y5141988D01*
X11629438Y5121160D01*
X11624358Y5105666D01*
X11619024Y5100332D01*
X11608864Y5095252D01*
X11593116Y5095252D01*
X11582702Y5100332D01*
X11572288Y5110746D01*
X11567208Y5126240D01*
X11561874Y5147068D01*
X11556794Y5157482D01*
X11546380Y5162816D01*
X11535966Y5162816D01*
X11525552Y5157482D01*
X11520472Y5141988D01*
X11520472Y5121160D01*
X9218422Y5834126D02*
G01*
X9218422Y5756147D01*
X9223756Y5740654D01*
X9234170Y5730239D01*
X9249663Y5725160D01*
X9260077Y5725160D01*
X9275572Y5730239D01*
X9285986Y5740654D01*
X9291320Y5756147D01*
X9291320Y5834126D01*
X9325609Y5813297D02*
G01*
X9336024Y5818631D01*
X9351518Y5834126D01*
X9351518Y5725160D01*
X9453372Y5797804D02*
G01*
X9448038Y5782310D01*
X9437877Y5771895D01*
X9422129Y5766562D01*
X9417050Y5766562D01*
X9401302Y5771895D01*
X9390888Y5782310D01*
X9385808Y5797804D01*
X9385808Y5802884D01*
X9390888Y5818631D01*
X9401302Y5829045D01*
X9417050Y5834126D01*
X9422129Y5834126D01*
X9437877Y5829045D01*
X9448038Y5818631D01*
X9453372Y5797804D01*
X9453372Y5771895D01*
X9448038Y5745734D01*
X9437877Y5730239D01*
X9422129Y5725160D01*
X9411715Y5725160D01*
X9396222Y5730239D01*
X9390888Y5740654D01*
D12*
X9579688Y2969265D02*
G01*
X9579688Y3004317D01*
X9605088Y2985267D01*
X9605088Y2994665D01*
X9608390Y3001015D01*
X9611438Y3004317D01*
X9621090Y3007365D01*
X9627440Y3007365D01*
X9636838Y3004317D01*
X9643188Y2997967D01*
X9646490Y2988315D01*
X9646490Y2978917D01*
X9643188Y2969265D01*
X9640140Y2966217D01*
X9633790Y2962915D01*
X9579688Y3028447D02*
G01*
X9646490Y3053847D01*
X9579688Y3079247D02*
G01*
X9646490Y3053847D01*
X9579688Y3106679D02*
G01*
X9579688Y3141731D01*
X9605088Y3122681D01*
X9605088Y3132079D01*
X9608390Y3138429D01*
X9611438Y3141731D01*
X9621090Y3145033D01*
X9627440Y3145033D01*
X9636838Y3141731D01*
X9643188Y3135381D01*
X9646490Y3125729D01*
X9646490Y3116331D01*
X9643188Y3106679D01*
X9640140Y3103631D01*
X9633790Y3100329D01*
X9100390Y3010667D02*
G01*
X9093786Y3007365D01*
X9087436Y3001015D01*
X9084388Y2994665D01*
X9084388Y2981965D01*
X9087436Y2975615D01*
X9093786Y2969265D01*
X9100390Y2966217D01*
X9109788Y2962915D01*
X9125790Y2962915D01*
X9135188Y2966217D01*
X9141538Y2969265D01*
X9147888Y2975615D01*
X9151190Y2981965D01*
X9151190Y2994665D01*
X9147888Y3001015D01*
X9141538Y3007365D01*
X9135188Y3010667D01*
X9125790Y3010667D01*
X9125790Y2994665D02*
G01*
X9125790Y3010667D01*
X9084388Y3031749D02*
G01*
X9151190Y3031749D01*
X9084388Y3031749D02*
G01*
X9151190Y3076199D01*
X9084388Y3076199D02*
G01*
X9151190Y3076199D01*
X9084388Y3097281D02*
G01*
X9151190Y3097281D01*
X9084388Y3097281D02*
G01*
X9084388Y3119379D01*
X9087436Y3129031D01*
X9093786Y3135381D01*
X9100390Y3138429D01*
X9109788Y3141731D01*
X9125790Y3141731D01*
X9135188Y3138429D01*
X9141538Y3135381D01*
X9147888Y3129031D01*
X9151190Y3119379D01*
X9151190Y3097281D01*
X9335086Y3007365D02*
G01*
X9328736Y3001015D01*
X9325688Y2991617D01*
X9325688Y2978917D01*
X9328736Y2969265D01*
X9335086Y2962915D01*
X9341690Y2962915D01*
X9348040Y2966217D01*
X9351088Y2969265D01*
X9354390Y2975615D01*
X9360740Y2994665D01*
X9363788Y3001015D01*
X9367090Y3004317D01*
X9373440Y3007365D01*
X9382838Y3007365D01*
X9389188Y3001015D01*
X9392490Y2991617D01*
X9392490Y2978917D01*
X9389188Y2969265D01*
X9382838Y2962915D01*
X9325688Y3028447D02*
G01*
X9392490Y3044449D01*
X9325688Y3060197D02*
G01*
X9392490Y3044449D01*
X9325688Y3060197D02*
G01*
X9392490Y3076199D01*
X9325688Y3092201D02*
G01*
X9392490Y3076199D01*
X9325688Y3113029D02*
G01*
X9392490Y3113029D01*
X9325688Y3134111D02*
G01*
X9392490Y3134111D01*
X9325688Y3134111D02*
G01*
X9392490Y3159511D01*
X9325688Y3184911D02*
G01*
X9392490Y3159511D01*
X9325688Y3184911D02*
G01*
X9392490Y3184911D01*
X8830388Y2962915D02*
G01*
X8897190Y2962915D01*
X8830388Y2962915D02*
G01*
X8897190Y3007365D01*
X8830388Y3007365D02*
G01*
X8897190Y3007365D01*
X8830388Y3028447D02*
G01*
X8897190Y3028447D01*
X8830388Y3028447D02*
G01*
X8830388Y3057149D01*
X8833436Y3066547D01*
X8836738Y3069849D01*
X8843088Y3072897D01*
X8849438Y3072897D01*
X8855788Y3069849D01*
X8859090Y3066547D01*
X8862138Y3057149D01*
X8862138Y3028447D01*
X8862138Y3050799D02*
G01*
X8897190Y3072897D01*
X8839786Y3138429D02*
G01*
X8833436Y3132079D01*
X8830388Y3122681D01*
X8830388Y3109981D01*
X8833436Y3100329D01*
X8839786Y3093979D01*
X8846390Y3093979D01*
X8852740Y3097281D01*
X8855788Y3100329D01*
X8859090Y3106679D01*
X8865440Y3125729D01*
X8868488Y3132079D01*
X8871790Y3135381D01*
X8878140Y3138429D01*
X8887538Y3138429D01*
X8893888Y3132079D01*
X8897190Y3122681D01*
X8897190Y3109981D01*
X8893888Y3100329D01*
X8887538Y3093979D01*
X8830388Y3181863D02*
G01*
X8897190Y3181863D01*
X8830388Y3159511D02*
G01*
X8830388Y3204215D01*
X8608900Y2881127D02*
G01*
X8583500Y2814325D01*
X8608900Y2881127D02*
G01*
X8634300Y2814325D01*
X8593152Y2836677D02*
G01*
X8624902Y2836677D01*
X8661732Y2881127D02*
G01*
X8696784Y2881127D01*
X8677734Y2855727D01*
X8687132Y2855727D01*
X8693482Y2852425D01*
X8696784Y2849377D01*
X8699832Y2839725D01*
X8699832Y2833375D01*
X8696784Y2823977D01*
X8690434Y2817627D01*
X8680782Y2814325D01*
X8671384Y2814325D01*
X8661732Y2817627D01*
X8658684Y2820675D01*
X8655382Y2827025D01*
X8589850Y3135127D02*
G01*
X8624902Y3135127D01*
X8605852Y3109727D01*
X8615250Y3109727D01*
X8621600Y3106425D01*
X8624902Y3103377D01*
X8627950Y3093725D01*
X8627950Y3087375D01*
X8624902Y3077977D01*
X8618552Y3071627D01*
X8608900Y3068325D01*
X8599502Y3068325D01*
X8589850Y3071627D01*
X8586802Y3074675D01*
X8583500Y3081025D01*
X8649032Y3135127D02*
G01*
X8674432Y3068325D01*
X8699832Y3135127D02*
G01*
X8674432Y3068325D01*
X8727264Y3135127D02*
G01*
X8762316Y3135127D01*
X8743266Y3109727D01*
X8752664Y3109727D01*
X8759014Y3106425D01*
X8762316Y3103377D01*
X8765618Y3093725D01*
X8765618Y3087375D01*
X8762316Y3077977D01*
X8755966Y3071627D01*
X8746314Y3068325D01*
X8736916Y3068325D01*
X8727264Y3071627D01*
X8724216Y3074675D01*
X8720914Y3081025D01*
X8634300Y3389127D02*
G01*
X8602550Y3389127D01*
X8599502Y3360425D01*
X8602550Y3363727D01*
X8612202Y3366775D01*
X8621600Y3366775D01*
X8631252Y3363727D01*
X8637602Y3357377D01*
X8640650Y3347725D01*
X8640650Y3341375D01*
X8637602Y3331977D01*
X8631252Y3325627D01*
X8621600Y3322325D01*
X8612202Y3322325D01*
X8602550Y3325627D01*
X8599502Y3328675D01*
X8596200Y3335025D01*
X8661732Y3389127D02*
G01*
X8687132Y3322325D01*
X8712532Y3389127D02*
G01*
X8687132Y3322325D01*
X8631252Y3627125D02*
G01*
X8627950Y3633729D01*
X8621600Y3640079D01*
X8615250Y3643127D01*
X8602550Y3643127D01*
X8596200Y3640079D01*
X8589850Y3633729D01*
X8586802Y3627125D01*
X8583500Y3617727D01*
X8583500Y3601725D01*
X8586802Y3592327D01*
X8589850Y3585977D01*
X8596200Y3579627D01*
X8602550Y3576325D01*
X8615250Y3576325D01*
X8621600Y3579627D01*
X8627950Y3585977D01*
X8631252Y3592327D01*
X8631252Y3601725D01*
X8615250Y3601725D02*
G01*
X8631252Y3601725D01*
X8652334Y3643127D02*
G01*
X8652334Y3576325D01*
X8652334Y3643127D02*
G01*
X8696784Y3576325D01*
X8696784Y3643127D02*
G01*
X8696784Y3576325D01*
X8717866Y3643127D02*
G01*
X8717866Y3576325D01*
X8717866Y3643127D02*
G01*
X8739964Y3643127D01*
X8749616Y3640079D01*
X8755966Y3633729D01*
X8759014Y3627125D01*
X8762316Y3617727D01*
X8762316Y3601725D01*
X8759014Y3592327D01*
X8755966Y3585977D01*
X8749616Y3579627D01*
X8739964Y3576325D01*
X8717866Y3576325D01*
X8608900Y3897127D02*
G01*
X8583500Y3830325D01*
X8608900Y3897127D02*
G01*
X8634300Y3830325D01*
X8593152Y3852677D02*
G01*
X8624902Y3852677D01*
X8658684Y3881125D02*
G01*
X8658684Y3884427D01*
X8661732Y3890777D01*
X8665034Y3894079D01*
X8671384Y3897127D01*
X8684084Y3897127D01*
X8690434Y3894079D01*
X8693482Y3890777D01*
X8696784Y3884427D01*
X8696784Y3878077D01*
X8693482Y3871727D01*
X8687132Y3862075D01*
X8655382Y3830325D01*
X8699832Y3830325D01*
X8608900Y4151127D02*
G01*
X8583500Y4084325D01*
X8608900Y4151127D02*
G01*
X8634300Y4084325D01*
X8593152Y4106677D02*
G01*
X8624902Y4106677D01*
X8655382Y4138427D02*
G01*
X8661732Y4141729D01*
X8671384Y4151127D01*
X8671384Y4084325D01*
X8583500Y4405127D02*
G01*
X8583500Y4338325D01*
X8583500Y4405127D02*
G01*
X8612202Y4405127D01*
X8621600Y4402079D01*
X8624902Y4398777D01*
X8627950Y4392427D01*
X8627950Y4386077D01*
X8624902Y4379727D01*
X8621600Y4376425D01*
X8612202Y4373377D01*
X8583500Y4373377D01*
X8605852Y4373377D02*
G01*
X8627950Y4338325D01*
X8693482Y4395729D02*
G01*
X8687132Y4402079D01*
X8677734Y4405127D01*
X8665034Y4405127D01*
X8655382Y4402079D01*
X8649032Y4395729D01*
X8649032Y4389125D01*
X8652334Y4382775D01*
X8655382Y4379727D01*
X8661732Y4376425D01*
X8680782Y4370075D01*
X8687132Y4367027D01*
X8690434Y4363725D01*
X8693482Y4357375D01*
X8693482Y4347977D01*
X8687132Y4341627D01*
X8677734Y4338325D01*
X8665034Y4338325D01*
X8655382Y4341627D01*
X8649032Y4347977D01*
X8736916Y4405127D02*
G01*
X8736916Y4338325D01*
X8714564Y4405127D02*
G01*
X8759014Y4405127D01*
X8583500Y4659127D02*
G01*
X8583500Y4592325D01*
X8583500Y4659127D02*
G01*
X8605852Y4659127D01*
X8615250Y4656079D01*
X8621600Y4649729D01*
X8624902Y4643125D01*
X8627950Y4633727D01*
X8627950Y4617725D01*
X8624902Y4608327D01*
X8621600Y4601977D01*
X8615250Y4595627D01*
X8605852Y4592325D01*
X8583500Y4592325D01*
X8687132Y4649729D02*
G01*
X8684084Y4656079D01*
X8674432Y4659127D01*
X8668082Y4659127D01*
X8658684Y4656079D01*
X8652334Y4646427D01*
X8649032Y4630425D01*
X8649032Y4614677D01*
X8652334Y4601977D01*
X8658684Y4595627D01*
X8668082Y4592325D01*
X8671384Y4592325D01*
X8680782Y4595627D01*
X8687132Y4601977D01*
X8690434Y4611375D01*
X8690434Y4614677D01*
X8687132Y4624075D01*
X8680782Y4630425D01*
X8671384Y4633727D01*
X8668082Y4633727D01*
X8658684Y4630425D01*
X8652334Y4624075D01*
X8649032Y4614677D01*
X8583500Y4913127D02*
G01*
X8583500Y4846325D01*
X8583500Y4913127D02*
G01*
X8605852Y4913127D01*
X8615250Y4910079D01*
X8621600Y4903729D01*
X8624902Y4897125D01*
X8627950Y4887727D01*
X8627950Y4871725D01*
X8624902Y4862327D01*
X8621600Y4855977D01*
X8615250Y4849627D01*
X8605852Y4846325D01*
X8583500Y4846325D01*
X8687132Y4913127D02*
G01*
X8655382Y4913127D01*
X8652334Y4884425D01*
X8655382Y4887727D01*
X8665034Y4890775D01*
X8674432Y4890775D01*
X8684084Y4887727D01*
X8690434Y4881377D01*
X8693482Y4871725D01*
X8693482Y4865375D01*
X8690434Y4855977D01*
X8684084Y4849627D01*
X8674432Y4846325D01*
X8665034Y4846325D01*
X8655382Y4849627D01*
X8652334Y4852675D01*
X8649032Y4859025D01*
X8583500Y5167127D02*
G01*
X8583500Y5100325D01*
X8583500Y5167127D02*
G01*
X8605852Y5167127D01*
X8615250Y5164079D01*
X8621600Y5157729D01*
X8624902Y5151125D01*
X8627950Y5141727D01*
X8627950Y5125725D01*
X8624902Y5116327D01*
X8621600Y5109977D01*
X8615250Y5103627D01*
X8605852Y5100325D01*
X8583500Y5100325D01*
X8680782Y5167127D02*
G01*
X8649032Y5122677D01*
X8696784Y5122677D01*
X8680782Y5167127D02*
G01*
X8680782Y5100325D01*
X8583500Y5522727D02*
G01*
X8640650Y5522727D01*
X8758506Y5544825D02*
G01*
X8755204Y5551429D01*
X8748854Y5557779D01*
X8742504Y5560827D01*
X8729804Y5560827D01*
X8723454Y5557779D01*
X8717104Y5551429D01*
X8714056Y5544825D01*
X8710754Y5535427D01*
X8710754Y5519425D01*
X8714056Y5510027D01*
X8717104Y5503677D01*
X8723454Y5497327D01*
X8729804Y5494025D01*
X8742504Y5494025D01*
X8748854Y5497327D01*
X8755204Y5503677D01*
X8758506Y5510027D01*
X8758506Y5519425D01*
X8742504Y5519425D02*
G01*
X8758506Y5519425D01*
X8779588Y5560827D02*
G01*
X8779588Y5494025D01*
X8779588Y5560827D02*
G01*
X8824038Y5494025D01*
X8824038Y5560827D02*
G01*
X8824038Y5494025D01*
X8845120Y5560827D02*
G01*
X8845120Y5494025D01*
X8845120Y5560827D02*
G01*
X8867218Y5560827D01*
X8876870Y5557779D01*
X8883220Y5551429D01*
X8886522Y5544825D01*
X8889570Y5535427D01*
X8889570Y5519425D01*
X8886522Y5510027D01*
X8883220Y5503677D01*
X8876870Y5497327D01*
X8867218Y5494025D01*
X8845120Y5494025D01*
X9777300Y2881127D02*
G01*
X9777300Y2814325D01*
X9777300Y2881127D02*
G01*
X9806002Y2881127D01*
X9815400Y2878079D01*
X9818702Y2874777D01*
X9821750Y2868427D01*
X9821750Y2862077D01*
X9818702Y2855727D01*
X9815400Y2852425D01*
X9806002Y2849377D01*
X9777300Y2849377D02*
G01*
X9806002Y2849377D01*
X9815400Y2846075D01*
X9818702Y2843027D01*
X9821750Y2836677D01*
X9821750Y2827025D01*
X9818702Y2820675D01*
X9815400Y2817627D01*
X9806002Y2814325D01*
X9777300Y2814325D01*
X9880932Y2881127D02*
G01*
X9849182Y2881127D01*
X9846134Y2852425D01*
X9849182Y2855727D01*
X9858834Y2858775D01*
X9868232Y2858775D01*
X9877884Y2855727D01*
X9884234Y2849377D01*
X9887282Y2839725D01*
X9887282Y2833375D01*
X9884234Y2823977D01*
X9877884Y2817627D01*
X9868232Y2814325D01*
X9858834Y2814325D01*
X9849182Y2817627D01*
X9846134Y2820675D01*
X9842832Y2827025D01*
X9777300Y3135127D02*
G01*
X9777300Y3068325D01*
X9777300Y3135127D02*
G01*
X9806002Y3135127D01*
X9815400Y3132079D01*
X9818702Y3128777D01*
X9821750Y3122427D01*
X9821750Y3116077D01*
X9818702Y3109727D01*
X9815400Y3106425D01*
X9806002Y3103377D01*
X9777300Y3103377D02*
G01*
X9806002Y3103377D01*
X9815400Y3100075D01*
X9818702Y3097027D01*
X9821750Y3090677D01*
X9821750Y3081025D01*
X9818702Y3074675D01*
X9815400Y3071627D01*
X9806002Y3068325D01*
X9777300Y3068325D01*
X9874582Y3135127D02*
G01*
X9842832Y3090677D01*
X9890584Y3090677D01*
X9874582Y3135127D02*
G01*
X9874582Y3068325D01*
X9812352Y3373125D02*
G01*
X9809050Y3379729D01*
X9802700Y3386079D01*
X9796350Y3389127D01*
X9783650Y3389127D01*
X9777300Y3386079D01*
X9770950Y3379729D01*
X9767902Y3373125D01*
X9764600Y3363727D01*
X9764600Y3347725D01*
X9767902Y3338327D01*
X9770950Y3331977D01*
X9777300Y3325627D01*
X9783650Y3322325D01*
X9796350Y3322325D01*
X9802700Y3325627D01*
X9809050Y3331977D01*
X9812352Y3338327D01*
X9839784Y3389127D02*
G01*
X9874582Y3389127D01*
X9855532Y3363727D01*
X9865184Y3363727D01*
X9871534Y3360425D01*
X9874582Y3357377D01*
X9877884Y3347725D01*
X9877884Y3341375D01*
X9874582Y3331977D01*
X9868232Y3325627D01*
X9858834Y3322325D01*
X9849182Y3322325D01*
X9839784Y3325627D01*
X9836482Y3328675D01*
X9833434Y3335025D01*
X9812352Y3627125D02*
G01*
X9809050Y3633729D01*
X9802700Y3640079D01*
X9796350Y3643127D01*
X9783650Y3643127D01*
X9777300Y3640079D01*
X9770950Y3633729D01*
X9767902Y3627125D01*
X9764600Y3617727D01*
X9764600Y3601725D01*
X9767902Y3592327D01*
X9770950Y3585977D01*
X9777300Y3579627D01*
X9783650Y3576325D01*
X9796350Y3576325D01*
X9802700Y3579627D01*
X9809050Y3585977D01*
X9812352Y3592327D01*
X9865184Y3643127D02*
G01*
X9833434Y3598677D01*
X9880932Y3598677D01*
X9865184Y3643127D02*
G01*
X9865184Y3576325D01*
X9812352Y3881125D02*
G01*
X9809050Y3887729D01*
X9802700Y3894079D01*
X9796350Y3897127D01*
X9783650Y3897127D01*
X9777300Y3894079D01*
X9770950Y3887729D01*
X9767902Y3881125D01*
X9764600Y3871727D01*
X9764600Y3855725D01*
X9767902Y3846327D01*
X9770950Y3839977D01*
X9777300Y3833627D01*
X9783650Y3830325D01*
X9796350Y3830325D01*
X9802700Y3833627D01*
X9809050Y3839977D01*
X9812352Y3846327D01*
X9871534Y3897127D02*
G01*
X9839784Y3897127D01*
X9836482Y3868425D01*
X9839784Y3871727D01*
X9849182Y3874775D01*
X9858834Y3874775D01*
X9868232Y3871727D01*
X9874582Y3865377D01*
X9877884Y3855725D01*
X9877884Y3849375D01*
X9874582Y3839977D01*
X9868232Y3833627D01*
X9858834Y3830325D01*
X9849182Y3830325D01*
X9839784Y3833627D01*
X9836482Y3836675D01*
X9833434Y3843025D01*
X9812352Y4135125D02*
G01*
X9809050Y4141729D01*
X9802700Y4148079D01*
X9796350Y4151127D01*
X9783650Y4151127D01*
X9777300Y4148079D01*
X9770950Y4141729D01*
X9767902Y4135125D01*
X9764600Y4125727D01*
X9764600Y4109725D01*
X9767902Y4100327D01*
X9770950Y4093977D01*
X9777300Y4087627D01*
X9783650Y4084325D01*
X9796350Y4084325D01*
X9802700Y4087627D01*
X9809050Y4093977D01*
X9812352Y4100327D01*
X9871534Y4141729D02*
G01*
X9868232Y4148079D01*
X9858834Y4151127D01*
X9852484Y4151127D01*
X9842832Y4148079D01*
X9836482Y4138427D01*
X9833434Y4122425D01*
X9833434Y4106677D01*
X9836482Y4093977D01*
X9842832Y4087627D01*
X9852484Y4084325D01*
X9855532Y4084325D01*
X9865184Y4087627D01*
X9871534Y4093977D01*
X9874582Y4103375D01*
X9874582Y4106677D01*
X9871534Y4116075D01*
X9865184Y4122425D01*
X9855532Y4125727D01*
X9852484Y4125727D01*
X9842832Y4122425D01*
X9836482Y4116075D01*
X9833434Y4106677D01*
X9812352Y4389125D02*
G01*
X9809050Y4395729D01*
X9802700Y4402079D01*
X9796350Y4405127D01*
X9783650Y4405127D01*
X9777300Y4402079D01*
X9770950Y4395729D01*
X9767902Y4389125D01*
X9764600Y4379727D01*
X9764600Y4363725D01*
X9767902Y4354327D01*
X9770950Y4347977D01*
X9777300Y4341627D01*
X9783650Y4338325D01*
X9796350Y4338325D01*
X9802700Y4341627D01*
X9809050Y4347977D01*
X9812352Y4354327D01*
X9877884Y4405127D02*
G01*
X9846134Y4338325D01*
X9833434Y4405127D02*
G01*
X9877884Y4405127D01*
X9790000Y4659127D02*
G01*
X9790000Y4592325D01*
X9790000Y4659127D02*
G01*
X9812352Y4659127D01*
X9821750Y4656079D01*
X9828100Y4649729D01*
X9831402Y4643125D01*
X9834450Y4633727D01*
X9834450Y4617725D01*
X9831402Y4608327D01*
X9828100Y4601977D01*
X9821750Y4595627D01*
X9812352Y4592325D01*
X9790000Y4592325D01*
X9855532Y4646427D02*
G01*
X9861882Y4649729D01*
X9871534Y4659127D01*
X9871534Y4592325D01*
X9777300Y4913127D02*
G01*
X9777300Y4846325D01*
X9777300Y4913127D02*
G01*
X9799652Y4913127D01*
X9809050Y4910079D01*
X9815400Y4903729D01*
X9818702Y4897125D01*
X9821750Y4887727D01*
X9821750Y4871725D01*
X9818702Y4862327D01*
X9815400Y4855977D01*
X9809050Y4849627D01*
X9799652Y4846325D01*
X9777300Y4846325D01*
X9846134Y4897125D02*
G01*
X9846134Y4900427D01*
X9849182Y4906777D01*
X9852484Y4910079D01*
X9858834Y4913127D01*
X9871534Y4913127D01*
X9877884Y4910079D01*
X9880932Y4906777D01*
X9884234Y4900427D01*
X9884234Y4894077D01*
X9880932Y4887727D01*
X9874582Y4878075D01*
X9842832Y4846325D01*
X9887282Y4846325D01*
X9764600Y5167127D02*
G01*
X9764600Y5100325D01*
X9764600Y5167127D02*
G01*
X9786952Y5167127D01*
X9796350Y5164079D01*
X9802700Y5157729D01*
X9806002Y5151125D01*
X9809050Y5141727D01*
X9809050Y5125725D01*
X9806002Y5116327D01*
X9802700Y5109977D01*
X9796350Y5103627D01*
X9786952Y5100325D01*
X9764600Y5100325D01*
X9836482Y5167127D02*
G01*
X9871534Y5167127D01*
X9852484Y5141727D01*
X9861882Y5141727D01*
X9868232Y5138425D01*
X9871534Y5135377D01*
X9874582Y5125725D01*
X9874582Y5119375D01*
X9871534Y5109977D01*
X9865184Y5103627D01*
X9855532Y5100325D01*
X9846134Y5100325D01*
X9836482Y5103627D01*
X9833434Y5106675D01*
X9830132Y5113025D01*
X9675700Y5560827D02*
G01*
X9643950Y5560827D01*
X9640902Y5532125D01*
X9643950Y5535427D01*
X9653602Y5538475D01*
X9663000Y5538475D01*
X9672652Y5535427D01*
X9679002Y5529077D01*
X9682050Y5519425D01*
X9682050Y5513075D01*
X9679002Y5503677D01*
X9672652Y5497327D01*
X9663000Y5494025D01*
X9653602Y5494025D01*
X9643950Y5497327D01*
X9640902Y5500375D01*
X9637600Y5506725D01*
X9703132Y5560827D02*
G01*
X9728532Y5494025D01*
X9753932Y5560827D02*
G01*
X9728532Y5494025D01*
X9852738Y5551429D02*
G01*
X9852738Y5494025D01*
X9824036Y5522727D02*
G01*
X9881440Y5522727D01*
D11*
X7807197Y5376926D02*
G01*
X7807197Y5267960D01*
X7770622Y5376926D02*
G01*
X7843520Y5376926D01*
X7877809Y5376926D02*
G01*
X7877809Y5267960D01*
X7877809Y5376926D02*
G01*
X7919211Y5267960D01*
X7960868Y5376926D02*
G01*
X7919211Y5267960D01*
X7960868Y5376926D02*
G01*
X7960868Y5267960D01*
X8000238Y5351018D02*
G01*
X8000238Y5356097D01*
X8005572Y5366512D01*
X8010652Y5371845D01*
X8021065Y5376926D01*
X8041893Y5376926D01*
X8052308Y5371845D01*
X8057388Y5366512D01*
X8062722Y5356097D01*
X8062722Y5345684D01*
X8057388Y5335270D01*
X8047227Y5319776D01*
X7995158Y5267960D01*
X8067802Y5267960D01*
X9786899Y1946391D02*
G01*
X9791979Y1935977D01*
X9802393Y1925563D01*
X9812807Y1920483D01*
X9828555Y1915149D01*
X9854463Y1915149D01*
X9869957Y1920483D01*
X9880371Y1925563D01*
X9890785Y1935977D01*
X9895865Y1946391D01*
X9895865Y1967219D01*
X9890785Y1977633D01*
X9880371Y1987793D01*
X9869957Y1993127D01*
X9854463Y1998207D01*
X9828555Y1998207D01*
X9812807Y1993127D01*
X9802393Y1987793D01*
X9791979Y1977633D01*
X9786899Y1967219D01*
X9786899Y1946391D01*
X9875291Y1961885D02*
G01*
X9906279Y1993127D01*
X9786899Y2058659D02*
G01*
X9791979Y2042911D01*
X9802393Y2037831D01*
X9812807Y2037831D01*
X9823221Y2042911D01*
X9828555Y2053325D01*
X9833635Y2074153D01*
X9838715Y2089647D01*
X9849129Y2100061D01*
X9859543Y2105395D01*
X9875291Y2105395D01*
X9885705Y2100061D01*
X9890785Y2094981D01*
X9895865Y2079233D01*
X9895865Y2058659D01*
X9890785Y2042911D01*
X9885705Y2037831D01*
X9875291Y2032497D01*
X9859543Y2032497D01*
X9849129Y2037831D01*
X9838715Y2048245D01*
X9833635Y2063739D01*
X9828555Y2084567D01*
X9823221Y2094981D01*
X9812807Y2100061D01*
X9802393Y2100061D01*
X9791979Y2094981D01*
X9786899Y2079233D01*
X9786899Y2058659D01*
X8707399Y1946391D02*
G01*
X8712479Y1935977D01*
X8722893Y1925563D01*
X8733307Y1920483D01*
X8749055Y1915149D01*
X8774963Y1915149D01*
X8790457Y1920483D01*
X8800871Y1925563D01*
X8811285Y1935977D01*
X8816365Y1946391D01*
X8816365Y1967219D01*
X8811285Y1977633D01*
X8800871Y1987793D01*
X8790457Y1993127D01*
X8774963Y1998207D01*
X8749055Y1998207D01*
X8733307Y1993127D01*
X8722893Y1987793D01*
X8712479Y1977633D01*
X8707399Y1967219D01*
X8707399Y1946391D01*
X8795791Y1961885D02*
G01*
X8826779Y1993127D01*
X8743721Y2100061D02*
G01*
X8759215Y2094981D01*
X8769629Y2084567D01*
X8774963Y2069073D01*
X8774963Y2063739D01*
X8769629Y2048245D01*
X8759215Y2037831D01*
X8743721Y2032497D01*
X8738641Y2032497D01*
X8722893Y2037831D01*
X8712479Y2048245D01*
X8707399Y2063739D01*
X8707399Y2069073D01*
X8712479Y2084567D01*
X8722893Y2094981D01*
X8743721Y2100061D01*
X8769629Y2100061D01*
X8795791Y2094981D01*
X8811285Y2084567D01*
X8816365Y2069073D01*
X8816365Y2058659D01*
X8811285Y2042911D01*
X8800871Y2037831D01*
X7627896Y1946389D02*
G01*
X7632976Y1935975D01*
X7643390Y1925561D01*
X7653804Y1920481D01*
X7669552Y1915147D01*
X7695460Y1915147D01*
X7710954Y1920481D01*
X7721368Y1925561D01*
X7731782Y1935975D01*
X7736862Y1946389D01*
X7736862Y1967217D01*
X7731782Y1977631D01*
X7721368Y1987791D01*
X7710954Y1993125D01*
X7695460Y1998205D01*
X7669552Y1998205D01*
X7653804Y1993125D01*
X7643390Y1987791D01*
X7632976Y1977631D01*
X7627896Y1967217D01*
X7627896Y1946389D01*
X7716288Y1961883D02*
G01*
X7747276Y1993125D01*
X7648724Y2032495D02*
G01*
X7643390Y2042909D01*
X7627896Y2058657D01*
X7736862Y2058657D01*
X7627896Y2123935D02*
G01*
X7632976Y2108441D01*
X7648724Y2098027D01*
X7674632Y2092947D01*
X7690126Y2092947D01*
X7716288Y2098027D01*
X7731782Y2108441D01*
X7736862Y2123935D01*
X7736862Y2134349D01*
X7731782Y2150097D01*
X7716288Y2160511D01*
X7690126Y2165591D01*
X7674632Y2165591D01*
X7648724Y2160511D01*
X7632976Y2150097D01*
X7627896Y2134349D01*
X7627896Y2123935D01*
X11166383Y2187219D02*
G01*
X11176797Y2192299D01*
X11187211Y2202713D01*
X11192291Y2213127D01*
X11197625Y2228621D01*
X11197625Y2254783D01*
X11192291Y2270277D01*
X11187211Y2280691D01*
X11176797Y2291105D01*
X11166383Y2296185D01*
X11145555Y2296185D01*
X11135141Y2291105D01*
X11124981Y2280691D01*
X11119647Y2270277D01*
X11114567Y2254783D01*
X11114567Y2228621D01*
X11119647Y2213127D01*
X11124981Y2202713D01*
X11135141Y2192299D01*
X11145555Y2187219D01*
X11166383Y2187219D01*
X11150889Y2275611D02*
G01*
X11119647Y2306599D01*
X11080277Y2208047D02*
G01*
X11069863Y2202713D01*
X11054115Y2187219D01*
X11054115Y2296185D01*
X11019825Y2208047D02*
G01*
X11009411Y2202713D01*
X10993917Y2187219D01*
X10993917Y2296185D01*
X11166383Y3334334D02*
G01*
X11176797Y3339668D01*
X11187211Y3350082D01*
X11192291Y3360496D01*
X11197625Y3375990D01*
X11197625Y3401898D01*
X11192291Y3417646D01*
X11187211Y3427806D01*
X11176797Y3438220D01*
X11166383Y3443554D01*
X11145555Y3443554D01*
X11135141Y3438220D01*
X11124981Y3427806D01*
X11119647Y3417646D01*
X11114567Y3401898D01*
X11114567Y3375990D01*
X11119647Y3360496D01*
X11124981Y3350082D01*
X11135141Y3339668D01*
X11145555Y3334334D01*
X11166383Y3334334D01*
X11150889Y3422726D02*
G01*
X11119647Y3453968D01*
X11080277Y3355162D02*
G01*
X11069863Y3350082D01*
X11054115Y3334334D01*
X11054115Y3443554D01*
X11014745Y3360496D02*
G01*
X11014745Y3355162D01*
X11009411Y3344748D01*
X11004331Y3339668D01*
X10993917Y3334334D01*
X10973089Y3334334D01*
X10962675Y3339668D01*
X10957595Y3344748D01*
X10952261Y3355162D01*
X10952261Y3365576D01*
X10957595Y3375990D01*
X10968009Y3391484D01*
X11019825Y3443554D01*
X10947181Y3443554D01*
X11166383Y4481753D02*
G01*
X11176797Y4486833D01*
X11187211Y4497247D01*
X11192291Y4507661D01*
X11197625Y4523155D01*
X11197625Y4549063D01*
X11192291Y4564811D01*
X11187211Y4575225D01*
X11176797Y4585639D01*
X11166383Y4590719D01*
X11145555Y4590719D01*
X11135141Y4585639D01*
X11124981Y4575225D01*
X11119647Y4564811D01*
X11114567Y4549063D01*
X11114567Y4523155D01*
X11119647Y4507661D01*
X11124981Y4497247D01*
X11135141Y4486833D01*
X11145555Y4481753D01*
X11166383Y4481753D01*
X11150889Y4569891D02*
G01*
X11119647Y4601133D01*
X11080277Y4502327D02*
G01*
X11069863Y4497247D01*
X11054115Y4481753D01*
X11054115Y4590719D01*
X11009411Y4481753D02*
G01*
X10952261Y4481753D01*
X10983503Y4523155D01*
X10968009Y4523155D01*
X10957595Y4528489D01*
X10952261Y4533569D01*
X10947181Y4549063D01*
X10947181Y4559477D01*
X10952261Y4575225D01*
X10962675Y4585639D01*
X10978423Y4590719D01*
X10993917Y4590719D01*
X11009411Y4585639D01*
X11014745Y4580305D01*
X11019825Y4569891D01*
X11166383Y5628919D02*
G01*
X11176797Y5633999D01*
X11187211Y5644413D01*
X11192291Y5654827D01*
X11197625Y5670321D01*
X11197625Y5696483D01*
X11192291Y5711977D01*
X11187211Y5722391D01*
X11176797Y5732805D01*
X11166383Y5737885D01*
X11145555Y5737885D01*
X11135141Y5732805D01*
X11124981Y5722391D01*
X11119647Y5711977D01*
X11114567Y5696483D01*
X11114567Y5670321D01*
X11119647Y5654827D01*
X11124981Y5644413D01*
X11135141Y5633999D01*
X11145555Y5628919D01*
X11166383Y5628919D01*
X11150889Y5717311D02*
G01*
X11119647Y5748299D01*
X11080277Y5649747D02*
G01*
X11069863Y5644413D01*
X11054115Y5628919D01*
X11054115Y5737885D01*
X10968009Y5628919D02*
G01*
X11019825Y5701563D01*
X10942101Y5701563D01*
X10968009Y5628919D02*
G01*
X10968009Y5737885D01*
X7388748Y5159979D02*
G01*
X7466726Y5159979D01*
X7482220Y5165313D01*
X7492634Y5175727D01*
X7497714Y5191221D01*
X7497714Y5201635D01*
X7492634Y5217129D01*
X7482220Y5227543D01*
X7466726Y5232877D01*
X7388748Y5232877D01*
X7414656Y5272247D02*
G01*
X7409576Y5272247D01*
X7399162Y5277581D01*
X7393828Y5282661D01*
X7388748Y5293075D01*
X7388748Y5313903D01*
X7393828Y5324317D01*
X7399162Y5329397D01*
X7409576Y5334731D01*
X7419736Y5334731D01*
X7430150Y5329397D01*
X7445898Y5318983D01*
X7497714Y5267167D01*
X7497714Y5339811D01*
X7388748Y5405343D02*
G01*
X7393828Y5389595D01*
X7409576Y5379435D01*
X7435484Y5374101D01*
X7450978Y5374101D01*
X7476886Y5379435D01*
X7492634Y5389595D01*
X7497714Y5405343D01*
X7497714Y5415757D01*
X7492634Y5431251D01*
X7476886Y5441665D01*
X7450978Y5446745D01*
X7435484Y5446745D01*
X7409576Y5441665D01*
X7393828Y5431251D01*
X7388748Y5415757D01*
X7388748Y5405343D01*
X864684Y5099113D02*
G01*
X942662Y5099113D01*
X958156Y5104193D01*
X968570Y5114607D01*
X973650Y5130355D01*
X973650Y5140769D01*
X968570Y5156263D01*
X958156Y5166677D01*
X942662Y5171757D01*
X864684Y5171757D01*
X864684Y5216461D02*
G01*
X864684Y5273611D01*
X906340Y5242623D01*
X906340Y5258117D01*
X911420Y5268531D01*
X916500Y5273611D01*
X932248Y5278945D01*
X942662Y5278945D01*
X958156Y5273611D01*
X968570Y5263197D01*
X973650Y5247703D01*
X973650Y5232209D01*
X968570Y5216461D01*
X963490Y5211381D01*
X953076Y5206047D01*
X4642358Y5567934D02*
G01*
X4652772Y5573013D01*
X4663186Y5583428D01*
X4668520Y5593842D01*
X4673600Y5609589D01*
X4673600Y5635497D01*
X4668520Y5650992D01*
X4663186Y5661405D01*
X4652772Y5671820D01*
X4642358Y5676900D01*
X4621529Y5676900D01*
X4611370Y5671820D01*
X4600956Y5661405D01*
X4595622Y5650992D01*
X4590541Y5635497D01*
X4590541Y5609589D01*
X4595622Y5593842D01*
X4600956Y5583428D01*
X4611370Y5573013D01*
X4621529Y5567934D01*
X4642358Y5567934D01*
X4626863Y5656326D02*
G01*
X4595622Y5687313D01*
X4556252Y5588762D02*
G01*
X4545838Y5583428D01*
X4530090Y5567934D01*
X4530090Y5676900D01*
X4642358Y4420699D02*
G01*
X4652772Y4425779D01*
X4663186Y4436193D01*
X4668520Y4446607D01*
X4673600Y4462355D01*
X4673600Y4488263D01*
X4668520Y4503757D01*
X4663186Y4514171D01*
X4652772Y4524585D01*
X4642358Y4529665D01*
X4621529Y4529665D01*
X4611370Y4524585D01*
X4600956Y4514171D01*
X4595622Y4503757D01*
X4590541Y4488263D01*
X4590541Y4462355D01*
X4595622Y4446607D01*
X4600956Y4436193D01*
X4611370Y4425779D01*
X4621529Y4420699D01*
X4642358Y4420699D01*
X4626863Y4509091D02*
G01*
X4595622Y4540079D01*
X4550918Y4446607D02*
G01*
X4550918Y4441527D01*
X4545838Y4431113D01*
X4540504Y4425779D01*
X4530090Y4420699D01*
X4509515Y4420699D01*
X4499102Y4425779D01*
X4493768Y4431113D01*
X4488688Y4441527D01*
X4488688Y4451941D01*
X4493768Y4462355D01*
X4504181Y4477849D01*
X4556252Y4529665D01*
X4483354Y4529665D01*
X4642358Y3273468D02*
G01*
X4652772Y3278548D01*
X4663186Y3288962D01*
X4668520Y3299376D01*
X4673600Y3315124D01*
X4673600Y3341032D01*
X4668520Y3356526D01*
X4663186Y3366940D01*
X4652772Y3377354D01*
X4642358Y3382434D01*
X4621529Y3382434D01*
X4611370Y3377354D01*
X4600956Y3366940D01*
X4595622Y3356526D01*
X4590541Y3341032D01*
X4590541Y3315124D01*
X4595622Y3299376D01*
X4600956Y3288962D01*
X4611370Y3278548D01*
X4621529Y3273468D01*
X4642358Y3273468D01*
X4626863Y3361860D02*
G01*
X4595622Y3392848D01*
X4545838Y3273468D02*
G01*
X4488688Y3273468D01*
X4519929Y3315124D01*
X4504181Y3315124D01*
X4493768Y3320204D01*
X4488688Y3325284D01*
X4483354Y3341032D01*
X4483354Y3351446D01*
X4488688Y3366940D01*
X4499102Y3377354D01*
X4514595Y3382434D01*
X4530090Y3382434D01*
X4545838Y3377354D01*
X4550918Y3372274D01*
X4556252Y3361860D01*
X4642358Y2126234D02*
G01*
X4652772Y2131313D01*
X4663186Y2141728D01*
X4668520Y2152142D01*
X4673600Y2167889D01*
X4673600Y2193797D01*
X4668520Y2209292D01*
X4663186Y2219705D01*
X4652772Y2230120D01*
X4642358Y2235200D01*
X4621529Y2235200D01*
X4611370Y2230120D01*
X4600956Y2219705D01*
X4595622Y2209292D01*
X4590541Y2193797D01*
X4590541Y2167889D01*
X4595622Y2152142D01*
X4600956Y2141728D01*
X4611370Y2131313D01*
X4621529Y2126234D01*
X4642358Y2126234D01*
X4626863Y2214626D02*
G01*
X4595622Y2245613D01*
X4504181Y2126234D02*
G01*
X4556252Y2198878D01*
X4478274Y2198878D01*
X4504181Y2126234D02*
G01*
X4504181Y2235200D01*
X1103884Y1885442D02*
G01*
X1108963Y1875028D01*
X1119378Y1864613D01*
X1129792Y1859279D01*
X1145539Y1854200D01*
X1171447Y1854200D01*
X1186942Y1859279D01*
X1197355Y1864613D01*
X1207770Y1875028D01*
X1212850Y1885442D01*
X1212850Y1906270D01*
X1207770Y1916429D01*
X1197355Y1926844D01*
X1186942Y1932178D01*
X1171447Y1937257D01*
X1145539Y1937257D01*
X1129792Y1932178D01*
X1119378Y1926844D01*
X1108963Y1916429D01*
X1103884Y1906270D01*
X1103884Y1885442D01*
X1192276Y1900936D02*
G01*
X1223263Y1932178D01*
X1103884Y2034031D02*
G01*
X1103884Y1981962D01*
X1150620Y1976881D01*
X1145539Y1981962D01*
X1140205Y1997710D01*
X1140205Y2013204D01*
X1145539Y2028697D01*
X1155700Y2039112D01*
X1171447Y2044445D01*
X1181862Y2044445D01*
X1197355Y2039112D01*
X1207770Y2028697D01*
X1212850Y2013204D01*
X1212850Y1997710D01*
X1207770Y1981962D01*
X1202689Y1976881D01*
X1192276Y1971547D01*
X2183384Y1885442D02*
G01*
X2188463Y1875028D01*
X2198877Y1864613D01*
X2209291Y1859279D01*
X2225040Y1854200D01*
X2250947Y1854200D01*
X2266441Y1859279D01*
X2276856Y1864613D01*
X2287270Y1875028D01*
X2292350Y1885442D01*
X2292350Y1906270D01*
X2287270Y1916429D01*
X2276856Y1926844D01*
X2266441Y1932178D01*
X2250947Y1937257D01*
X2225040Y1937257D01*
X2209291Y1932178D01*
X2198877Y1926844D01*
X2188463Y1916429D01*
X2183384Y1906270D01*
X2183384Y1885442D01*
X2271775Y1900936D02*
G01*
X2302763Y1932178D01*
X2198877Y2034031D02*
G01*
X2188463Y2028697D01*
X2183384Y2013204D01*
X2183384Y2002789D01*
X2188463Y1987295D01*
X2204211Y1976881D01*
X2230120Y1971547D01*
X2256027Y1971547D01*
X2276856Y1976881D01*
X2287270Y1987295D01*
X2292350Y2002789D01*
X2292350Y2007870D01*
X2287270Y2023618D01*
X2276856Y2034031D01*
X2261361Y2039112D01*
X2256027Y2039112D01*
X2240534Y2034031D01*
X2230120Y2023618D01*
X2225040Y2007870D01*
X2225040Y2002789D01*
X2230120Y1987295D01*
X2240534Y1976881D01*
X2256027Y1971547D01*
X3262884Y1885442D02*
G01*
X3267963Y1875028D01*
X3278377Y1864613D01*
X3288791Y1859279D01*
X3304540Y1854200D01*
X3330447Y1854200D01*
X3345941Y1859279D01*
X3356356Y1864613D01*
X3366770Y1875028D01*
X3371850Y1885442D01*
X3371850Y1906270D01*
X3366770Y1916429D01*
X3356356Y1926844D01*
X3345941Y1932178D01*
X3330447Y1937257D01*
X3304540Y1937257D01*
X3288791Y1932178D01*
X3278377Y1926844D01*
X3267963Y1916429D01*
X3262884Y1906270D01*
X3262884Y1885442D01*
X3351275Y1900936D02*
G01*
X3382263Y1932178D01*
X3262884Y2044445D02*
G01*
X3371850Y1992376D01*
X3262884Y1971547D02*
G01*
X3262884Y2044445D01*
X1283022Y5315965D02*
G01*
X1283022Y5207000D01*
X1246700Y5315965D02*
G01*
X1319344Y5315965D01*
X1353634Y5315965D02*
G01*
X1353634Y5207000D01*
X1353634Y5315965D02*
G01*
X1395290Y5207000D01*
X1436946Y5315965D02*
G01*
X1395290Y5207000D01*
X1436946Y5315965D02*
G01*
X1436946Y5207000D01*
X1471236Y5295137D02*
G01*
X1481650Y5300471D01*
X1497144Y5315965D01*
X1497144Y5207000D01*
X2694500Y5773165D02*
G01*
X2694500Y5695187D01*
X2699580Y5679694D01*
X2709994Y5669279D01*
X2725742Y5664200D01*
X2736156Y5664200D01*
X2751650Y5669279D01*
X2762064Y5679694D01*
X2767144Y5695187D01*
X2767144Y5773165D01*
X2801434Y5752337D02*
G01*
X2811848Y5757671D01*
X2827596Y5773165D01*
X2827596Y5664200D01*
D12*
X3055688Y2908300D02*
G01*
X3055688Y2943352D01*
X3081088Y2924302D01*
X3081088Y2933700D01*
X3084390Y2940050D01*
X3087438Y2943352D01*
X3097090Y2946400D01*
X3103440Y2946400D01*
X3112838Y2943352D01*
X3119188Y2937002D01*
X3122490Y2927350D01*
X3122490Y2917952D01*
X3119188Y2908300D01*
X3116140Y2905252D01*
X3109790Y2901950D01*
X3055688Y2967481D02*
G01*
X3122490Y2992881D01*
X3055688Y3018281D02*
G01*
X3122490Y2992881D01*
X3055688Y3045713D02*
G01*
X3055688Y3080765D01*
X3081088Y3061715D01*
X3081088Y3071113D01*
X3084390Y3077463D01*
X3087438Y3080765D01*
X3097090Y3084068D01*
X3103440Y3084068D01*
X3112838Y3080765D01*
X3119188Y3074415D01*
X3122490Y3064763D01*
X3122490Y3055365D01*
X3119188Y3045713D01*
X3116140Y3042665D01*
X3109790Y3039363D01*
X2576390Y2949702D02*
G01*
X2569786Y2946400D01*
X2563436Y2940050D01*
X2560388Y2933700D01*
X2560388Y2921000D01*
X2563436Y2914650D01*
X2569786Y2908300D01*
X2576390Y2905252D01*
X2585788Y2901950D01*
X2601790Y2901950D01*
X2611188Y2905252D01*
X2617538Y2908300D01*
X2623888Y2914650D01*
X2627190Y2921000D01*
X2627190Y2933700D01*
X2623888Y2940050D01*
X2617538Y2946400D01*
X2611188Y2949702D01*
X2601790Y2949702D01*
X2601790Y2933700D02*
G01*
X2601790Y2949702D01*
X2560388Y2970784D02*
G01*
X2627190Y2970784D01*
X2560388Y2970784D02*
G01*
X2627190Y3015234D01*
X2560388Y3015234D02*
G01*
X2627190Y3015234D01*
X2560388Y3036315D02*
G01*
X2627190Y3036315D01*
X2560388Y3036315D02*
G01*
X2560388Y3058413D01*
X2563436Y3068065D01*
X2569786Y3074415D01*
X2576390Y3077463D01*
X2585788Y3080765D01*
X2601790Y3080765D01*
X2611188Y3077463D01*
X2617538Y3074415D01*
X2623888Y3068065D01*
X2627190Y3058413D01*
X2627190Y3036315D01*
X2811086Y2946400D02*
G01*
X2804736Y2940050D01*
X2801688Y2930652D01*
X2801688Y2917952D01*
X2804736Y2908300D01*
X2811086Y2901950D01*
X2817690Y2901950D01*
X2824040Y2905252D01*
X2827088Y2908300D01*
X2830390Y2914650D01*
X2836740Y2933700D01*
X2839788Y2940050D01*
X2843090Y2943352D01*
X2849440Y2946400D01*
X2858838Y2946400D01*
X2865188Y2940050D01*
X2868490Y2930652D01*
X2868490Y2917952D01*
X2865188Y2908300D01*
X2858838Y2901950D01*
X2801688Y2967481D02*
G01*
X2868490Y2983484D01*
X2801688Y2999231D02*
G01*
X2868490Y2983484D01*
X2801688Y2999231D02*
G01*
X2868490Y3015234D01*
X2801688Y3031236D02*
G01*
X2868490Y3015234D01*
X2801688Y3052063D02*
G01*
X2868490Y3052063D01*
X2801688Y3073145D02*
G01*
X2868490Y3073145D01*
X2801688Y3073145D02*
G01*
X2868490Y3098545D01*
X2801688Y3123945D02*
G01*
X2868490Y3098545D01*
X2801688Y3123945D02*
G01*
X2868490Y3123945D01*
X2306388Y2901950D02*
G01*
X2373190Y2901950D01*
X2306388Y2901950D02*
G01*
X2373190Y2946400D01*
X2306388Y2946400D02*
G01*
X2373190Y2946400D01*
X2306388Y2967481D02*
G01*
X2373190Y2967481D01*
X2306388Y2967481D02*
G01*
X2306388Y2996184D01*
X2309436Y3005581D01*
X2312738Y3008884D01*
X2319088Y3011931D01*
X2325438Y3011931D01*
X2331788Y3008884D01*
X2335090Y3005581D01*
X2338138Y2996184D01*
X2338138Y2967481D01*
X2338138Y2989834D02*
G01*
X2373190Y3011931D01*
X2315786Y3077463D02*
G01*
X2309436Y3071113D01*
X2306388Y3061715D01*
X2306388Y3049015D01*
X2309436Y3039363D01*
X2315786Y3033013D01*
X2322390Y3033013D01*
X2328740Y3036315D01*
X2331788Y3039363D01*
X2335090Y3045713D01*
X2341440Y3064763D01*
X2344488Y3071113D01*
X2347790Y3074415D01*
X2354140Y3077463D01*
X2363538Y3077463D01*
X2369888Y3071113D01*
X2373190Y3061715D01*
X2373190Y3049015D01*
X2369888Y3039363D01*
X2363538Y3033013D01*
X2306388Y3120897D02*
G01*
X2373190Y3120897D01*
X2306388Y3098545D02*
G01*
X2306388Y3143250D01*
X2084900Y2820162D02*
G01*
X2059500Y2753360D01*
X2084900Y2820162D02*
G01*
X2110300Y2753360D01*
X2069152Y2775712D02*
G01*
X2100902Y2775712D01*
X2137732Y2820162D02*
G01*
X2172784Y2820162D01*
X2153734Y2794762D01*
X2163132Y2794762D01*
X2169482Y2791460D01*
X2172784Y2788412D01*
X2175832Y2778760D01*
X2175832Y2772410D01*
X2172784Y2763012D01*
X2166434Y2756662D01*
X2156782Y2753360D01*
X2147384Y2753360D01*
X2137732Y2756662D01*
X2134684Y2759710D01*
X2131382Y2766060D01*
X2065850Y3074162D02*
G01*
X2100902Y3074162D01*
X2081852Y3048762D01*
X2091250Y3048762D01*
X2097600Y3045460D01*
X2100902Y3042412D01*
X2103950Y3032760D01*
X2103950Y3026410D01*
X2100902Y3017012D01*
X2094552Y3010662D01*
X2084900Y3007360D01*
X2075502Y3007360D01*
X2065850Y3010662D01*
X2062802Y3013710D01*
X2059500Y3020060D01*
X2125032Y3074162D02*
G01*
X2150432Y3007360D01*
X2175832Y3074162D02*
G01*
X2150432Y3007360D01*
X2203264Y3074162D02*
G01*
X2238316Y3074162D01*
X2219266Y3048762D01*
X2228664Y3048762D01*
X2235014Y3045460D01*
X2238316Y3042412D01*
X2241618Y3032760D01*
X2241618Y3026410D01*
X2238316Y3017012D01*
X2231966Y3010662D01*
X2222314Y3007360D01*
X2212916Y3007360D01*
X2203264Y3010662D01*
X2200216Y3013710D01*
X2196914Y3020060D01*
X2110300Y3328162D02*
G01*
X2078550Y3328162D01*
X2075502Y3299460D01*
X2078550Y3302762D01*
X2088202Y3305810D01*
X2097600Y3305810D01*
X2107252Y3302762D01*
X2113602Y3296412D01*
X2116650Y3286760D01*
X2116650Y3280410D01*
X2113602Y3271012D01*
X2107252Y3264662D01*
X2097600Y3261360D01*
X2088202Y3261360D01*
X2078550Y3264662D01*
X2075502Y3267710D01*
X2072200Y3274060D01*
X2137732Y3328162D02*
G01*
X2163132Y3261360D01*
X2188532Y3328162D02*
G01*
X2163132Y3261360D01*
X2107252Y3566160D02*
G01*
X2103950Y3572763D01*
X2097600Y3579113D01*
X2091250Y3582162D01*
X2078550Y3582162D01*
X2072200Y3579113D01*
X2065850Y3572763D01*
X2062802Y3566160D01*
X2059500Y3556762D01*
X2059500Y3540760D01*
X2062802Y3531362D01*
X2065850Y3525012D01*
X2072200Y3518662D01*
X2078550Y3515360D01*
X2091250Y3515360D01*
X2097600Y3518662D01*
X2103950Y3525012D01*
X2107252Y3531362D01*
X2107252Y3540760D01*
X2091250Y3540760D02*
G01*
X2107252Y3540760D01*
X2128334Y3582162D02*
G01*
X2128334Y3515360D01*
X2128334Y3582162D02*
G01*
X2172784Y3515360D01*
X2172784Y3582162D02*
G01*
X2172784Y3515360D01*
X2193866Y3582162D02*
G01*
X2193866Y3515360D01*
X2193866Y3582162D02*
G01*
X2215964Y3582162D01*
X2225616Y3579113D01*
X2231966Y3572763D01*
X2235014Y3566160D01*
X2238316Y3556762D01*
X2238316Y3540760D01*
X2235014Y3531362D01*
X2231966Y3525012D01*
X2225616Y3518662D01*
X2215964Y3515360D01*
X2193866Y3515360D01*
X2084900Y3836162D02*
G01*
X2059500Y3769360D01*
X2084900Y3836162D02*
G01*
X2110300Y3769360D01*
X2069152Y3791712D02*
G01*
X2100902Y3791712D01*
X2134684Y3820160D02*
G01*
X2134684Y3823462D01*
X2137732Y3829812D01*
X2141034Y3833113D01*
X2147384Y3836162D01*
X2160084Y3836162D01*
X2166434Y3833113D01*
X2169482Y3829812D01*
X2172784Y3823462D01*
X2172784Y3817112D01*
X2169482Y3810762D01*
X2163132Y3801110D01*
X2131382Y3769360D01*
X2175832Y3769360D01*
X2084900Y4090162D02*
G01*
X2059500Y4023360D01*
X2084900Y4090162D02*
G01*
X2110300Y4023360D01*
X2069152Y4045712D02*
G01*
X2100902Y4045712D01*
X2131382Y4077462D02*
G01*
X2137732Y4080763D01*
X2147384Y4090162D01*
X2147384Y4023360D01*
X2059500Y4344162D02*
G01*
X2059500Y4277360D01*
X2059500Y4344162D02*
G01*
X2088202Y4344162D01*
X2097600Y4341113D01*
X2100902Y4337812D01*
X2103950Y4331462D01*
X2103950Y4325112D01*
X2100902Y4318762D01*
X2097600Y4315460D01*
X2088202Y4312412D01*
X2059500Y4312412D01*
X2081852Y4312412D02*
G01*
X2103950Y4277360D01*
X2169482Y4334763D02*
G01*
X2163132Y4341113D01*
X2153734Y4344162D01*
X2141034Y4344162D01*
X2131382Y4341113D01*
X2125032Y4334763D01*
X2125032Y4328160D01*
X2128334Y4321810D01*
X2131382Y4318762D01*
X2137732Y4315460D01*
X2156782Y4309110D01*
X2163132Y4306062D01*
X2166434Y4302760D01*
X2169482Y4296410D01*
X2169482Y4287012D01*
X2163132Y4280662D01*
X2153734Y4277360D01*
X2141034Y4277360D01*
X2131382Y4280662D01*
X2125032Y4287012D01*
X2212916Y4344162D02*
G01*
X2212916Y4277360D01*
X2190564Y4344162D02*
G01*
X2235014Y4344162D01*
X2059500Y4598162D02*
G01*
X2059500Y4531360D01*
X2059500Y4598162D02*
G01*
X2081852Y4598162D01*
X2091250Y4595113D01*
X2097600Y4588763D01*
X2100902Y4582160D01*
X2103950Y4572762D01*
X2103950Y4556760D01*
X2100902Y4547362D01*
X2097600Y4541012D01*
X2091250Y4534662D01*
X2081852Y4531360D01*
X2059500Y4531360D01*
X2163132Y4588763D02*
G01*
X2160084Y4595113D01*
X2150432Y4598162D01*
X2144082Y4598162D01*
X2134684Y4595113D01*
X2128334Y4585462D01*
X2125032Y4569460D01*
X2125032Y4553712D01*
X2128334Y4541012D01*
X2134684Y4534662D01*
X2144082Y4531360D01*
X2147384Y4531360D01*
X2156782Y4534662D01*
X2163132Y4541012D01*
X2166434Y4550410D01*
X2166434Y4553712D01*
X2163132Y4563110D01*
X2156782Y4569460D01*
X2147384Y4572762D01*
X2144082Y4572762D01*
X2134684Y4569460D01*
X2128334Y4563110D01*
X2125032Y4553712D01*
X2059500Y4852162D02*
G01*
X2059500Y4785360D01*
X2059500Y4852162D02*
G01*
X2081852Y4852162D01*
X2091250Y4849113D01*
X2097600Y4842763D01*
X2100902Y4836160D01*
X2103950Y4826762D01*
X2103950Y4810760D01*
X2100902Y4801362D01*
X2097600Y4795012D01*
X2091250Y4788662D01*
X2081852Y4785360D01*
X2059500Y4785360D01*
X2163132Y4852162D02*
G01*
X2131382Y4852162D01*
X2128334Y4823460D01*
X2131382Y4826762D01*
X2141034Y4829810D01*
X2150432Y4829810D01*
X2160084Y4826762D01*
X2166434Y4820412D01*
X2169482Y4810760D01*
X2169482Y4804410D01*
X2166434Y4795012D01*
X2160084Y4788662D01*
X2150432Y4785360D01*
X2141034Y4785360D01*
X2131382Y4788662D01*
X2128334Y4791710D01*
X2125032Y4798060D01*
X2059500Y5106162D02*
G01*
X2059500Y5039360D01*
X2059500Y5106162D02*
G01*
X2081852Y5106162D01*
X2091250Y5103113D01*
X2097600Y5096763D01*
X2100902Y5090160D01*
X2103950Y5080762D01*
X2103950Y5064760D01*
X2100902Y5055362D01*
X2097600Y5049012D01*
X2091250Y5042662D01*
X2081852Y5039360D01*
X2059500Y5039360D01*
X2156782Y5106162D02*
G01*
X2125032Y5061712D01*
X2172784Y5061712D01*
X2156782Y5106162D02*
G01*
X2156782Y5039360D01*
X2059500Y5461762D02*
G01*
X2116650Y5461762D01*
X2234506Y5483860D02*
G01*
X2231204Y5490463D01*
X2224854Y5496813D01*
X2218504Y5499862D01*
X2205804Y5499862D01*
X2199454Y5496813D01*
X2193104Y5490463D01*
X2190056Y5483860D01*
X2186754Y5474462D01*
X2186754Y5458460D01*
X2190056Y5449062D01*
X2193104Y5442712D01*
X2199454Y5436362D01*
X2205804Y5433060D01*
X2218504Y5433060D01*
X2224854Y5436362D01*
X2231204Y5442712D01*
X2234506Y5449062D01*
X2234506Y5458460D01*
X2218504Y5458460D02*
G01*
X2234506Y5458460D01*
X2255588Y5499862D02*
G01*
X2255588Y5433060D01*
X2255588Y5499862D02*
G01*
X2300038Y5433060D01*
X2300038Y5499862D02*
G01*
X2300038Y5433060D01*
X2321120Y5499862D02*
G01*
X2321120Y5433060D01*
X2321120Y5499862D02*
G01*
X2343218Y5499862D01*
X2352870Y5496813D01*
X2359220Y5490463D01*
X2362522Y5483860D01*
X2365570Y5474462D01*
X2365570Y5458460D01*
X2362522Y5449062D01*
X2359220Y5442712D01*
X2352870Y5436362D01*
X2343218Y5433060D01*
X2321120Y5433060D01*
X3253300Y2820162D02*
G01*
X3253300Y2753360D01*
X3253300Y2820162D02*
G01*
X3282002Y2820162D01*
X3291400Y2817113D01*
X3294702Y2813812D01*
X3297750Y2807462D01*
X3297750Y2801112D01*
X3294702Y2794762D01*
X3291400Y2791460D01*
X3282002Y2788412D01*
X3253300Y2788412D02*
G01*
X3282002Y2788412D01*
X3291400Y2785110D01*
X3294702Y2782062D01*
X3297750Y2775712D01*
X3297750Y2766060D01*
X3294702Y2759710D01*
X3291400Y2756662D01*
X3282002Y2753360D01*
X3253300Y2753360D01*
X3356932Y2820162D02*
G01*
X3325182Y2820162D01*
X3322134Y2791460D01*
X3325182Y2794762D01*
X3334834Y2797810D01*
X3344232Y2797810D01*
X3353884Y2794762D01*
X3360234Y2788412D01*
X3363282Y2778760D01*
X3363282Y2772410D01*
X3360234Y2763012D01*
X3353884Y2756662D01*
X3344232Y2753360D01*
X3334834Y2753360D01*
X3325182Y2756662D01*
X3322134Y2759710D01*
X3318832Y2766060D01*
X3253300Y3074162D02*
G01*
X3253300Y3007360D01*
X3253300Y3074162D02*
G01*
X3282002Y3074162D01*
X3291400Y3071113D01*
X3294702Y3067812D01*
X3297750Y3061462D01*
X3297750Y3055112D01*
X3294702Y3048762D01*
X3291400Y3045460D01*
X3282002Y3042412D01*
X3253300Y3042412D02*
G01*
X3282002Y3042412D01*
X3291400Y3039110D01*
X3294702Y3036062D01*
X3297750Y3029712D01*
X3297750Y3020060D01*
X3294702Y3013710D01*
X3291400Y3010662D01*
X3282002Y3007360D01*
X3253300Y3007360D01*
X3350582Y3074162D02*
G01*
X3318832Y3029712D01*
X3366584Y3029712D01*
X3350582Y3074162D02*
G01*
X3350582Y3007360D01*
X3288352Y3312160D02*
G01*
X3285050Y3318763D01*
X3278700Y3325113D01*
X3272350Y3328162D01*
X3259650Y3328162D01*
X3253300Y3325113D01*
X3246950Y3318763D01*
X3243902Y3312160D01*
X3240600Y3302762D01*
X3240600Y3286760D01*
X3243902Y3277362D01*
X3246950Y3271012D01*
X3253300Y3264662D01*
X3259650Y3261360D01*
X3272350Y3261360D01*
X3278700Y3264662D01*
X3285050Y3271012D01*
X3288352Y3277362D01*
X3315784Y3328162D02*
G01*
X3350582Y3328162D01*
X3331532Y3302762D01*
X3341184Y3302762D01*
X3347534Y3299460D01*
X3350582Y3296412D01*
X3353884Y3286760D01*
X3353884Y3280410D01*
X3350582Y3271012D01*
X3344232Y3264662D01*
X3334834Y3261360D01*
X3325182Y3261360D01*
X3315784Y3264662D01*
X3312482Y3267710D01*
X3309434Y3274060D01*
X3288352Y3566160D02*
G01*
X3285050Y3572763D01*
X3278700Y3579113D01*
X3272350Y3582162D01*
X3259650Y3582162D01*
X3253300Y3579113D01*
X3246950Y3572763D01*
X3243902Y3566160D01*
X3240600Y3556762D01*
X3240600Y3540760D01*
X3243902Y3531362D01*
X3246950Y3525012D01*
X3253300Y3518662D01*
X3259650Y3515360D01*
X3272350Y3515360D01*
X3278700Y3518662D01*
X3285050Y3525012D01*
X3288352Y3531362D01*
X3341184Y3582162D02*
G01*
X3309434Y3537712D01*
X3356932Y3537712D01*
X3341184Y3582162D02*
G01*
X3341184Y3515360D01*
X3288352Y3820160D02*
G01*
X3285050Y3826763D01*
X3278700Y3833113D01*
X3272350Y3836162D01*
X3259650Y3836162D01*
X3253300Y3833113D01*
X3246950Y3826763D01*
X3243902Y3820160D01*
X3240600Y3810762D01*
X3240600Y3794760D01*
X3243902Y3785362D01*
X3246950Y3779012D01*
X3253300Y3772662D01*
X3259650Y3769360D01*
X3272350Y3769360D01*
X3278700Y3772662D01*
X3285050Y3779012D01*
X3288352Y3785362D01*
X3347534Y3836162D02*
G01*
X3315784Y3836162D01*
X3312482Y3807460D01*
X3315784Y3810762D01*
X3325182Y3813810D01*
X3334834Y3813810D01*
X3344232Y3810762D01*
X3350582Y3804412D01*
X3353884Y3794760D01*
X3353884Y3788410D01*
X3350582Y3779012D01*
X3344232Y3772662D01*
X3334834Y3769360D01*
X3325182Y3769360D01*
X3315784Y3772662D01*
X3312482Y3775710D01*
X3309434Y3782060D01*
X3288352Y4074160D02*
G01*
X3285050Y4080763D01*
X3278700Y4087113D01*
X3272350Y4090162D01*
X3259650Y4090162D01*
X3253300Y4087113D01*
X3246950Y4080763D01*
X3243902Y4074160D01*
X3240600Y4064762D01*
X3240600Y4048760D01*
X3243902Y4039362D01*
X3246950Y4033012D01*
X3253300Y4026662D01*
X3259650Y4023360D01*
X3272350Y4023360D01*
X3278700Y4026662D01*
X3285050Y4033012D01*
X3288352Y4039362D01*
X3347534Y4080763D02*
G01*
X3344232Y4087113D01*
X3334834Y4090162D01*
X3328484Y4090162D01*
X3318832Y4087113D01*
X3312482Y4077462D01*
X3309434Y4061460D01*
X3309434Y4045712D01*
X3312482Y4033012D01*
X3318832Y4026662D01*
X3328484Y4023360D01*
X3331532Y4023360D01*
X3341184Y4026662D01*
X3347534Y4033012D01*
X3350582Y4042410D01*
X3350582Y4045712D01*
X3347534Y4055110D01*
X3341184Y4061460D01*
X3331532Y4064762D01*
X3328484Y4064762D01*
X3318832Y4061460D01*
X3312482Y4055110D01*
X3309434Y4045712D01*
X3288352Y4328160D02*
G01*
X3285050Y4334763D01*
X3278700Y4341113D01*
X3272350Y4344162D01*
X3259650Y4344162D01*
X3253300Y4341113D01*
X3246950Y4334763D01*
X3243902Y4328160D01*
X3240600Y4318762D01*
X3240600Y4302760D01*
X3243902Y4293362D01*
X3246950Y4287012D01*
X3253300Y4280662D01*
X3259650Y4277360D01*
X3272350Y4277360D01*
X3278700Y4280662D01*
X3285050Y4287012D01*
X3288352Y4293362D01*
X3353884Y4344162D02*
G01*
X3322134Y4277360D01*
X3309434Y4344162D02*
G01*
X3353884Y4344162D01*
X3266000Y4598162D02*
G01*
X3266000Y4531360D01*
X3266000Y4598162D02*
G01*
X3288352Y4598162D01*
X3297750Y4595113D01*
X3304100Y4588763D01*
X3307402Y4582160D01*
X3310450Y4572762D01*
X3310450Y4556760D01*
X3307402Y4547362D01*
X3304100Y4541012D01*
X3297750Y4534662D01*
X3288352Y4531360D01*
X3266000Y4531360D01*
X3331532Y4585462D02*
G01*
X3337882Y4588763D01*
X3347534Y4598162D01*
X3347534Y4531360D01*
X3253300Y4852162D02*
G01*
X3253300Y4785360D01*
X3253300Y4852162D02*
G01*
X3275652Y4852162D01*
X3285050Y4849113D01*
X3291400Y4842763D01*
X3294702Y4836160D01*
X3297750Y4826762D01*
X3297750Y4810760D01*
X3294702Y4801362D01*
X3291400Y4795012D01*
X3285050Y4788662D01*
X3275652Y4785360D01*
X3253300Y4785360D01*
X3322134Y4836160D02*
G01*
X3322134Y4839462D01*
X3325182Y4845812D01*
X3328484Y4849113D01*
X3334834Y4852162D01*
X3347534Y4852162D01*
X3353884Y4849113D01*
X3356932Y4845812D01*
X3360234Y4839462D01*
X3360234Y4833112D01*
X3356932Y4826762D01*
X3350582Y4817110D01*
X3318832Y4785360D01*
X3363282Y4785360D01*
X3240600Y5106162D02*
G01*
X3240600Y5039360D01*
X3240600Y5106162D02*
G01*
X3262952Y5106162D01*
X3272350Y5103113D01*
X3278700Y5096763D01*
X3282002Y5090160D01*
X3285050Y5080762D01*
X3285050Y5064760D01*
X3282002Y5055362D01*
X3278700Y5049012D01*
X3272350Y5042662D01*
X3262952Y5039360D01*
X3240600Y5039360D01*
X3312482Y5106162D02*
G01*
X3347534Y5106162D01*
X3328484Y5080762D01*
X3337882Y5080762D01*
X3344232Y5077460D01*
X3347534Y5074412D01*
X3350582Y5064760D01*
X3350582Y5058410D01*
X3347534Y5049012D01*
X3341184Y5042662D01*
X3331532Y5039360D01*
X3322134Y5039360D01*
X3312482Y5042662D01*
X3309434Y5045710D01*
X3306132Y5052060D01*
X3151700Y5499862D02*
G01*
X3119950Y5499862D01*
X3116902Y5471160D01*
X3119950Y5474462D01*
X3129602Y5477510D01*
X3139000Y5477510D01*
X3148652Y5474462D01*
X3155002Y5468112D01*
X3158050Y5458460D01*
X3158050Y5452110D01*
X3155002Y5442712D01*
X3148652Y5436362D01*
X3139000Y5433060D01*
X3129602Y5433060D01*
X3119950Y5436362D01*
X3116902Y5439410D01*
X3113600Y5445760D01*
X3179132Y5499862D02*
G01*
X3204532Y5433060D01*
X3229932Y5499862D02*
G01*
X3204532Y5433060D01*
X3328738Y5490463D02*
G01*
X3328738Y5433060D01*
X3300036Y5461762D02*
G01*
X3357440Y5461762D01*
D11*
X4996434Y4866914D02*
G01*
X5074411Y4866914D01*
X5089906Y4871994D01*
X5100320Y4882408D01*
X5105400Y4898156D01*
X5105400Y4908570D01*
X5100320Y4924064D01*
X5089906Y4934478D01*
X5074411Y4939558D01*
X4996434Y4939558D01*
X4996434Y5025918D02*
G01*
X5069077Y4973848D01*
X5069077Y5051826D01*
X4996434Y5025918D02*
G01*
X5105400Y5025918D01*
X4996434Y3732382D02*
G01*
X5074411Y3732382D01*
X5089906Y3737462D01*
X5100320Y3747876D01*
X5105400Y3763624D01*
X5105400Y3774038D01*
X5100320Y3789532D01*
X5089906Y3799946D01*
X5074411Y3805026D01*
X4996434Y3805026D01*
X4996434Y3901800D02*
G01*
X4996434Y3849730D01*
X5043170Y3844650D01*
X5038090Y3849730D01*
X5032756Y3865478D01*
X5032756Y3880972D01*
X5038090Y3896466D01*
X5048250Y3906880D01*
X5063997Y3912214D01*
X5074411Y3912214D01*
X5089906Y3906880D01*
X5100320Y3896466D01*
X5105400Y3880972D01*
X5105400Y3865478D01*
X5100320Y3849730D01*
X5095240Y3844650D01*
X5084825Y3839316D01*
X4996434Y6001448D02*
G01*
X5074411Y6001448D01*
X5089906Y6006528D01*
X5100320Y6016942D01*
X5105400Y6032690D01*
X5105400Y6043104D01*
X5100320Y6058598D01*
X5089906Y6069012D01*
X5074411Y6074092D01*
X4996434Y6074092D01*
X5011927Y6170866D02*
G01*
X5001513Y6165532D01*
X4996434Y6150038D01*
X4996434Y6139624D01*
X5001513Y6124130D01*
X5017261Y6113716D01*
X5043170Y6108382D01*
X5069077Y6108382D01*
X5089906Y6113716D01*
X5100320Y6124130D01*
X5105400Y6139624D01*
X5105400Y6144958D01*
X5100320Y6160452D01*
X5089906Y6170866D01*
X5074411Y6175946D01*
X5069077Y6175946D01*
X5053584Y6170866D01*
X5043170Y6160452D01*
X5038090Y6144958D01*
X5038090Y6139624D01*
X5043170Y6124130D01*
X5053584Y6113716D01*
X5069077Y6108382D01*
X4996434Y2597848D02*
G01*
X5074411Y2597848D01*
X5089906Y2602928D01*
X5100320Y2613342D01*
X5105400Y2629090D01*
X5105400Y2639504D01*
X5100320Y2654998D01*
X5089906Y2665412D01*
X5074411Y2670492D01*
X4996434Y2670492D01*
X4996434Y2777680D02*
G01*
X5105400Y2725610D01*
X4996434Y2704782D02*
G01*
X4996434Y2777680D01*
X1524698Y1480565D02*
G01*
X1524698Y1402587D01*
X1529778Y1387094D01*
X1540192Y1376679D01*
X1555940Y1371600D01*
X1566354Y1371600D01*
X1581848Y1376679D01*
X1592262Y1387094D01*
X1597342Y1402587D01*
X1597342Y1480565D01*
X1657794Y1480565D02*
G01*
X1642046Y1475486D01*
X1636966Y1465071D01*
X1636966Y1454657D01*
X1642046Y1444244D01*
X1652460Y1438910D01*
X1673288Y1433829D01*
X1688782Y1428750D01*
X1699196Y1418336D01*
X1704530Y1407921D01*
X1704530Y1392173D01*
X1699196Y1381760D01*
X1694116Y1376679D01*
X1678368Y1371600D01*
X1657794Y1371600D01*
X1642046Y1376679D01*
X1636966Y1381760D01*
X1631632Y1392173D01*
X1631632Y1407921D01*
X1636966Y1418336D01*
X1647380Y1428750D01*
X1662874Y1433829D01*
X1683702Y1438910D01*
X1694116Y1444244D01*
X1699196Y1454657D01*
X1699196Y1465071D01*
X1694116Y1475486D01*
X1678368Y1480565D01*
X1657794Y1480565D01*
X2629598Y1480565D02*
G01*
X2629598Y1402587D01*
X2634678Y1387094D01*
X2645092Y1376679D01*
X2660840Y1371600D01*
X2671254Y1371600D01*
X2686748Y1376679D01*
X2697162Y1387094D01*
X2702242Y1402587D01*
X2702242Y1480565D01*
X2804096Y1444244D02*
G01*
X2799016Y1428750D01*
X2788602Y1418336D01*
X2773108Y1413002D01*
X2767774Y1413002D01*
X2752280Y1418336D01*
X2741866Y1428750D01*
X2736532Y1444244D01*
X2736532Y1449323D01*
X2741866Y1465071D01*
X2752280Y1475486D01*
X2767774Y1480565D01*
X2773108Y1480565D01*
X2788602Y1475486D01*
X2799016Y1465071D01*
X2804096Y1444244D01*
X2804096Y1418336D01*
X2799016Y1392173D01*
X2788602Y1376679D01*
X2773108Y1371600D01*
X2762694Y1371600D01*
X2746946Y1376679D01*
X2741866Y1387094D01*
X3709098Y1467865D02*
G01*
X3709098Y1389887D01*
X3714178Y1374394D01*
X3724592Y1363979D01*
X3740340Y1358900D01*
X3750754Y1358900D01*
X3766248Y1363979D01*
X3776662Y1374394D01*
X3781742Y1389887D01*
X3781742Y1467865D01*
X3816032Y1447037D02*
G01*
X3826446Y1452371D01*
X3842194Y1467865D01*
X3842194Y1358900D01*
X3907472Y1467865D02*
G01*
X3891978Y1462786D01*
X3881564Y1447037D01*
X3876484Y1421129D01*
X3876484Y1405636D01*
X3881564Y1379473D01*
X3891978Y1363979D01*
X3907472Y1358900D01*
X3917886Y1358900D01*
X3933634Y1363979D01*
X3944048Y1379473D01*
X3949128Y1405636D01*
X3949128Y1421129D01*
X3944048Y1447037D01*
X3933634Y1462786D01*
X3917886Y1467865D01*
X3907472Y1467865D01*
G36*
X7923123Y4906010D02*
G01*
X7923123Y4855210D01*
X8024723Y4855210D01*
X8024723Y4906010D01*
G37*
G36*
X1399082Y4845050D02*
G01*
X1399082Y4794250D01*
X1500682Y4794250D01*
X1500682Y4845050D01*
G37*
D13*
X9724397Y1359811D02*
G01*
X10740397Y1359814D01*
X10740397Y1359814D02*
G01*
X10740397Y599815D01*
X9724384Y599815D02*
G01*
X9724384Y1359814D01*
X9724397Y599815D02*
G01*
X10740397Y599815D01*
X9724397Y803915D02*
G01*
X10740400Y803915D01*
X9724400Y1235715D02*
G01*
X10740402Y1235715D01*
X10740400Y791215D02*
G01*
X10768441Y791215D01*
X10791200Y768456D01*
X10791200Y870056D01*
X10765800Y844656D01*
X10753100Y844656D01*
X10194312Y1172215D02*
G01*
X10270512Y1172215D01*
X10270512Y880115D01*
X10194312Y880115D01*
X10194312Y1172215D01*
X8644897Y1372511D02*
G01*
X9660897Y1372514D01*
X9660897Y1372514D02*
G01*
X9660897Y612515D01*
X8644884Y612515D02*
G01*
X8644884Y1372514D01*
X8644897Y612515D02*
G01*
X9660897Y612515D01*
X8644897Y816615D02*
G01*
X9660900Y816615D01*
X8644900Y1248415D02*
G01*
X9660902Y1248415D01*
X9660900Y803915D02*
G01*
X9688941Y803915D01*
X9711700Y781156D01*
X9711700Y882756D01*
X9686300Y857356D01*
X9673600Y857356D01*
X9114812Y1184915D02*
G01*
X9191012Y1184915D01*
X9191012Y892815D01*
X9114812Y892815D01*
X9114812Y1184915D01*
X7539997Y1372511D02*
G01*
X8555997Y1372514D01*
X8555997Y1372514D02*
G01*
X8555997Y612515D01*
X7539984Y612515D02*
G01*
X7539984Y1372514D01*
X7539997Y612515D02*
G01*
X8555997Y612515D01*
X7539997Y816615D02*
G01*
X8556000Y816615D01*
X7540000Y1248415D02*
G01*
X8556002Y1248415D01*
X8556000Y803915D02*
G01*
X8584041Y803915D01*
X8606800Y781156D01*
X8606800Y882756D01*
X8581400Y857356D01*
X8568700Y857356D01*
X8009912Y1184915D02*
G01*
X8086112Y1184915D01*
X8086112Y892815D01*
X8009912Y892815D01*
X8009912Y1184915D01*
X11689453Y2150112D02*
G01*
X11689450Y3166112D01*
X11689450Y3166112D02*
G01*
X12449449Y3166112D01*
X12449449Y2150099D02*
G01*
X11689450Y2150099D01*
X12449449Y2150112D02*
G01*
X12449449Y3166112D01*
X12245350Y2150112D02*
G01*
X12245350Y3166115D01*
X11813550Y2150115D02*
G01*
X11813550Y3166117D01*
X12258050Y3166115D02*
G01*
X12258050Y3194156D01*
X12280808Y3216915D01*
X12179208Y3216915D01*
X12204608Y3191515D01*
X12204608Y3178815D01*
X11877050Y2620027D02*
G01*
X11877050Y2696227D01*
X12169150Y2696227D01*
X12169150Y2620027D01*
X11877050Y2620027D01*
X11689453Y5553712D02*
G01*
X11689450Y6569712D01*
X11689450Y6569712D02*
G01*
X12449449Y6569712D01*
X12449449Y5553699D02*
G01*
X11689450Y5553699D01*
X12449449Y5553712D02*
G01*
X12449449Y6569712D01*
X12245350Y5553712D02*
G01*
X12245350Y6569715D01*
X11813550Y5553715D02*
G01*
X11813550Y6569717D01*
X12258050Y6569715D02*
G01*
X12258050Y6597756D01*
X12280808Y6620515D01*
X12179208Y6620515D01*
X12204608Y6595115D01*
X12204608Y6582415D01*
X11877050Y6023627D02*
G01*
X11877050Y6099827D01*
X12169150Y6099827D01*
X12169150Y6023627D01*
X11877050Y6023627D01*
X11689453Y3284646D02*
G01*
X11689450Y4300646D01*
X11689450Y4300646D02*
G01*
X12449449Y4300646D01*
X12449449Y3284634D02*
G01*
X11689450Y3284634D01*
X12449449Y3284646D02*
G01*
X12449449Y4300646D01*
X12245350Y3284646D02*
G01*
X12245350Y4300649D01*
X11813550Y3284649D02*
G01*
X11813550Y4300651D01*
X12258050Y4300649D02*
G01*
X12258050Y4328690D01*
X12280808Y4351449D01*
X12179208Y4351449D01*
X12204608Y4326049D01*
X12204608Y4313349D01*
X11877050Y3754561D02*
G01*
X11877050Y3830761D01*
X12169150Y3830761D01*
X12169150Y3754561D01*
X11877050Y3754561D01*
X11689453Y4419178D02*
G01*
X11689450Y5435178D01*
X11689450Y5435178D02*
G01*
X12449449Y5435178D01*
X12449449Y4419165D02*
G01*
X11689450Y4419165D01*
X12449449Y4419178D02*
G01*
X12449449Y5435178D01*
X12245350Y4419178D02*
G01*
X12245350Y5435180D01*
X11813550Y4419180D02*
G01*
X11813550Y5435183D01*
X12258050Y5435180D02*
G01*
X12258050Y5463222D01*
X12280808Y5485980D01*
X12179208Y5485980D01*
X12204608Y5460580D01*
X12204608Y5447880D01*
X11877050Y4889093D02*
G01*
X11877050Y4965293D01*
X12169150Y4965293D01*
X12169150Y4889093D01*
X11877050Y4889093D01*
X8304100Y5693415D02*
G01*
X10164091Y5693415D01*
X10164091Y2678409D01*
X8304100Y2678409D01*
X8304100Y5693415D01*
X7474714Y5205608D02*
G01*
X8024726Y5205608D01*
X8024726Y4555596D01*
X7474714Y4555596D01*
X7474714Y5205608D01*
X9965700Y2110864D02*
G01*
X10981700Y2110864D01*
X9965700Y1750065D02*
G01*
X10981700Y1750065D01*
X10981700Y2194565D01*
X9965700Y2194565D01*
X9965700Y1750065D01*
X8886200Y2110864D02*
G01*
X9902200Y2110864D01*
X8886200Y1750065D02*
G01*
X9902200Y1750065D01*
X9902200Y2194565D01*
X8886200Y2194565D01*
X8886200Y1750065D01*
X7806700Y2110864D02*
G01*
X8822700Y2110864D01*
X7806700Y1750065D02*
G01*
X8822700Y1750065D01*
X8822700Y2194565D01*
X7806700Y2194565D01*
X7806700Y1750065D01*
X11001900Y2366015D02*
G01*
X11001900Y3382015D01*
X11362700Y2366015D02*
G01*
X11362700Y3382015D01*
X10918200Y3382015D01*
X10918200Y2366015D01*
X11362700Y2366015D01*
X11001900Y3513249D02*
G01*
X11001900Y4529249D01*
X11362700Y3513249D02*
G01*
X11362700Y4529249D01*
X10918200Y4529249D01*
X10918200Y3513249D01*
X11362700Y3513249D01*
X11001900Y4660480D02*
G01*
X11001900Y5676480D01*
X11362700Y4660480D02*
G01*
X11362700Y5676480D01*
X10918200Y5676480D01*
X10918200Y4660480D01*
X11362700Y4660480D01*
X11001900Y5807715D02*
G01*
X11001900Y6823715D01*
X11362700Y5807715D02*
G01*
X11362700Y6823715D01*
X10918200Y6823715D01*
X10918200Y5807715D01*
X11362700Y5807715D01*
X7151303Y5502912D02*
G01*
X7151301Y6518912D01*
X7151301Y6518912D02*
G01*
X7911299Y6518912D01*
X7911299Y5502899D02*
G01*
X7151301Y5502899D01*
X7911299Y5502912D02*
G01*
X7911299Y6518912D01*
X7707200Y5502912D02*
G01*
X7707200Y6518915D01*
X7275400Y5502915D02*
G01*
X7275400Y6518917D01*
X7719900Y6518915D02*
G01*
X7719900Y6546956D01*
X7742659Y6569715D01*
X7641059Y6569715D01*
X7666459Y6544315D01*
X7666459Y6531615D01*
X7338900Y5972827D02*
G01*
X7338900Y6049027D01*
X7631000Y6049027D01*
X7631000Y5972827D01*
X7338900Y5972827D01*
X627303Y5441947D02*
G01*
X627301Y6457947D01*
X627301Y6457947D02*
G01*
X1387299Y6457947D01*
X1387299Y5441934D02*
G01*
X627301Y5441934D01*
X1387299Y5441947D02*
G01*
X1387299Y6457947D01*
X1183200Y5441947D02*
G01*
X1183200Y6457950D01*
X751400Y5441950D02*
G01*
X751400Y6457952D01*
X1195900Y6457950D02*
G01*
X1195900Y6485991D01*
X1218658Y6508750D01*
X1117058Y6508750D01*
X1142458Y6483350D01*
X1142458Y6470650D01*
X814900Y5911862D02*
G01*
X814900Y5988062D01*
X1107000Y5988062D01*
X1107000Y5911862D01*
X814900Y5911862D01*
X4477900Y5746750D02*
G01*
X4477900Y6762750D01*
X4838700Y5746750D02*
G01*
X4838700Y6762750D01*
X4394200Y6762750D01*
X4394200Y5746750D01*
X4838700Y5746750D01*
X4477900Y4599515D02*
G01*
X4477900Y5615515D01*
X4838700Y4599515D02*
G01*
X4838700Y5615515D01*
X4394200Y5615515D01*
X4394200Y4599515D01*
X4838700Y4599515D01*
X4477900Y3452284D02*
G01*
X4477900Y4468284D01*
X4838700Y3452284D02*
G01*
X4838700Y4468284D01*
X4394200Y4468284D01*
X4394200Y3452284D01*
X4838700Y3452284D01*
X4477900Y2305050D02*
G01*
X4477900Y3321050D01*
X4838700Y2305050D02*
G01*
X4838700Y3321050D01*
X4394200Y3321050D01*
X4394200Y2305050D01*
X4838700Y2305050D01*
X1282700Y2049899D02*
G01*
X2298700Y2049899D01*
X1282700Y1689100D02*
G01*
X2298700Y1689100D01*
X2298700Y2133600D01*
X1282700Y2133600D01*
X1282700Y1689100D01*
X2362200Y2049899D02*
G01*
X3378200Y2049899D01*
X2362200Y1689100D02*
G01*
X3378200Y1689100D01*
X3378200Y2133600D01*
X2362200Y2133600D01*
X2362200Y1689100D01*
X3441700Y2049899D02*
G01*
X4457700Y2049899D01*
X3441700Y1689100D02*
G01*
X4457700Y1689100D01*
X4457700Y2133600D01*
X3441700Y2133600D01*
X3441700Y1689100D01*
X950714Y5144643D02*
G01*
X1500725Y5144643D01*
X1500725Y4494631D01*
X950714Y4494631D01*
X950714Y5144643D01*
X1780100Y5632450D02*
G01*
X3640091Y5632450D01*
X3640091Y2617444D01*
X1780100Y2617444D01*
X1780100Y5632450D01*
X5165453Y4358213D02*
G01*
X5165450Y5374213D01*
X5165450Y5374213D02*
G01*
X5925449Y5374213D01*
X5925449Y4358200D02*
G01*
X5165450Y4358200D01*
X5925449Y4358213D02*
G01*
X5925449Y5374213D01*
X5721350Y4358213D02*
G01*
X5721350Y5374215D01*
X5289550Y4358215D02*
G01*
X5289550Y5374218D01*
X5734050Y5374215D02*
G01*
X5734050Y5402257D01*
X5756808Y5425015D01*
X5655208Y5425015D01*
X5680608Y5399615D01*
X5680608Y5386915D01*
X5353050Y4828128D02*
G01*
X5353050Y4904328D01*
X5645150Y4904328D01*
X5645150Y4828128D01*
X5353050Y4828128D01*
X5165453Y3223681D02*
G01*
X5165450Y4239681D01*
X5165450Y4239681D02*
G01*
X5925449Y4239681D01*
X5925449Y3223668D02*
G01*
X5165450Y3223668D01*
X5925449Y3223681D02*
G01*
X5925449Y4239681D01*
X5721350Y3223681D02*
G01*
X5721350Y4239684D01*
X5289550Y3223684D02*
G01*
X5289550Y4239686D01*
X5734050Y4239684D02*
G01*
X5734050Y4267725D01*
X5756808Y4290484D01*
X5655208Y4290484D01*
X5680608Y4265084D01*
X5680608Y4252384D01*
X5353050Y3693596D02*
G01*
X5353050Y3769796D01*
X5645150Y3769796D01*
X5645150Y3693596D01*
X5353050Y3693596D01*
X5165453Y5492747D02*
G01*
X5165450Y6508747D01*
X5165450Y6508747D02*
G01*
X5925449Y6508747D01*
X5925449Y5492734D02*
G01*
X5165450Y5492734D01*
X5925449Y5492747D02*
G01*
X5925449Y6508747D01*
X5721350Y5492747D02*
G01*
X5721350Y6508750D01*
X5289550Y5492750D02*
G01*
X5289550Y6508752D01*
X5734050Y6508750D02*
G01*
X5734050Y6536791D01*
X5756808Y6559550D01*
X5655208Y6559550D01*
X5680608Y6534150D01*
X5680608Y6521450D01*
X5353050Y5962662D02*
G01*
X5353050Y6038862D01*
X5645150Y6038862D01*
X5645150Y5962662D01*
X5353050Y5962662D01*
X5165453Y2089147D02*
G01*
X5165450Y3105147D01*
X5165450Y3105147D02*
G01*
X5925449Y3105147D01*
X5925449Y2089134D02*
G01*
X5165450Y2089134D01*
X5925449Y2089147D02*
G01*
X5925449Y3105147D01*
X5721350Y2089147D02*
G01*
X5721350Y3105150D01*
X5289550Y2089150D02*
G01*
X5289550Y3105152D01*
X5734050Y3105150D02*
G01*
X5734050Y3133191D01*
X5756808Y3155950D01*
X5655208Y3155950D01*
X5680608Y3130550D01*
X5680608Y3117850D01*
X5353050Y2559062D02*
G01*
X5353050Y2635262D01*
X5645150Y2635262D01*
X5645150Y2559062D01*
X5353050Y2559062D01*
X1015997Y1311546D02*
G01*
X2031997Y1311549D01*
X2031997Y1311549D02*
G01*
X2031997Y551550D01*
X1015984Y551550D02*
G01*
X1015984Y1311549D01*
X1015997Y551550D02*
G01*
X2031997Y551550D01*
X1015997Y755650D02*
G01*
X2032000Y755650D01*
X1016000Y1187450D02*
G01*
X2032002Y1187450D01*
X2032000Y742950D02*
G01*
X2060041Y742950D01*
X2082800Y720191D01*
X2082800Y821791D01*
X2057400Y796391D01*
X2044700Y796391D01*
X1485912Y1123950D02*
G01*
X1562112Y1123950D01*
X1562112Y831850D01*
X1485912Y831850D01*
X1485912Y1123950D01*
X2120897Y1311546D02*
G01*
X3136897Y1311549D01*
X3136897Y1311549D02*
G01*
X3136897Y551550D01*
X2120884Y551550D02*
G01*
X2120884Y1311549D01*
X2120897Y551550D02*
G01*
X3136897Y551550D01*
X2120897Y755650D02*
G01*
X3136900Y755650D01*
X2120900Y1187450D02*
G01*
X3136902Y1187450D01*
X3136900Y742950D02*
G01*
X3164941Y742950D01*
X3187700Y720191D01*
X3187700Y821791D01*
X3162300Y796391D01*
X3149600Y796391D01*
X2590812Y1123950D02*
G01*
X2667012Y1123950D01*
X2667012Y831850D01*
X2590812Y831850D01*
X2590812Y1123950D01*
X3200397Y1298846D02*
G01*
X4216397Y1298849D01*
X4216397Y1298849D02*
G01*
X4216397Y538850D01*
X3200384Y538850D02*
G01*
X3200384Y1298849D01*
X3200397Y538850D02*
G01*
X4216397Y538850D01*
X3200397Y742950D02*
G01*
X4216400Y742950D01*
X3200400Y1174750D02*
G01*
X4216402Y1174750D01*
X4216400Y730250D02*
G01*
X4244441Y730250D01*
X4267200Y707491D01*
X4267200Y809091D01*
X4241800Y783691D01*
X4229100Y783691D01*
X3670312Y1111250D02*
G01*
X3746512Y1111250D01*
X3746512Y819150D01*
X3670312Y819150D01*
X3670312Y1111250D01*
D14*
G75*
G01*
X10196840Y1681485D02*
G03*
X10197094Y1681485I127J-19999D01*
G75*
G01*
X9117340Y1681485D02*
G03*
X9117594Y1681485I127J-19999D01*
G75*
G01*
X8037840Y1681485D02*
G03*
X8038094Y1681485I127J-19999D01*
G75*
G01*
X11431280Y2597155D02*
G03*
X11431280Y2597409I20000J127D01*
G75*
G01*
X11431280Y3744389D02*
G03*
X11431280Y3744643I20000J127D01*
G75*
G01*
X11431280Y4891621D02*
G03*
X11431280Y4891875I20000J127D01*
G75*
G01*
X11431280Y6038855D02*
G03*
X11431280Y6039109I20000J127D01*
G75*
G01*
X4907280Y5977890D02*
G03*
X4907280Y5978144I20000J127D01*
G75*
G01*
X4907280Y4830656D02*
G03*
X4907280Y4830910I20000J127D01*
G75*
G01*
X4907280Y3683424D02*
G03*
X4907280Y3683678I20000J127D01*
G75*
G01*
X4907280Y2536190D02*
G03*
X4907280Y2536444I20000J127D01*
G75*
G01*
X1513840Y1620520D02*
G03*
X1514094Y1620520I127J-20000D01*
G75*
G01*
X2593340Y1620520D02*
G03*
X2593594Y1620520I127J-20000D01*
G75*
G01*
X3672840Y1620520D02*
G03*
X3673094Y1620520I127J-20000D01*
D13*
G75*
G01
X10018565Y727715D02*
G03X10018565Y727715I-40157J0D01*
G75*
G01
X10526540Y727715D02*
G03X10526540Y727715I-40157J0D01*
G75*
G01
X8939065Y740415D02*
G03X8939065Y740415I-40157J0D01*
G75*
G01
X9447040Y740415D02*
G03X9447040Y740415I-40157J0D01*
G75*
G01
X7834165Y740415D02*
G03X7834165Y740415I-40157J0D01*
G75*
G01
X8342140Y740415D02*
G03X8342140Y740415I-40157J0D01*
G75*
G01
X12361715Y2404115D02*
G03X12361715Y2404115I-40157J0D01*
G75*
G01
X12361715Y2912090D02*
G03X12361715Y2912090I-40157J0D01*
G75*
G01
X12361715Y5807715D02*
G03X12361715Y5807715I-40157J0D01*
G75*
G01
X12361715Y6315690D02*
G03X12361715Y6315690I-40157J0D01*
G75*
G01
X12361715Y3538654D02*
G03X12361715Y3538654I-40157J0D01*
G75*
G01
X12361715Y4046629D02*
G03X12361715Y4046629I-40157J0D01*
G75*
G01
X12361715Y4673199D02*
G03X12361715Y4673199I-40157J0D01*
G75*
G01
X12361715Y5181173D02*
G03X12361715Y5181173I-40157J0D01*
G75*
G01
X7823566Y5756915D02*
G03X7823566Y5756915I-40157J0D01*
G75*
G01
X7823566Y6264890D02*
G03X7823566Y6264890I-40157J0D01*
G75*
G01
X1299566Y5695950D02*
G03X1299566Y5695950I-40157J0D01*
G75*
G01
X1299566Y6203925D02*
G03X1299566Y6203925I-40157J0D01*
G75*
G01
X5837715Y4612234D02*
G03X5837715Y4612234I-40157J0D01*
G75*
G01
X5837715Y5120208D02*
G03X5837715Y5120208I-40157J0D01*
G75*
G01
X5837715Y3477692D02*
G03X5837715Y3477692I-40157J0D01*
G75*
G01
X5837715Y3985666D02*
G03X5837715Y3985666I-40157J0D01*
G75*
G01
X5837715Y5746750D02*
G03X5837715Y5746750I-40157J0D01*
G75*
G01
X5837715Y6254725D02*
G03X5837715Y6254725I-40157J0D01*
G75*
G01
X5837715Y2343150D02*
G03X5837715Y2343150I-40157J0D01*
G75*
G01
X5837715Y2851125D02*
G03X5837715Y2851125I-40157J0D01*
G75*
G01
X1310165Y679450D02*
G03X1310165Y679450I-40157J0D01*
G75*
G01
X1818140Y679450D02*
G03X1818140Y679450I-40157J0D01*
G75*
G01
X2415065Y679450D02*
G03X2415065Y679450I-40157J0D01*
G75*
G01
X2923040Y679450D02*
G03X2923040Y679450I-40157J0D01*
G75*
G01
X3494565Y666750D02*
G03X3494565Y666750I-40157J0D01*
G75*
G01
X4002540Y666750D02*
G03X4002540Y666750I-40157J0D01*
M02*
