G04 Layer: BottomLayer*
G04 EasyEDA v6.5.9, 2022-12-18 14:38:18*
G04 6ed9124010b24111a11f212ffacae300,5dd06754fdd742daa6fe38bf62b7df6b,10*
G04 Gerber Generator version 0.2*
G04 Scale: 100 percent, Rotated: No, Reflected: No *
G04 Dimensions in millimeters *
G04 leading zeros omitted , absolute positions ,4 integer and 5 decimal *
%FSLAX45Y45*%
%MOMM*%

%ADD10C,0.2000*%
%ADD11C,1.2700*%
%ADD12C,1.0000*%
%ADD13C,2.0000*%

%LPD*%
D10*
X2348344Y2196868D02*
G01*
X2357582Y2206104D01*
X2371435Y2210724D01*
X2389908Y2210724D01*
X2403764Y2206104D01*
X2413000Y2196868D01*
X2413000Y2187633D01*
X2408382Y2178395D01*
X2403764Y2173777D01*
X2394526Y2169160D01*
X2366817Y2159924D01*
X2357582Y2155304D01*
X2352964Y2150686D01*
X2348344Y2141451D01*
X2348344Y2127595D01*
X2357582Y2118360D01*
X2371435Y2113742D01*
X2389908Y2113742D01*
X2403764Y2118360D01*
X2413000Y2127595D01*
X2294775Y2178395D02*
G01*
X2304011Y2173777D01*
X2313246Y2164542D01*
X2317864Y2150686D01*
X2317864Y2141451D01*
X2313246Y2127595D01*
X2304011Y2118360D01*
X2294775Y2113742D01*
X2280920Y2113742D01*
X2271684Y2118360D01*
X2262446Y2127595D01*
X2257828Y2141451D01*
X2257828Y2150686D01*
X2262446Y2164542D01*
X2271684Y2173777D01*
X2280920Y2178395D01*
X2294775Y2178395D01*
X2227348Y2210724D02*
G01*
X2227348Y2113742D01*
X2196868Y2210724D02*
G01*
X2192251Y2206104D01*
X2187633Y2210724D01*
X2192251Y2215342D01*
X2196868Y2210724D01*
X2192251Y2178395D02*
G01*
X2192251Y2113742D01*
X2157153Y2178395D02*
G01*
X2157153Y2113742D01*
X2157153Y2159924D02*
G01*
X2143297Y2173777D01*
X2134062Y2178395D01*
X2120206Y2178395D01*
X2110971Y2173777D01*
X2106353Y2159924D01*
X2106353Y2113742D01*
X2062017Y2210724D02*
G01*
X2062017Y2132215D01*
X2057400Y2118360D01*
X2048164Y2113742D01*
X2038926Y2113742D01*
X2075873Y2178395D02*
G01*
X2043544Y2178395D01*
X2008446Y2150686D02*
G01*
X1953028Y2150686D01*
X1953028Y2159924D01*
X1957646Y2169160D01*
X1962264Y2173777D01*
X1971502Y2178395D01*
X1985355Y2178395D01*
X1994593Y2173777D01*
X2003828Y2164542D01*
X2008446Y2150686D01*
X2008446Y2141451D01*
X2003828Y2127595D01*
X1994593Y2118360D01*
X1985355Y2113742D01*
X1971502Y2113742D01*
X1962264Y2118360D01*
X1953028Y2127595D01*
X1867131Y2164542D02*
G01*
X1876366Y2173777D01*
X1885604Y2178395D01*
X1899457Y2178395D01*
X1908695Y2173777D01*
X1917931Y2164542D01*
X1922548Y2150686D01*
X1922548Y2141451D01*
X1917931Y2127595D01*
X1908695Y2118360D01*
X1899457Y2113742D01*
X1885604Y2113742D01*
X1876366Y2118360D01*
X1867131Y2127595D01*
X1700875Y2196868D02*
G01*
X1710113Y2206104D01*
X1723966Y2210724D01*
X1742439Y2210724D01*
X1756295Y2206104D01*
X1765531Y2196868D01*
X1765531Y2187633D01*
X1760913Y2178395D01*
X1756295Y2173777D01*
X1747057Y2169160D01*
X1719348Y2159924D01*
X1710113Y2155304D01*
X1705495Y2150686D01*
X1700875Y2141451D01*
X1700875Y2127595D01*
X1710113Y2118360D01*
X1723966Y2113742D01*
X1742439Y2113742D01*
X1756295Y2118360D01*
X1765531Y2127595D01*
X1670395Y2210724D02*
G01*
X1670395Y2113742D01*
X1670395Y2210724D02*
G01*
X1628833Y2210724D01*
X1614977Y2206104D01*
X1610360Y2201486D01*
X1605742Y2192251D01*
X1605742Y2183015D01*
X1610360Y2173777D01*
X1614977Y2169160D01*
X1628833Y2164542D01*
X1670395Y2164542D01*
X1638068Y2164542D02*
G01*
X1605742Y2113742D01*
X1575262Y2210724D02*
G01*
X1575262Y2113742D01*
X1575262Y2113742D02*
G01*
X1519844Y2113742D01*
D11*
X2159000Y889000D02*
G01*
X2159000Y1016000D01*
X2032000Y1143000D01*
X1651000Y1143000D01*
X1397000Y1143000D01*
X381000Y510540D02*
G01*
X764540Y510540D01*
X889000Y635000D01*
X889000Y1143000D01*
X762000Y1270000D01*
X762000Y1524000D01*
X889000Y1651000D01*
X1143000Y1651000D01*
X381000Y1013460D02*
G01*
X381000Y1397000D01*
X1905000Y381000D02*
G01*
X1397000Y381000D01*
X1905000Y1397000D02*
G01*
X2286000Y1397000D01*
X2413000Y1270000D01*
X2413000Y508000D01*
X2286000Y381000D01*
X2159000Y381000D01*
X1905000Y1651000D02*
G01*
X1778000Y1651000D01*
X1651000Y1524000D01*
X1651000Y1143000D01*
X1143000Y1905000D02*
G01*
X635000Y1905000D01*
X381000Y2159000D01*
D12*
G01*
X-174599Y1489201D03*
G01*
X6164198Y989202D03*
G01*
X-174599Y-10029799D03*
G01*
X6164198Y-9529800D03*
D13*
X1192999Y1905000D02*
G01*
X1093000Y1905000D01*
X1192999Y1651000D02*
G01*
X1093000Y1651000D01*
X1855000Y1651000D02*
G01*
X1954999Y1651000D01*
X1855000Y1905000D02*
G01*
X1954999Y1905000D01*
X1192999Y1397000D02*
G01*
X1093000Y1397000D01*
X1855000Y1397000D02*
G01*
X1954999Y1397000D01*
X282879Y1013460D02*
G01*
X479120Y1013460D01*
X282879Y510540D02*
G01*
X479120Y510540D01*
X1905000Y889000D02*
G01*
X1905000Y889000D01*
X2159000Y889000D02*
G01*
X2159000Y889000D01*
X1905000Y635000D02*
G01*
X1905000Y635000D01*
X2159000Y635000D02*
G01*
X2159000Y635000D01*
X1905000Y381000D02*
G01*
X1905000Y381000D01*
X2159000Y381000D02*
G01*
X2159000Y381000D01*
X381000Y1397000D02*
G01*
X381000Y1397000D01*
X381000Y2159000D02*
G01*
X381000Y2159000D01*
X1397000Y1143000D02*
G01*
X1397000Y1143000D01*
X1397000Y381000D02*
G01*
X1397000Y381000D01*
M02*
