G04 Layer: BottomSolderMaskLayer*
G04 EasyEDA v6.5.9, 2022-12-18 14:38:18*
G04 6ed9124010b24111a11f212ffacae300,5dd06754fdd742daa6fe38bf62b7df6b,10*
G04 Gerber Generator version 0.2*
G04 Scale: 100 percent, Rotated: No, Reflected: No *
G04 Dimensions in millimeters *
G04 leading zeros omitted , absolute positions ,4 integer and 5 decimal *
%FSLAX45Y45*%
%MOMM*%

%ADD10C,2.1016*%
%ADD11C,3.0000*%

%LPD*%
D10*
X1192999Y1905000D02*
G01*
X1093000Y1905000D01*
X1192999Y1651000D02*
G01*
X1093000Y1651000D01*
X1855000Y1651000D02*
G01*
X1954999Y1651000D01*
X1855000Y1905000D02*
G01*
X1954999Y1905000D01*
X1192999Y1397000D02*
G01*
X1093000Y1397000D01*
X1855000Y1397000D02*
G01*
X1954999Y1397000D01*
X282879Y1013460D02*
G01*
X479120Y1013460D01*
X282879Y510540D02*
G01*
X479120Y510540D01*
X1905000Y889000D02*
G01*
X1905000Y889000D01*
X2159000Y889000D02*
G01*
X2159000Y889000D01*
X1905000Y635000D02*
G01*
X1905000Y635000D01*
X2159000Y635000D02*
G01*
X2159000Y635000D01*
X1905000Y381000D02*
G01*
X1905000Y381000D01*
X2159000Y381000D02*
G01*
X2159000Y381000D01*
X381000Y1397000D02*
G01*
X381000Y1397000D01*
X381000Y2159000D02*
G01*
X381000Y2159000D01*
X1397000Y1143000D02*
G01*
X1397000Y1143000D01*
X1397000Y381000D02*
G01*
X1397000Y381000D01*
D11*
G01*
X-174599Y1489201D03*
G01*
X6164198Y989202D03*
G01*
X-174599Y-10029799D03*
G01*
X6164198Y-9529800D03*
M02*
