G04 Layer: MechanicalLayer*
G04 Panelize: V-CUT, Column: 2, Row: 5, Board Size: 28.19mm x 24.64mm, Panelized Board Size: 59.39mm x 135.19mm*
G04 EasyEDA v6.5.9, 2022-12-18 14:38:18*
G04 6ed9124010b24111a11f212ffacae300,5dd06754fdd742daa6fe38bf62b7df6b,10*
G04 Gerber Generator version 0.2*
G04 Scale: 100 percent, Rotated: No, Reflected: No *
G04 Dimensions in millimeters *
G04 leading zeros omitted , absolute positions ,4 integer and 5 decimal *
%FSLAX45Y45*%
%MOMM*%

%ADD10C,0.2540*%

%LPD*%
D10*
X25400Y3913378D02*
G01*
X25400Y3719576D01*
X25400Y3913378D02*
G01*
X108458Y3913378D01*
X136144Y3904234D01*
X145542Y3895090D01*
X154686Y3876548D01*
X154686Y3858006D01*
X145542Y3839464D01*
X136144Y3830320D01*
X108458Y3821176D01*
X25400Y3821176D01*
X90170Y3821176D02*
G01*
X154686Y3719576D01*
X261874Y3848862D02*
G01*
X243332Y3839464D01*
X224790Y3821176D01*
X215646Y3793490D01*
X215646Y3774948D01*
X224790Y3747262D01*
X243332Y3728720D01*
X261874Y3719576D01*
X289560Y3719576D01*
X308102Y3728720D01*
X326390Y3747262D01*
X335788Y3774948D01*
X335788Y3793490D01*
X326390Y3821176D01*
X308102Y3839464D01*
X289560Y3848862D01*
X261874Y3848862D01*
X396748Y3848862D02*
G01*
X433578Y3719576D01*
X470662Y3848862D02*
G01*
X433578Y3719576D01*
X470662Y3848862D02*
G01*
X507492Y3719576D01*
X544576Y3848862D02*
G01*
X507492Y3719576D01*
X877062Y3885692D02*
G01*
X858519Y3904234D01*
X830834Y3913378D01*
X793750Y3913378D01*
X766064Y3904234D01*
X747776Y3885692D01*
X747776Y3867150D01*
X756920Y3848862D01*
X766064Y3839464D01*
X784606Y3830320D01*
X839978Y3811778D01*
X858519Y3802634D01*
X867664Y3793490D01*
X877062Y3774948D01*
X877062Y3747262D01*
X858519Y3728720D01*
X830834Y3719576D01*
X793750Y3719576D01*
X766064Y3728720D01*
X747776Y3747262D01*
X938021Y3848862D02*
G01*
X938021Y3654806D01*
X938021Y3821176D02*
G01*
X956310Y3839464D01*
X974852Y3848862D01*
X1002537Y3848862D01*
X1021080Y3839464D01*
X1039621Y3821176D01*
X1048766Y3793490D01*
X1048766Y3774948D01*
X1039621Y3747262D01*
X1021080Y3728720D01*
X1002537Y3719576D01*
X974852Y3719576D01*
X956310Y3728720D01*
X938021Y3747262D01*
X1220470Y3848862D02*
G01*
X1220470Y3719576D01*
X1220470Y3821176D02*
G01*
X1202182Y3839464D01*
X1183640Y3848862D01*
X1155954Y3848862D01*
X1137412Y3839464D01*
X1118870Y3821176D01*
X1109726Y3793490D01*
X1109726Y3774948D01*
X1118870Y3747262D01*
X1137412Y3728720D01*
X1155954Y3719576D01*
X1183640Y3719576D01*
X1202182Y3728720D01*
X1220470Y3747262D01*
X1392428Y3821176D02*
G01*
X1373886Y3839464D01*
X1355344Y3848862D01*
X1327658Y3848862D01*
X1309370Y3839464D01*
X1290828Y3821176D01*
X1281430Y3793490D01*
X1281430Y3774948D01*
X1290828Y3747262D01*
X1309370Y3728720D01*
X1327658Y3719576D01*
X1355344Y3719576D01*
X1373886Y3728720D01*
X1392428Y3747262D01*
X1453388Y3913378D02*
G01*
X1462532Y3904234D01*
X1471930Y3913378D01*
X1462532Y3922776D01*
X1453388Y3913378D01*
X1462532Y3848862D02*
G01*
X1462532Y3719576D01*
X1532890Y3848862D02*
G01*
X1532890Y3719576D01*
X1532890Y3811778D02*
G01*
X1560576Y3839464D01*
X1578864Y3848862D01*
X1606550Y3848862D01*
X1625092Y3839464D01*
X1634489Y3811778D01*
X1634489Y3719576D01*
X1806193Y3848862D02*
G01*
X1806193Y3701034D01*
X1797050Y3673348D01*
X1787652Y3663950D01*
X1769110Y3654806D01*
X1741424Y3654806D01*
X1723136Y3663950D01*
X1806193Y3821176D02*
G01*
X1787652Y3839464D01*
X1769110Y3848862D01*
X1741424Y3848862D01*
X1723136Y3839464D01*
X1704593Y3821176D01*
X1695450Y3793490D01*
X1695450Y3774948D01*
X1704593Y3747262D01*
X1723136Y3728720D01*
X1741424Y3719576D01*
X1769110Y3719576D01*
X1787652Y3728720D01*
X1806193Y3747262D01*
X1876298Y3830320D02*
G01*
X1867154Y3821176D01*
X1876298Y3811778D01*
X1885696Y3821176D01*
X1876298Y3830320D01*
X1876298Y3765550D02*
G01*
X1867154Y3756406D01*
X1876298Y3747262D01*
X1885696Y3756406D01*
X1876298Y3765550D01*
X2107184Y3913378D02*
G01*
X2208784Y3913378D01*
X2153412Y3839464D01*
X2181098Y3839464D01*
X2199640Y3830320D01*
X2208784Y3821176D01*
X2218182Y3793490D01*
X2218182Y3774948D01*
X2208784Y3747262D01*
X2190496Y3728720D01*
X2162810Y3719576D01*
X2134870Y3719576D01*
X2107184Y3728720D01*
X2098040Y3737864D01*
X2088896Y3756406D01*
X2279142Y3848862D02*
G01*
X2279142Y3719576D01*
X2279142Y3811778D02*
G01*
X2306828Y3839464D01*
X2325370Y3848862D01*
X2353056Y3848862D01*
X2371344Y3839464D01*
X2380742Y3811778D01*
X2380742Y3719576D01*
X2380742Y3811778D02*
G01*
X2408428Y3839464D01*
X2426970Y3848862D01*
X2454656Y3848862D01*
X2472944Y3839464D01*
X2482342Y3811778D01*
X2482342Y3719576D01*
X2543302Y3848862D02*
G01*
X2543302Y3719576D01*
X2543302Y3811778D02*
G01*
X2570988Y3839464D01*
X2589530Y3848862D01*
X2617216Y3848862D01*
X2635504Y3839464D01*
X2644902Y3811778D01*
X2644902Y3719576D01*
X2644902Y3811778D02*
G01*
X2672588Y3839464D01*
X2691130Y3848862D01*
X2718816Y3848862D01*
X2737104Y3839464D01*
X2746502Y3811778D01*
X2746502Y3719576D01*
X163830Y3562350D02*
G01*
X154686Y3580892D01*
X136144Y3599434D01*
X117856Y3608578D01*
X80772Y3608578D01*
X62230Y3599434D01*
X43942Y3580892D01*
X34544Y3562350D01*
X25400Y3534664D01*
X25400Y3488690D01*
X34544Y3460750D01*
X43942Y3442462D01*
X62230Y3423920D01*
X80772Y3414776D01*
X117856Y3414776D01*
X136144Y3423920D01*
X154686Y3442462D01*
X163830Y3460750D01*
X271018Y3544062D02*
G01*
X252729Y3534664D01*
X234188Y3516376D01*
X224790Y3488690D01*
X224790Y3470148D01*
X234188Y3442462D01*
X252729Y3423920D01*
X271018Y3414776D01*
X298704Y3414776D01*
X317246Y3423920D01*
X335788Y3442462D01*
X344932Y3470148D01*
X344932Y3488690D01*
X335788Y3516376D01*
X317246Y3534664D01*
X298704Y3544062D01*
X271018Y3544062D01*
X405892Y3608578D02*
G01*
X405892Y3414776D01*
X466851Y3544062D02*
G01*
X466851Y3451606D01*
X476250Y3423920D01*
X494538Y3414776D01*
X522224Y3414776D01*
X540766Y3423920D01*
X568452Y3451606D01*
X568452Y3544062D02*
G01*
X568452Y3414776D01*
X629412Y3544062D02*
G01*
X629412Y3414776D01*
X629412Y3506978D02*
G01*
X657098Y3534664D01*
X675640Y3544062D01*
X703326Y3544062D01*
X721868Y3534664D01*
X731012Y3506978D01*
X731012Y3414776D01*
X731012Y3506978D02*
G01*
X758698Y3534664D01*
X777240Y3544062D01*
X804926Y3544062D01*
X823468Y3534664D01*
X832612Y3506978D01*
X832612Y3414776D01*
X893571Y3544062D02*
G01*
X893571Y3414776D01*
X893571Y3506978D02*
G01*
X921258Y3534664D01*
X939800Y3544062D01*
X967486Y3544062D01*
X986028Y3534664D01*
X995171Y3506978D01*
X995171Y3414776D01*
X1327658Y3580892D02*
G01*
X1309370Y3599434D01*
X1281430Y3608578D01*
X1244600Y3608578D01*
X1216914Y3599434D01*
X1198372Y3580892D01*
X1198372Y3562350D01*
X1207770Y3544062D01*
X1216914Y3534664D01*
X1235456Y3525520D01*
X1290828Y3506978D01*
X1309370Y3497834D01*
X1318514Y3488690D01*
X1327658Y3470148D01*
X1327658Y3442462D01*
X1309370Y3423920D01*
X1281430Y3414776D01*
X1244600Y3414776D01*
X1216914Y3423920D01*
X1198372Y3442462D01*
X1388618Y3544062D02*
G01*
X1388618Y3350006D01*
X1388618Y3516376D02*
G01*
X1407160Y3534664D01*
X1425702Y3544062D01*
X1453388Y3544062D01*
X1471930Y3534664D01*
X1490218Y3516376D01*
X1499616Y3488690D01*
X1499616Y3470148D01*
X1490218Y3442462D01*
X1471930Y3423920D01*
X1453388Y3414776D01*
X1425702Y3414776D01*
X1407160Y3423920D01*
X1388618Y3442462D01*
X1671320Y3544062D02*
G01*
X1671320Y3414776D01*
X1671320Y3516376D02*
G01*
X1652778Y3534664D01*
X1634489Y3544062D01*
X1606550Y3544062D01*
X1588262Y3534664D01*
X1569720Y3516376D01*
X1560576Y3488690D01*
X1560576Y3470148D01*
X1569720Y3442462D01*
X1588262Y3423920D01*
X1606550Y3414776D01*
X1634489Y3414776D01*
X1652778Y3423920D01*
X1671320Y3442462D01*
X1843024Y3516376D02*
G01*
X1824736Y3534664D01*
X1806193Y3544062D01*
X1778507Y3544062D01*
X1759966Y3534664D01*
X1741424Y3516376D01*
X1732280Y3488690D01*
X1732280Y3470148D01*
X1741424Y3442462D01*
X1759966Y3423920D01*
X1778507Y3414776D01*
X1806193Y3414776D01*
X1824736Y3423920D01*
X1843024Y3442462D01*
X1903984Y3608578D02*
G01*
X1913382Y3599434D01*
X1922525Y3608578D01*
X1913382Y3617976D01*
X1903984Y3608578D01*
X1913382Y3544062D02*
G01*
X1913382Y3414776D01*
X1983486Y3544062D02*
G01*
X1983486Y3414776D01*
X1983486Y3506978D02*
G01*
X2011172Y3534664D01*
X2029714Y3544062D01*
X2057400Y3544062D01*
X2075942Y3534664D01*
X2085086Y3506978D01*
X2085086Y3414776D01*
X2256790Y3544062D02*
G01*
X2256790Y3396234D01*
X2247646Y3368548D01*
X2238502Y3359150D01*
X2219960Y3350006D01*
X2192274Y3350006D01*
X2173732Y3359150D01*
X2256790Y3516376D02*
G01*
X2238502Y3534664D01*
X2219960Y3544062D01*
X2192274Y3544062D01*
X2173732Y3534664D01*
X2155190Y3516376D01*
X2146046Y3488690D01*
X2146046Y3470148D01*
X2155190Y3442462D01*
X2173732Y3423920D01*
X2192274Y3414776D01*
X2219960Y3414776D01*
X2238502Y3423920D01*
X2256790Y3442462D01*
X2327148Y3525520D02*
G01*
X2317750Y3516376D01*
X2327148Y3506978D01*
X2336292Y3516376D01*
X2327148Y3525520D01*
X2327148Y3460750D02*
G01*
X2317750Y3451606D01*
X2327148Y3442462D01*
X2336292Y3451606D01*
X2327148Y3460750D01*
X2558034Y3608578D02*
G01*
X2659634Y3608578D01*
X2604262Y3534664D01*
X2631948Y3534664D01*
X2650490Y3525520D01*
X2659634Y3516376D01*
X2668778Y3488690D01*
X2668778Y3470148D01*
X2659634Y3442462D01*
X2641092Y3423920D01*
X2613406Y3414776D01*
X2585720Y3414776D01*
X2558034Y3423920D01*
X2548890Y3433064D01*
X2539492Y3451606D01*
X2729738Y3544062D02*
G01*
X2729738Y3414776D01*
X2729738Y3506978D02*
G01*
X2757424Y3534664D01*
X2775966Y3544062D01*
X2803652Y3544062D01*
X2822194Y3534664D01*
X2831338Y3506978D01*
X2831338Y3414776D01*
X2831338Y3506978D02*
G01*
X2859024Y3534664D01*
X2877566Y3544062D01*
X2905252Y3544062D01*
X2923794Y3534664D01*
X2932938Y3506978D01*
X2932938Y3414776D01*
X2993898Y3544062D02*
G01*
X2993898Y3414776D01*
X2993898Y3506978D02*
G01*
X3021584Y3534664D01*
X3040126Y3544062D01*
X3067812Y3544062D01*
X3086354Y3534664D01*
X3095498Y3506978D01*
X3095498Y3414776D01*
X3095498Y3506978D02*
G01*
X3123184Y3534664D01*
X3141726Y3544062D01*
X3169412Y3544062D01*
X3187954Y3534664D01*
X3197098Y3506978D01*
X3197098Y3414776D01*
X163830Y3257550D02*
G01*
X154686Y3276092D01*
X136144Y3294634D01*
X117856Y3303778D01*
X80772Y3303778D01*
X62230Y3294634D01*
X43942Y3276092D01*
X34544Y3257550D01*
X25400Y3229864D01*
X25400Y3183890D01*
X34544Y3155950D01*
X43942Y3137662D01*
X62230Y3119120D01*
X80772Y3109976D01*
X117856Y3109976D01*
X136144Y3119120D01*
X154686Y3137662D01*
X163830Y3155950D01*
X271018Y3239262D02*
G01*
X252729Y3229864D01*
X234188Y3211576D01*
X224790Y3183890D01*
X224790Y3165348D01*
X234188Y3137662D01*
X252729Y3119120D01*
X271018Y3109976D01*
X298704Y3109976D01*
X317246Y3119120D01*
X335788Y3137662D01*
X344932Y3165348D01*
X344932Y3183890D01*
X335788Y3211576D01*
X317246Y3229864D01*
X298704Y3239262D01*
X271018Y3239262D01*
X405892Y3239262D02*
G01*
X405892Y3146806D01*
X415290Y3119120D01*
X433578Y3109976D01*
X461264Y3109976D01*
X479806Y3119120D01*
X507492Y3146806D01*
X507492Y3239262D02*
G01*
X507492Y3109976D01*
X568452Y3239262D02*
G01*
X568452Y3109976D01*
X568452Y3202178D02*
G01*
X596138Y3229864D01*
X614680Y3239262D01*
X642366Y3239262D01*
X660908Y3229864D01*
X670052Y3202178D01*
X670052Y3109976D01*
X758698Y3303778D02*
G01*
X758698Y3146806D01*
X768096Y3119120D01*
X786384Y3109976D01*
X804926Y3109976D01*
X731012Y3239262D02*
G01*
X795782Y3239262D01*
X875030Y3220720D02*
G01*
X865886Y3211576D01*
X875030Y3202178D01*
X884428Y3211576D01*
X875030Y3220720D01*
X875030Y3155950D02*
G01*
X865886Y3146806D01*
X875030Y3137662D01*
X884428Y3146806D01*
X875030Y3155950D01*
X1198372Y3303778D02*
G01*
X1106170Y3303778D01*
X1096772Y3220720D01*
X1106170Y3229864D01*
X1133856Y3239262D01*
X1161542Y3239262D01*
X1189228Y3229864D01*
X1207770Y3211576D01*
X1216914Y3183890D01*
X1216914Y3165348D01*
X1207770Y3137662D01*
X1189228Y3119120D01*
X1161542Y3109976D01*
X1133856Y3109976D01*
X1106170Y3119120D01*
X1096772Y3128264D01*
X1087628Y3146806D01*
X1420114Y3239262D02*
G01*
X1521714Y3109976D01*
X1521714Y3239262D02*
G01*
X1420114Y3109976D01*
X1734057Y3257550D02*
G01*
X1734057Y3266948D01*
X1743456Y3285490D01*
X1752600Y3294634D01*
X1771142Y3303778D01*
X1807972Y3303778D01*
X1826514Y3294634D01*
X1835657Y3285490D01*
X1845056Y3266948D01*
X1845056Y3248406D01*
X1835657Y3229864D01*
X1817370Y3202178D01*
X1724914Y3109976D01*
X1854200Y3109976D01*
X25400Y2998978D02*
G01*
X25400Y2805176D01*
X25400Y2998978D02*
G01*
X108458Y2998978D01*
X136144Y2989834D01*
X145542Y2980690D01*
X154686Y2962148D01*
X154686Y2943606D01*
X145542Y2925064D01*
X136144Y2915920D01*
X108458Y2906776D01*
X25400Y2906776D01*
X90170Y2906776D02*
G01*
X154686Y2805176D01*
X215646Y2879090D02*
G01*
X326390Y2879090D01*
X326390Y2897378D01*
X317246Y2915920D01*
X308102Y2925064D01*
X289560Y2934462D01*
X261874Y2934462D01*
X243332Y2925064D01*
X224790Y2906776D01*
X215646Y2879090D01*
X215646Y2860548D01*
X224790Y2832862D01*
X243332Y2814320D01*
X261874Y2805176D01*
X289560Y2805176D01*
X308102Y2814320D01*
X326390Y2832862D01*
X387350Y2934462D02*
G01*
X387350Y2805176D01*
X387350Y2897378D02*
G01*
X415290Y2925064D01*
X433578Y2934462D01*
X461264Y2934462D01*
X479806Y2925064D01*
X488950Y2897378D01*
X488950Y2805176D01*
X488950Y2897378D02*
G01*
X516890Y2925064D01*
X535178Y2934462D01*
X562864Y2934462D01*
X581406Y2925064D01*
X590550Y2897378D01*
X590550Y2805176D01*
X762508Y2934462D02*
G01*
X762508Y2805176D01*
X762508Y2906776D02*
G01*
X743966Y2925064D01*
X725424Y2934462D01*
X697738Y2934462D01*
X679450Y2925064D01*
X660908Y2906776D01*
X651510Y2879090D01*
X651510Y2860548D01*
X660908Y2832862D01*
X679450Y2814320D01*
X697738Y2805176D01*
X725424Y2805176D01*
X743966Y2814320D01*
X762508Y2832862D01*
X823468Y2934462D02*
G01*
X823468Y2805176D01*
X823468Y2879090D02*
G01*
X832612Y2906776D01*
X851153Y2925064D01*
X869696Y2934462D01*
X897382Y2934462D01*
X958342Y2998978D02*
G01*
X958342Y2805176D01*
X1050544Y2934462D02*
G01*
X958342Y2842006D01*
X995171Y2879090D02*
G01*
X1059942Y2805176D01*
X1130046Y2915920D02*
G01*
X1120902Y2906776D01*
X1130046Y2897378D01*
X1139190Y2906776D01*
X1130046Y2915920D01*
X1130046Y2851150D02*
G01*
X1120902Y2842006D01*
X1130046Y2832862D01*
X1139190Y2842006D01*
X1130046Y2851150D01*
X1407160Y2998978D02*
G01*
X1407160Y2805176D01*
X1342390Y2998978D02*
G01*
X1471930Y2998978D01*
X1532890Y2998978D02*
G01*
X1532890Y2805176D01*
X1532890Y2897378D02*
G01*
X1560576Y2925064D01*
X1578864Y2934462D01*
X1606550Y2934462D01*
X1625092Y2925064D01*
X1634489Y2897378D01*
X1634489Y2805176D01*
X1695450Y2998978D02*
G01*
X1704593Y2989834D01*
X1713738Y2998978D01*
X1704593Y3008376D01*
X1695450Y2998978D01*
X1704593Y2934462D02*
G01*
X1704593Y2805176D01*
X1876298Y2906776D02*
G01*
X1867154Y2925064D01*
X1839468Y2934462D01*
X1811782Y2934462D01*
X1784096Y2925064D01*
X1774698Y2906776D01*
X1784096Y2888234D01*
X1802384Y2879090D01*
X1848612Y2869692D01*
X1867154Y2860548D01*
X1876298Y2842006D01*
X1876298Y2832862D01*
X1867154Y2814320D01*
X1839468Y2805176D01*
X1811782Y2805176D01*
X1784096Y2814320D01*
X1774698Y2832862D01*
X2218182Y2952750D02*
G01*
X2208784Y2971292D01*
X2190496Y2989834D01*
X2171954Y2998978D01*
X2134870Y2998978D01*
X2116582Y2989834D01*
X2098040Y2971292D01*
X2088896Y2952750D01*
X2079498Y2925064D01*
X2079498Y2879090D01*
X2088896Y2851150D01*
X2098040Y2832862D01*
X2116582Y2814320D01*
X2134870Y2805176D01*
X2171954Y2805176D01*
X2190496Y2814320D01*
X2208784Y2832862D01*
X2218182Y2851150D01*
X2218182Y2879090D01*
X2171954Y2879090D02*
G01*
X2218182Y2879090D01*
X2279142Y2879090D02*
G01*
X2389886Y2879090D01*
X2389886Y2897378D01*
X2380742Y2915920D01*
X2371344Y2925064D01*
X2353056Y2934462D01*
X2325370Y2934462D01*
X2306828Y2925064D01*
X2288286Y2906776D01*
X2279142Y2879090D01*
X2279142Y2860548D01*
X2288286Y2832862D01*
X2306828Y2814320D01*
X2325370Y2805176D01*
X2353056Y2805176D01*
X2371344Y2814320D01*
X2389886Y2832862D01*
X2450846Y2934462D02*
G01*
X2450846Y2805176D01*
X2450846Y2879090D02*
G01*
X2459990Y2906776D01*
X2478532Y2925064D01*
X2497074Y2934462D01*
X2524760Y2934462D01*
X2585720Y2998978D02*
G01*
X2585720Y2805176D01*
X2585720Y2906776D02*
G01*
X2604262Y2925064D01*
X2622550Y2934462D01*
X2650490Y2934462D01*
X2668778Y2925064D01*
X2687320Y2906776D01*
X2696464Y2879090D01*
X2696464Y2860548D01*
X2687320Y2832862D01*
X2668778Y2814320D01*
X2650490Y2805176D01*
X2622550Y2805176D01*
X2604262Y2814320D01*
X2585720Y2832862D01*
X2757424Y2879090D02*
G01*
X2868422Y2879090D01*
X2868422Y2897378D01*
X2859024Y2915920D01*
X2849880Y2925064D01*
X2831338Y2934462D01*
X2803652Y2934462D01*
X2785110Y2925064D01*
X2766822Y2906776D01*
X2757424Y2879090D01*
X2757424Y2860548D01*
X2766822Y2832862D01*
X2785110Y2814320D01*
X2803652Y2805176D01*
X2831338Y2805176D01*
X2849880Y2814320D01*
X2868422Y2832862D01*
X2929382Y2934462D02*
G01*
X2929382Y2805176D01*
X2929382Y2879090D02*
G01*
X2938526Y2906776D01*
X2957068Y2925064D01*
X2975610Y2934462D01*
X3003296Y2934462D01*
X3206496Y2998978D02*
G01*
X3215640Y2989834D01*
X3224784Y2998978D01*
X3215640Y3008376D01*
X3206496Y2998978D01*
X3215640Y2934462D02*
G01*
X3215640Y2805176D01*
X3387344Y2906776D02*
G01*
X3378200Y2925064D01*
X3350514Y2934462D01*
X3322828Y2934462D01*
X3295142Y2925064D01*
X3285744Y2906776D01*
X3295142Y2888234D01*
X3313429Y2879090D01*
X3359658Y2869692D01*
X3378200Y2860548D01*
X3387344Y2842006D01*
X3387344Y2832862D01*
X3378200Y2814320D01*
X3350514Y2805176D01*
X3322828Y2805176D01*
X3295142Y2814320D01*
X3285744Y2832862D01*
X3701542Y2934462D02*
G01*
X3701542Y2805176D01*
X3701542Y2906776D02*
G01*
X3683000Y2925064D01*
X3664458Y2934462D01*
X3636772Y2934462D01*
X3618229Y2925064D01*
X3599942Y2906776D01*
X3590544Y2879090D01*
X3590544Y2860548D01*
X3599942Y2832862D01*
X3618229Y2814320D01*
X3636772Y2805176D01*
X3664458Y2805176D01*
X3683000Y2814320D01*
X3701542Y2832862D01*
X3904742Y2934462D02*
G01*
X3904742Y2740406D01*
X3904742Y2906776D02*
G01*
X3923029Y2925064D01*
X3941572Y2934462D01*
X3969258Y2934462D01*
X3987800Y2925064D01*
X4006342Y2906776D01*
X4015486Y2879090D01*
X4015486Y2860548D01*
X4006342Y2832862D01*
X3987800Y2814320D01*
X3969258Y2805176D01*
X3941572Y2805176D01*
X3923029Y2814320D01*
X3904742Y2832862D01*
X4187190Y2934462D02*
G01*
X4187190Y2805176D01*
X4187190Y2906776D02*
G01*
X4168901Y2925064D01*
X4150360Y2934462D01*
X4122674Y2934462D01*
X4104132Y2925064D01*
X4085590Y2906776D01*
X4076446Y2879090D01*
X4076446Y2860548D01*
X4085590Y2832862D01*
X4104132Y2814320D01*
X4122674Y2805176D01*
X4150360Y2805176D01*
X4168901Y2814320D01*
X4187190Y2832862D01*
X4248150Y2934462D02*
G01*
X4248150Y2805176D01*
X4248150Y2897378D02*
G01*
X4276090Y2925064D01*
X4294378Y2934462D01*
X4322064Y2934462D01*
X4340606Y2925064D01*
X4349750Y2897378D01*
X4349750Y2805176D01*
X4410710Y2879090D02*
G01*
X4521708Y2879090D01*
X4521708Y2897378D01*
X4512310Y2915920D01*
X4503166Y2925064D01*
X4484624Y2934462D01*
X4456938Y2934462D01*
X4438650Y2925064D01*
X4420108Y2906776D01*
X4410710Y2879090D01*
X4410710Y2860548D01*
X4420108Y2832862D01*
X4438650Y2814320D01*
X4456938Y2805176D01*
X4484624Y2805176D01*
X4503166Y2814320D01*
X4521708Y2832862D01*
X4582668Y2998978D02*
G01*
X4582668Y2805176D01*
X4643628Y2998978D02*
G01*
X4652772Y2989834D01*
X4662170Y2998978D01*
X4652772Y3008376D01*
X4643628Y2998978D01*
X4652772Y2934462D02*
G01*
X4652772Y2805176D01*
X4824730Y2934462D02*
G01*
X4723130Y2805176D01*
X4723130Y2934462D02*
G01*
X4824730Y2934462D01*
X4723130Y2805176D02*
G01*
X4824730Y2805176D01*
X4885690Y2879090D02*
G01*
X4996434Y2879090D01*
X4996434Y2897378D01*
X4987290Y2915920D01*
X4977892Y2925064D01*
X4959350Y2934462D01*
X4931664Y2934462D01*
X4913376Y2925064D01*
X4894834Y2906776D01*
X4885690Y2879090D01*
X4885690Y2860548D01*
X4894834Y2832862D01*
X4913376Y2814320D01*
X4931664Y2805176D01*
X4959350Y2805176D01*
X4977892Y2814320D01*
X4996434Y2832862D01*
X5168138Y2998978D02*
G01*
X5168138Y2805176D01*
X5168138Y2906776D02*
G01*
X5149850Y2925064D01*
X5131308Y2934462D01*
X5103622Y2934462D01*
X5085080Y2925064D01*
X5066538Y2906776D01*
X5057394Y2879090D01*
X5057394Y2860548D01*
X5066538Y2832862D01*
X5085080Y2814320D01*
X5103622Y2805176D01*
X5131308Y2805176D01*
X5149850Y2814320D01*
X5168138Y2832862D01*
X5445252Y2998978D02*
G01*
X5426710Y2998978D01*
X5408422Y2989834D01*
X5399024Y2962148D01*
X5399024Y2805176D01*
X5371338Y2934462D02*
G01*
X5436108Y2934462D01*
X5506212Y2998978D02*
G01*
X5515610Y2989834D01*
X5524754Y2998978D01*
X5515610Y3008376D01*
X5506212Y2998978D01*
X5515610Y2934462D02*
G01*
X5515610Y2805176D01*
X5585714Y2998978D02*
G01*
X5585714Y2805176D01*
X5646674Y2879090D02*
G01*
X5757418Y2879090D01*
X5757418Y2897378D01*
X5748274Y2915920D01*
X5739130Y2925064D01*
X5720588Y2934462D01*
X5692902Y2934462D01*
X5674360Y2925064D01*
X5655818Y2906776D01*
X5646674Y2879090D01*
X5646674Y2860548D01*
X5655818Y2832862D01*
X5674360Y2814320D01*
X5692902Y2805176D01*
X5720588Y2805176D01*
X5739130Y2814320D01*
X5757418Y2832862D01*
X5836920Y2842006D02*
G01*
X5827776Y2832862D01*
X5818378Y2842006D01*
X5827776Y2851150D01*
X5836920Y2842006D01*
X5836920Y2823464D01*
X5818378Y2805176D01*
X6040120Y2934462D02*
G01*
X6040120Y2740406D01*
X6040120Y2906776D02*
G01*
X6058662Y2925064D01*
X6076950Y2934462D01*
X6104890Y2934462D01*
X6123178Y2925064D01*
X6141720Y2906776D01*
X6150864Y2879090D01*
X6150864Y2860548D01*
X6141720Y2832862D01*
X6123178Y2814320D01*
X6104890Y2805176D01*
X6076950Y2805176D01*
X6058662Y2814320D01*
X6040120Y2832862D01*
X6322822Y2934462D02*
G01*
X6322822Y2805176D01*
X6322822Y2906776D02*
G01*
X6304280Y2925064D01*
X6285738Y2934462D01*
X6258052Y2934462D01*
X6239510Y2925064D01*
X6221222Y2906776D01*
X6211824Y2879090D01*
X6211824Y2860548D01*
X6221222Y2832862D01*
X6239510Y2814320D01*
X6258052Y2805176D01*
X6285738Y2805176D01*
X6304280Y2814320D01*
X6322822Y2832862D01*
X6383782Y2934462D02*
G01*
X6383782Y2805176D01*
X6383782Y2897378D02*
G01*
X6411468Y2925064D01*
X6430010Y2934462D01*
X6457696Y2934462D01*
X6475984Y2925064D01*
X6485382Y2897378D01*
X6485382Y2805176D01*
X6546342Y2879090D02*
G01*
X6657086Y2879090D01*
X6657086Y2897378D01*
X6647942Y2915920D01*
X6638544Y2925064D01*
X6620256Y2934462D01*
X6592570Y2934462D01*
X6574028Y2925064D01*
X6555486Y2906776D01*
X6546342Y2879090D01*
X6546342Y2860548D01*
X6555486Y2832862D01*
X6574028Y2814320D01*
X6592570Y2805176D01*
X6620256Y2805176D01*
X6638544Y2814320D01*
X6657086Y2832862D01*
X6718046Y2998978D02*
G01*
X6718046Y2805176D01*
X6779006Y2998978D02*
G01*
X6788150Y2989834D01*
X6797548Y2998978D01*
X6788150Y3008376D01*
X6779006Y2998978D01*
X6788150Y2934462D02*
G01*
X6788150Y2805176D01*
X6960108Y2934462D02*
G01*
X6858508Y2805176D01*
X6858508Y2934462D02*
G01*
X6960108Y2934462D01*
X6858508Y2805176D02*
G01*
X6960108Y2805176D01*
X7021068Y2879090D02*
G01*
X7131812Y2879090D01*
X7131812Y2897378D01*
X7122668Y2915920D01*
X7113270Y2925064D01*
X7094981Y2934462D01*
X7067296Y2934462D01*
X7048753Y2925064D01*
X7030212Y2906776D01*
X7021068Y2879090D01*
X7021068Y2860548D01*
X7030212Y2832862D01*
X7048753Y2814320D01*
X7067296Y2805176D01*
X7094981Y2805176D01*
X7113270Y2814320D01*
X7131812Y2832862D01*
X7303770Y2998978D02*
G01*
X7303770Y2805176D01*
X7303770Y2906776D02*
G01*
X7285228Y2925064D01*
X7266686Y2934462D01*
X7239000Y2934462D01*
X7220458Y2925064D01*
X7202170Y2906776D01*
X7192772Y2879090D01*
X7192772Y2860548D01*
X7202170Y2832862D01*
X7220458Y2814320D01*
X7239000Y2805176D01*
X7266686Y2805176D01*
X7285228Y2814320D01*
X7303770Y2832862D01*
X7506970Y2998978D02*
G01*
X7506970Y2805176D01*
X7506970Y2906776D02*
G01*
X7525258Y2925064D01*
X7543800Y2934462D01*
X7571486Y2934462D01*
X7590028Y2925064D01*
X7608570Y2906776D01*
X7617714Y2879090D01*
X7617714Y2860548D01*
X7608570Y2832862D01*
X7590028Y2814320D01*
X7571486Y2805176D01*
X7543800Y2805176D01*
X7525258Y2814320D01*
X7506970Y2832862D01*
X7687818Y2934462D02*
G01*
X7743190Y2805176D01*
X7798816Y2934462D02*
G01*
X7743190Y2805176D01*
X7724902Y2768092D01*
X7706359Y2749550D01*
X7687818Y2740406D01*
X7678674Y2740406D01*
X8029702Y2998978D02*
G01*
X8029702Y2842006D01*
X8038846Y2814320D01*
X8057388Y2805176D01*
X8075930Y2805176D01*
X8002016Y2934462D02*
G01*
X8066531Y2934462D01*
X8136890Y2998978D02*
G01*
X8136890Y2805176D01*
X8136890Y2897378D02*
G01*
X8164575Y2925064D01*
X8182864Y2934462D01*
X8210550Y2934462D01*
X8229092Y2925064D01*
X8238490Y2897378D01*
X8238490Y2805176D01*
X8299450Y2879090D02*
G01*
X8410194Y2879090D01*
X8410194Y2897378D01*
X8401050Y2915920D01*
X8391652Y2925064D01*
X8373109Y2934462D01*
X8345424Y2934462D01*
X8327136Y2925064D01*
X8308594Y2906776D01*
X8299450Y2879090D01*
X8299450Y2860548D01*
X8308594Y2832862D01*
X8327136Y2814320D01*
X8345424Y2805176D01*
X8373109Y2805176D01*
X8391652Y2814320D01*
X8410194Y2832862D01*
X8613394Y2998978D02*
G01*
X8613394Y2805176D01*
X8613394Y2906776D02*
G01*
X8631936Y2925064D01*
X8650224Y2934462D01*
X8677910Y2934462D01*
X8696452Y2925064D01*
X8714994Y2906776D01*
X8724138Y2879090D01*
X8724138Y2860548D01*
X8714994Y2832862D01*
X8696452Y2814320D01*
X8677910Y2805176D01*
X8650224Y2805176D01*
X8631936Y2814320D01*
X8613394Y2832862D01*
X8831326Y2934462D02*
G01*
X8812784Y2925064D01*
X8794496Y2906776D01*
X8785098Y2879090D01*
X8785098Y2860548D01*
X8794496Y2832862D01*
X8812784Y2814320D01*
X8831326Y2805176D01*
X8859012Y2805176D01*
X8877554Y2814320D01*
X8896096Y2832862D01*
X8905240Y2860548D01*
X8905240Y2879090D01*
X8896096Y2906776D01*
X8877554Y2925064D01*
X8859012Y2934462D01*
X8831326Y2934462D01*
X9076944Y2934462D02*
G01*
X9076944Y2805176D01*
X9076944Y2906776D02*
G01*
X9058656Y2925064D01*
X9040114Y2934462D01*
X9012428Y2934462D01*
X8993886Y2925064D01*
X8975344Y2906776D01*
X8966200Y2879090D01*
X8966200Y2860548D01*
X8975344Y2832862D01*
X8993886Y2814320D01*
X9012428Y2805176D01*
X9040114Y2805176D01*
X9058656Y2814320D01*
X9076944Y2832862D01*
X9137904Y2934462D02*
G01*
X9137904Y2805176D01*
X9137904Y2879090D02*
G01*
X9147302Y2906776D01*
X9165590Y2925064D01*
X9184132Y2934462D01*
X9211818Y2934462D01*
X9383776Y2998978D02*
G01*
X9383776Y2805176D01*
X9383776Y2906776D02*
G01*
X9365234Y2925064D01*
X9346692Y2934462D01*
X9319006Y2934462D01*
X9300464Y2925064D01*
X9282176Y2906776D01*
X9272778Y2879090D01*
X9272778Y2860548D01*
X9282176Y2832862D01*
X9300464Y2814320D01*
X9319006Y2805176D01*
X9346692Y2805176D01*
X9365234Y2814320D01*
X9383776Y2832862D01*
X9632950Y2934462D02*
G01*
X9614662Y2925064D01*
X9596120Y2906776D01*
X9586976Y2879090D01*
X9586976Y2860548D01*
X9596120Y2832862D01*
X9614662Y2814320D01*
X9632950Y2805176D01*
X9660890Y2805176D01*
X9679178Y2814320D01*
X9697720Y2832862D01*
X9706864Y2860548D01*
X9706864Y2879090D01*
X9697720Y2906776D01*
X9679178Y2925064D01*
X9660890Y2934462D01*
X9632950Y2934462D01*
X9767824Y2934462D02*
G01*
X9767824Y2842006D01*
X9777222Y2814320D01*
X9795510Y2805176D01*
X9823450Y2805176D01*
X9841738Y2814320D01*
X9869424Y2842006D01*
X9869424Y2934462D02*
G01*
X9869424Y2805176D01*
X9958070Y2998978D02*
G01*
X9958070Y2842006D01*
X9967468Y2814320D01*
X9986010Y2805176D01*
X10004298Y2805176D01*
X9930384Y2934462D02*
G01*
X9995154Y2934462D01*
X10065258Y2998978D02*
G01*
X10065258Y2805176D01*
X10126218Y2998978D02*
G01*
X10135616Y2989834D01*
X10144760Y2998978D01*
X10135616Y3008376D01*
X10126218Y2998978D01*
X10135616Y2934462D02*
G01*
X10135616Y2805176D01*
X10205720Y2934462D02*
G01*
X10205720Y2805176D01*
X10205720Y2897378D02*
G01*
X10233406Y2925064D01*
X10251948Y2934462D01*
X10279634Y2934462D01*
X10298176Y2925064D01*
X10307320Y2897378D01*
X10307320Y2805176D01*
X10368280Y2879090D02*
G01*
X10479024Y2879090D01*
X10479024Y2897378D01*
X10469880Y2915920D01*
X10460736Y2925064D01*
X10442194Y2934462D01*
X10414508Y2934462D01*
X10395966Y2925064D01*
X10377424Y2906776D01*
X10368280Y2879090D01*
X10368280Y2860548D01*
X10377424Y2832862D01*
X10395966Y2814320D01*
X10414508Y2805176D01*
X10442194Y2805176D01*
X10460736Y2814320D01*
X10479024Y2832862D01*
X10641584Y2906776D02*
G01*
X10632440Y2925064D01*
X10604754Y2934462D01*
X10577068Y2934462D01*
X10549382Y2925064D01*
X10539984Y2906776D01*
X10549382Y2888234D01*
X10567670Y2879090D01*
X10613898Y2869692D01*
X10632440Y2860548D01*
X10641584Y2842006D01*
X10641584Y2832862D01*
X10632440Y2814320D01*
X10604754Y2805176D01*
X10577068Y2805176D01*
X10549382Y2814320D01*
X10539984Y2832862D01*
X10711942Y2851150D02*
G01*
X10702544Y2842006D01*
X10711942Y2832862D01*
X10721086Y2842006D01*
X10711942Y2851150D01*
X6665722Y-19304D02*
G01*
X6721094Y-164592D01*
X6776720Y-19304D02*
G01*
X6721094Y-164592D01*
X6822440Y-102362D02*
G01*
X6947153Y-102362D01*
X7096759Y-53848D02*
G01*
X7089648Y-39878D01*
X7075931Y-26162D01*
X7061962Y-19304D01*
X7034275Y-19304D01*
X7020559Y-26162D01*
X7006590Y-39878D01*
X6999731Y-53848D01*
X6992874Y-74676D01*
X6992874Y-109220D01*
X6999731Y-130048D01*
X7006590Y-144018D01*
X7020559Y-157734D01*
X7034275Y-164592D01*
X7061962Y-164592D01*
X7075931Y-157734D01*
X7089648Y-144018D01*
X7096759Y-130048D01*
X7142480Y-19304D02*
G01*
X7142480Y-123189D01*
X7149338Y-144018D01*
X7163053Y-157734D01*
X7183881Y-164592D01*
X7197852Y-164592D01*
X7218680Y-157734D01*
X7232396Y-144018D01*
X7239253Y-123189D01*
X7239253Y-19304D01*
X7333488Y-19304D02*
G01*
X7333488Y-164592D01*
X7284974Y-19304D02*
G01*
X7382002Y-19304D01*
X6665722Y280670D02*
G01*
X6721094Y135382D01*
X6776720Y280670D02*
G01*
X6721094Y135382D01*
X6822440Y197612D02*
G01*
X6947153Y197612D01*
X7096759Y246125D02*
G01*
X7089648Y260096D01*
X7075931Y273812D01*
X7061962Y280670D01*
X7034275Y280670D01*
X7020559Y273812D01*
X7006590Y260096D01*
X6999731Y246125D01*
X6992874Y225298D01*
X6992874Y190754D01*
X6999731Y169926D01*
X7006590Y156210D01*
X7020559Y142240D01*
X7034275Y135382D01*
X7061962Y135382D01*
X7075931Y142240D01*
X7089648Y156210D01*
X7096759Y169926D01*
X7142480Y280670D02*
G01*
X7142480Y176784D01*
X7149338Y156210D01*
X7163053Y142240D01*
X7183881Y135382D01*
X7197852Y135382D01*
X7218680Y142240D01*
X7232396Y156210D01*
X7239253Y176784D01*
X7239253Y280670D01*
X7333488Y280670D02*
G01*
X7333488Y135382D01*
X7284974Y280670D02*
G01*
X7382002Y280670D01*
X6665722Y-2783078D02*
G01*
X6721094Y-2928366D01*
X6776720Y-2783078D02*
G01*
X6721094Y-2928366D01*
X6822440Y-2866136D02*
G01*
X6947153Y-2866136D01*
X7096759Y-2817622D02*
G01*
X7089648Y-2803906D01*
X7075931Y-2789936D01*
X7061962Y-2783078D01*
X7034275Y-2783078D01*
X7020559Y-2789936D01*
X7006590Y-2803906D01*
X6999731Y-2817622D01*
X6992874Y-2838450D01*
X6992874Y-2872994D01*
X6999731Y-2893822D01*
X7006590Y-2907792D01*
X7020559Y-2921508D01*
X7034275Y-2928366D01*
X7061962Y-2928366D01*
X7075931Y-2921508D01*
X7089648Y-2907792D01*
X7096759Y-2893822D01*
X7142480Y-2783078D02*
G01*
X7142480Y-2886964D01*
X7149338Y-2907792D01*
X7163053Y-2921508D01*
X7183881Y-2928366D01*
X7197852Y-2928366D01*
X7218680Y-2921508D01*
X7232396Y-2907792D01*
X7239253Y-2886964D01*
X7239253Y-2783078D01*
X7333488Y-2783078D02*
G01*
X7333488Y-2928366D01*
X7284974Y-2783078D02*
G01*
X7382002Y-2783078D01*
X6665722Y-2483104D02*
G01*
X6721094Y-2628392D01*
X6776720Y-2483104D02*
G01*
X6721094Y-2628392D01*
X6822440Y-2566162D02*
G01*
X6947153Y-2566162D01*
X7096759Y-2517648D02*
G01*
X7089648Y-2503678D01*
X7075931Y-2489962D01*
X7061962Y-2483104D01*
X7034275Y-2483104D01*
X7020559Y-2489962D01*
X7006590Y-2503678D01*
X6999731Y-2517648D01*
X6992874Y-2538476D01*
X6992874Y-2573020D01*
X6999731Y-2593848D01*
X7006590Y-2607818D01*
X7020559Y-2621534D01*
X7034275Y-2628392D01*
X7061962Y-2628392D01*
X7075931Y-2621534D01*
X7089648Y-2607818D01*
X7096759Y-2593848D01*
X7142480Y-2483104D02*
G01*
X7142480Y-2586990D01*
X7149338Y-2607818D01*
X7163053Y-2621534D01*
X7183881Y-2628392D01*
X7197852Y-2628392D01*
X7218680Y-2621534D01*
X7232396Y-2607818D01*
X7239253Y-2586990D01*
X7239253Y-2483104D01*
X7333488Y-2483104D02*
G01*
X7333488Y-2628392D01*
X7284974Y-2483104D02*
G01*
X7382002Y-2483104D01*
X6665722Y-5546852D02*
G01*
X6721094Y-5692394D01*
X6776720Y-5546852D02*
G01*
X6721094Y-5692394D01*
X6822440Y-5629910D02*
G01*
X6947153Y-5629910D01*
X7096759Y-5581396D02*
G01*
X7089648Y-5567680D01*
X7075931Y-5553710D01*
X7061962Y-5546852D01*
X7034275Y-5546852D01*
X7020559Y-5553710D01*
X7006590Y-5567680D01*
X6999731Y-5581396D01*
X6992874Y-5602224D01*
X6992874Y-5636768D01*
X6999731Y-5657596D01*
X7006590Y-5671566D01*
X7020559Y-5685282D01*
X7034275Y-5692394D01*
X7061962Y-5692394D01*
X7075931Y-5685282D01*
X7089648Y-5671566D01*
X7096759Y-5657596D01*
X7142480Y-5546852D02*
G01*
X7142480Y-5650738D01*
X7149338Y-5671566D01*
X7163053Y-5685282D01*
X7183881Y-5692394D01*
X7197852Y-5692394D01*
X7218680Y-5685282D01*
X7232396Y-5671566D01*
X7239253Y-5650738D01*
X7239253Y-5546852D01*
X7333488Y-5546852D02*
G01*
X7333488Y-5692394D01*
X7284974Y-5546852D02*
G01*
X7382002Y-5546852D01*
X6665722Y-5246878D02*
G01*
X6721094Y-5392166D01*
X6776720Y-5246878D02*
G01*
X6721094Y-5392166D01*
X6822440Y-5329936D02*
G01*
X6947153Y-5329936D01*
X7096759Y-5281422D02*
G01*
X7089648Y-5267706D01*
X7075931Y-5253736D01*
X7061962Y-5246878D01*
X7034275Y-5246878D01*
X7020559Y-5253736D01*
X7006590Y-5267706D01*
X6999731Y-5281422D01*
X6992874Y-5302250D01*
X6992874Y-5336794D01*
X6999731Y-5357622D01*
X7006590Y-5371592D01*
X7020559Y-5385308D01*
X7034275Y-5392166D01*
X7061962Y-5392166D01*
X7075931Y-5385308D01*
X7089648Y-5371592D01*
X7096759Y-5357622D01*
X7142480Y-5246878D02*
G01*
X7142480Y-5350764D01*
X7149338Y-5371592D01*
X7163053Y-5385308D01*
X7183881Y-5392166D01*
X7197852Y-5392166D01*
X7218680Y-5385308D01*
X7232396Y-5371592D01*
X7239253Y-5350764D01*
X7239253Y-5246878D01*
X7333488Y-5246878D02*
G01*
X7333488Y-5392166D01*
X7284974Y-5246878D02*
G01*
X7382002Y-5246878D01*
X6665722Y-8310625D02*
G01*
X6721094Y-8456168D01*
X6776720Y-8310625D02*
G01*
X6721094Y-8456168D01*
X6822440Y-8393684D02*
G01*
X6947153Y-8393684D01*
X7096759Y-8345170D02*
G01*
X7089648Y-8331453D01*
X7075931Y-8317484D01*
X7061962Y-8310625D01*
X7034275Y-8310625D01*
X7020559Y-8317484D01*
X7006590Y-8331453D01*
X6999731Y-8345170D01*
X6992874Y-8365998D01*
X6992874Y-8400542D01*
X6999731Y-8421370D01*
X7006590Y-8435340D01*
X7020559Y-8449056D01*
X7034275Y-8456168D01*
X7061962Y-8456168D01*
X7075931Y-8449056D01*
X7089648Y-8435340D01*
X7096759Y-8421370D01*
X7142480Y-8310625D02*
G01*
X7142480Y-8414512D01*
X7149338Y-8435340D01*
X7163053Y-8449056D01*
X7183881Y-8456168D01*
X7197852Y-8456168D01*
X7218680Y-8449056D01*
X7232396Y-8435340D01*
X7239253Y-8414512D01*
X7239253Y-8310625D01*
X7333488Y-8310625D02*
G01*
X7333488Y-8456168D01*
X7284974Y-8310625D02*
G01*
X7382002Y-8310625D01*
X6665722Y-8010652D02*
G01*
X6721094Y-8156194D01*
X6776720Y-8010652D02*
G01*
X6721094Y-8156194D01*
X6822440Y-8093709D02*
G01*
X6947153Y-8093709D01*
X7096759Y-8045196D02*
G01*
X7089648Y-8031480D01*
X7075931Y-8017509D01*
X7061962Y-8010652D01*
X7034275Y-8010652D01*
X7020559Y-8017509D01*
X7006590Y-8031480D01*
X6999731Y-8045196D01*
X6992874Y-8066024D01*
X6992874Y-8100568D01*
X6999731Y-8121396D01*
X7006590Y-8135366D01*
X7020559Y-8149081D01*
X7034275Y-8156194D01*
X7061962Y-8156194D01*
X7075931Y-8149081D01*
X7089648Y-8135366D01*
X7096759Y-8121396D01*
X7142480Y-8010652D02*
G01*
X7142480Y-8114538D01*
X7149338Y-8135366D01*
X7163053Y-8149081D01*
X7183881Y-8156194D01*
X7197852Y-8156194D01*
X7218680Y-8149081D01*
X7232396Y-8135366D01*
X7239253Y-8114538D01*
X7239253Y-8010652D01*
X7333488Y-8010652D02*
G01*
X7333488Y-8156194D01*
X7284974Y-8010652D02*
G01*
X7382002Y-8010652D01*
X2889427Y-11842622D02*
G01*
X3034969Y-11787250D01*
X2889427Y-11731878D02*
G01*
X3034969Y-11787250D01*
X2972485Y-11686158D02*
G01*
X2972485Y-11561444D01*
X2923971Y-11411838D02*
G01*
X2910255Y-11418696D01*
X2896285Y-11432412D01*
X2889427Y-11446382D01*
X2889427Y-11474068D01*
X2896285Y-11488038D01*
X2910255Y-11501754D01*
X2923971Y-11508612D01*
X2944799Y-11515724D01*
X2979343Y-11515724D01*
X3000171Y-11508612D01*
X3014141Y-11501754D01*
X3027857Y-11488038D01*
X3034969Y-11474068D01*
X3034969Y-11446382D01*
X3027857Y-11432412D01*
X3014141Y-11418696D01*
X3000171Y-11411838D01*
X2889427Y-11366118D02*
G01*
X2993313Y-11366118D01*
X3014141Y-11359006D01*
X3027857Y-11345290D01*
X3034969Y-11324462D01*
X3034969Y-11310493D01*
X3027857Y-11289918D01*
X3014141Y-11275949D01*
X2993313Y-11269090D01*
X2889427Y-11269090D01*
X2889427Y-11174856D02*
G01*
X3034969Y-11174856D01*
X2889427Y-11223370D02*
G01*
X2889427Y-11126343D01*
X2589428Y-11842597D02*
G01*
X2734970Y-11787225D01*
X2589428Y-11731853D02*
G01*
X2734970Y-11787225D01*
X2672486Y-11686133D02*
G01*
X2672486Y-11561419D01*
X2623972Y-11411813D02*
G01*
X2610256Y-11418671D01*
X2596286Y-11432387D01*
X2589428Y-11446357D01*
X2589428Y-11474043D01*
X2596286Y-11488013D01*
X2610256Y-11501729D01*
X2623972Y-11508587D01*
X2644800Y-11515699D01*
X2679344Y-11515699D01*
X2700172Y-11508587D01*
X2714142Y-11501729D01*
X2727858Y-11488013D01*
X2734970Y-11474043D01*
X2734970Y-11446357D01*
X2727858Y-11432387D01*
X2714142Y-11418671D01*
X2700172Y-11411813D01*
X2589428Y-11366093D02*
G01*
X2693314Y-11366093D01*
X2714142Y-11358981D01*
X2727858Y-11345265D01*
X2734970Y-11324437D01*
X2734970Y-11310467D01*
X2727858Y-11289893D01*
X2714142Y-11275923D01*
X2693314Y-11269065D01*
X2589428Y-11269065D01*
X2589428Y-11174831D02*
G01*
X2734970Y-11174831D01*
X2589428Y-11223345D02*
G01*
X2589428Y-11126317D01*
X-229971Y-11842597D02*
G01*
X-84429Y-11787225D01*
X-229971Y-11731853D02*
G01*
X-84429Y-11787225D01*
X-146913Y-11686133D02*
G01*
X-146913Y-11561419D01*
X-195427Y-11411813D02*
G01*
X-209143Y-11418671D01*
X-223113Y-11432387D01*
X-229971Y-11446357D01*
X-229971Y-11474043D01*
X-223113Y-11488013D01*
X-209143Y-11501729D01*
X-195427Y-11508587D01*
X-174599Y-11515699D01*
X-140055Y-11515699D01*
X-119227Y-11508587D01*
X-105257Y-11501729D01*
X-91541Y-11488013D01*
X-84429Y-11474043D01*
X-84429Y-11446357D01*
X-91541Y-11432387D01*
X-105257Y-11418671D01*
X-119227Y-11411813D01*
X-229971Y-11366093D02*
G01*
X-126085Y-11366093D01*
X-105257Y-11358981D01*
X-91541Y-11345265D01*
X-84429Y-11324437D01*
X-84429Y-11310467D01*
X-91541Y-11289893D01*
X-105257Y-11275923D01*
X-126085Y-11269065D01*
X-229971Y-11269065D01*
X-229971Y-11174831D02*
G01*
X-84429Y-11174831D01*
X-229971Y-11223345D02*
G01*
X-229971Y-11126317D01*
X5708827Y-11842622D02*
G01*
X5854369Y-11787250D01*
X5708827Y-11731878D02*
G01*
X5854369Y-11787250D01*
X5791885Y-11686158D02*
G01*
X5791885Y-11561444D01*
X5743371Y-11411838D02*
G01*
X5729655Y-11418696D01*
X5715685Y-11432412D01*
X5708827Y-11446382D01*
X5708827Y-11474068D01*
X5715685Y-11488038D01*
X5729655Y-11501754D01*
X5743371Y-11508612D01*
X5764199Y-11515724D01*
X5798743Y-11515724D01*
X5819571Y-11508612D01*
X5833541Y-11501754D01*
X5847257Y-11488038D01*
X5854369Y-11474068D01*
X5854369Y-11446382D01*
X5847257Y-11432412D01*
X5833541Y-11418696D01*
X5819571Y-11411838D01*
X5708827Y-11366118D02*
G01*
X5812713Y-11366118D01*
X5833541Y-11359006D01*
X5847257Y-11345290D01*
X5854369Y-11324462D01*
X5854369Y-11310492D01*
X5847257Y-11289918D01*
X5833541Y-11275948D01*
X5812713Y-11269090D01*
X5708827Y-11269090D01*
X5708827Y-11174856D02*
G01*
X5854369Y-11174856D01*
X5708827Y-11223370D02*
G01*
X5708827Y-11126342D01*
X-574598Y-274599D02*
G01*
X7376998Y-274599D01*
X-574598Y25400D02*
G01*
X7376998Y25400D01*
X-574598Y-3038398D02*
G01*
X7376998Y-3038398D01*
X-574598Y-2738399D02*
G01*
X7376998Y-2738399D01*
X-574598Y-5802198D02*
G01*
X7376998Y-5802198D01*
X-574598Y-5502198D02*
G01*
X7376998Y-5502198D01*
X-574598Y-8565997D02*
G01*
X7376998Y-8565997D01*
X-574598Y-8265998D02*
G01*
X7376998Y-8265998D01*
X3144799Y2489200D02*
G01*
X3144799Y-11842597D01*
X2844800Y2489200D02*
G01*
X2844800Y-11842597D01*
X25400Y2489200D02*
G01*
X25400Y-11842597D01*
X5964199Y2489200D02*
G01*
X5964199Y-11842597D01*
M02*
