G04 Layer: BoardOutlineLayer*
G04 EasyEDA v6.5.9, 2022-12-18 14:38:18*
G04 6ed9124010b24111a11f212ffacae300,5dd06754fdd742daa6fe38bf62b7df6b,10*
G04 Gerber Generator version 0.2*
G04 Scale: 100 percent, Rotated: No, Reflected: No *
G04 Dimensions in millimeters *
G04 leading zeros omitted , absolute positions ,4 integer and 5 decimal *
%FSLAX45Y45*%
%MOMM*%

%ADD10C,0.2540*%
D10*
X25400Y2489200D02*
G01*
X2844800Y2489200D01*
X2844800Y25400D01*
X25400Y25400D01*
X25400Y2489200D01*
X3144799Y2489200D02*
G01*
X5964199Y2489200D01*
X5964199Y25400D01*
X3144799Y25400D01*
X3144799Y2489200D01*
X25400Y-274599D02*
G01*
X2844800Y-274599D01*
X2844800Y-2738399D01*
X25400Y-2738399D01*
X25400Y-274599D01*
X3144799Y-274599D02*
G01*
X5964199Y-274599D01*
X5964199Y-2738399D01*
X3144799Y-2738399D01*
X3144799Y-274599D01*
X25400Y-3038398D02*
G01*
X2844800Y-3038398D01*
X2844800Y-5502198D01*
X25400Y-5502198D01*
X25400Y-3038398D01*
X3144799Y-3038398D02*
G01*
X5964199Y-3038398D01*
X5964199Y-5502198D01*
X3144799Y-5502198D01*
X3144799Y-3038398D01*
X25400Y-5802198D02*
G01*
X2844800Y-5802198D01*
X2844800Y-8265998D01*
X25400Y-8265998D01*
X25400Y-5802198D01*
X3144799Y-5802198D02*
G01*
X5964199Y-5802198D01*
X5964199Y-8265998D01*
X3144799Y-8265998D01*
X3144799Y-5802198D01*
X25400Y-8565997D02*
G01*
X2844800Y-8565997D01*
X2844800Y-11029797D01*
X25400Y-11029797D01*
X25400Y-8565997D01*
X3144799Y-8565997D02*
G01*
X5964199Y-8565997D01*
X5964199Y-11029797D01*
X3144799Y-11029797D01*
X3144799Y-8565997D01*
X-574598Y2489200D02*
G01*
X6564198Y2489200D01*
X6564198Y-11029797D01*
X-574598Y-11029797D01*
X-574598Y2489200D01*
X-574598Y-274599D02*
G01*
X6564198Y-274599D01*
X-574598Y25400D02*
G01*
X6564198Y25400D01*
X-574598Y-3038398D02*
G01*
X6564198Y-3038398D01*
X-574598Y-2738399D02*
G01*
X6564198Y-2738399D01*
X-574598Y-5802198D02*
G01*
X6564198Y-5802198D01*
X-574598Y-5502198D02*
G01*
X6564198Y-5502198D01*
X-574598Y-8565997D02*
G01*
X6564198Y-8565997D01*
X-574598Y-8265998D02*
G01*
X6564198Y-8265998D01*
X3144799Y2489200D02*
G01*
X3144799Y-11029797D01*
X2844800Y2489200D02*
G01*
X2844800Y-11029797D01*
X25400Y2489200D02*
G01*
X25400Y-11029797D01*
X5964199Y2489200D02*
G01*
X5964199Y-11029797D01*

%LPD*%
M02*
