M48
METRIC,LZ,000.000
;FILE_FORMAT=3:3
;TYPE=PLATED
;Layer: PTH_Through
;EasyEDA v6.5.9, 2022-12-18 14:38:18
;4aff3cac283946888bffb04ada9a0e28,5dd06754fdd742daa6fe38bf62b7df6b,10
;Gerber Generator version 0.2
;Holesize 1 = 0.813 mm
T01C0.813
;Holesize 2 = 1.000 mm
T02C1.000
;Holesize 3 = 1.016 mm
T03C1.016
;Holesize 4 = 1.321 mm
T04C1.321
%
G05
G90
T01
X009906Y041145G85X009906Y041151
X009906Y048765G85X009906Y048771
X020066Y038611G85X020066Y038605
X020066Y030991G85X020066Y030985
X020066Y011433G85X020066Y011427
X020066Y003813G85X020066Y003807
X009906Y013967G85X009906Y013973
X009906Y021587G85X009906Y021593
X050546Y011433G85X050546Y011427
X050546Y003813G85X050546Y003807
X040386Y013967G85X040386Y013973
X040386Y021587G85X040386Y021593
X050546Y038865G85X050546Y038859
X050546Y031245G85X050546Y031239
X040386Y041399G85X040386Y041405
X040386Y049019G85X040386Y049025
T02
X017529Y046228G85X017523Y046228
X017529Y043688G85X017523Y043688
X025143Y043688G85X025149Y043688
X025143Y046228G85X025149Y046228
X017529Y041148G85X017523Y041148
X025143Y041148G85X025149Y041148
X017529Y019050G85X017523Y019050
X017529Y016510G85X017523Y016510
X025143Y016510G85X025149Y016510
X025143Y019050G85X025149Y019050
X017529Y013970G85X017523Y013970
X025143Y013970G85X025149Y013970
X048009Y019050G85X048003Y019050
X048009Y016510G85X048003Y016510
X055623Y016510G85X055629Y016510
X055623Y019050G85X055629Y019050
X048009Y013970G85X048003Y013970
X055623Y013970G85X055629Y013970
X048009Y046482G85X048003Y046482
X048009Y043942G85X048003Y043942
X055623Y043942G85X055629Y043942
X055623Y046482G85X055629Y046482
X048009Y041402G85X048003Y041402
X055623Y041402G85X055629Y041402
T03
X025146Y036071G85X025146Y036065
X027686Y036071G85X027686Y036065
X025146Y033531G85X025146Y033525
X027686Y033531G85X027686Y033525
X025146Y030991G85X025146Y030985
X027686Y030991G85X027686Y030985
X025146Y008893G85X025146Y008887
X027686Y008893G85X027686Y008887
X025146Y006353G85X025146Y006347
X027686Y006353G85X027686Y006347
X025146Y003813G85X025146Y003807
X027686Y003813G85X027686Y003807
X055626Y008893G85X055626Y008887
X058166Y008893G85X058166Y008887
X055626Y006353G85X055626Y006347
X058166Y006353G85X058166Y006347
X055626Y003813G85X055626Y003807
X058166Y003813G85X058166Y003807
X055626Y036325G85X055626Y036319
X058166Y036325G85X058166Y036319
X055626Y033785G85X055626Y033779
X058166Y033785G85X058166Y033779
X055626Y031245G85X055626Y031239
X058166Y031245G85X058166Y031239
T04
X009903Y037313G85X009909Y037313
X009903Y032283G85X009909Y032283
X009903Y010135G85X009909Y010135
X009903Y005105G85X009909Y005105
X040383Y010135G85X040389Y010135
X040383Y005105G85X040389Y005105
X040383Y037567G85X040389Y037567
X040383Y032537G85X040389Y032537
M30
