G04 Layer: TopSilkscreenLayer*
G04 EasyEDA v6.5.9, 2022-12-18 14:38:18*
G04 4aff3cac283946888bffb04ada9a0e28,5dd06754fdd742daa6fe38bf62b7df6b,10*
G04 Gerber Generator version 0.2*
G04 Scale: 100 percent, Rotated: No, Reflected: No *
G04 Dimensions in millimeters *
G04 leading zeros omitted , absolute positions ,4 integer and 5 decimal *
%FSLAX45Y45*%
%MOMM*%

%ADD10C,0.1189*%
%ADD11C,0.1524*%

%LPD*%
D10*
X1212088Y3835146D02*
G01*
X1207770Y3844036D01*
X1194054Y3857751D01*
X1288796Y3857751D01*
X1216660Y3331718D02*
G01*
X1212088Y3331718D01*
X1203198Y3336036D01*
X1198626Y3340608D01*
X1194054Y3349751D01*
X1194054Y3367786D01*
X1198626Y3376676D01*
X1203198Y3381248D01*
X1212088Y3385565D01*
X1221232Y3385565D01*
X1230122Y3381248D01*
X1243584Y3372104D01*
X1288796Y3327146D01*
X1288796Y3390137D01*
X1212088Y1117346D02*
G01*
X1207770Y1126236D01*
X1194054Y1139952D01*
X1288796Y1139952D01*
X1216660Y613918D02*
G01*
X1212088Y613918D01*
X1203198Y618236D01*
X1198626Y622808D01*
X1194054Y631952D01*
X1194054Y649986D01*
X1198626Y658876D01*
X1203198Y663448D01*
X1212088Y667766D01*
X1221232Y667766D01*
X1230122Y663448D01*
X1243584Y654304D01*
X1288796Y609346D01*
X1288796Y672338D01*
X4260088Y1117346D02*
G01*
X4255770Y1126236D01*
X4242054Y1139952D01*
X4336796Y1139952D01*
X4264660Y613918D02*
G01*
X4260088Y613918D01*
X4251198Y618236D01*
X4246626Y622808D01*
X4242054Y631952D01*
X4242054Y649986D01*
X4246626Y658876D01*
X4251198Y663448D01*
X4260088Y667766D01*
X4269232Y667766D01*
X4278122Y663448D01*
X4291584Y654304D01*
X4336796Y609346D01*
X4336796Y672338D01*
X4260088Y3860546D02*
G01*
X4255770Y3869436D01*
X4242054Y3883151D01*
X4336796Y3883151D01*
X4264660Y3357118D02*
G01*
X4260088Y3357118D01*
X4251198Y3361436D01*
X4246626Y3366008D01*
X4242054Y3375151D01*
X4242054Y3393186D01*
X4246626Y3402076D01*
X4251198Y3406648D01*
X4260088Y3410965D01*
X4269232Y3410965D01*
X4278122Y3406648D01*
X4291584Y3397504D01*
X4336796Y3352546D01*
X4336796Y3415537D01*
G36*
X800100Y3517900D02*
G01*
X800100Y3441700D01*
X1181100Y3441700D01*
X1181100Y3517900D01*
G37*
G36*
X965200Y4787900D02*
G01*
X965200Y4749800D01*
X1016000Y4749800D01*
X1016000Y4787900D01*
G37*
G36*
X965200Y4241800D02*
G01*
X965200Y4203700D01*
X1016000Y4203700D01*
X1016000Y4241800D01*
G37*
G36*
X1981200Y3225800D02*
G01*
X1981200Y3187700D01*
X2032000Y3187700D01*
X2032000Y3225800D01*
G37*
G36*
X1981200Y3771900D02*
G01*
X1981200Y3733800D01*
X2032000Y3733800D01*
X2032000Y3771900D01*
G37*
G36*
X1981200Y508000D02*
G01*
X1981200Y469900D01*
X2032000Y469900D01*
X2032000Y508000D01*
G37*
G36*
X1981200Y1054100D02*
G01*
X1981200Y1016000D01*
X2032000Y1016000D01*
X2032000Y1054100D01*
G37*
G36*
X965200Y2070100D02*
G01*
X965200Y2032000D01*
X1016000Y2032000D01*
X1016000Y2070100D01*
G37*
G36*
X965200Y1524000D02*
G01*
X965200Y1485900D01*
X1016000Y1485900D01*
X1016000Y1524000D01*
G37*
G36*
X800100Y800100D02*
G01*
X800100Y723900D01*
X1181100Y723900D01*
X1181100Y800100D01*
G37*
G36*
X5029200Y508000D02*
G01*
X5029200Y469900D01*
X5080000Y469900D01*
X5080000Y508000D01*
G37*
G36*
X5029200Y1054100D02*
G01*
X5029200Y1016000D01*
X5080000Y1016000D01*
X5080000Y1054100D01*
G37*
G36*
X4013200Y2070100D02*
G01*
X4013200Y2032000D01*
X4064000Y2032000D01*
X4064000Y2070100D01*
G37*
G36*
X4013200Y1524000D02*
G01*
X4013200Y1485900D01*
X4064000Y1485900D01*
X4064000Y1524000D01*
G37*
G36*
X3848100Y800100D02*
G01*
X3848100Y723900D01*
X4229100Y723900D01*
X4229100Y800100D01*
G37*
G36*
X5029200Y3251200D02*
G01*
X5029200Y3213100D01*
X5080000Y3213100D01*
X5080000Y3251200D01*
G37*
G36*
X5029200Y3797300D02*
G01*
X5029200Y3759200D01*
X5080000Y3759200D01*
X5080000Y3797300D01*
G37*
G36*
X4013200Y4813300D02*
G01*
X4013200Y4775200D01*
X4064000Y4775200D01*
X4064000Y4813300D01*
G37*
G36*
X4013200Y4267200D02*
G01*
X4013200Y4229100D01*
X4064000Y4229100D01*
X4064000Y4267200D01*
G37*
G36*
X3848100Y3543300D02*
G01*
X3848100Y3467100D01*
X4229100Y3467100D01*
X4229100Y3543300D01*
G37*
D11*
X2032000Y4749800D02*
G01*
X1841500Y4749800D01*
X1841500Y3987800D01*
X2425700Y3987800D01*
X2425700Y4749800D01*
X2235200Y4749800D01*
X635000Y2971800D02*
G01*
X635000Y3987800D01*
X774700Y3987800D01*
X774700Y2971800D01*
X635000Y2971800D01*
X774700Y2971800D02*
G01*
X1206500Y2971800D01*
X1384300Y2971800D01*
X1384300Y3987800D01*
X1295400Y3987800D01*
X1206500Y3987800D01*
X1206500Y2971800D01*
X1295400Y3987800D02*
G01*
X1308100Y4038600D01*
X1193800Y4038600D01*
X1206500Y3987800D01*
X774700Y3987800D01*
X2832100Y3225800D02*
G01*
X2895600Y3162300D01*
X2895600Y3035300D01*
X2832100Y2971800D01*
X2451100Y2971800D01*
X2387600Y3035300D01*
X2387600Y3162300D01*
X2451100Y3225800D01*
X2832100Y3225800D01*
X2895600Y3289300D01*
X2895600Y3416300D01*
X2832100Y3479800D01*
X2895600Y3543300D01*
X2895600Y3670300D01*
X2832100Y3733800D01*
X2451100Y3733800D01*
X2387600Y3670300D01*
X2387600Y3543300D01*
X2451100Y3479800D01*
X2387600Y3416300D01*
X2387600Y3289300D01*
X2451100Y3225800D01*
X2832100Y3479800D02*
G01*
X2451100Y3479800D01*
X1066800Y4241800D02*
G01*
X914400Y4241800D01*
X889000Y4267200D02*
G01*
X889000Y4305300D01*
X901700Y4318000D01*
X901700Y4673600D01*
X889000Y4686300D01*
X889000Y4724400D01*
X1092200Y4267200D02*
G01*
X1092200Y4305300D01*
X1079500Y4318000D01*
X1079500Y4673600D01*
X1092200Y4686300D01*
X1092200Y4724400D01*
X1066800Y4749800D02*
G01*
X914400Y4749800D01*
X1930400Y3733800D02*
G01*
X2082800Y3733800D01*
X2108200Y3708400D02*
G01*
X2108200Y3670300D01*
X2095500Y3657600D01*
X2095500Y3302000D01*
X2108200Y3289300D01*
X2108200Y3251200D01*
X1905000Y3708400D02*
G01*
X1905000Y3670300D01*
X1917700Y3657600D01*
X1917700Y3302000D01*
X1905000Y3289300D01*
X1905000Y3251200D01*
X1930400Y3225800D02*
G01*
X2082800Y3225800D01*
X1930400Y1016000D02*
G01*
X2082800Y1016000D01*
X2108200Y990600D02*
G01*
X2108200Y952500D01*
X2095500Y939800D01*
X2095500Y584200D01*
X2108200Y571500D01*
X2108200Y533400D01*
X1905000Y990600D02*
G01*
X1905000Y952500D01*
X1917700Y939800D01*
X1917700Y584200D01*
X1905000Y571500D01*
X1905000Y533400D01*
X1930400Y508000D02*
G01*
X2082800Y508000D01*
X1066800Y1524000D02*
G01*
X914400Y1524000D01*
X889000Y1549400D02*
G01*
X889000Y1587500D01*
X901700Y1600200D01*
X901700Y1955800D01*
X889000Y1968500D01*
X889000Y2006600D01*
X1092200Y1549400D02*
G01*
X1092200Y1587500D01*
X1079500Y1600200D01*
X1079500Y1955800D01*
X1092200Y1968500D01*
X1092200Y2006600D01*
X1066800Y2032000D02*
G01*
X914400Y2032000D01*
X2832100Y508000D02*
G01*
X2895600Y444500D01*
X2895600Y317500D01*
X2832100Y254000D01*
X2451100Y254000D01*
X2387600Y317500D01*
X2387600Y444500D01*
X2451100Y508000D01*
X2832100Y508000D01*
X2895600Y571500D01*
X2895600Y698500D01*
X2832100Y762000D01*
X2895600Y825500D01*
X2895600Y952500D01*
X2832100Y1016000D01*
X2451100Y1016000D01*
X2387600Y952500D01*
X2387600Y825500D01*
X2451100Y762000D01*
X2387600Y698500D01*
X2387600Y571500D01*
X2451100Y508000D01*
X2832100Y762000D02*
G01*
X2451100Y762000D01*
X635000Y254000D02*
G01*
X635000Y1270000D01*
X774700Y1270000D01*
X774700Y254000D01*
X635000Y254000D01*
X774700Y254000D02*
G01*
X1206500Y254000D01*
X1384300Y254000D01*
X1384300Y1270000D01*
X1295400Y1270000D01*
X1206500Y1270000D01*
X1206500Y254000D01*
X1295400Y1270000D02*
G01*
X1308100Y1320800D01*
X1193800Y1320800D01*
X1206500Y1270000D01*
X774700Y1270000D01*
X2032000Y2032000D02*
G01*
X1841500Y2032000D01*
X1841500Y1270000D01*
X2425700Y1270000D01*
X2425700Y2032000D01*
X2235200Y2032000D01*
X4978400Y1016000D02*
G01*
X5130800Y1016000D01*
X5156200Y990600D02*
G01*
X5156200Y952500D01*
X5143500Y939800D01*
X5143500Y584200D01*
X5156200Y571500D01*
X5156200Y533400D01*
X4953000Y990600D02*
G01*
X4953000Y952500D01*
X4965700Y939800D01*
X4965700Y584200D01*
X4953000Y571500D01*
X4953000Y533400D01*
X4978400Y508000D02*
G01*
X5130800Y508000D01*
X4114800Y1524000D02*
G01*
X3962400Y1524000D01*
X3937000Y1549400D02*
G01*
X3937000Y1587500D01*
X3949700Y1600200D01*
X3949700Y1955800D01*
X3937000Y1968500D01*
X3937000Y2006600D01*
X4140200Y1549400D02*
G01*
X4140200Y1587500D01*
X4127500Y1600200D01*
X4127500Y1955800D01*
X4140200Y1968500D01*
X4140200Y2006600D01*
X4114800Y2032000D02*
G01*
X3962400Y2032000D01*
X5880100Y508000D02*
G01*
X5943600Y444500D01*
X5943600Y317500D01*
X5880100Y254000D01*
X5499100Y254000D01*
X5435600Y317500D01*
X5435600Y444500D01*
X5499100Y508000D01*
X5880100Y508000D01*
X5943600Y571500D01*
X5943600Y698500D01*
X5880100Y762000D01*
X5943600Y825500D01*
X5943600Y952500D01*
X5880100Y1016000D01*
X5499100Y1016000D01*
X5435600Y952500D01*
X5435600Y825500D01*
X5499100Y762000D01*
X5435600Y698500D01*
X5435600Y571500D01*
X5499100Y508000D01*
X5880100Y762000D02*
G01*
X5499100Y762000D01*
X3683000Y254000D02*
G01*
X3683000Y1270000D01*
X3822700Y1270000D01*
X3822700Y254000D01*
X3683000Y254000D01*
X3822700Y254000D02*
G01*
X4254500Y254000D01*
X4432300Y254000D01*
X4432300Y1270000D01*
X4343400Y1270000D01*
X4254500Y1270000D01*
X4254500Y254000D01*
X4343400Y1270000D02*
G01*
X4356100Y1320800D01*
X4241800Y1320800D01*
X4254500Y1270000D01*
X3822700Y1270000D01*
X5080000Y2032000D02*
G01*
X4889500Y2032000D01*
X4889500Y1270000D01*
X5473700Y1270000D01*
X5473700Y2032000D01*
X5283200Y2032000D01*
X4978400Y3759200D02*
G01*
X5130800Y3759200D01*
X5156200Y3733800D02*
G01*
X5156200Y3695700D01*
X5143500Y3683000D01*
X5143500Y3327400D01*
X5156200Y3314700D01*
X5156200Y3276600D01*
X4953000Y3733800D02*
G01*
X4953000Y3695700D01*
X4965700Y3683000D01*
X4965700Y3327400D01*
X4953000Y3314700D01*
X4953000Y3276600D01*
X4978400Y3251200D02*
G01*
X5130800Y3251200D01*
X4114800Y4267200D02*
G01*
X3962400Y4267200D01*
X3937000Y4292600D02*
G01*
X3937000Y4330700D01*
X3949700Y4343400D01*
X3949700Y4699000D01*
X3937000Y4711700D01*
X3937000Y4749800D01*
X4140200Y4292600D02*
G01*
X4140200Y4330700D01*
X4127500Y4343400D01*
X4127500Y4699000D01*
X4140200Y4711700D01*
X4140200Y4749800D01*
X4114800Y4775200D02*
G01*
X3962400Y4775200D01*
X5880100Y3251200D02*
G01*
X5943600Y3187700D01*
X5943600Y3060700D01*
X5880100Y2997200D01*
X5499100Y2997200D01*
X5435600Y3060700D01*
X5435600Y3187700D01*
X5499100Y3251200D01*
X5880100Y3251200D01*
X5943600Y3314700D01*
X5943600Y3441700D01*
X5880100Y3505200D01*
X5943600Y3568700D01*
X5943600Y3695700D01*
X5880100Y3759200D01*
X5499100Y3759200D01*
X5435600Y3695700D01*
X5435600Y3568700D01*
X5499100Y3505200D01*
X5435600Y3441700D01*
X5435600Y3314700D01*
X5499100Y3251200D01*
X5880100Y3505200D02*
G01*
X5499100Y3505200D01*
X3683000Y2997200D02*
G01*
X3683000Y4013200D01*
X3822700Y4013200D01*
X3822700Y2997200D01*
X3683000Y2997200D01*
X3822700Y2997200D02*
G01*
X4254500Y2997200D01*
X4432300Y2997200D01*
X4432300Y4013200D01*
X4343400Y4013200D01*
X4254500Y4013200D01*
X4254500Y2997200D01*
X4343400Y4013200D02*
G01*
X4356100Y4064000D01*
X4241800Y4064000D01*
X4254500Y4013200D01*
X3822700Y4013200D01*
X5080000Y4775200D02*
G01*
X4889500Y4775200D01*
X4889500Y4013200D01*
X5473700Y4013200D01*
X5473700Y4775200D01*
X5283200Y4775200D01*
G75*
G01*
X2235200Y4749800D02*
G02*
X2032000Y4749800I-101600J0D01*
G75*
G01*
X1295400Y3177540D02*
G03*
X1294841Y3177540I-279J50799D01*
G75*
G01*
X1295400Y3680460D02*
G03*
X1294841Y3680460I-279J50799D01*
G75*
G01*
X914400Y4241800D02*
G02*
X889000Y4267200I0J25400D01*
G75*
G01*
X1066800Y4241800D02*
G03*
X1092200Y4267200I0J25400D01*
G75*
G01*
X1092200Y4724400D02*
G03*
X1066800Y4749800I-25400J0D01*
G75*
G01*
X889000Y4724400D02*
G02*
X914400Y4749800I25400J0D01*
G75*
G01*
X2082800Y3733800D02*
G02*
X2108200Y3708400I0J-25400D01*
G75*
G01*
X1930400Y3733800D02*
G03*
X1905000Y3708400I0J-25400D01*
G75*
G01*
X1905000Y3251200D02*
G03*
X1930400Y3225800I25400J0D01*
G75*
G01*
X2108200Y3251200D02*
G02*
X2082800Y3225800I-25400J0D01*
G75*
G01*
X2082800Y1016000D02*
G02*
X2108200Y990600I0J-25400D01*
G75*
G01*
X1930400Y1016000D02*
G03*
X1905000Y990600I0J-25400D01*
G75*
G01*
X1905000Y533400D02*
G03*
X1930400Y508000I25400J0D01*
G75*
G01*
X2108200Y533400D02*
G02*
X2082800Y508000I-25400J0D01*
G75*
G01*
X914400Y1524000D02*
G02*
X889000Y1549400I0J25400D01*
G75*
G01*
X1066800Y1524000D02*
G03*
X1092200Y1549400I0J25400D01*
G75*
G01*
X1092200Y2006600D02*
G03*
X1066800Y2032000I-25400J0D01*
G75*
G01*
X889000Y2006600D02*
G02*
X914400Y2032000I25400J0D01*
G75*
G01*
X1295400Y459740D02*
G03*
X1294841Y459740I-279J50799D01*
G75*
G01*
X1295400Y962660D02*
G03*
X1294841Y962660I-279J50799D01*
G75*
G01*
X2235200Y2032000D02*
G02*
X2032000Y2032000I-101600J0D01*
G75*
G01*
X5130800Y1016000D02*
G02*
X5156200Y990600I0J-25400D01*
G75*
G01*
X4978400Y1016000D02*
G03*
X4953000Y990600I0J-25400D01*
G75*
G01*
X4953000Y533400D02*
G03*
X4978400Y508000I25400J0D01*
G75*
G01*
X5156200Y533400D02*
G02*
X5130800Y508000I-25400J0D01*
G75*
G01*
X3962400Y1524000D02*
G02*
X3937000Y1549400I0J25400D01*
G75*
G01*
X4114800Y1524000D02*
G03*
X4140200Y1549400I0J25400D01*
G75*
G01*
X4140200Y2006600D02*
G03*
X4114800Y2032000I-25400J0D01*
G75*
G01*
X3937000Y2006600D02*
G02*
X3962400Y2032000I25400J0D01*
G75*
G01*
X4343400Y459740D02*
G03*
X4342841Y459740I-279J50799D01*
G75*
G01*
X4343400Y962660D02*
G03*
X4342841Y962660I-279J50799D01*
G75*
G01*
X5283200Y2032000D02*
G02*
X5080000Y2032000I-101600J0D01*
G75*
G01*
X5130800Y3759200D02*
G02*
X5156200Y3733800I0J-25400D01*
G75*
G01*
X4978400Y3759200D02*
G03*
X4953000Y3733800I0J-25400D01*
G75*
G01*
X4953000Y3276600D02*
G03*
X4978400Y3251200I25400J0D01*
G75*
G01*
X5156200Y3276600D02*
G02*
X5130800Y3251200I-25400J0D01*
G75*
G01*
X3962400Y4267200D02*
G02*
X3937000Y4292600I0J25400D01*
G75*
G01*
X4114800Y4267200D02*
G03*
X4140200Y4292600I0J25400D01*
G75*
G01*
X4140200Y4749800D02*
G03*
X4114800Y4775200I-25400J0D01*
G75*
G01*
X3937000Y4749800D02*
G02*
X3962400Y4775200I25400J0D01*
G75*
G01*
X4343400Y3202940D02*
G03*
X4342841Y3202940I-279J50799D01*
G75*
G01*
X4343400Y3705860D02*
G03*
X4342841Y3705860I-279J50799D01*
G75*
G01*
X5283200Y4775200D02*
G02*
X5080000Y4775200I-101600J0D01*
M02*
