G04 Layer: BottomLayer*
G04 EasyEDA v6.5.9, 2022-12-18 14:38:18*
G04 4aff3cac283946888bffb04ada9a0e28,5dd06754fdd742daa6fe38bf62b7df6b,10*
G04 Gerber Generator version 0.2*
G04 Scale: 100 percent, Rotated: No, Reflected: No *
G04 Dimensions in millimeters *
G04 leading zeros omitted , absolute positions ,4 integer and 5 decimal *
%FSLAX45Y45*%
%MOMM*%

%ADD10C,0.2000*%
%ADD11C,1.2700*%
%ADD12C,1.7000*%
%ADD13C,1.0000*%
%ADD14C,2.0000*%
%ADD15C,3.0000*%
%ADD16C,0.0104*%

%LPD*%
D10*
X2957944Y4914668D02*
G01*
X2967182Y4923904D01*
X2981035Y4928524D01*
X2999508Y4928524D01*
X3013364Y4923904D01*
X3022600Y4914668D01*
X3022600Y4905433D01*
X3017982Y4896195D01*
X3013364Y4891577D01*
X3004126Y4886960D01*
X2976417Y4877724D01*
X2967182Y4873104D01*
X2962564Y4868486D01*
X2957944Y4859251D01*
X2957944Y4845395D01*
X2967182Y4836160D01*
X2981035Y4831542D01*
X2999508Y4831542D01*
X3013364Y4836160D01*
X3022600Y4845395D01*
X2904375Y4896195D02*
G01*
X2913611Y4891577D01*
X2922846Y4882342D01*
X2927464Y4868486D01*
X2927464Y4859251D01*
X2922846Y4845395D01*
X2913611Y4836160D01*
X2904375Y4831542D01*
X2890520Y4831542D01*
X2881284Y4836160D01*
X2872046Y4845395D01*
X2867428Y4859251D01*
X2867428Y4868486D01*
X2872046Y4882342D01*
X2881284Y4891577D01*
X2890520Y4896195D01*
X2904375Y4896195D01*
X2836948Y4928524D02*
G01*
X2836948Y4831542D01*
X2806468Y4928524D02*
G01*
X2801851Y4923904D01*
X2797233Y4928524D01*
X2801851Y4933142D01*
X2806468Y4928524D01*
X2801851Y4896195D02*
G01*
X2801851Y4831542D01*
X2766753Y4896195D02*
G01*
X2766753Y4831542D01*
X2766753Y4877724D02*
G01*
X2752897Y4891577D01*
X2743662Y4896195D01*
X2729806Y4896195D01*
X2720571Y4891577D01*
X2715953Y4877724D01*
X2715953Y4831542D01*
X2671617Y4928524D02*
G01*
X2671617Y4850015D01*
X2667000Y4836160D01*
X2657764Y4831542D01*
X2648526Y4831542D01*
X2685473Y4896195D02*
G01*
X2653144Y4896195D01*
X2618046Y4868486D02*
G01*
X2562628Y4868486D01*
X2562628Y4877724D01*
X2567246Y4886960D01*
X2571864Y4891577D01*
X2581102Y4896195D01*
X2594955Y4896195D01*
X2604193Y4891577D01*
X2613428Y4882342D01*
X2618046Y4868486D01*
X2618046Y4859251D01*
X2613428Y4845395D01*
X2604193Y4836160D01*
X2594955Y4831542D01*
X2581102Y4831542D01*
X2571864Y4836160D01*
X2562628Y4845395D01*
X2476731Y4882342D02*
G01*
X2485966Y4891577D01*
X2495204Y4896195D01*
X2509057Y4896195D01*
X2518295Y4891577D01*
X2527531Y4882342D01*
X2532148Y4868486D01*
X2532148Y4859251D01*
X2527531Y4845395D01*
X2518295Y4836160D01*
X2509057Y4831542D01*
X2495204Y4831542D01*
X2485966Y4836160D01*
X2476731Y4845395D01*
X2310475Y4914668D02*
G01*
X2319713Y4923904D01*
X2333566Y4928524D01*
X2352040Y4928524D01*
X2365895Y4923904D01*
X2375131Y4914668D01*
X2375131Y4905433D01*
X2370513Y4896195D01*
X2365895Y4891577D01*
X2356657Y4886960D01*
X2328948Y4877724D01*
X2319713Y4873104D01*
X2315095Y4868486D01*
X2310475Y4859251D01*
X2310475Y4845395D01*
X2319713Y4836160D01*
X2333566Y4831542D01*
X2352040Y4831542D01*
X2365895Y4836160D01*
X2375131Y4845395D01*
X2279995Y4928524D02*
G01*
X2279995Y4831542D01*
X2279995Y4928524D02*
G01*
X2238433Y4928524D01*
X2224577Y4923904D01*
X2219960Y4919286D01*
X2215342Y4910051D01*
X2215342Y4900815D01*
X2219960Y4891577D01*
X2224577Y4886960D01*
X2238433Y4882342D01*
X2279995Y4882342D01*
X2247668Y4882342D02*
G01*
X2215342Y4831542D01*
X2184862Y4928524D02*
G01*
X2184862Y4831542D01*
X2184862Y4831542D02*
G01*
X2129444Y4831542D01*
X2957944Y2196868D02*
G01*
X2967182Y2206104D01*
X2981035Y2210724D01*
X2999508Y2210724D01*
X3013364Y2206104D01*
X3022600Y2196868D01*
X3022600Y2187633D01*
X3017982Y2178395D01*
X3013364Y2173777D01*
X3004126Y2169160D01*
X2976417Y2159924D01*
X2967182Y2155304D01*
X2962564Y2150686D01*
X2957944Y2141451D01*
X2957944Y2127595D01*
X2967182Y2118360D01*
X2981035Y2113742D01*
X2999508Y2113742D01*
X3013364Y2118360D01*
X3022600Y2127595D01*
X2904375Y2178395D02*
G01*
X2913611Y2173777D01*
X2922846Y2164542D01*
X2927464Y2150686D01*
X2927464Y2141451D01*
X2922846Y2127595D01*
X2913611Y2118360D01*
X2904375Y2113742D01*
X2890520Y2113742D01*
X2881284Y2118360D01*
X2872046Y2127595D01*
X2867428Y2141451D01*
X2867428Y2150686D01*
X2872046Y2164542D01*
X2881284Y2173777D01*
X2890520Y2178395D01*
X2904375Y2178395D01*
X2836948Y2210724D02*
G01*
X2836948Y2113742D01*
X2806468Y2210724D02*
G01*
X2801851Y2206104D01*
X2797233Y2210724D01*
X2801851Y2215342D01*
X2806468Y2210724D01*
X2801851Y2178395D02*
G01*
X2801851Y2113742D01*
X2766753Y2178395D02*
G01*
X2766753Y2113742D01*
X2766753Y2159924D02*
G01*
X2752897Y2173777D01*
X2743662Y2178395D01*
X2729806Y2178395D01*
X2720571Y2173777D01*
X2715953Y2159924D01*
X2715953Y2113742D01*
X2671617Y2210724D02*
G01*
X2671617Y2132215D01*
X2667000Y2118360D01*
X2657764Y2113742D01*
X2648526Y2113742D01*
X2685473Y2178395D02*
G01*
X2653144Y2178395D01*
X2618046Y2150686D02*
G01*
X2562628Y2150686D01*
X2562628Y2159924D01*
X2567246Y2169160D01*
X2571864Y2173777D01*
X2581102Y2178395D01*
X2594955Y2178395D01*
X2604193Y2173777D01*
X2613428Y2164542D01*
X2618046Y2150686D01*
X2618046Y2141451D01*
X2613428Y2127595D01*
X2604193Y2118360D01*
X2594955Y2113742D01*
X2581102Y2113742D01*
X2571864Y2118360D01*
X2562628Y2127595D01*
X2476731Y2164542D02*
G01*
X2485966Y2173777D01*
X2495204Y2178395D01*
X2509057Y2178395D01*
X2518295Y2173777D01*
X2527531Y2164542D01*
X2532148Y2150686D01*
X2532148Y2141451D01*
X2527531Y2127595D01*
X2518295Y2118360D01*
X2509057Y2113742D01*
X2495204Y2113742D01*
X2485966Y2118360D01*
X2476731Y2127595D01*
X2310475Y2196868D02*
G01*
X2319713Y2206104D01*
X2333566Y2210724D01*
X2352040Y2210724D01*
X2365895Y2206104D01*
X2375131Y2196868D01*
X2375131Y2187633D01*
X2370513Y2178395D01*
X2365895Y2173777D01*
X2356657Y2169160D01*
X2328948Y2159924D01*
X2319713Y2155304D01*
X2315095Y2150686D01*
X2310475Y2141451D01*
X2310475Y2127595D01*
X2319713Y2118360D01*
X2333566Y2113742D01*
X2352040Y2113742D01*
X2365895Y2118360D01*
X2375131Y2127595D01*
X2279995Y2210724D02*
G01*
X2279995Y2113742D01*
X2279995Y2210724D02*
G01*
X2238433Y2210724D01*
X2224577Y2206104D01*
X2219960Y2201486D01*
X2215342Y2192251D01*
X2215342Y2183015D01*
X2219960Y2173777D01*
X2224577Y2169160D01*
X2238433Y2164542D01*
X2279995Y2164542D01*
X2247668Y2164542D02*
G01*
X2215342Y2113742D01*
X2184862Y2210724D02*
G01*
X2184862Y2113742D01*
X2184862Y2113742D02*
G01*
X2129444Y2113742D01*
X6005944Y2196868D02*
G01*
X6015182Y2206104D01*
X6029035Y2210724D01*
X6047508Y2210724D01*
X6061364Y2206104D01*
X6070600Y2196868D01*
X6070600Y2187633D01*
X6065982Y2178395D01*
X6061364Y2173777D01*
X6052126Y2169160D01*
X6024417Y2159924D01*
X6015182Y2155304D01*
X6010564Y2150686D01*
X6005944Y2141451D01*
X6005944Y2127595D01*
X6015182Y2118360D01*
X6029035Y2113742D01*
X6047508Y2113742D01*
X6061364Y2118360D01*
X6070600Y2127595D01*
X5952375Y2178395D02*
G01*
X5961611Y2173777D01*
X5970846Y2164542D01*
X5975464Y2150686D01*
X5975464Y2141451D01*
X5970846Y2127595D01*
X5961611Y2118360D01*
X5952375Y2113742D01*
X5938520Y2113742D01*
X5929284Y2118360D01*
X5920046Y2127595D01*
X5915428Y2141451D01*
X5915428Y2150686D01*
X5920046Y2164542D01*
X5929284Y2173777D01*
X5938520Y2178395D01*
X5952375Y2178395D01*
X5884948Y2210724D02*
G01*
X5884948Y2113742D01*
X5854468Y2210724D02*
G01*
X5849851Y2206104D01*
X5845233Y2210724D01*
X5849851Y2215342D01*
X5854468Y2210724D01*
X5849851Y2178395D02*
G01*
X5849851Y2113742D01*
X5814753Y2178395D02*
G01*
X5814753Y2113742D01*
X5814753Y2159924D02*
G01*
X5800897Y2173777D01*
X5791662Y2178395D01*
X5777806Y2178395D01*
X5768571Y2173777D01*
X5763953Y2159924D01*
X5763953Y2113742D01*
X5719617Y2210724D02*
G01*
X5719617Y2132215D01*
X5715000Y2118360D01*
X5705764Y2113742D01*
X5696526Y2113742D01*
X5733473Y2178395D02*
G01*
X5701144Y2178395D01*
X5666046Y2150686D02*
G01*
X5610628Y2150686D01*
X5610628Y2159924D01*
X5615246Y2169160D01*
X5619864Y2173777D01*
X5629102Y2178395D01*
X5642955Y2178395D01*
X5652193Y2173777D01*
X5661428Y2164542D01*
X5666046Y2150686D01*
X5666046Y2141451D01*
X5661428Y2127595D01*
X5652193Y2118360D01*
X5642955Y2113742D01*
X5629102Y2113742D01*
X5619864Y2118360D01*
X5610628Y2127595D01*
X5524731Y2164542D02*
G01*
X5533966Y2173777D01*
X5543204Y2178395D01*
X5557057Y2178395D01*
X5566295Y2173777D01*
X5575531Y2164542D01*
X5580148Y2150686D01*
X5580148Y2141451D01*
X5575531Y2127595D01*
X5566295Y2118360D01*
X5557057Y2113742D01*
X5543204Y2113742D01*
X5533966Y2118360D01*
X5524731Y2127595D01*
X5358475Y2196868D02*
G01*
X5367713Y2206104D01*
X5381566Y2210724D01*
X5400040Y2210724D01*
X5413895Y2206104D01*
X5423131Y2196868D01*
X5423131Y2187633D01*
X5418513Y2178395D01*
X5413895Y2173777D01*
X5404657Y2169160D01*
X5376948Y2159924D01*
X5367713Y2155304D01*
X5363095Y2150686D01*
X5358475Y2141451D01*
X5358475Y2127595D01*
X5367713Y2118360D01*
X5381566Y2113742D01*
X5400040Y2113742D01*
X5413895Y2118360D01*
X5423131Y2127595D01*
X5327995Y2210724D02*
G01*
X5327995Y2113742D01*
X5327995Y2210724D02*
G01*
X5286433Y2210724D01*
X5272577Y2206104D01*
X5267960Y2201486D01*
X5263342Y2192251D01*
X5263342Y2183015D01*
X5267960Y2173777D01*
X5272577Y2169160D01*
X5286433Y2164542D01*
X5327995Y2164542D01*
X5295668Y2164542D02*
G01*
X5263342Y2113742D01*
X5232862Y2210724D02*
G01*
X5232862Y2113742D01*
X5232862Y2113742D02*
G01*
X5177444Y2113742D01*
X6005944Y4940068D02*
G01*
X6015182Y4949304D01*
X6029035Y4953924D01*
X6047508Y4953924D01*
X6061364Y4949304D01*
X6070600Y4940068D01*
X6070600Y4930833D01*
X6065982Y4921595D01*
X6061364Y4916977D01*
X6052126Y4912360D01*
X6024417Y4903124D01*
X6015182Y4898504D01*
X6010564Y4893886D01*
X6005944Y4884651D01*
X6005944Y4870795D01*
X6015182Y4861560D01*
X6029035Y4856942D01*
X6047508Y4856942D01*
X6061364Y4861560D01*
X6070600Y4870795D01*
X5952375Y4921595D02*
G01*
X5961611Y4916977D01*
X5970846Y4907742D01*
X5975464Y4893886D01*
X5975464Y4884651D01*
X5970846Y4870795D01*
X5961611Y4861560D01*
X5952375Y4856942D01*
X5938520Y4856942D01*
X5929284Y4861560D01*
X5920046Y4870795D01*
X5915428Y4884651D01*
X5915428Y4893886D01*
X5920046Y4907742D01*
X5929284Y4916977D01*
X5938520Y4921595D01*
X5952375Y4921595D01*
X5884948Y4953924D02*
G01*
X5884948Y4856942D01*
X5854468Y4953924D02*
G01*
X5849851Y4949304D01*
X5845233Y4953924D01*
X5849851Y4958542D01*
X5854468Y4953924D01*
X5849851Y4921595D02*
G01*
X5849851Y4856942D01*
X5814753Y4921595D02*
G01*
X5814753Y4856942D01*
X5814753Y4903124D02*
G01*
X5800897Y4916977D01*
X5791662Y4921595D01*
X5777806Y4921595D01*
X5768571Y4916977D01*
X5763953Y4903124D01*
X5763953Y4856942D01*
X5719617Y4953924D02*
G01*
X5719617Y4875415D01*
X5715000Y4861560D01*
X5705764Y4856942D01*
X5696526Y4856942D01*
X5733473Y4921595D02*
G01*
X5701144Y4921595D01*
X5666046Y4893886D02*
G01*
X5610628Y4893886D01*
X5610628Y4903124D01*
X5615246Y4912360D01*
X5619864Y4916977D01*
X5629102Y4921595D01*
X5642955Y4921595D01*
X5652193Y4916977D01*
X5661428Y4907742D01*
X5666046Y4893886D01*
X5666046Y4884651D01*
X5661428Y4870795D01*
X5652193Y4861560D01*
X5642955Y4856942D01*
X5629102Y4856942D01*
X5619864Y4861560D01*
X5610628Y4870795D01*
X5524731Y4907742D02*
G01*
X5533966Y4916977D01*
X5543204Y4921595D01*
X5557057Y4921595D01*
X5566295Y4916977D01*
X5575531Y4907742D01*
X5580148Y4893886D01*
X5580148Y4884651D01*
X5575531Y4870795D01*
X5566295Y4861560D01*
X5557057Y4856942D01*
X5543204Y4856942D01*
X5533966Y4861560D01*
X5524731Y4870795D01*
X5358475Y4940068D02*
G01*
X5367713Y4949304D01*
X5381566Y4953924D01*
X5400040Y4953924D01*
X5413895Y4949304D01*
X5423131Y4940068D01*
X5423131Y4930833D01*
X5418513Y4921595D01*
X5413895Y4916977D01*
X5404657Y4912360D01*
X5376948Y4903124D01*
X5367713Y4898504D01*
X5363095Y4893886D01*
X5358475Y4884651D01*
X5358475Y4870795D01*
X5367713Y4861560D01*
X5381566Y4856942D01*
X5400040Y4856942D01*
X5413895Y4861560D01*
X5423131Y4870795D01*
X5327995Y4953924D02*
G01*
X5327995Y4856942D01*
X5327995Y4953924D02*
G01*
X5286433Y4953924D01*
X5272577Y4949304D01*
X5267960Y4944686D01*
X5263342Y4935451D01*
X5263342Y4926215D01*
X5267960Y4916977D01*
X5272577Y4912360D01*
X5286433Y4907742D01*
X5327995Y4907742D01*
X5295668Y4907742D02*
G01*
X5263342Y4856942D01*
X5232862Y4953924D02*
G01*
X5232862Y4856942D01*
X5232862Y4856942D02*
G01*
X5177444Y4856942D01*
D11*
X5562600Y4140200D02*
G01*
X5943600Y4140200D01*
X6070600Y4013200D01*
X6070600Y3251200D01*
X5943600Y3124200D01*
X5816600Y3124200D01*
D12*
X4038600Y3253740D02*
G01*
X4422140Y3253740D01*
X4546600Y3378200D01*
X4546600Y3886200D01*
X4419600Y4013200D01*
X4419600Y4267200D01*
X4546600Y4394200D01*
X4800600Y4394200D01*
D11*
X4038600Y3756660D02*
G01*
X4038600Y4140200D01*
X5562600Y3124200D02*
G01*
X5054600Y3124200D01*
X5562600Y4394200D02*
G01*
X5435600Y4394200D01*
X5308600Y4267200D01*
X5308600Y3886200D01*
X5816600Y3632200D02*
G01*
X5816600Y3759200D01*
X5689600Y3886200D01*
X5308600Y3886200D01*
X5054600Y3886200D01*
X4800600Y4648200D02*
G01*
X4292600Y4648200D01*
X4038600Y4902200D01*
X5562600Y1397000D02*
G01*
X5943600Y1397000D01*
X6070600Y1270000D01*
X6070600Y508000D01*
X5943600Y381000D01*
X5816600Y381000D01*
D12*
X4038600Y510540D02*
G01*
X4422140Y510540D01*
X4546600Y635000D01*
X4546600Y1143000D01*
X4419600Y1270000D01*
X4419600Y1524000D01*
X4546600Y1651000D01*
X4800600Y1651000D01*
D11*
X4038600Y1013460D02*
G01*
X4038600Y1397000D01*
X5562600Y381000D02*
G01*
X5054600Y381000D01*
X5562600Y1651000D02*
G01*
X5435600Y1651000D01*
X5308600Y1524000D01*
X5308600Y1143000D01*
X5816600Y889000D02*
G01*
X5816600Y1016000D01*
X5689600Y1143000D01*
X5308600Y1143000D01*
X5054600Y1143000D01*
X4800600Y1905000D02*
G01*
X4292600Y1905000D01*
X4038600Y2159000D01*
X2514600Y1397000D02*
G01*
X2895600Y1397000D01*
X3022600Y1270000D01*
X3022600Y508000D01*
X2895600Y381000D01*
X2768600Y381000D01*
D12*
X990600Y510540D02*
G01*
X1374140Y510540D01*
X1498600Y635000D01*
X1498600Y1143000D01*
X1371600Y1270000D01*
X1371600Y1524000D01*
X1498600Y1651000D01*
X1752600Y1651000D01*
D11*
X990600Y1013460D02*
G01*
X990600Y1397000D01*
X2514600Y381000D02*
G01*
X2006600Y381000D01*
X2514600Y1651000D02*
G01*
X2387600Y1651000D01*
X2260600Y1524000D01*
X2260600Y1143000D01*
X2768600Y889000D02*
G01*
X2768600Y1016000D01*
X2641600Y1143000D01*
X2260600Y1143000D01*
X2006600Y1143000D01*
X1752600Y1905000D02*
G01*
X1244600Y1905000D01*
X990600Y2159000D01*
X2514600Y4114800D02*
G01*
X2895600Y4114800D01*
X3022600Y3987800D01*
X3022600Y3225800D01*
X2895600Y3098800D01*
X2768600Y3098800D01*
D12*
X990600Y3228340D02*
G01*
X1374140Y3228340D01*
X1498600Y3352800D01*
X1498600Y3860800D01*
X1371600Y3987800D01*
X1371600Y4241800D01*
X1498600Y4368800D01*
X1752600Y4368800D01*
D11*
X990600Y3731260D02*
G01*
X990600Y4114800D01*
X2514600Y3098800D02*
G01*
X2006600Y3098800D01*
X2514600Y4368800D02*
G01*
X2387600Y4368800D01*
X2260600Y4241800D01*
X2260600Y3860800D01*
X2768600Y3606800D02*
G01*
X2768600Y3733800D01*
X2641600Y3860800D01*
X2260600Y3860800D01*
X2006600Y3860800D01*
X1752600Y4622800D02*
G01*
X1244600Y4622800D01*
X990600Y4876800D01*
D13*
G01*
X435000Y4207002D03*
G01*
X6673799Y3707003D03*
G01*
X435000Y1079398D03*
G01*
X6673799Y1579397D03*
D14*
G01*
X2514600Y3606800D03*
G01*
X2768600Y3606800D03*
G01*
X2514600Y3352800D03*
G01*
X2768600Y3352800D03*
G01*
X2514600Y3098800D03*
G01*
X2768600Y3098800D03*
G01*
X990600Y4114800D03*
G01*
X990600Y4876800D03*
G01*
X2006600Y3860800D03*
G01*
X2006600Y3098800D03*
G01*
X2006600Y1143000D03*
G01*
X2006600Y381000D03*
G01*
X990600Y1397000D03*
G01*
X990600Y2159000D03*
G01*
X2514600Y889000D03*
G01*
X2768600Y889000D03*
G01*
X2514600Y635000D03*
G01*
X2768600Y635000D03*
G01*
X2514600Y381000D03*
G01*
X2768600Y381000D03*
G01*
X5054600Y1143000D03*
G01*
X5054600Y381000D03*
G01*
X4038600Y1397000D03*
G01*
X4038600Y2159000D03*
G01*
X5562600Y889000D03*
G01*
X5816600Y889000D03*
G01*
X5562600Y635000D03*
G01*
X5816600Y635000D03*
G01*
X5562600Y381000D03*
G01*
X5816600Y381000D03*
G01*
X5054600Y3886200D03*
G01*
X5054600Y3124200D03*
G01*
X4038600Y4140200D03*
G01*
X4038600Y4902200D03*
G01*
X5562600Y3632200D03*
G01*
X5816600Y3632200D03*
G01*
X5562600Y3378200D03*
G01*
X5816600Y3378200D03*
G01*
X5562600Y3124200D03*
G01*
X5816600Y3124200D03*
X1802599Y4622800D02*
G01*
X1702600Y4622800D01*
X1802599Y4368800D02*
G01*
X1702600Y4368800D01*
X2464600Y4368800D02*
G01*
X2564599Y4368800D01*
X2464600Y4622800D02*
G01*
X2564599Y4622800D01*
X1802599Y4114800D02*
G01*
X1702600Y4114800D01*
X2464600Y4114800D02*
G01*
X2564599Y4114800D01*
D15*
X942479Y3731260D02*
G01*
X1038720Y3731260D01*
X942479Y3228340D02*
G01*
X1038720Y3228340D01*
X942479Y1013460D02*
G01*
X1038720Y1013460D01*
X942479Y510540D02*
G01*
X1038720Y510540D01*
D14*
X1802599Y1905000D02*
G01*
X1702600Y1905000D01*
X1802599Y1651000D02*
G01*
X1702600Y1651000D01*
X2464600Y1651000D02*
G01*
X2564599Y1651000D01*
X2464600Y1905000D02*
G01*
X2564599Y1905000D01*
X1802599Y1397000D02*
G01*
X1702600Y1397000D01*
X2464600Y1397000D02*
G01*
X2564599Y1397000D01*
D15*
X3990479Y1013460D02*
G01*
X4086720Y1013460D01*
X3990479Y510540D02*
G01*
X4086720Y510540D01*
D14*
X4850599Y1905000D02*
G01*
X4750600Y1905000D01*
X4850599Y1651000D02*
G01*
X4750600Y1651000D01*
X5512600Y1651000D02*
G01*
X5612599Y1651000D01*
X5512600Y1905000D02*
G01*
X5612599Y1905000D01*
X4850599Y1397000D02*
G01*
X4750600Y1397000D01*
X5512600Y1397000D02*
G01*
X5612599Y1397000D01*
D15*
X3990479Y3756660D02*
G01*
X4086720Y3756660D01*
X3990479Y3253740D02*
G01*
X4086720Y3253740D01*
D14*
X4850599Y4648200D02*
G01*
X4750600Y4648200D01*
X4850599Y4394200D02*
G01*
X4750600Y4394200D01*
X5512600Y4394200D02*
G01*
X5612599Y4394200D01*
X5512600Y4648200D02*
G01*
X5612599Y4648200D01*
X4850599Y4140200D02*
G01*
X4750600Y4140200D01*
X5512600Y4140200D02*
G01*
X5612599Y4140200D01*
M02*
