G04 Layer: MechanicalLayer*
G04 Panelize: V-CUT, Column: 2, Row: 2, Board Size: 28.19mm x 24.64mm, Panelized Board Size: 58.39mm x 51.28mm*
G04 EasyEDA v6.5.9, 2022-12-18 14:38:18*
G04 4aff3cac283946888bffb04ada9a0e28,5dd06754fdd742daa6fe38bf62b7df6b,10*
G04 Gerber Generator version 0.2*
G04 Scale: 100 percent, Rotated: No, Reflected: No *
G04 Dimensions in millimeters *
G04 leading zeros omitted , absolute positions ,4 integer and 5 decimal *
%FSLAX45Y45*%
%MOMM*%

%ADD10C,0.2540*%

%LPD*%
D10*
X635000Y6631178D02*
G01*
X635000Y6437376D01*
X635000Y6631178D02*
G01*
X718058Y6631178D01*
X745744Y6622034D01*
X755142Y6612890D01*
X764286Y6594348D01*
X764286Y6575806D01*
X755142Y6557264D01*
X745744Y6548120D01*
X718058Y6538976D01*
X635000Y6538976D01*
X699770Y6538976D02*
G01*
X764286Y6437376D01*
X871474Y6566662D02*
G01*
X852932Y6557264D01*
X834390Y6538976D01*
X825246Y6511290D01*
X825246Y6492748D01*
X834390Y6465062D01*
X852932Y6446520D01*
X871474Y6437376D01*
X899160Y6437376D01*
X917702Y6446520D01*
X935990Y6465062D01*
X945387Y6492748D01*
X945387Y6511290D01*
X935990Y6538976D01*
X917702Y6557264D01*
X899160Y6566662D01*
X871474Y6566662D01*
X1006348Y6566662D02*
G01*
X1043178Y6437376D01*
X1080262Y6566662D02*
G01*
X1043178Y6437376D01*
X1080262Y6566662D02*
G01*
X1117092Y6437376D01*
X1154176Y6566662D02*
G01*
X1117092Y6437376D01*
X1486662Y6603492D02*
G01*
X1468120Y6622034D01*
X1440434Y6631178D01*
X1403350Y6631178D01*
X1375664Y6622034D01*
X1357376Y6603492D01*
X1357376Y6584950D01*
X1366520Y6566662D01*
X1375664Y6557264D01*
X1394206Y6548120D01*
X1449578Y6529578D01*
X1468120Y6520434D01*
X1477264Y6511290D01*
X1486662Y6492748D01*
X1486662Y6465062D01*
X1468120Y6446520D01*
X1440434Y6437376D01*
X1403350Y6437376D01*
X1375664Y6446520D01*
X1357376Y6465062D01*
X1547622Y6566662D02*
G01*
X1547622Y6372606D01*
X1547622Y6538976D02*
G01*
X1565910Y6557264D01*
X1584452Y6566662D01*
X1612138Y6566662D01*
X1630680Y6557264D01*
X1649222Y6538976D01*
X1658366Y6511290D01*
X1658366Y6492748D01*
X1649222Y6465062D01*
X1630680Y6446520D01*
X1612138Y6437376D01*
X1584452Y6437376D01*
X1565910Y6446520D01*
X1547622Y6465062D01*
X1830070Y6566662D02*
G01*
X1830070Y6437376D01*
X1830070Y6538976D02*
G01*
X1811782Y6557264D01*
X1793239Y6566662D01*
X1765554Y6566662D01*
X1747012Y6557264D01*
X1728470Y6538976D01*
X1719325Y6511290D01*
X1719325Y6492748D01*
X1728470Y6465062D01*
X1747012Y6446520D01*
X1765554Y6437376D01*
X1793239Y6437376D01*
X1811782Y6446520D01*
X1830070Y6465062D01*
X2002028Y6538976D02*
G01*
X1983486Y6557264D01*
X1964943Y6566662D01*
X1937257Y6566662D01*
X1918970Y6557264D01*
X1900428Y6538976D01*
X1891030Y6511290D01*
X1891030Y6492748D01*
X1900428Y6465062D01*
X1918970Y6446520D01*
X1937257Y6437376D01*
X1964943Y6437376D01*
X1983486Y6446520D01*
X2002028Y6465062D01*
X2062988Y6631178D02*
G01*
X2072132Y6622034D01*
X2081530Y6631178D01*
X2072132Y6640575D01*
X2062988Y6631178D01*
X2072132Y6566662D02*
G01*
X2072132Y6437376D01*
X2142490Y6566662D02*
G01*
X2142490Y6437376D01*
X2142490Y6529578D02*
G01*
X2170176Y6557264D01*
X2188464Y6566662D01*
X2216150Y6566662D01*
X2234692Y6557264D01*
X2244090Y6529578D01*
X2244090Y6437376D01*
X2415794Y6566662D02*
G01*
X2415794Y6418834D01*
X2406650Y6391148D01*
X2397252Y6381750D01*
X2378710Y6372606D01*
X2351024Y6372606D01*
X2332736Y6381750D01*
X2415794Y6538976D02*
G01*
X2397252Y6557264D01*
X2378710Y6566662D01*
X2351024Y6566662D01*
X2332736Y6557264D01*
X2314194Y6538976D01*
X2305050Y6511290D01*
X2305050Y6492748D01*
X2314194Y6465062D01*
X2332736Y6446520D01*
X2351024Y6437376D01*
X2378710Y6437376D01*
X2397252Y6446520D01*
X2415794Y6465062D01*
X2485898Y6548120D02*
G01*
X2476754Y6538976D01*
X2485898Y6529578D01*
X2495296Y6538976D01*
X2485898Y6548120D01*
X2485898Y6483350D02*
G01*
X2476754Y6474206D01*
X2485898Y6465062D01*
X2495296Y6474206D01*
X2485898Y6483350D01*
X2707640Y6584950D02*
G01*
X2707640Y6594348D01*
X2716784Y6612890D01*
X2726182Y6622034D01*
X2744470Y6631178D01*
X2781554Y6631178D01*
X2800096Y6622034D01*
X2809240Y6612890D01*
X2818384Y6594348D01*
X2818384Y6575806D01*
X2809240Y6557264D01*
X2790698Y6529578D01*
X2698496Y6437376D01*
X2827782Y6437376D01*
X2888742Y6566662D02*
G01*
X2888742Y6437376D01*
X2888742Y6529578D02*
G01*
X2916428Y6557264D01*
X2934970Y6566662D01*
X2962656Y6566662D01*
X2980944Y6557264D01*
X2990342Y6529578D01*
X2990342Y6437376D01*
X2990342Y6529578D02*
G01*
X3018028Y6557264D01*
X3036570Y6566662D01*
X3064256Y6566662D01*
X3082544Y6557264D01*
X3091942Y6529578D01*
X3091942Y6437376D01*
X3152902Y6566662D02*
G01*
X3152902Y6437376D01*
X3152902Y6529578D02*
G01*
X3180588Y6557264D01*
X3199130Y6566662D01*
X3226816Y6566662D01*
X3245104Y6557264D01*
X3254502Y6529578D01*
X3254502Y6437376D01*
X3254502Y6529578D02*
G01*
X3282187Y6557264D01*
X3300729Y6566662D01*
X3328415Y6566662D01*
X3346704Y6557264D01*
X3356101Y6529578D01*
X3356101Y6437376D01*
X773430Y6280150D02*
G01*
X764286Y6298692D01*
X745744Y6317234D01*
X727456Y6326378D01*
X690372Y6326378D01*
X671830Y6317234D01*
X653542Y6298692D01*
X644144Y6280150D01*
X635000Y6252464D01*
X635000Y6206490D01*
X644144Y6178550D01*
X653542Y6160262D01*
X671830Y6141720D01*
X690372Y6132576D01*
X727456Y6132576D01*
X745744Y6141720D01*
X764286Y6160262D01*
X773430Y6178550D01*
X880618Y6261862D02*
G01*
X862330Y6252464D01*
X843787Y6234176D01*
X834390Y6206490D01*
X834390Y6187948D01*
X843787Y6160262D01*
X862330Y6141720D01*
X880618Y6132576D01*
X908303Y6132576D01*
X926846Y6141720D01*
X945387Y6160262D01*
X954532Y6187948D01*
X954532Y6206490D01*
X945387Y6234176D01*
X926846Y6252464D01*
X908303Y6261862D01*
X880618Y6261862D01*
X1015492Y6326378D02*
G01*
X1015492Y6132576D01*
X1076452Y6261862D02*
G01*
X1076452Y6169406D01*
X1085850Y6141720D01*
X1104138Y6132576D01*
X1131824Y6132576D01*
X1150366Y6141720D01*
X1178052Y6169406D01*
X1178052Y6261862D02*
G01*
X1178052Y6132576D01*
X1239012Y6261862D02*
G01*
X1239012Y6132576D01*
X1239012Y6224778D02*
G01*
X1266698Y6252464D01*
X1285240Y6261862D01*
X1312926Y6261862D01*
X1331468Y6252464D01*
X1340612Y6224778D01*
X1340612Y6132576D01*
X1340612Y6224778D02*
G01*
X1368298Y6252464D01*
X1386840Y6261862D01*
X1414526Y6261862D01*
X1433068Y6252464D01*
X1442212Y6224778D01*
X1442212Y6132576D01*
X1503172Y6261862D02*
G01*
X1503172Y6132576D01*
X1503172Y6224778D02*
G01*
X1530858Y6252464D01*
X1549400Y6261862D01*
X1577086Y6261862D01*
X1595628Y6252464D01*
X1604772Y6224778D01*
X1604772Y6132576D01*
X1937257Y6298692D02*
G01*
X1918970Y6317234D01*
X1891030Y6326378D01*
X1854200Y6326378D01*
X1826514Y6317234D01*
X1807972Y6298692D01*
X1807972Y6280150D01*
X1817370Y6261862D01*
X1826514Y6252464D01*
X1845056Y6243320D01*
X1900428Y6224778D01*
X1918970Y6215634D01*
X1928114Y6206490D01*
X1937257Y6187948D01*
X1937257Y6160262D01*
X1918970Y6141720D01*
X1891030Y6132576D01*
X1854200Y6132576D01*
X1826514Y6141720D01*
X1807972Y6160262D01*
X1998218Y6261862D02*
G01*
X1998218Y6067806D01*
X1998218Y6234176D02*
G01*
X2016760Y6252464D01*
X2035302Y6261862D01*
X2062988Y6261862D01*
X2081530Y6252464D01*
X2099818Y6234176D01*
X2109216Y6206490D01*
X2109216Y6187948D01*
X2099818Y6160262D01*
X2081530Y6141720D01*
X2062988Y6132576D01*
X2035302Y6132576D01*
X2016760Y6141720D01*
X1998218Y6160262D01*
X2280920Y6261862D02*
G01*
X2280920Y6132576D01*
X2280920Y6234176D02*
G01*
X2262378Y6252464D01*
X2244090Y6261862D01*
X2216150Y6261862D01*
X2197862Y6252464D01*
X2179320Y6234176D01*
X2170176Y6206490D01*
X2170176Y6187948D01*
X2179320Y6160262D01*
X2197862Y6141720D01*
X2216150Y6132576D01*
X2244090Y6132576D01*
X2262378Y6141720D01*
X2280920Y6160262D01*
X2452624Y6234176D02*
G01*
X2434336Y6252464D01*
X2415794Y6261862D01*
X2388108Y6261862D01*
X2369566Y6252464D01*
X2351024Y6234176D01*
X2341880Y6206490D01*
X2341880Y6187948D01*
X2351024Y6160262D01*
X2369566Y6141720D01*
X2388108Y6132576D01*
X2415794Y6132576D01*
X2434336Y6141720D01*
X2452624Y6160262D01*
X2513584Y6326378D02*
G01*
X2522982Y6317234D01*
X2532126Y6326378D01*
X2522982Y6335776D01*
X2513584Y6326378D01*
X2522982Y6261862D02*
G01*
X2522982Y6132576D01*
X2593086Y6261862D02*
G01*
X2593086Y6132576D01*
X2593086Y6224778D02*
G01*
X2620772Y6252464D01*
X2639314Y6261862D01*
X2667000Y6261862D01*
X2685542Y6252464D01*
X2694686Y6224778D01*
X2694686Y6132576D01*
X2866390Y6261862D02*
G01*
X2866390Y6114034D01*
X2857246Y6086348D01*
X2848102Y6076950D01*
X2829560Y6067806D01*
X2801874Y6067806D01*
X2783332Y6076950D01*
X2866390Y6234176D02*
G01*
X2848102Y6252464D01*
X2829560Y6261862D01*
X2801874Y6261862D01*
X2783332Y6252464D01*
X2764790Y6234176D01*
X2755646Y6206490D01*
X2755646Y6187948D01*
X2764790Y6160262D01*
X2783332Y6141720D01*
X2801874Y6132576D01*
X2829560Y6132576D01*
X2848102Y6141720D01*
X2866390Y6160262D01*
X2936748Y6243320D02*
G01*
X2927350Y6234176D01*
X2936748Y6224778D01*
X2945892Y6234176D01*
X2936748Y6243320D01*
X2936748Y6178550D02*
G01*
X2927350Y6169406D01*
X2936748Y6160262D01*
X2945892Y6169406D01*
X2936748Y6178550D01*
X3158490Y6280150D02*
G01*
X3158490Y6289548D01*
X3167634Y6308090D01*
X3176778Y6317234D01*
X3195320Y6326378D01*
X3232150Y6326378D01*
X3250692Y6317234D01*
X3260090Y6308090D01*
X3269234Y6289548D01*
X3269234Y6271006D01*
X3260090Y6252464D01*
X3241548Y6224778D01*
X3149092Y6132576D01*
X3278378Y6132576D01*
X3339337Y6261862D02*
G01*
X3339337Y6132576D01*
X3339337Y6224778D02*
G01*
X3367024Y6252464D01*
X3385565Y6261862D01*
X3413251Y6261862D01*
X3431794Y6252464D01*
X3440937Y6224778D01*
X3440937Y6132576D01*
X3440937Y6224778D02*
G01*
X3468624Y6252464D01*
X3487165Y6261862D01*
X3514851Y6261862D01*
X3533394Y6252464D01*
X3542537Y6224778D01*
X3542537Y6132576D01*
X3603498Y6261862D02*
G01*
X3603498Y6132576D01*
X3603498Y6224778D02*
G01*
X3631184Y6252464D01*
X3649726Y6261862D01*
X3677412Y6261862D01*
X3695954Y6252464D01*
X3705098Y6224778D01*
X3705098Y6132576D01*
X3705098Y6224778D02*
G01*
X3732784Y6252464D01*
X3751326Y6261862D01*
X3779012Y6261862D01*
X3797554Y6252464D01*
X3806698Y6224778D01*
X3806698Y6132576D01*
X773430Y5975350D02*
G01*
X764286Y5993892D01*
X745744Y6012434D01*
X727456Y6021578D01*
X690372Y6021578D01*
X671830Y6012434D01*
X653542Y5993892D01*
X644144Y5975350D01*
X635000Y5947664D01*
X635000Y5901690D01*
X644144Y5873750D01*
X653542Y5855462D01*
X671830Y5836920D01*
X690372Y5827776D01*
X727456Y5827776D01*
X745744Y5836920D01*
X764286Y5855462D01*
X773430Y5873750D01*
X880618Y5957062D02*
G01*
X862330Y5947664D01*
X843787Y5929376D01*
X834390Y5901690D01*
X834390Y5883148D01*
X843787Y5855462D01*
X862330Y5836920D01*
X880618Y5827776D01*
X908303Y5827776D01*
X926846Y5836920D01*
X945387Y5855462D01*
X954532Y5883148D01*
X954532Y5901690D01*
X945387Y5929376D01*
X926846Y5947664D01*
X908303Y5957062D01*
X880618Y5957062D01*
X1015492Y5957062D02*
G01*
X1015492Y5864606D01*
X1024890Y5836920D01*
X1043178Y5827776D01*
X1070864Y5827776D01*
X1089406Y5836920D01*
X1117092Y5864606D01*
X1117092Y5957062D02*
G01*
X1117092Y5827776D01*
X1178052Y5957062D02*
G01*
X1178052Y5827776D01*
X1178052Y5919978D02*
G01*
X1205738Y5947664D01*
X1224280Y5957062D01*
X1251966Y5957062D01*
X1270508Y5947664D01*
X1279652Y5919978D01*
X1279652Y5827776D01*
X1368298Y6021578D02*
G01*
X1368298Y5864606D01*
X1377696Y5836920D01*
X1395984Y5827776D01*
X1414526Y5827776D01*
X1340612Y5957062D02*
G01*
X1405382Y5957062D01*
X1484630Y5938520D02*
G01*
X1475486Y5929376D01*
X1484630Y5919978D01*
X1494028Y5929376D01*
X1484630Y5938520D01*
X1484630Y5873750D02*
G01*
X1475486Y5864606D01*
X1484630Y5855462D01*
X1494028Y5864606D01*
X1484630Y5873750D01*
X1706372Y5975350D02*
G01*
X1706372Y5984748D01*
X1715770Y6003290D01*
X1724914Y6012434D01*
X1743456Y6021578D01*
X1780286Y6021578D01*
X1798828Y6012434D01*
X1807972Y6003290D01*
X1817370Y5984748D01*
X1817370Y5966206D01*
X1807972Y5947664D01*
X1789430Y5919978D01*
X1697228Y5827776D01*
X1826514Y5827776D01*
X2029714Y5957062D02*
G01*
X2131314Y5827776D01*
X2131314Y5957062D02*
G01*
X2029714Y5827776D01*
X2343658Y5975350D02*
G01*
X2343658Y5984748D01*
X2353056Y6003290D01*
X2362200Y6012434D01*
X2380742Y6021578D01*
X2417572Y6021578D01*
X2436114Y6012434D01*
X2445258Y6003290D01*
X2454656Y5984748D01*
X2454656Y5966206D01*
X2445258Y5947664D01*
X2426970Y5919978D01*
X2334514Y5827776D01*
X2463800Y5827776D01*
X635000Y5716778D02*
G01*
X635000Y5522976D01*
X635000Y5716778D02*
G01*
X718058Y5716778D01*
X745744Y5707634D01*
X755142Y5698490D01*
X764286Y5679948D01*
X764286Y5661406D01*
X755142Y5642864D01*
X745744Y5633720D01*
X718058Y5624576D01*
X635000Y5624576D01*
X699770Y5624576D02*
G01*
X764286Y5522976D01*
X825246Y5596890D02*
G01*
X935990Y5596890D01*
X935990Y5615178D01*
X926846Y5633720D01*
X917702Y5642864D01*
X899160Y5652262D01*
X871474Y5652262D01*
X852932Y5642864D01*
X834390Y5624576D01*
X825246Y5596890D01*
X825246Y5578348D01*
X834390Y5550662D01*
X852932Y5532120D01*
X871474Y5522976D01*
X899160Y5522976D01*
X917702Y5532120D01*
X935990Y5550662D01*
X996950Y5652262D02*
G01*
X996950Y5522976D01*
X996950Y5615178D02*
G01*
X1024890Y5642864D01*
X1043178Y5652262D01*
X1070864Y5652262D01*
X1089406Y5642864D01*
X1098550Y5615178D01*
X1098550Y5522976D01*
X1098550Y5615178D02*
G01*
X1126490Y5642864D01*
X1144778Y5652262D01*
X1172464Y5652262D01*
X1191006Y5642864D01*
X1200150Y5615178D01*
X1200150Y5522976D01*
X1372108Y5652262D02*
G01*
X1372108Y5522976D01*
X1372108Y5624576D02*
G01*
X1353566Y5642864D01*
X1335024Y5652262D01*
X1307338Y5652262D01*
X1289050Y5642864D01*
X1270508Y5624576D01*
X1261110Y5596890D01*
X1261110Y5578348D01*
X1270508Y5550662D01*
X1289050Y5532120D01*
X1307338Y5522976D01*
X1335024Y5522976D01*
X1353566Y5532120D01*
X1372108Y5550662D01*
X1433068Y5652262D02*
G01*
X1433068Y5522976D01*
X1433068Y5596890D02*
G01*
X1442212Y5624576D01*
X1460754Y5642864D01*
X1479296Y5652262D01*
X1506982Y5652262D01*
X1567942Y5716778D02*
G01*
X1567942Y5522976D01*
X1660143Y5652262D02*
G01*
X1567942Y5559806D01*
X1604772Y5596890D02*
G01*
X1669542Y5522976D01*
X1739646Y5633720D02*
G01*
X1730502Y5624576D01*
X1739646Y5615178D01*
X1748789Y5624576D01*
X1739646Y5633720D01*
X1739646Y5568950D02*
G01*
X1730502Y5559806D01*
X1739646Y5550662D01*
X1748789Y5559806D01*
X1739646Y5568950D01*
X2016760Y5716778D02*
G01*
X2016760Y5522976D01*
X1951989Y5716778D02*
G01*
X2081530Y5716778D01*
X2142490Y5716778D02*
G01*
X2142490Y5522976D01*
X2142490Y5615178D02*
G01*
X2170176Y5642864D01*
X2188464Y5652262D01*
X2216150Y5652262D01*
X2234692Y5642864D01*
X2244090Y5615178D01*
X2244090Y5522976D01*
X2305050Y5716778D02*
G01*
X2314194Y5707634D01*
X2323338Y5716778D01*
X2314194Y5726176D01*
X2305050Y5716778D01*
X2314194Y5652262D02*
G01*
X2314194Y5522976D01*
X2485898Y5624576D02*
G01*
X2476754Y5642864D01*
X2449068Y5652262D01*
X2421382Y5652262D01*
X2393696Y5642864D01*
X2384298Y5624576D01*
X2393696Y5606034D01*
X2411984Y5596890D01*
X2458212Y5587492D01*
X2476754Y5578348D01*
X2485898Y5559806D01*
X2485898Y5550662D01*
X2476754Y5532120D01*
X2449068Y5522976D01*
X2421382Y5522976D01*
X2393696Y5532120D01*
X2384298Y5550662D01*
X2827782Y5670550D02*
G01*
X2818384Y5689092D01*
X2800096Y5707634D01*
X2781554Y5716778D01*
X2744470Y5716778D01*
X2726182Y5707634D01*
X2707640Y5689092D01*
X2698496Y5670550D01*
X2689098Y5642864D01*
X2689098Y5596890D01*
X2698496Y5568950D01*
X2707640Y5550662D01*
X2726182Y5532120D01*
X2744470Y5522976D01*
X2781554Y5522976D01*
X2800096Y5532120D01*
X2818384Y5550662D01*
X2827782Y5568950D01*
X2827782Y5596890D01*
X2781554Y5596890D02*
G01*
X2827782Y5596890D01*
X2888742Y5596890D02*
G01*
X2999486Y5596890D01*
X2999486Y5615178D01*
X2990342Y5633720D01*
X2980944Y5642864D01*
X2962656Y5652262D01*
X2934970Y5652262D01*
X2916428Y5642864D01*
X2897886Y5624576D01*
X2888742Y5596890D01*
X2888742Y5578348D01*
X2897886Y5550662D01*
X2916428Y5532120D01*
X2934970Y5522976D01*
X2962656Y5522976D01*
X2980944Y5532120D01*
X2999486Y5550662D01*
X3060446Y5652262D02*
G01*
X3060446Y5522976D01*
X3060446Y5596890D02*
G01*
X3069590Y5624576D01*
X3088132Y5642864D01*
X3106674Y5652262D01*
X3134360Y5652262D01*
X3195320Y5716778D02*
G01*
X3195320Y5522976D01*
X3195320Y5624576D02*
G01*
X3213862Y5642864D01*
X3232150Y5652262D01*
X3260090Y5652262D01*
X3278378Y5642864D01*
X3296920Y5624576D01*
X3306064Y5596890D01*
X3306064Y5578348D01*
X3296920Y5550662D01*
X3278378Y5532120D01*
X3260090Y5522976D01*
X3232150Y5522976D01*
X3213862Y5532120D01*
X3195320Y5550662D01*
X3367024Y5596890D02*
G01*
X3478022Y5596890D01*
X3478022Y5615178D01*
X3468624Y5633720D01*
X3459479Y5642864D01*
X3440937Y5652262D01*
X3413251Y5652262D01*
X3394710Y5642864D01*
X3376422Y5624576D01*
X3367024Y5596890D01*
X3367024Y5578348D01*
X3376422Y5550662D01*
X3394710Y5532120D01*
X3413251Y5522976D01*
X3440937Y5522976D01*
X3459479Y5532120D01*
X3478022Y5550662D01*
X3538982Y5652262D02*
G01*
X3538982Y5522976D01*
X3538982Y5596890D02*
G01*
X3548126Y5624576D01*
X3566668Y5642864D01*
X3585210Y5652262D01*
X3612896Y5652262D01*
X3816096Y5716778D02*
G01*
X3825240Y5707634D01*
X3834384Y5716778D01*
X3825240Y5726176D01*
X3816096Y5716778D01*
X3825240Y5652262D02*
G01*
X3825240Y5522976D01*
X3996944Y5624576D02*
G01*
X3987800Y5642864D01*
X3960114Y5652262D01*
X3932428Y5652262D01*
X3904742Y5642864D01*
X3895344Y5624576D01*
X3904742Y5606034D01*
X3923029Y5596890D01*
X3969258Y5587492D01*
X3987800Y5578348D01*
X3996944Y5559806D01*
X3996944Y5550662D01*
X3987800Y5532120D01*
X3960114Y5522976D01*
X3932428Y5522976D01*
X3904742Y5532120D01*
X3895344Y5550662D01*
X4311142Y5652262D02*
G01*
X4311142Y5522976D01*
X4311142Y5624576D02*
G01*
X4292600Y5642864D01*
X4274058Y5652262D01*
X4246372Y5652262D01*
X4227830Y5642864D01*
X4209542Y5624576D01*
X4200144Y5596890D01*
X4200144Y5578348D01*
X4209542Y5550662D01*
X4227830Y5532120D01*
X4246372Y5522976D01*
X4274058Y5522976D01*
X4292600Y5532120D01*
X4311142Y5550662D01*
X4514342Y5652262D02*
G01*
X4514342Y5458206D01*
X4514342Y5624576D02*
G01*
X4532630Y5642864D01*
X4551172Y5652262D01*
X4578858Y5652262D01*
X4597400Y5642864D01*
X4615942Y5624576D01*
X4625086Y5596890D01*
X4625086Y5578348D01*
X4615942Y5550662D01*
X4597400Y5532120D01*
X4578858Y5522976D01*
X4551172Y5522976D01*
X4532630Y5532120D01*
X4514342Y5550662D01*
X4796790Y5652262D02*
G01*
X4796790Y5522976D01*
X4796790Y5624576D02*
G01*
X4778502Y5642864D01*
X4759960Y5652262D01*
X4732274Y5652262D01*
X4713732Y5642864D01*
X4695190Y5624576D01*
X4686046Y5596890D01*
X4686046Y5578348D01*
X4695190Y5550662D01*
X4713732Y5532120D01*
X4732274Y5522976D01*
X4759960Y5522976D01*
X4778502Y5532120D01*
X4796790Y5550662D01*
X4857750Y5652262D02*
G01*
X4857750Y5522976D01*
X4857750Y5615178D02*
G01*
X4885690Y5642864D01*
X4903978Y5652262D01*
X4931664Y5652262D01*
X4950206Y5642864D01*
X4959350Y5615178D01*
X4959350Y5522976D01*
X5020310Y5596890D02*
G01*
X5131308Y5596890D01*
X5131308Y5615178D01*
X5121910Y5633720D01*
X5112766Y5642864D01*
X5094224Y5652262D01*
X5066538Y5652262D01*
X5048250Y5642864D01*
X5029708Y5624576D01*
X5020310Y5596890D01*
X5020310Y5578348D01*
X5029708Y5550662D01*
X5048250Y5532120D01*
X5066538Y5522976D01*
X5094224Y5522976D01*
X5112766Y5532120D01*
X5131308Y5550662D01*
X5192268Y5716778D02*
G01*
X5192268Y5522976D01*
X5253228Y5716778D02*
G01*
X5262372Y5707634D01*
X5271770Y5716778D01*
X5262372Y5726176D01*
X5253228Y5716778D01*
X5262372Y5652262D02*
G01*
X5262372Y5522976D01*
X5434330Y5652262D02*
G01*
X5332730Y5522976D01*
X5332730Y5652262D02*
G01*
X5434330Y5652262D01*
X5332730Y5522976D02*
G01*
X5434330Y5522976D01*
X5495290Y5596890D02*
G01*
X5606034Y5596890D01*
X5606034Y5615178D01*
X5596890Y5633720D01*
X5587492Y5642864D01*
X5568950Y5652262D01*
X5541264Y5652262D01*
X5522976Y5642864D01*
X5504434Y5624576D01*
X5495290Y5596890D01*
X5495290Y5578348D01*
X5504434Y5550662D01*
X5522976Y5532120D01*
X5541264Y5522976D01*
X5568950Y5522976D01*
X5587492Y5532120D01*
X5606034Y5550662D01*
X5777738Y5716778D02*
G01*
X5777738Y5522976D01*
X5777738Y5624576D02*
G01*
X5759450Y5642864D01*
X5740908Y5652262D01*
X5713222Y5652262D01*
X5694680Y5642864D01*
X5676138Y5624576D01*
X5666994Y5596890D01*
X5666994Y5578348D01*
X5676138Y5550662D01*
X5694680Y5532120D01*
X5713222Y5522976D01*
X5740908Y5522976D01*
X5759450Y5532120D01*
X5777738Y5550662D01*
X6054852Y5716778D02*
G01*
X6036310Y5716778D01*
X6018022Y5707634D01*
X6008624Y5679948D01*
X6008624Y5522976D01*
X5980938Y5652262D02*
G01*
X6045708Y5652262D01*
X6115812Y5716778D02*
G01*
X6125210Y5707634D01*
X6134354Y5716778D01*
X6125210Y5726176D01*
X6115812Y5716778D01*
X6125210Y5652262D02*
G01*
X6125210Y5522976D01*
X6195314Y5716778D02*
G01*
X6195314Y5522976D01*
X6256274Y5596890D02*
G01*
X6367018Y5596890D01*
X6367018Y5615178D01*
X6357874Y5633720D01*
X6348730Y5642864D01*
X6330188Y5652262D01*
X6302502Y5652262D01*
X6283960Y5642864D01*
X6265418Y5624576D01*
X6256274Y5596890D01*
X6256274Y5578348D01*
X6265418Y5550662D01*
X6283960Y5532120D01*
X6302502Y5522976D01*
X6330188Y5522976D01*
X6348730Y5532120D01*
X6367018Y5550662D01*
X6446520Y5559806D02*
G01*
X6437376Y5550662D01*
X6427978Y5559806D01*
X6437376Y5568950D01*
X6446520Y5559806D01*
X6446520Y5541264D01*
X6427978Y5522976D01*
X6649720Y5652262D02*
G01*
X6649720Y5458206D01*
X6649720Y5624576D02*
G01*
X6668262Y5642864D01*
X6686550Y5652262D01*
X6714490Y5652262D01*
X6732778Y5642864D01*
X6751320Y5624576D01*
X6760464Y5596890D01*
X6760464Y5578348D01*
X6751320Y5550662D01*
X6732778Y5532120D01*
X6714490Y5522976D01*
X6686550Y5522976D01*
X6668262Y5532120D01*
X6649720Y5550662D01*
X6932422Y5652262D02*
G01*
X6932422Y5522976D01*
X6932422Y5624576D02*
G01*
X6913880Y5642864D01*
X6895338Y5652262D01*
X6867652Y5652262D01*
X6849109Y5642864D01*
X6830822Y5624576D01*
X6821424Y5596890D01*
X6821424Y5578348D01*
X6830822Y5550662D01*
X6849109Y5532120D01*
X6867652Y5522976D01*
X6895338Y5522976D01*
X6913880Y5532120D01*
X6932422Y5550662D01*
X6993381Y5652262D02*
G01*
X6993381Y5522976D01*
X6993381Y5615178D02*
G01*
X7021068Y5642864D01*
X7039609Y5652262D01*
X7067296Y5652262D01*
X7085584Y5642864D01*
X7094981Y5615178D01*
X7094981Y5522976D01*
X7155942Y5596890D02*
G01*
X7266686Y5596890D01*
X7266686Y5615178D01*
X7257542Y5633720D01*
X7248144Y5642864D01*
X7229856Y5652262D01*
X7202170Y5652262D01*
X7183628Y5642864D01*
X7165086Y5624576D01*
X7155942Y5596890D01*
X7155942Y5578348D01*
X7165086Y5550662D01*
X7183628Y5532120D01*
X7202170Y5522976D01*
X7229856Y5522976D01*
X7248144Y5532120D01*
X7266686Y5550662D01*
X7327646Y5716778D02*
G01*
X7327646Y5522976D01*
X7388606Y5716778D02*
G01*
X7397750Y5707634D01*
X7407148Y5716778D01*
X7397750Y5726176D01*
X7388606Y5716778D01*
X7397750Y5652262D02*
G01*
X7397750Y5522976D01*
X7569708Y5652262D02*
G01*
X7468108Y5522976D01*
X7468108Y5652262D02*
G01*
X7569708Y5652262D01*
X7468108Y5522976D02*
G01*
X7569708Y5522976D01*
X7630668Y5596890D02*
G01*
X7741412Y5596890D01*
X7741412Y5615178D01*
X7732268Y5633720D01*
X7722870Y5642864D01*
X7704581Y5652262D01*
X7676896Y5652262D01*
X7658353Y5642864D01*
X7639812Y5624576D01*
X7630668Y5596890D01*
X7630668Y5578348D01*
X7639812Y5550662D01*
X7658353Y5532120D01*
X7676896Y5522976D01*
X7704581Y5522976D01*
X7722870Y5532120D01*
X7741412Y5550662D01*
X7913370Y5716778D02*
G01*
X7913370Y5522976D01*
X7913370Y5624576D02*
G01*
X7894828Y5642864D01*
X7876286Y5652262D01*
X7848600Y5652262D01*
X7830058Y5642864D01*
X7811770Y5624576D01*
X7802372Y5596890D01*
X7802372Y5578348D01*
X7811770Y5550662D01*
X7830058Y5532120D01*
X7848600Y5522976D01*
X7876286Y5522976D01*
X7894828Y5532120D01*
X7913370Y5550662D01*
X8116570Y5716778D02*
G01*
X8116570Y5522976D01*
X8116570Y5624576D02*
G01*
X8134858Y5642864D01*
X8153400Y5652262D01*
X8181086Y5652262D01*
X8199628Y5642864D01*
X8218170Y5624576D01*
X8227314Y5596890D01*
X8227314Y5578348D01*
X8218170Y5550662D01*
X8199628Y5532120D01*
X8181086Y5522976D01*
X8153400Y5522976D01*
X8134858Y5532120D01*
X8116570Y5550662D01*
X8297418Y5652262D02*
G01*
X8352790Y5522976D01*
X8408416Y5652262D02*
G01*
X8352790Y5522976D01*
X8334502Y5485892D01*
X8315959Y5467350D01*
X8297418Y5458206D01*
X8288274Y5458206D01*
X8639302Y5716778D02*
G01*
X8639302Y5559806D01*
X8648446Y5532120D01*
X8666988Y5522976D01*
X8685530Y5522976D01*
X8611616Y5652262D02*
G01*
X8676132Y5652262D01*
X8746490Y5716778D02*
G01*
X8746490Y5522976D01*
X8746490Y5615178D02*
G01*
X8774176Y5642864D01*
X8792464Y5652262D01*
X8820150Y5652262D01*
X8838692Y5642864D01*
X8848090Y5615178D01*
X8848090Y5522976D01*
X8909050Y5596890D02*
G01*
X9019794Y5596890D01*
X9019794Y5615178D01*
X9010650Y5633720D01*
X9001252Y5642864D01*
X8982710Y5652262D01*
X8955024Y5652262D01*
X8936736Y5642864D01*
X8918194Y5624576D01*
X8909050Y5596890D01*
X8909050Y5578348D01*
X8918194Y5550662D01*
X8936736Y5532120D01*
X8955024Y5522976D01*
X8982710Y5522976D01*
X9001252Y5532120D01*
X9019794Y5550662D01*
X9222994Y5716778D02*
G01*
X9222994Y5522976D01*
X9222994Y5624576D02*
G01*
X9241536Y5642864D01*
X9259824Y5652262D01*
X9287510Y5652262D01*
X9306052Y5642864D01*
X9324594Y5624576D01*
X9333738Y5596890D01*
X9333738Y5578348D01*
X9324594Y5550662D01*
X9306052Y5532120D01*
X9287510Y5522976D01*
X9259824Y5522976D01*
X9241536Y5532120D01*
X9222994Y5550662D01*
X9440926Y5652262D02*
G01*
X9422384Y5642864D01*
X9404096Y5624576D01*
X9394698Y5596890D01*
X9394698Y5578348D01*
X9404096Y5550662D01*
X9422384Y5532120D01*
X9440926Y5522976D01*
X9468612Y5522976D01*
X9487154Y5532120D01*
X9505696Y5550662D01*
X9514840Y5578348D01*
X9514840Y5596890D01*
X9505696Y5624576D01*
X9487154Y5642864D01*
X9468612Y5652262D01*
X9440926Y5652262D01*
X9686544Y5652262D02*
G01*
X9686544Y5522976D01*
X9686544Y5624576D02*
G01*
X9668256Y5642864D01*
X9649714Y5652262D01*
X9622028Y5652262D01*
X9603486Y5642864D01*
X9584944Y5624576D01*
X9575800Y5596890D01*
X9575800Y5578348D01*
X9584944Y5550662D01*
X9603486Y5532120D01*
X9622028Y5522976D01*
X9649714Y5522976D01*
X9668256Y5532120D01*
X9686544Y5550662D01*
X9747504Y5652262D02*
G01*
X9747504Y5522976D01*
X9747504Y5596890D02*
G01*
X9756902Y5624576D01*
X9775190Y5642864D01*
X9793732Y5652262D01*
X9821418Y5652262D01*
X9993376Y5716778D02*
G01*
X9993376Y5522976D01*
X9993376Y5624576D02*
G01*
X9974834Y5642864D01*
X9956292Y5652262D01*
X9928606Y5652262D01*
X9910064Y5642864D01*
X9891776Y5624576D01*
X9882378Y5596890D01*
X9882378Y5578348D01*
X9891776Y5550662D01*
X9910064Y5532120D01*
X9928606Y5522976D01*
X9956292Y5522976D01*
X9974834Y5532120D01*
X9993376Y5550662D01*
X10242550Y5652262D02*
G01*
X10224262Y5642864D01*
X10205720Y5624576D01*
X10196576Y5596890D01*
X10196576Y5578348D01*
X10205720Y5550662D01*
X10224262Y5532120D01*
X10242550Y5522976D01*
X10270490Y5522976D01*
X10288778Y5532120D01*
X10307320Y5550662D01*
X10316464Y5578348D01*
X10316464Y5596890D01*
X10307320Y5624576D01*
X10288778Y5642864D01*
X10270490Y5652262D01*
X10242550Y5652262D01*
X10377424Y5652262D02*
G01*
X10377424Y5559806D01*
X10386822Y5532120D01*
X10405110Y5522976D01*
X10433050Y5522976D01*
X10451338Y5532120D01*
X10479024Y5559806D01*
X10479024Y5652262D02*
G01*
X10479024Y5522976D01*
X10567670Y5716778D02*
G01*
X10567670Y5559806D01*
X10577068Y5532120D01*
X10595610Y5522976D01*
X10613898Y5522976D01*
X10539984Y5652262D02*
G01*
X10604754Y5652262D01*
X10674858Y5716778D02*
G01*
X10674858Y5522976D01*
X10735818Y5716778D02*
G01*
X10745216Y5707634D01*
X10754360Y5716778D01*
X10745216Y5726176D01*
X10735818Y5716778D01*
X10745216Y5652262D02*
G01*
X10745216Y5522976D01*
X10815320Y5652262D02*
G01*
X10815320Y5522976D01*
X10815320Y5615178D02*
G01*
X10843006Y5642864D01*
X10861548Y5652262D01*
X10889234Y5652262D01*
X10907776Y5642864D01*
X10916920Y5615178D01*
X10916920Y5522976D01*
X10977880Y5596890D02*
G01*
X11088624Y5596890D01*
X11088624Y5615178D01*
X11079480Y5633720D01*
X11070336Y5642864D01*
X11051794Y5652262D01*
X11024108Y5652262D01*
X11005566Y5642864D01*
X10987024Y5624576D01*
X10977880Y5596890D01*
X10977880Y5578348D01*
X10987024Y5550662D01*
X11005566Y5532120D01*
X11024108Y5522976D01*
X11051794Y5522976D01*
X11070336Y5532120D01*
X11088624Y5550662D01*
X11251184Y5624576D02*
G01*
X11242040Y5642864D01*
X11214354Y5652262D01*
X11186668Y5652262D01*
X11158982Y5642864D01*
X11149584Y5624576D01*
X11158982Y5606034D01*
X11177270Y5596890D01*
X11223498Y5587492D01*
X11242040Y5578348D01*
X11251184Y5559806D01*
X11251184Y5550662D01*
X11242040Y5532120D01*
X11214354Y5522976D01*
X11186668Y5522976D01*
X11158982Y5532120D01*
X11149584Y5550662D01*
X11321542Y5568950D02*
G01*
X11312144Y5559806D01*
X11321542Y5550662D01*
X11330686Y5559806D01*
X11321542Y5568950D01*
X7175500Y2798572D02*
G01*
X7230872Y2653030D01*
X7286244Y2798572D02*
G01*
X7230872Y2653030D01*
X7331964Y2715514D02*
G01*
X7456678Y2715514D01*
X7606284Y2764028D02*
G01*
X7599425Y2777744D01*
X7585456Y2791714D01*
X7571740Y2798572D01*
X7544053Y2798572D01*
X7530084Y2791714D01*
X7516114Y2777744D01*
X7509256Y2764028D01*
X7502398Y2743200D01*
X7502398Y2708656D01*
X7509256Y2687828D01*
X7516114Y2673858D01*
X7530084Y2660142D01*
X7544053Y2653030D01*
X7571740Y2653030D01*
X7585456Y2660142D01*
X7599425Y2673858D01*
X7606284Y2687828D01*
X7652003Y2798572D02*
G01*
X7652003Y2694686D01*
X7658862Y2673858D01*
X7672831Y2660142D01*
X7693659Y2653030D01*
X7707375Y2653030D01*
X7728203Y2660142D01*
X7742174Y2673858D01*
X7749031Y2694686D01*
X7749031Y2798572D01*
X7843266Y2798572D02*
G01*
X7843266Y2653030D01*
X7794752Y2798572D02*
G01*
X7891780Y2798572D01*
X7175500Y2998470D02*
G01*
X7230872Y2853182D01*
X7286244Y2998470D02*
G01*
X7230872Y2853182D01*
X7331964Y2915412D02*
G01*
X7456678Y2915412D01*
X7606284Y2963926D02*
G01*
X7599425Y2977896D01*
X7585456Y2991612D01*
X7571740Y2998470D01*
X7544053Y2998470D01*
X7530084Y2991612D01*
X7516114Y2977896D01*
X7509256Y2963926D01*
X7502398Y2943098D01*
X7502398Y2908554D01*
X7509256Y2887726D01*
X7516114Y2874010D01*
X7530084Y2860040D01*
X7544053Y2853182D01*
X7571740Y2853182D01*
X7585456Y2860040D01*
X7599425Y2874010D01*
X7606284Y2887726D01*
X7652003Y2998470D02*
G01*
X7652003Y2894584D01*
X7658862Y2874010D01*
X7672831Y2860040D01*
X7693659Y2853182D01*
X7707375Y2853182D01*
X7728203Y2860040D01*
X7742174Y2874010D01*
X7749031Y2894584D01*
X7749031Y2998470D01*
X7843266Y2998470D02*
G01*
X7843266Y2853182D01*
X7794752Y2998470D02*
G01*
X7891780Y2998470D01*
X3399028Y-733501D02*
G01*
X3544570Y-677875D01*
X3399028Y-622503D02*
G01*
X3544570Y-677875D01*
X3482086Y-576783D02*
G01*
X3482086Y-452069D01*
X3433572Y-302463D02*
G01*
X3419856Y-309575D01*
X3405886Y-323291D01*
X3399028Y-337261D01*
X3399028Y-364947D01*
X3405886Y-378663D01*
X3419856Y-392633D01*
X3433572Y-399491D01*
X3454400Y-406349D01*
X3488944Y-406349D01*
X3509772Y-399491D01*
X3523742Y-392633D01*
X3537458Y-378663D01*
X3544570Y-364947D01*
X3544570Y-337261D01*
X3537458Y-323291D01*
X3523742Y-309575D01*
X3509772Y-302463D01*
X3399028Y-256743D02*
G01*
X3502914Y-256743D01*
X3523742Y-249885D01*
X3537458Y-235915D01*
X3544570Y-215341D01*
X3544570Y-201371D01*
X3537458Y-180543D01*
X3523742Y-166827D01*
X3502914Y-159715D01*
X3399028Y-159715D01*
X3399028Y-65735D02*
G01*
X3544570Y-65735D01*
X3399028Y-113995D02*
G01*
X3399028Y-17221D01*
X3199028Y-733399D02*
G01*
X3344570Y-678027D01*
X3199028Y-622655D02*
G01*
X3344570Y-678027D01*
X3282086Y-576935D02*
G01*
X3282086Y-452221D01*
X3233572Y-302615D02*
G01*
X3219856Y-309473D01*
X3205886Y-323189D01*
X3199028Y-337159D01*
X3199028Y-364845D01*
X3205886Y-378815D01*
X3219856Y-392531D01*
X3233572Y-399389D01*
X3254400Y-406501D01*
X3288944Y-406501D01*
X3309772Y-399389D01*
X3323742Y-392531D01*
X3337458Y-378815D01*
X3344570Y-364845D01*
X3344570Y-337159D01*
X3337458Y-323189D01*
X3323742Y-309473D01*
X3309772Y-302615D01*
X3199028Y-256895D02*
G01*
X3302914Y-256895D01*
X3323742Y-249783D01*
X3337458Y-236067D01*
X3344570Y-215239D01*
X3344570Y-201269D01*
X3337458Y-180695D01*
X3323742Y-166725D01*
X3302914Y-159867D01*
X3199028Y-159867D01*
X3199028Y-65633D02*
G01*
X3344570Y-65633D01*
X3199028Y-114147D02*
G01*
X3199028Y-17119D01*
X379628Y-733399D02*
G01*
X525170Y-678027D01*
X379628Y-622655D02*
G01*
X525170Y-678027D01*
X462686Y-576935D02*
G01*
X462686Y-452221D01*
X414172Y-302615D02*
G01*
X400456Y-309473D01*
X386486Y-323189D01*
X379628Y-337159D01*
X379628Y-364845D01*
X386486Y-378815D01*
X400456Y-392531D01*
X414172Y-399389D01*
X435000Y-406501D01*
X469544Y-406501D01*
X490372Y-399389D01*
X504342Y-392531D01*
X518058Y-378815D01*
X525170Y-364845D01*
X525170Y-337159D01*
X518058Y-323189D01*
X504342Y-309473D01*
X490372Y-302615D01*
X379628Y-256895D02*
G01*
X483514Y-256895D01*
X504342Y-249783D01*
X518058Y-236067D01*
X525170Y-215239D01*
X525170Y-201269D01*
X518058Y-180695D01*
X504342Y-166725D01*
X483514Y-159867D01*
X379628Y-159867D01*
X379628Y-65633D02*
G01*
X525170Y-65633D01*
X379628Y-114147D02*
G01*
X379628Y-17119D01*
X6218428Y-733501D02*
G01*
X6363970Y-677875D01*
X6218428Y-622503D02*
G01*
X6363970Y-677875D01*
X6301486Y-576783D02*
G01*
X6301486Y-452069D01*
X6252972Y-302463D02*
G01*
X6239256Y-309575D01*
X6225286Y-323291D01*
X6218428Y-337261D01*
X6218428Y-364947D01*
X6225286Y-378663D01*
X6239256Y-392633D01*
X6252972Y-399491D01*
X6273800Y-406349D01*
X6308344Y-406349D01*
X6329172Y-399491D01*
X6343142Y-392633D01*
X6356858Y-378663D01*
X6363970Y-364947D01*
X6363970Y-337261D01*
X6356858Y-323291D01*
X6343142Y-309575D01*
X6329172Y-302463D01*
X6218428Y-256743D02*
G01*
X6322314Y-256743D01*
X6343142Y-249885D01*
X6356858Y-235915D01*
X6363970Y-215341D01*
X6363970Y-201371D01*
X6356858Y-180543D01*
X6343142Y-166827D01*
X6322314Y-159715D01*
X6218428Y-159715D01*
X6218428Y-65735D02*
G01*
X6363970Y-65735D01*
X6218428Y-113995D02*
G01*
X6218428Y-17221D01*
X35001Y2543200D02*
G01*
X7886598Y2543200D01*
X35001Y2743200D02*
G01*
X7886598Y2743200D01*
X3654399Y5207000D02*
G01*
X3654399Y-733399D01*
X3454400Y5207000D02*
G01*
X3454400Y-733399D01*
X635000Y5207000D02*
G01*
X635000Y-733399D01*
X6473799Y5207000D02*
G01*
X6473799Y-733399D01*
M02*
