M48
METRIC,LZ,000.000
;FILE_FORMAT=3:3
;TYPE=PLATED
;Layer: PTH_Through
;EasyEDA v6.5.9, 2022-12-07 18:08:41
;6f40e2f5e4d2417a89e148ba27438c90,5dd06754fdd742daa6fe38bf62b7df6b,10
;Gerber Generator version 0.2
;Holesize 1 = 0.501 mm
T01C0.501
;Holesize 2 = 0.915 mm
T02C0.915
;Holesize 3 = 1.000 mm
T03C1.000
;Holesize 4 = 1.301 mm
T04C1.301
;Holesize 5 = 1.600 mm
T05C1.600
;Holesize 6 = 2.000 mm
T06C2.000
%
G05
G90
T01
X028144Y051562
X031263Y051562
X029704Y051562
X032822Y051562
X028088Y049403
X029648Y049403
X031207Y049403
X032766Y049403
X028088Y047498
X029648Y047498
X031207Y047498
X032766Y047498
T02
X038531Y061312
X038531Y057382
X038531Y054842
X038531Y052302
X038531Y049762
X038531Y047222
X038531Y044682
X038531Y042142
X038531Y039602
X038531Y037062
X038531Y034522
X034721Y034522
X032181Y034522
X029641Y034522
X027101Y034522
X023291Y034522
X023291Y037062
X023291Y039602
X023291Y042142
X023291Y044682
X023291Y047222
X023291Y049762
X023291Y052302
X023291Y054842
X023291Y057382
X023291Y061312
T03
X018814Y052324G85X018820Y052324
X016315Y054864G85X016320Y054864
X018814Y057404G85X018820Y057404
T04
X054758Y067098
X054758Y072178
X054758Y069638
X054758Y054483
X054758Y059563
X054758Y057023
X054758Y041868
X054758Y046948
X054758Y044408
X054758Y029252
X054758Y034332
X054758Y031792
X017928Y019939
X023008Y019939
X020468Y019939
X030501Y019939
X035581Y019939
X033041Y019939
X043074Y019939
X048154Y019939
X045614Y019939
T05
X013483Y063667
X013483Y068667
X064029Y054481
X064029Y059481
X064029Y042119
X064029Y047119
X064029Y066842
X064029Y071842
X064029Y029758
X064029Y034758
X017206Y011176
X022206Y011176
X030350Y011176
X035350Y011176
X043495Y011176
X048495Y011176
T06
X014245Y047371
X043709Y069533
X014499Y028067
X064537Y015875
M30
