G04 Layer: TopSolderMaskLayer*
G04 EasyEDA v6.5.9, 2022-12-07 18:08:41*
G04 6f40e2f5e4d2417a89e148ba27438c90,5dd06754fdd742daa6fe38bf62b7df6b,10*
G04 Gerber Generator version 0.2*
G04 Scale: 100 percent, Rotated: No, Reflected: No *
G04 Dimensions in millimeters *
G04 leading zeros omitted , absolute positions ,4 integer and 5 decimal *
%FSLAX45Y45*%
%MOMM*%

%ADD10C,2.1016*%
%ADD11C,2.6016*%
%ADD12C,3.1016*%
%ADD13C,1.6256*%

%LPD*%
D10*
X5450799Y7217834D02*
G01*
X5500799Y7217834D01*
X5450799Y6963834D02*
G01*
X5500799Y6963834D01*
X5450799Y5956300D02*
G01*
X5500799Y5956300D01*
X5450799Y5702300D02*
G01*
X5500799Y5702300D01*
X5450799Y4694768D02*
G01*
X5500799Y4694768D01*
X5450799Y4440768D02*
G01*
X5500799Y4440768D01*
X5450799Y3433234D02*
G01*
X5500799Y3433234D01*
X5450799Y3179234D02*
G01*
X5500799Y3179234D01*
X2300800Y2018901D02*
G01*
X2300800Y1968901D01*
X2046800Y2018901D02*
G01*
X2046800Y1968901D01*
X3558100Y2018898D02*
G01*
X3558100Y1968898D01*
X3304100Y2018898D02*
G01*
X3304100Y1968898D01*
X4815400Y2018898D02*
G01*
X4815400Y1968898D01*
X4561400Y2018898D02*
G01*
X4561400Y1968898D01*
D11*
G01*
X1348300Y6366700D03*
G01*
X1348300Y6866699D03*
G36*
X5345684Y6604762D02*
G01*
X5345684Y6815073D01*
X5605779Y6815073D01*
X5605779Y6604762D01*
G37*
G36*
X5345684Y5343144D02*
G01*
X5345684Y5553455D01*
X5605779Y5553455D01*
X5605779Y5343144D01*
G37*
G36*
X5345684Y4081526D02*
G01*
X5345684Y4291837D01*
X5605779Y4291837D01*
X5605779Y4081526D01*
G37*
G36*
X5345684Y2820162D02*
G01*
X5345684Y3030473D01*
X5605779Y3030473D01*
X5605779Y2820162D01*
G37*
G36*
X1687576Y1863852D02*
G01*
X1687576Y2123947D01*
X1897887Y2123947D01*
X1897887Y1863852D01*
G37*
G36*
X2944875Y1863852D02*
G01*
X2944875Y2123947D01*
X3155188Y2123947D01*
X3155188Y1863852D01*
G37*
G36*
X4202175Y1863852D02*
G01*
X4202175Y2123947D01*
X4412488Y2123947D01*
X4412488Y1863852D01*
G37*
D10*
G01*
X1881700Y5232400D03*
D12*
G01*
X1631713Y5486400D03*
D10*
G01*
X1881700Y5740400D03*
G01*
X3853096Y6131204D03*
G01*
X3853096Y5738190D03*
G01*
X3853096Y5484190D03*
G01*
X3853096Y5230190D03*
G01*
X3853096Y4976190D03*
G01*
X3853096Y4722190D03*
G01*
X3853096Y4468190D03*
G01*
X3853096Y4214190D03*
G01*
X3853096Y3960190D03*
G01*
X3853096Y3706190D03*
G01*
X3853096Y3452190D03*
D13*
G01*
X3472096Y3452190D03*
G01*
X3218096Y3452190D03*
G01*
X2964096Y3452190D03*
G01*
X2710096Y3452190D03*
D10*
G01*
X2329096Y3452190D03*
G01*
X2329096Y3706190D03*
G01*
X2329096Y3960190D03*
G01*
X2329096Y4214190D03*
G01*
X2329096Y4468190D03*
G01*
X2329096Y4722190D03*
G01*
X2329096Y4976190D03*
G01*
X2329096Y5230190D03*
G01*
X2329096Y5484190D03*
G01*
X2329096Y5738190D03*
G01*
X2329096Y6131204D03*
D11*
G01*
X6402900Y5448066D03*
G01*
X6402900Y5948065D03*
G01*
X6402900Y4211934D03*
G01*
X6402900Y4711933D03*
G01*
X6402900Y6684200D03*
G01*
X6402900Y7184199D03*
G01*
X6402900Y2975800D03*
G01*
X6402900Y3475799D03*
G01*
X1720601Y1117600D03*
G01*
X2220600Y1117600D03*
G01*
X3035051Y1117600D03*
G01*
X3535050Y1117600D03*
G01*
X4349501Y1117600D03*
G01*
X4849500Y1117600D03*
D12*
G01*
X1424500Y4737100D03*
G01*
X4370900Y6953250D03*
G01*
X1449900Y2806700D03*
G01*
X6453700Y1587500D03*
D10*
G01*
X2814431Y5156200D03*
G01*
X3126300Y5156200D03*
G01*
X2970375Y5156200D03*
G01*
X3282231Y5156200D03*
G01*
X2808800Y4940300D03*
G01*
X2964743Y4940300D03*
G01*
X3120669Y4940300D03*
G01*
X3276600Y4940300D03*
G01*
X2808800Y4749800D03*
G01*
X2964743Y4749800D03*
G01*
X3120669Y4749800D03*
G01*
X3276600Y4749800D03*
M02*
