G04 Layer: TopLayer*
G04 EasyEDA v6.5.9, 2022-12-22 19:00:11*
G04 6f40e2f5e4d2417a89e148ba27438c90,5dd06754fdd742daa6fe38bf62b7df6b,10*
G04 Gerber Generator version 0.2*
G04 Scale: 100 percent, Rotated: No, Reflected: No *
G04 Dimensions in millimeters *
G04 leading zeros omitted , absolute positions ,4 integer and 5 decimal *
%FSLAX45Y45*%
%MOMM*%

%ADD10C,2.5000*%
%ADD11C,2.0000*%
%ADD12C,3.0000*%
%ADD13C,1.5240*%

%LPD*%
D10*
G01*
X1348308Y6366687D03*
G01*
X1348308Y6866686D03*
G36*
X5350832Y6609758D02*
G01*
X5350832Y6809910D01*
X5600768Y6809910D01*
X5600768Y6609758D01*
G37*
G36*
X5350832Y5348223D02*
G01*
X5350832Y5548376D01*
X5600768Y5548376D01*
X5600768Y5348223D01*
G37*
G36*
X5350832Y4086692D02*
G01*
X5350832Y4286844D01*
X5600768Y4286844D01*
X5600768Y4086692D01*
G37*
G36*
X5350832Y2825158D02*
G01*
X5350832Y3025310D01*
X5600768Y3025310D01*
X5600768Y2825158D01*
G37*
G36*
X1692724Y2118868D02*
G01*
X1892876Y2118868D01*
X1892876Y1868931D01*
X1692724Y1868931D01*
G37*
G36*
X2950024Y2118865D02*
G01*
X3150176Y2118865D01*
X3150176Y1868929D01*
X2950024Y1868929D01*
G37*
G36*
X4207324Y2118865D02*
G01*
X4407476Y2118865D01*
X4407476Y1868929D01*
X4207324Y1868929D01*
G37*
D11*
G01*
X1881708Y5232400D03*
D12*
G01*
X1631721Y5486400D03*
D11*
G01*
X1881708Y5740400D03*
G01*
X3853103Y6131204D03*
G01*
X3853103Y5738190D03*
G01*
X3853103Y5484190D03*
G01*
X3853103Y5230190D03*
G01*
X3853103Y4976190D03*
G01*
X3853103Y4722190D03*
G01*
X3853103Y4468190D03*
G01*
X3853103Y4214190D03*
G01*
X3853103Y3960190D03*
G01*
X3853103Y3706190D03*
G01*
X3853103Y3452190D03*
D13*
G01*
X3472103Y3452190D03*
G01*
X3218103Y3452190D03*
G01*
X2964103Y3452190D03*
G01*
X2710103Y3452190D03*
D11*
G01*
X2329103Y3452190D03*
G01*
X2329103Y3706190D03*
G01*
X2329103Y3960190D03*
G01*
X2329103Y4214190D03*
G01*
X2329103Y4468190D03*
G01*
X2329103Y4722190D03*
G01*
X2329103Y4976190D03*
G01*
X2329103Y5230190D03*
G01*
X2329103Y5484190D03*
G01*
X2329103Y5738190D03*
G01*
X2329103Y6131204D03*
D10*
G01*
X6402908Y5448071D03*
G01*
X6402908Y5948070D03*
G01*
X6402908Y4211929D03*
G01*
X6402908Y4711928D03*
G01*
X6402908Y6684187D03*
G01*
X6402908Y7184186D03*
G01*
X6402908Y2975787D03*
G01*
X6402908Y3475786D03*
G01*
X1720595Y1117600D03*
G01*
X2220595Y1117600D03*
G01*
X3035045Y1117600D03*
G01*
X3535045Y1117600D03*
G01*
X4349495Y1117600D03*
G01*
X4849495Y1117600D03*
D12*
G01*
X1424508Y4737100D03*
G01*
X4370908Y6953250D03*
G01*
X1449908Y2806700D03*
G01*
X6453708Y1587500D03*
D11*
G01*
X2814421Y5156200D03*
G01*
X3126308Y5156200D03*
G01*
X2970377Y5156200D03*
G01*
X3282238Y5156200D03*
G01*
X2808808Y4940300D03*
G01*
X2964738Y4940300D03*
G01*
X3120669Y4940300D03*
G01*
X3276600Y4940300D03*
G01*
X2808808Y4749800D03*
G01*
X2964738Y4749800D03*
G01*
X3120669Y4749800D03*
G01*
X3276600Y4749800D03*
X5450806Y7217841D02*
G01*
X5500809Y7217841D01*
X5450806Y6963841D02*
G01*
X5500809Y6963841D01*
X5450806Y5956300D02*
G01*
X5500809Y5956300D01*
X5450806Y5702300D02*
G01*
X5500809Y5702300D01*
X5450806Y4694758D02*
G01*
X5500809Y4694758D01*
X5450806Y4440758D02*
G01*
X5500809Y4440758D01*
X5450806Y3433241D02*
G01*
X5500809Y3433241D01*
X5450806Y3179241D02*
G01*
X5500809Y3179241D01*
X2300808Y2018898D02*
G01*
X2300808Y1968898D01*
X2046808Y2018898D02*
G01*
X2046808Y1968898D01*
X3558108Y2018898D02*
G01*
X3558108Y1968898D01*
X3304108Y2018898D02*
G01*
X3304108Y1968898D01*
X4815408Y2018898D02*
G01*
X4815408Y1968898D01*
X4561408Y2018898D02*
G01*
X4561408Y1968898D01*
M02*
