G04 Layer: BottomSilkscreenLayer*
G04 EasyEDA v6.5.9, 2022-12-07 18:08:41*
G04 6f40e2f5e4d2417a89e148ba27438c90,5dd06754fdd742daa6fe38bf62b7df6b,10*
G04 Gerber Generator version 0.2*
G04 Scale: 100 percent, Rotated: No, Reflected: No *
G04 Dimensions in millimeters *
G04 leading zeros omitted , absolute positions ,4 integer and 5 decimal *
%FSLAX45Y45*%
%MOMM*%

%ADD10C,0.1524*%
%ADD11C,0.2540*%

%LPD*%
D10*
X2720408Y6961378D02*
G01*
X2730822Y6956044D01*
X2741236Y6945629D01*
X2746316Y6935470D01*
X2746316Y6914642D01*
X2741236Y6904228D01*
X2730822Y6893813D01*
X2720408Y6888479D01*
X2704660Y6883400D01*
X2678752Y6883400D01*
X2663258Y6888479D01*
X2652844Y6893813D01*
X2642430Y6904228D01*
X2637350Y6914642D01*
X2637350Y6935470D01*
X2642430Y6945629D01*
X2652844Y6956044D01*
X2663258Y6961378D01*
X2746316Y7006081D02*
G01*
X2746316Y7063231D01*
X2704660Y7031989D01*
X2704660Y7047484D01*
X2699580Y7057897D01*
X2694500Y7063231D01*
X2678752Y7068312D01*
X2668338Y7068312D01*
X2652844Y7063231D01*
X2642430Y7052818D01*
X2637350Y7037070D01*
X2637350Y7021576D01*
X2642430Y7006081D01*
X2647510Y7000747D01*
X2657924Y6995668D01*
X2401384Y6229281D02*
G01*
X2479362Y6229281D01*
X2494856Y6224201D01*
X2505270Y6213787D01*
X2510350Y6198039D01*
X2510350Y6187625D01*
X2505270Y6172131D01*
X2494856Y6161717D01*
X2479362Y6156637D01*
X2401384Y6156637D01*
X2422212Y6122347D02*
G01*
X2416878Y6111933D01*
X2401384Y6096185D01*
X2510350Y6096185D01*
X2422212Y6061895D02*
G01*
X2416878Y6051481D01*
X2401384Y6035987D01*
X2510350Y6035987D01*
X4358200Y5498084D02*
G01*
X4358200Y5607050D01*
X4358200Y5498084D02*
G01*
X4404936Y5498084D01*
X4420430Y5503163D01*
X4425764Y5508497D01*
X4430844Y5518912D01*
X4430844Y5529326D01*
X4425764Y5539739D01*
X4420430Y5544820D01*
X4404936Y5549900D01*
X4358200Y5549900D01*
X4394522Y5549900D02*
G01*
X4430844Y5607050D01*
X4465134Y5518912D02*
G01*
X4475548Y5513578D01*
X4491296Y5498084D01*
X4491296Y5607050D01*
X4358200Y5244084D02*
G01*
X4358200Y5353050D01*
X4358200Y5244084D02*
G01*
X4404936Y5244084D01*
X4420430Y5249163D01*
X4425764Y5254497D01*
X4430844Y5264912D01*
X4430844Y5275326D01*
X4425764Y5285739D01*
X4420430Y5290820D01*
X4404936Y5295900D01*
X4358200Y5295900D01*
X4394522Y5295900D02*
G01*
X4430844Y5353050D01*
X4470468Y5269992D02*
G01*
X4470468Y5264912D01*
X4475548Y5254497D01*
X4480882Y5249163D01*
X4491296Y5244084D01*
X4511870Y5244084D01*
X4522284Y5249163D01*
X4527618Y5254497D01*
X4532698Y5264912D01*
X4532698Y5275326D01*
X4527618Y5285739D01*
X4517204Y5301234D01*
X4465134Y5353050D01*
X4538032Y5353050D01*
X4358200Y4748784D02*
G01*
X4358200Y4857750D01*
X4358200Y4748784D02*
G01*
X4404936Y4748784D01*
X4420430Y4753863D01*
X4425764Y4759197D01*
X4430844Y4769612D01*
X4430844Y4780026D01*
X4425764Y4790439D01*
X4420430Y4795520D01*
X4404936Y4800600D01*
X4358200Y4800600D01*
X4394522Y4800600D02*
G01*
X4430844Y4857750D01*
X4475548Y4748784D02*
G01*
X4532698Y4748784D01*
X4501710Y4790439D01*
X4517204Y4790439D01*
X4527618Y4795520D01*
X4532698Y4800600D01*
X4538032Y4816347D01*
X4538032Y4826762D01*
X4532698Y4842255D01*
X4522284Y4852670D01*
X4506790Y4857750D01*
X4491296Y4857750D01*
X4475548Y4852670D01*
X4470468Y4847589D01*
X4465134Y4837176D01*
X4358200Y4494784D02*
G01*
X4358200Y4603750D01*
X4358200Y4494784D02*
G01*
X4404936Y4494784D01*
X4420430Y4499863D01*
X4425764Y4505197D01*
X4430844Y4515612D01*
X4430844Y4526026D01*
X4425764Y4536439D01*
X4420430Y4541520D01*
X4404936Y4546600D01*
X4358200Y4546600D01*
X4394522Y4546600D02*
G01*
X4430844Y4603750D01*
X4517204Y4494784D02*
G01*
X4465134Y4567428D01*
X4543112Y4567428D01*
X4517204Y4494784D02*
G01*
X4517204Y4603750D01*
X3177100Y4395215D02*
G01*
X3177100Y4286250D01*
X3177100Y4395215D02*
G01*
X3130364Y4395215D01*
X3114870Y4390136D01*
X3109536Y4384802D01*
X3104456Y4374387D01*
X3104456Y4363973D01*
X3109536Y4353560D01*
X3114870Y4348479D01*
X3130364Y4343400D01*
X3177100Y4343400D01*
X3140778Y4343400D02*
G01*
X3104456Y4286250D01*
X3007682Y4395215D02*
G01*
X3059752Y4395215D01*
X3064832Y4348479D01*
X3059752Y4353560D01*
X3044004Y4358894D01*
X3028510Y4358894D01*
X3013016Y4353560D01*
X3002602Y4343400D01*
X2997268Y4327652D01*
X2997268Y4317237D01*
X3002602Y4301744D01*
X3013016Y4291329D01*
X3028510Y4286250D01*
X3044004Y4286250D01*
X3059752Y4291329D01*
X3064832Y4296410D01*
X3070166Y4306823D01*
X3191659Y4161802D02*
G01*
X3191659Y4052836D01*
X3191659Y4161802D02*
G01*
X3144923Y4161802D01*
X3129429Y4156722D01*
X3124095Y4151388D01*
X3119015Y4140974D01*
X3119015Y4130560D01*
X3124095Y4120146D01*
X3129429Y4115066D01*
X3144923Y4109986D01*
X3191659Y4109986D01*
X3155337Y4109986D02*
G01*
X3119015Y4052836D01*
X3022241Y4146308D02*
G01*
X3027575Y4156722D01*
X3043069Y4161802D01*
X3053483Y4161802D01*
X3068977Y4156722D01*
X3079391Y4140974D01*
X3084725Y4115066D01*
X3084725Y4089158D01*
X3079391Y4068330D01*
X3068977Y4057916D01*
X3053483Y4052836D01*
X3048149Y4052836D01*
X3032655Y4057916D01*
X3022241Y4068330D01*
X3017161Y4083824D01*
X3017161Y4089158D01*
X3022241Y4104652D01*
X3032655Y4115066D01*
X3048149Y4120146D01*
X3053483Y4120146D01*
X3068977Y4115066D01*
X3079391Y4104652D01*
X3084725Y4089158D01*
X3215200Y4014215D02*
G01*
X3215200Y3905250D01*
X3215200Y4014215D02*
G01*
X3168464Y4014215D01*
X3152970Y4009136D01*
X3147636Y4003802D01*
X3142556Y3993387D01*
X3142556Y3982973D01*
X3147636Y3972560D01*
X3152970Y3967479D01*
X3168464Y3962400D01*
X3215200Y3962400D01*
X3178878Y3962400D02*
G01*
X3142556Y3905250D01*
X3035368Y4014215D02*
G01*
X3087438Y3905250D01*
X3108266Y4014215D02*
G01*
X3035368Y4014215D01*
G36*
X2034082Y6699402D02*
G01*
X2084882Y6635902D01*
X2097582Y6629400D01*
X2166874Y6579362D01*
X2206447Y6579362D01*
X2211882Y6584797D01*
X2211882Y6699402D01*
G37*
G36*
X2338882Y6697980D02*
G01*
X2338882Y6578244D01*
X2344318Y6572808D01*
X2383942Y6572808D01*
X2443022Y6624320D01*
X2465882Y6629400D01*
X2516682Y6697980D01*
G37*
D11*
X2211900Y6546850D02*
G01*
X1932500Y6546850D01*
X1932500Y7073900D01*
X2084900Y7226300D01*
X2211900Y7226300D01*
X2338900Y6546850D02*
G01*
X2618300Y6546850D01*
X2618300Y7073900D01*
X2465900Y7226300D01*
X2338900Y7226300D01*
D10*
X2559880Y6094630D02*
G01*
X2559880Y6462013D01*
X3591120Y6094630D02*
G01*
X3591120Y6462013D01*
X2559880Y6462013D02*
G01*
X3591120Y6462013D01*
X4405820Y5832109D02*
G01*
X4534314Y5832109D01*
X4534314Y5648690D01*
X4405820Y5648690D01*
X4310580Y5832109D02*
G01*
X4182087Y5832109D01*
X4182087Y5648690D01*
X4310580Y5648690D01*
X4405820Y5578109D02*
G01*
X4534314Y5578109D01*
X4534314Y5394690D01*
X4405820Y5394690D01*
X4310580Y5578109D02*
G01*
X4182087Y5578109D01*
X4182087Y5394690D01*
X4310580Y5394690D01*
X4405820Y5082809D02*
G01*
X4534314Y5082809D01*
X4534314Y4899390D01*
X4405820Y4899390D01*
X4310580Y5082809D02*
G01*
X4182087Y5082809D01*
X4182087Y4899390D01*
X4310580Y4899390D01*
X4405820Y4828809D02*
G01*
X4534314Y4828809D01*
X4534314Y4645390D01*
X4405820Y4645390D01*
X4310580Y4828809D02*
G01*
X4182087Y4828809D01*
X4182087Y4645390D01*
X4310580Y4645390D01*
X3368921Y4365990D02*
G01*
X3240427Y4365990D01*
X3240427Y4549409D01*
X3368921Y4549409D01*
X3464161Y4365990D02*
G01*
X3592654Y4365990D01*
X3592654Y4549409D01*
X3464161Y4549409D01*
X3370780Y4124690D02*
G01*
X3242287Y4124690D01*
X3242287Y4308109D01*
X3370780Y4308109D01*
X3466020Y4124690D02*
G01*
X3594514Y4124690D01*
X3594514Y4308109D01*
X3466020Y4308109D01*
X3368921Y3883390D02*
G01*
X3240427Y3883390D01*
X3240427Y4066809D01*
X3368921Y4066809D01*
X3464161Y3883390D02*
G01*
X3592654Y3883390D01*
X3592654Y4066809D01*
X3464161Y4066809D01*
D11*
G75*
G01*
X2211901Y6578600D02*
G02*
X2206567Y7194042I64603J308304D01*
G75*
G01*
X2338901Y7188200D02*
G02*
X2344235Y6572758I-64603J-308304D01*
M02*
