G04 Layer: BottomPasteMaskLayer*
G04 EasyEDA v6.5.9, 2022-12-22 19:00:11*
G04 6f40e2f5e4d2417a89e148ba27438c90,5dd06754fdd742daa6fe38bf62b7df6b,10*
G04 Gerber Generator version 0.2*
G04 Scale: 100 percent, Rotated: No, Reflected: No *
G04 Dimensions in millimeters *
G04 leading zeros omitted , absolute positions ,4 integer and 5 decimal *
%FSLAX45Y45*%
%MOMM*%

%ADD10C,0.0001*%

%LPD*%
G36*
X4193184Y5809386D02*
G01*
X4188206Y5804408D01*
X4188206Y5676392D01*
X4193184Y5671413D01*
X4308195Y5671413D01*
X4313174Y5676392D01*
X4313682Y5717387D01*
X4268724Y5717387D01*
X4268724Y5762396D01*
X4312716Y5762396D01*
X4313174Y5804408D01*
X4308195Y5809386D01*
G37*
G36*
X4408220Y5809386D02*
G01*
X4403191Y5804408D01*
X4403191Y5762396D01*
X4447692Y5762396D01*
X4447692Y5717387D01*
X4403699Y5717387D01*
X4403191Y5676392D01*
X4408220Y5671413D01*
X4523181Y5671413D01*
X4528210Y5676392D01*
X4528210Y5804408D01*
X4523181Y5809386D01*
G37*
G36*
X4193184Y5555386D02*
G01*
X4188206Y5550408D01*
X4188206Y5422392D01*
X4193184Y5417413D01*
X4308195Y5417413D01*
X4313174Y5422392D01*
X4313682Y5463387D01*
X4268724Y5463387D01*
X4268724Y5508396D01*
X4312716Y5508396D01*
X4313174Y5550408D01*
X4308195Y5555386D01*
G37*
G36*
X4408220Y5555386D02*
G01*
X4403191Y5550408D01*
X4403191Y5508396D01*
X4447692Y5508396D01*
X4447692Y5463387D01*
X4403699Y5463387D01*
X4403191Y5422392D01*
X4408220Y5417413D01*
X4523181Y5417413D01*
X4528210Y5422392D01*
X4528210Y5550408D01*
X4523181Y5555386D01*
G37*
G36*
X4193184Y5060086D02*
G01*
X4188206Y5055108D01*
X4188206Y4927092D01*
X4193184Y4922113D01*
X4308195Y4922113D01*
X4313174Y4927092D01*
X4313682Y4968087D01*
X4268724Y4968087D01*
X4268724Y5013096D01*
X4312716Y5013096D01*
X4313174Y5055108D01*
X4308195Y5060086D01*
G37*
G36*
X4408220Y5060086D02*
G01*
X4403191Y5055108D01*
X4403191Y5013096D01*
X4447692Y5013096D01*
X4447692Y4968087D01*
X4403699Y4968087D01*
X4403191Y4927092D01*
X4408220Y4922113D01*
X4523181Y4922113D01*
X4528210Y4927092D01*
X4528210Y5055108D01*
X4523181Y5060086D01*
G37*
G36*
X4193184Y4806086D02*
G01*
X4188206Y4801108D01*
X4188206Y4673092D01*
X4193184Y4668113D01*
X4308195Y4668113D01*
X4313174Y4673092D01*
X4313682Y4714087D01*
X4268724Y4714087D01*
X4268724Y4759096D01*
X4312716Y4759096D01*
X4313174Y4801108D01*
X4308195Y4806086D01*
G37*
G36*
X4408220Y4806086D02*
G01*
X4403191Y4801108D01*
X4403191Y4759096D01*
X4447692Y4759096D01*
X4447692Y4714087D01*
X4403699Y4714087D01*
X4403191Y4673092D01*
X4408220Y4668113D01*
X4523181Y4668113D01*
X4528210Y4673092D01*
X4528210Y4801108D01*
X4523181Y4806086D01*
G37*
G36*
X3466541Y4526686D02*
G01*
X3461562Y4521708D01*
X3461054Y4480712D01*
X3506063Y4480712D01*
X3506063Y4435703D01*
X3462020Y4435703D01*
X3461562Y4393692D01*
X3466541Y4388713D01*
X3581552Y4388713D01*
X3586530Y4393692D01*
X3586530Y4521708D01*
X3581552Y4526686D01*
G37*
G36*
X3251555Y4526686D02*
G01*
X3246526Y4521708D01*
X3246526Y4393692D01*
X3251555Y4388713D01*
X3366566Y4388713D01*
X3371545Y4393692D01*
X3371545Y4435703D01*
X3327044Y4435703D01*
X3327044Y4480712D01*
X3371037Y4480712D01*
X3371545Y4521708D01*
X3366566Y4526686D01*
G37*
G36*
X3468420Y4285386D02*
G01*
X3463391Y4280408D01*
X3462883Y4239412D01*
X3507892Y4239412D01*
X3507892Y4194403D01*
X3463899Y4194403D01*
X3463391Y4152392D01*
X3468420Y4147413D01*
X3583381Y4147413D01*
X3588410Y4152392D01*
X3588410Y4280408D01*
X3583381Y4285386D01*
G37*
G36*
X3253384Y4285386D02*
G01*
X3248406Y4280408D01*
X3248406Y4152392D01*
X3253384Y4147413D01*
X3368395Y4147413D01*
X3373424Y4152392D01*
X3373374Y4194403D01*
X3328924Y4194403D01*
X3328924Y4239412D01*
X3372916Y4239412D01*
X3373424Y4280408D01*
X3368395Y4285386D01*
G37*
G36*
X3466541Y4044086D02*
G01*
X3461562Y4039108D01*
X3461054Y3998112D01*
X3506063Y3998112D01*
X3506063Y3953103D01*
X3462020Y3953103D01*
X3461562Y3911092D01*
X3466541Y3906113D01*
X3581552Y3906113D01*
X3586530Y3911092D01*
X3586530Y4039108D01*
X3581552Y4044086D01*
G37*
G36*
X3251555Y4044086D02*
G01*
X3246526Y4039108D01*
X3246526Y3911092D01*
X3251555Y3906113D01*
X3366566Y3906113D01*
X3371545Y3911092D01*
X3371545Y3953103D01*
X3327044Y3953103D01*
X3327044Y3998112D01*
X3371037Y3998112D01*
X3371545Y4039108D01*
X3366566Y4044086D01*
G37*
G36*
X2315400Y6489400D02*
G01*
X2315400Y6769399D01*
X2235400Y6769399D01*
X2235400Y6489400D01*
G37*
G36*
X2315400Y6997400D02*
G01*
X2315400Y7277399D01*
X2235400Y7277399D01*
X2235400Y6997400D01*
G37*
G36*
X2870499Y6781690D02*
G01*
X2772501Y6781690D01*
X2772501Y7111098D01*
X2870499Y7111098D01*
G37*
G36*
X3378499Y6781690D02*
G01*
X3280501Y6781690D01*
X3280501Y7111098D01*
X3378499Y7111098D01*
G37*
G36*
X2547180Y5326184D02*
G01*
X3603820Y5326184D01*
X3603820Y6079390D01*
X2547180Y6079390D01*
G37*
M02*
