G04 Layer: BottomSolderMaskLayer*
G04 EasyEDA v6.5.9, 2022-12-22 19:00:11*
G04 6f40e2f5e4d2417a89e148ba27438c90,5dd06754fdd742daa6fe38bf62b7df6b,10*
G04 Gerber Generator version 0.2*
G04 Scale: 100 percent, Rotated: No, Reflected: No *
G04 Dimensions in millimeters *
G04 leading zeros omitted , absolute positions ,4 integer and 5 decimal *
%FSLAX45Y45*%
%MOMM*%

%ADD10C,2.1016*%
%ADD11C,2.6016*%
%ADD12C,3.1016*%
%ADD13C,1.6256*%

%LPD*%
D10*
X5450806Y7217841D02*
G01*
X5500809Y7217841D01*
X5450806Y6963841D02*
G01*
X5500809Y6963841D01*
X5450806Y5956300D02*
G01*
X5500809Y5956300D01*
X5450806Y5702300D02*
G01*
X5500809Y5702300D01*
X5450806Y4694758D02*
G01*
X5500809Y4694758D01*
X5450806Y4440758D02*
G01*
X5500809Y4440758D01*
X5450806Y3433241D02*
G01*
X5500809Y3433241D01*
X5450806Y3179241D02*
G01*
X5500809Y3179241D01*
X2300808Y2018898D02*
G01*
X2300808Y1968898D01*
X2046808Y2018898D02*
G01*
X2046808Y1968898D01*
X3558108Y2018898D02*
G01*
X3558108Y1968898D01*
X3304108Y2018898D02*
G01*
X3304108Y1968898D01*
X4815408Y2018898D02*
G01*
X4815408Y1968898D01*
X4561408Y2018898D02*
G01*
X4561408Y1968898D01*
G36*
X2225293Y6479286D02*
G01*
X2225293Y6779513D01*
X2325624Y6779513D01*
X2325624Y6479286D01*
G37*
G36*
X2225293Y6987286D02*
G01*
X2225293Y7287513D01*
X2325624Y7287513D01*
X2325624Y6987286D01*
G37*
G36*
X2767329Y6776720D02*
G01*
X2767329Y7116063D01*
X2875534Y7116063D01*
X2875534Y6776720D01*
G37*
G36*
X3275329Y6776720D02*
G01*
X3275329Y7116063D01*
X3383534Y7116063D01*
X3383534Y6776720D01*
G37*
G36*
X2542031Y5321045D02*
G01*
X2542031Y6084570D01*
X3608831Y6084570D01*
X3608831Y5321045D01*
G37*
G36*
X4396486Y5666486D02*
G01*
X4396486Y5814313D01*
X4519929Y5814313D01*
X4519929Y5666486D01*
G37*
G36*
X4196588Y5666486D02*
G01*
X4196588Y5814313D01*
X4319777Y5814313D01*
X4319777Y5666486D01*
G37*
G36*
X4396486Y5412486D02*
G01*
X4396486Y5560313D01*
X4519929Y5560313D01*
X4519929Y5412486D01*
G37*
G36*
X4196588Y5412486D02*
G01*
X4196588Y5560313D01*
X4319777Y5560313D01*
X4319777Y5412486D01*
G37*
G36*
X4396486Y4917186D02*
G01*
X4396486Y5065013D01*
X4519929Y5065013D01*
X4519929Y4917186D01*
G37*
G36*
X4196588Y4917186D02*
G01*
X4196588Y5065013D01*
X4319777Y5065013D01*
X4319777Y4917186D01*
G37*
G36*
X4396486Y4663186D02*
G01*
X4396486Y4811013D01*
X4519929Y4811013D01*
X4519929Y4663186D01*
G37*
G36*
X4196588Y4663186D02*
G01*
X4196588Y4811013D01*
X4319777Y4811013D01*
X4319777Y4663186D01*
G37*
G36*
X3254756Y4383786D02*
G01*
X3254756Y4531613D01*
X3378200Y4531613D01*
X3378200Y4383786D01*
G37*
G36*
X3454908Y4383786D02*
G01*
X3454908Y4531613D01*
X3578352Y4531613D01*
X3578352Y4383786D01*
G37*
G36*
X3256788Y4142486D02*
G01*
X3256788Y4290313D01*
X3379977Y4290313D01*
X3379977Y4142486D01*
G37*
G36*
X3456686Y4142486D02*
G01*
X3456686Y4290313D01*
X3580129Y4290313D01*
X3580129Y4142486D01*
G37*
G36*
X3254756Y3901186D02*
G01*
X3254756Y4049013D01*
X3378200Y4049013D01*
X3378200Y3901186D01*
G37*
G36*
X3454908Y3901186D02*
G01*
X3454908Y4049013D01*
X3578352Y4049013D01*
X3578352Y3901186D01*
G37*
D11*
G01*
X1348308Y6366687D03*
G01*
X1348308Y6866686D03*
G36*
X5345684Y6604762D02*
G01*
X5345684Y6815073D01*
X5605779Y6815073D01*
X5605779Y6604762D01*
G37*
G36*
X5345684Y5343144D02*
G01*
X5345684Y5553455D01*
X5605779Y5553455D01*
X5605779Y5343144D01*
G37*
G36*
X5345684Y4081526D02*
G01*
X5345684Y4291837D01*
X5605779Y4291837D01*
X5605779Y4081526D01*
G37*
G36*
X5345684Y2820162D02*
G01*
X5345684Y3030473D01*
X5605779Y3030473D01*
X5605779Y2820162D01*
G37*
G36*
X1687576Y1863852D02*
G01*
X1687576Y2123947D01*
X1897887Y2123947D01*
X1897887Y1863852D01*
G37*
G36*
X2944875Y1863852D02*
G01*
X2944875Y2123947D01*
X3155188Y2123947D01*
X3155188Y1863852D01*
G37*
G36*
X4202175Y1863852D02*
G01*
X4202175Y2123947D01*
X4412488Y2123947D01*
X4412488Y1863852D01*
G37*
D10*
G01*
X1881708Y5232400D03*
D12*
G01*
X1631721Y5486400D03*
D10*
G01*
X1881708Y5740400D03*
G01*
X3853103Y6131204D03*
G01*
X3853103Y5738190D03*
G01*
X3853103Y5484190D03*
G01*
X3853103Y5230190D03*
G01*
X3853103Y4976190D03*
G01*
X3853103Y4722190D03*
G01*
X3853103Y4468190D03*
G01*
X3853103Y4214190D03*
G01*
X3853103Y3960190D03*
G01*
X3853103Y3706190D03*
G01*
X3853103Y3452190D03*
D13*
G01*
X3472103Y3452190D03*
G01*
X3218103Y3452190D03*
G01*
X2964103Y3452190D03*
G01*
X2710103Y3452190D03*
D10*
G01*
X2329103Y3452190D03*
G01*
X2329103Y3706190D03*
G01*
X2329103Y3960190D03*
G01*
X2329103Y4214190D03*
G01*
X2329103Y4468190D03*
G01*
X2329103Y4722190D03*
G01*
X2329103Y4976190D03*
G01*
X2329103Y5230190D03*
G01*
X2329103Y5484190D03*
G01*
X2329103Y5738190D03*
G01*
X2329103Y6131204D03*
D11*
G01*
X6402908Y5448071D03*
G01*
X6402908Y5948070D03*
G01*
X6402908Y4211929D03*
G01*
X6402908Y4711928D03*
G01*
X6402908Y6684187D03*
G01*
X6402908Y7184186D03*
G01*
X6402908Y2975787D03*
G01*
X6402908Y3475786D03*
G01*
X1720595Y1117600D03*
G01*
X2220595Y1117600D03*
G01*
X3035045Y1117600D03*
G01*
X3535045Y1117600D03*
G01*
X4349495Y1117600D03*
G01*
X4849495Y1117600D03*
D12*
G01*
X1424508Y4737100D03*
G01*
X4370908Y6953250D03*
G01*
X1449908Y2806700D03*
G01*
X6453708Y1587500D03*
D10*
G01*
X2814421Y5156200D03*
G01*
X3126308Y5156200D03*
G01*
X2970377Y5156200D03*
G01*
X3282238Y5156200D03*
G01*
X2808808Y4940300D03*
G01*
X2964738Y4940300D03*
G01*
X3120669Y4940300D03*
G01*
X3276600Y4940300D03*
G01*
X2808808Y4749800D03*
G01*
X2964738Y4749800D03*
G01*
X3120669Y4749800D03*
G01*
X3276600Y4749800D03*
M02*
