G04 Layer: TopLayer*
G04 EasyEDA v6.5.9, 2022-12-07 18:08:41*
G04 6f40e2f5e4d2417a89e148ba27438c90,5dd06754fdd742daa6fe38bf62b7df6b,10*
G04 Gerber Generator version 0.2*
G04 Scale: 100 percent, Rotated: No, Reflected: No *
G04 Dimensions in millimeters *
G04 leading zeros omitted , absolute positions ,4 integer and 5 decimal *
%FSLAX45Y45*%
%MOMM*%

%ADD10C,2.5000*%
%ADD11C,2.0000*%
%ADD12C,3.0000*%
%ADD13C,1.5240*%

%LPD*%
D10*
G01*
X1348300Y6366700D03*
G01*
X1348300Y6866699D03*
G36*
X5350832Y6609758D02*
G01*
X5350832Y6809910D01*
X5600768Y6809910D01*
X5600768Y6609758D01*
G37*
G36*
X5350832Y5348223D02*
G01*
X5350832Y5548376D01*
X5600768Y5548376D01*
X5600768Y5348223D01*
G37*
G36*
X5350832Y4086692D02*
G01*
X5350832Y4286844D01*
X5600768Y4286844D01*
X5600768Y4086692D01*
G37*
G36*
X5350832Y2825158D02*
G01*
X5350832Y3025310D01*
X5600768Y3025310D01*
X5600768Y2825158D01*
G37*
G36*
X1692724Y2118868D02*
G01*
X1892876Y2118868D01*
X1892876Y1868931D01*
X1692724Y1868931D01*
G37*
G36*
X2950024Y2118865D02*
G01*
X3150176Y2118865D01*
X3150176Y1868929D01*
X2950024Y1868929D01*
G37*
G36*
X4207324Y2118865D02*
G01*
X4407476Y2118865D01*
X4407476Y1868929D01*
X4207324Y1868929D01*
G37*
D11*
G01*
X1881700Y5232400D03*
D12*
G01*
X1631713Y5486400D03*
D11*
G01*
X1881700Y5740400D03*
G01*
X3853096Y6131204D03*
G01*
X3853096Y5738190D03*
G01*
X3853096Y5484190D03*
G01*
X3853096Y5230190D03*
G01*
X3853096Y4976190D03*
G01*
X3853096Y4722190D03*
G01*
X3853096Y4468190D03*
G01*
X3853096Y4214190D03*
G01*
X3853096Y3960190D03*
G01*
X3853096Y3706190D03*
G01*
X3853096Y3452190D03*
D13*
G01*
X3472096Y3452190D03*
G01*
X3218096Y3452190D03*
G01*
X2964096Y3452190D03*
G01*
X2710096Y3452190D03*
D11*
G01*
X2329096Y3452190D03*
G01*
X2329096Y3706190D03*
G01*
X2329096Y3960190D03*
G01*
X2329096Y4214190D03*
G01*
X2329096Y4468190D03*
G01*
X2329096Y4722190D03*
G01*
X2329096Y4976190D03*
G01*
X2329096Y5230190D03*
G01*
X2329096Y5484190D03*
G01*
X2329096Y5738190D03*
G01*
X2329096Y6131204D03*
D10*
G01*
X6402900Y5448066D03*
G01*
X6402900Y5948065D03*
G01*
X6402900Y4211934D03*
G01*
X6402900Y4711933D03*
G01*
X6402900Y6684200D03*
G01*
X6402900Y7184199D03*
G01*
X6402900Y2975800D03*
G01*
X6402900Y3475799D03*
G01*
X1720601Y1117600D03*
G01*
X2220600Y1117600D03*
G01*
X3035051Y1117600D03*
G01*
X3535050Y1117600D03*
G01*
X4349501Y1117600D03*
G01*
X4849500Y1117600D03*
D12*
G01*
X1424500Y4737100D03*
G01*
X4370900Y6953250D03*
G01*
X1449900Y2806700D03*
G01*
X6453700Y1587500D03*
D11*
G01*
X2814431Y5156200D03*
G01*
X3126300Y5156200D03*
G01*
X2970375Y5156200D03*
G01*
X3282231Y5156200D03*
G01*
X2808800Y4940300D03*
G01*
X2964743Y4940300D03*
G01*
X3120669Y4940300D03*
G01*
X3276600Y4940300D03*
G01*
X2808800Y4749800D03*
G01*
X2964743Y4749800D03*
G01*
X3120669Y4749800D03*
G01*
X3276600Y4749800D03*
X5450799Y7217834D02*
G01*
X5500799Y7217834D01*
X5450799Y6963834D02*
G01*
X5500799Y6963834D01*
X5450799Y5956300D02*
G01*
X5500799Y5956300D01*
X5450799Y5702300D02*
G01*
X5500799Y5702300D01*
X5450799Y4694768D02*
G01*
X5500799Y4694768D01*
X5450799Y4440768D02*
G01*
X5500799Y4440768D01*
X5450799Y3433234D02*
G01*
X5500799Y3433234D01*
X5450799Y3179234D02*
G01*
X5500799Y3179234D01*
X2300800Y2018901D02*
G01*
X2300800Y1968901D01*
X2046800Y2018901D02*
G01*
X2046800Y1968901D01*
X3558100Y2018898D02*
G01*
X3558100Y1968898D01*
X3304100Y2018898D02*
G01*
X3304100Y1968898D01*
X4815400Y2018898D02*
G01*
X4815400Y1968898D01*
X4561400Y2018898D02*
G01*
X4561400Y1968898D01*
M02*
